%TF.GenerationSoftware,KiCad,Pcbnew,9.0.4*%
%TF.CreationDate,2026-01-10T18:56:52-06:00*%
%TF.ProjectId,PS-ChargerInterfacePCB,50532d43-6861-4726-9765-72496e746572,rev?*%
%TF.SameCoordinates,Original*%
%TF.FileFunction,Soldermask,Bot*%
%TF.FilePolarity,Negative*%
%FSLAX46Y46*%
G04 Gerber Fmt 4.6, Leading zero omitted, Abs format (unit mm)*
G04 Created by KiCad (PCBNEW 9.0.4) date 2026-01-10 18:56:52*
%MOMM*%
%LPD*%
G01*
G04 APERTURE LIST*
G04 Aperture macros list*
%AMRoundRect*
0 Rectangle with rounded corners*
0 $1 Rounding radius*
0 $2 $3 $4 $5 $6 $7 $8 $9 X,Y pos of 4 corners*
0 Add a 4 corners polygon primitive as box body*
4,1,4,$2,$3,$4,$5,$6,$7,$8,$9,$2,$3,0*
0 Add four circle primitives for the rounded corners*
1,1,$1+$1,$2,$3*
1,1,$1+$1,$4,$5*
1,1,$1+$1,$6,$7*
1,1,$1+$1,$8,$9*
0 Add four rect primitives between the rounded corners*
20,1,$1+$1,$2,$3,$4,$5,0*
20,1,$1+$1,$4,$5,$6,$7,0*
20,1,$1+$1,$6,$7,$8,$9,0*
20,1,$1+$1,$8,$9,$2,$3,0*%
%AMFreePoly0*
4,1,22,0.945671,0.830970,1.026777,0.776777,1.080970,0.695671,1.100000,0.600000,1.100000,-0.600000,1.080970,-0.695671,1.026777,-0.776777,0.945671,-0.830970,0.850000,-0.850000,-0.450000,-0.850000,-0.545671,-0.830970,-0.626777,-0.776777,-1.026777,-0.376777,-1.080970,-0.295671,-1.100000,-0.200000,-1.100000,0.600000,-1.080970,0.695671,-1.026777,0.776777,-0.945671,0.830970,-0.850000,0.850000,
0.850000,0.850000,0.945671,0.830970,0.945671,0.830970,$1*%
G04 Aperture macros list end*
%ADD10C,3.000000*%
%ADD11C,1.500000*%
%ADD12C,3.400000*%
%ADD13C,6.000000*%
%ADD14C,1.524000*%
%ADD15C,1.300000*%
%ADD16C,1.800000*%
%ADD17RoundRect,0.250000X-0.850000X-0.600000X0.850000X-0.600000X0.850000X0.600000X-0.850000X0.600000X0*%
%ADD18O,2.200000X1.700000*%
%ADD19C,1.752600*%
%ADD20C,2.400000*%
%ADD21FreePoly0,90.000000*%
%ADD22O,1.700000X2.200000*%
%ADD23C,1.346200*%
%ADD24FreePoly0,0.000000*%
%ADD25RoundRect,0.250000X0.600000X-0.850000X0.600000X0.850000X-0.600000X0.850000X-0.600000X-0.850000X0*%
%ADD26C,1.100000*%
%ADD27C,2.085000*%
%ADD28RoundRect,0.250000X0.362500X1.425000X-0.362500X1.425000X-0.362500X-1.425000X0.362500X-1.425000X0*%
G04 APERTURE END LIST*
D10*
%TO.C,U1*%
X67560000Y-77080000D03*
X67560000Y-111580000D03*
X117060000Y-77080000D03*
X117060000Y-111580000D03*
%TD*%
D11*
%TO.C,Gate2*%
X71100000Y-117600000D03*
%TD*%
D10*
%TO.C,24V_OUT1*%
X132600000Y-87200000D03*
%TD*%
%TO.C,+24V_IN1*%
X132600000Y-82700000D03*
%TD*%
D12*
%TO.C,H1*%
X62800000Y-45200000D03*
D13*
X62800000Y-45200000D03*
%TD*%
D14*
%TO.C,Logic_Analyzer1*%
X121750000Y-54900000D03*
X121750000Y-57440000D03*
X124290000Y-54900000D03*
X124290000Y-57440000D03*
X126830000Y-54900000D03*
X126830000Y-57440000D03*
X129370000Y-54900000D03*
X129370000Y-57440000D03*
X131910000Y-54900000D03*
X131910000Y-57440000D03*
%TD*%
D15*
%TO.C,Buzzer1*%
X126360000Y-101150000D03*
D16*
X127700000Y-99900000D03*
X127700000Y-102400000D03*
%TD*%
D12*
%TO.C,H2*%
X132400000Y-45400000D03*
D13*
X132400000Y-45400000D03*
%TD*%
D10*
%TO.C,+14V1*%
X133100000Y-99900000D03*
%TD*%
D11*
%TO.C,SW1*%
X88700000Y-117600000D03*
%TD*%
%TO.C,FB1*%
X74500000Y-117600000D03*
%TD*%
D15*
%TO.C,Elcon1*%
X125410707Y-112650000D03*
D17*
X126750707Y-108900000D03*
D18*
X126750707Y-111400000D03*
X126750707Y-113900000D03*
X126750707Y-116400000D03*
%TD*%
D10*
%TO.C,GND1*%
X133200000Y-50900000D03*
%TD*%
%TO.C,+24V1*%
X133150000Y-66200000D03*
%TD*%
D19*
%TO.C,Panel_LED801*%
X73300000Y-60800000D03*
X73300000Y-58300000D03*
X73300000Y-55800000D03*
X73300000Y-53300000D03*
X73300000Y-50800000D03*
X70800000Y-60800000D03*
X70800000Y-58300000D03*
X70800000Y-55800000D03*
X70800000Y-53300000D03*
X70800000Y-50800000D03*
%TD*%
D20*
%TO.C,U2*%
X127800000Y-82030000D03*
X124400000Y-82030000D03*
X127800000Y-91950000D03*
X124400000Y-91950000D03*
%TD*%
D11*
%TO.C,VCC1*%
X85100000Y-117650707D03*
%TD*%
%TO.C,OV2*%
X64200000Y-117600000D03*
%TD*%
D15*
%TO.C,Estop1*%
X123139886Y-46940000D03*
D21*
X121889886Y-45600000D03*
D22*
X124389886Y-45600000D03*
%TD*%
D11*
%TO.C,TP_FETConn1*%
X111000000Y-117650000D03*
%TD*%
D23*
%TO.C,EVSE1*%
X66120000Y-69060000D03*
D19*
X64780000Y-70310000D03*
X64780000Y-67810000D03*
X64780000Y-65310000D03*
%TD*%
D11*
%TO.C,TP_FETConn2*%
X67700000Y-117600000D03*
%TD*%
%TO.C,COMP1*%
X77900000Y-117600000D03*
%TD*%
%TO.C,Vcap1*%
X114449552Y-117650000D03*
%TD*%
D15*
%TO.C,J9*%
X131991522Y-74444397D03*
D24*
X133331522Y-73194397D03*
D18*
X133331522Y-75694397D03*
%TD*%
D10*
%TO.C,+14V2*%
X98650000Y-117750000D03*
%TD*%
D11*
%TO.C,ILIM1*%
X81500000Y-117600000D03*
%TD*%
D12*
%TO.C,H3*%
X132400000Y-116800000D03*
D13*
X132400000Y-116800000D03*
%TD*%
D11*
%TO.C,EN/UVLO1*%
X94900000Y-117650000D03*
%TD*%
%TO.C,Gate1*%
X102550000Y-117650000D03*
%TD*%
%TO.C,BOOT1*%
X92000000Y-117600000D03*
%TD*%
D10*
%TO.C,+3V3*%
X128600000Y-50900000D03*
%TD*%
%TO.C,RPP_EN1*%
X106450000Y-117825000D03*
%TD*%
D11*
%TO.C,Vcap2*%
X60800000Y-117600000D03*
%TD*%
%TO.C,TP3*%
X74200000Y-71000000D03*
%TD*%
%TO.C,OV1*%
X118900000Y-117650000D03*
%TD*%
%TO.C,TP2*%
X71200000Y-71000000D03*
%TD*%
D15*
%TO.C,Elcon2*%
X124600000Y-67210000D03*
D25*
X120850000Y-65870000D03*
D22*
X123350000Y-65870000D03*
X125850000Y-65870000D03*
X128350000Y-65870000D03*
%TD*%
D11*
%TO.C,TP4*%
X74000000Y-67500000D03*
%TD*%
%TO.C,TP1*%
X71050000Y-67450000D03*
%TD*%
D26*
%TO.C,DS1*%
X108070000Y-66770000D03*
X106570000Y-66770000D03*
X105070000Y-66770000D03*
X103570000Y-66770000D03*
X102070000Y-66770000D03*
X100570000Y-66770000D03*
X99070000Y-66770000D03*
X97570000Y-66770000D03*
X96070000Y-66770000D03*
X94570000Y-66770000D03*
X93070000Y-66770000D03*
X91570000Y-66770000D03*
X90070000Y-66770000D03*
X88570000Y-66770000D03*
X87070000Y-66770000D03*
X85570000Y-66770000D03*
X84070000Y-66770000D03*
D27*
X113370000Y-64730000D03*
X78770000Y-64730000D03*
D15*
X116170000Y-66920000D03*
X75970000Y-66920000D03*
X75970000Y-43820000D03*
X116170000Y-43820000D03*
%TD*%
D28*
%TO.C,R29*%
X115540000Y-98860000D03*
X109615000Y-98860000D03*
%TD*%
M02*
