M48
; DRILL file {KiCad 9.0.4} date 2026-01-12T01:51:10-0600
; FORMAT={-:-/ absolute / inch / decimal}
; #@! TF.CreationDate,2026-01-12T01:51:10-06:00
; #@! TF.GenerationSoftware,Kicad,Pcbnew,9.0.4
; #@! TF.FileFunction,Plated,1,2,PTH
FMAT,2
INCH
; #@! TA.AperFunction,Plated,PTH,ViaDrill
T1C0.0118
; #@! TA.AperFunction,Plated,PTH,ViaDrill
T2C0.0157
; #@! TA.AperFunction,Plated,PTH,ViaDrill
T3C0.0197
; #@! TA.AperFunction,Plated,PTH,ComponentDrill
T4C0.0236
; #@! TA.AperFunction,Plated,PTH,ComponentDrill
T5C0.0276
; #@! TA.AperFunction,Plated,PTH,ComponentDrill
T6C0.0315
; #@! TA.AperFunction,Plated,PTH,ComponentDrill
T7C0.0400
; #@! TA.AperFunction,Plated,PTH,ComponentDrill
T8C0.0472
; #@! TA.AperFunction,Plated,PTH,ComponentDrill
T9C0.0490
; #@! TA.AperFunction,Plated,PTH,ComponentDrill
T10C0.0591
; #@! TA.AperFunction,Plated,PTH,ComponentDrill
T11C0.0630
; #@! TA.AperFunction,Plated,PTH,ComponentDrill
T12C0.1181
; #@! TA.AperFunction,Plated,PTH,ComponentDrill
T13C0.1260
%
G90
G05
T1
X2.374Y-2.9488
X2.3976Y-2.9055
X2.4016Y-2.9961
X2.4291Y-2.8583
X2.4291Y-2.9488
X2.4291Y-3.0315
X2.9921Y-2.1417
X2.9921Y-2.3425
X2.9961Y-2.0433
X2.9961Y-2.2441
X3.0039Y-2.8091
X3.0118Y-1.9016
X3.0433Y-2.1417
X3.0512Y-1.8661
X3.0512Y-2.0276
X3.0551Y-2.2441
X3.0551Y-2.3425
X3.0827Y-1.9921
X3.0906Y-1.8268
X3.0945Y-2.1417
X3.1063Y-2.2441
X3.1102Y-2.3425
X3.1181Y-1.9528
X3.1378Y-1.7913
X3.1575Y-1.8819
X3.185Y-2.0315
X3.1969Y-3.9567
X3.2047Y-2.1654
X3.2087Y-2.0748
X3.2126Y-1.9252
X3.2126Y-3.062
X3.2244Y-2.2244
X3.2283Y-3.9134
X3.2283Y-4.0039
X3.2362Y-2.8976
X3.2441Y-3.062
X3.252Y-1.8976
X3.2559Y-2.0512
X3.2559Y-3.9567
X3.2677Y-2.2047
X3.2953Y-2.8937
X3.2953Y-4.1929
X3.2992Y-3.8504
X3.315Y-1.7283
X3.3307Y-4.1614
X3.3346Y-3.063
X3.3386Y-4.0
X3.3543Y-4.1929
X3.374Y-1.7283
X3.3819Y-4.1614
X3.3858Y-2.3465
X3.3858Y-3.752
X3.4055Y-4.1929
X3.4213Y-2.8031
X3.4291Y-3.752
X3.4291Y-4.1614
X3.4331Y-1.7283
X3.4567Y-3.7087
X3.4567Y-4.1929
X3.4764Y-3.752
X3.4803Y-2.3465
X3.4803Y-4.1614
X3.4882Y-2.7795
X3.5079Y-3.7087
X3.5217Y-3.3996
X3.5551Y-3.6102
X3.561Y-3.8622
X3.5787Y-4.4291
X3.6024Y-3.6102
X3.626Y-4.4291
X3.6457Y-3.8563
X3.6496Y-3.6102
X3.6654Y-4.4291
X3.7008Y-3.6102
X3.7008Y-4.4291
X3.7395Y-3.9374
X3.7963Y-3.0878
X3.7972Y-4.3346
X3.8278Y-3.0472
X3.8317Y-3.9222
X3.8465Y-2.9173
X3.8917Y-3.0502
X3.9173Y-3.2598
X3.9469Y-2.9094
X3.9843Y-3.0354
X3.996Y-3.5748
X4.0039Y-3.5
X4.0079Y-2.9094
X4.0157Y-3.0866
X4.0669Y-3.5039
X4.126Y-3.5039
X4.1693Y-3.2953
X4.2126Y-3.248
X4.2559Y-3.3346
X4.2638Y-4.0984
X4.2697Y-4.439
X4.2756Y-4.3701
X4.2795Y-4.2126
X4.2953Y-4.4055
X4.315Y-4.3701
X4.3386Y-4.1378
X4.3386Y-4.4055
X4.3449Y-4.0866
X4.4409Y-3.0354
X4.4639Y-3.1994
X4.4685Y-3.3858
X4.4725Y-4.2679
X4.5039Y-2.9291
X4.5512Y-4.5394
X4.5748Y-4.5748
X4.5945Y-4.5394
X4.6181Y-4.5748
X4.6378Y-4.5394
X4.6614Y-4.5748
X4.685Y-4.5394
X4.7323Y-2.9331
X4.7323Y-3.5512
X4.7559Y-3.0157
X4.7559Y-3.4213
X4.7559Y-3.5
X4.7927Y-3.4567
X4.7953Y-2.685
X4.7953Y-3.374
X4.7992Y-4.4252
X4.7992Y-4.4724
X4.8228Y-4.3504
X4.8228Y-4.5079
X4.8386Y-4.4724
X4.8406Y-2.685
X4.8425Y-2.5118
X4.8504Y-4.378
X4.8504Y-4.5394
X4.8583Y-2.8268
X4.8701Y-4.5079
X4.874Y-4.3504
X4.8858Y-2.5118
X4.8976Y-4.378
X4.8976Y-4.5394
X4.9134Y-4.6732
X4.9213Y-4.3504
X4.937Y-2.752
X4.937Y-4.7165
X4.9409Y-2.5118
X4.9528Y-2.8268
X4.9685Y-4.6732
X4.9843Y-2.7874
X4.9961Y-4.7165
X5.0Y-3.815
X5.0197Y-4.6732
X5.0276Y-3.8504
X5.0354Y-2.752
X5.0394Y-2.8268
X5.0512Y-3.815
X5.0551Y-4.7165
X5.0709Y-4.3543
X5.0709Y-4.4016
X5.0709Y-4.6732
X5.0787Y-2.7854
X5.0906Y-3.8504
X5.1142Y-4.7165
X5.1181Y-4.0197
X5.1181Y-4.0551
X5.1181Y-4.0866
X5.126Y-4.4567
X5.1457Y-4.4055
X5.1594Y-3.5787
X5.1654Y-4.0197
X5.1654Y-4.0551
X5.1654Y-4.0866
X5.1693Y-2.7874
X5.1732Y-2.4488
X5.189Y-4.3583
X5.189Y-4.4567
X5.1929Y-2.4134
X5.1969Y-2.4843
X5.2165Y-2.4488
X5.2264Y-2.7461
X5.2323Y-4.4055
X5.2402Y-2.4134
X5.2402Y-2.4843
X5.2559Y-2.7874
X5.2598Y-2.4488
X5.2638Y-3.6969
X5.2657Y-2.7067
X5.2717Y-4.0197
X5.2756Y-4.3583
X5.2756Y-4.4567
X5.2835Y-2.4843
X5.2874Y-2.4134
X5.2992Y-2.4488
X5.3051Y-2.7461
X5.3071Y-4.0197
X5.3189Y-4.4055
X5.3425Y-3.9055
X5.3425Y-3.9488
X5.3425Y-3.9843
X5.3425Y-4.0197
T2
X3.4303Y-4.0032
X3.7752Y-3.815
X3.8583Y-4.3425
X3.9291Y-4.3465
X4.1496Y-3.8465
X4.1496Y-3.9016
X4.1496Y-3.9567
X4.1496Y-4.0079
X4.2047Y-3.9016
X4.2047Y-3.9567
X4.2047Y-4.0079
X4.2059Y-3.8476
X4.2598Y-3.9016
X4.2598Y-4.0079
X4.2606Y-3.8465
X4.2618Y-3.9567
X4.3356Y-4.3297
X4.4508Y-4.4528
X4.6063Y-3.8425
X4.6063Y-3.9094
X4.6063Y-3.9807
X4.6063Y-4.0551
X4.6673Y-3.8425
X4.6693Y-3.9094
X4.6693Y-3.9807
X4.6693Y-4.0551
X4.7346Y-3.8425
X4.7362Y-3.9094
X4.7362Y-3.9803
X4.7382Y-4.0551
X4.8071Y-4.0433
X4.811Y-3.9134
X4.811Y-3.9764
X4.815Y-3.8504
X4.8819Y-3.8504
X4.8819Y-3.9173
X4.8819Y-3.9724
X4.8819Y-4.0433
X5.0787Y-1.6929
X5.1201Y-3.8209
X5.3179Y-3.7047
T3
X4.1122Y-3.8012
T4
X3.3098Y-2.6287
X3.3689Y-2.6287
X3.428Y-2.6287
X3.487Y-2.6287
X3.5461Y-2.6287
X3.6051Y-2.6287
X3.6642Y-2.6287
X3.7232Y-2.6287
X3.7823Y-2.6287
X3.8413Y-2.6287
X3.9004Y-2.6287
X3.9594Y-2.6287
X4.0185Y-2.6287
X4.0776Y-2.6287
X4.1366Y-2.6287
X4.1957Y-2.6287
X4.2547Y-2.6287
T5
X2.4252Y-3.8386
X2.4252Y-3.9724
X2.4252Y-4.1102
X2.4252Y-4.2441
X2.7972Y-2.6555
X2.8031Y-2.7953
X2.9134Y-2.6575
X2.9213Y-2.7953
X2.9528Y-4.6299
X3.0984Y-4.6299
X3.2283Y-4.6299
X3.3504Y-4.6319
X3.4921Y-4.6299
X3.622Y-4.6299
X3.7362Y-4.6319
X4.0374Y-4.6319
X4.3701Y-4.6319
X4.5059Y-4.6319
X4.6811Y-4.6319
T6
X2.9909Y-1.7252
X2.9909Y-2.6346
X4.5736Y-1.7252
X4.5736Y-2.6346
T7
X4.7933Y-2.1614
X4.7933Y-2.2614
X4.8933Y-2.1614
X4.8933Y-2.2614
X4.9933Y-2.1614
X4.9933Y-2.2614
X5.0933Y-2.1614
X5.0933Y-2.2614
X5.1933Y-2.1614
X5.1933Y-2.2614
T8
X3.1012Y-2.5484
X4.4634Y-2.5484
X4.7579Y-2.5933
X4.7988Y-1.7953
X4.8563Y-2.5933
X4.8972Y-1.7953
X4.9547Y-2.5933
X4.9902Y-4.2874
X4.9902Y-4.3858
X4.9902Y-4.4843
X4.9902Y-4.5827
X5.0295Y-3.9331
X5.0295Y-4.0315
X5.0531Y-2.5933
X5.2493Y-2.8817
X5.2493Y-2.9801
T9
X2.5504Y-2.5713
X2.5504Y-2.6697
X2.5504Y-2.7681
X2.7874Y-2.0
X2.7874Y-2.0984
X2.7874Y-2.1969
X2.7874Y-2.2953
X2.7874Y-2.3937
X2.8858Y-2.0
X2.8858Y-2.0984
X2.8858Y-2.1969
X2.8858Y-2.2953
X2.8858Y-2.3937
T10
X3.8839Y-4.6358
X4.1909Y-4.6388
X5.063Y-2.0039
X5.2205Y-3.2559
X5.2205Y-3.4331
X5.2402Y-3.9331
X5.2421Y-2.6063
X5.2441Y-2.0039
T11
X4.8976Y-3.2295
X4.8976Y-3.6201
X5.0315Y-3.2295
X5.0315Y-3.6201
T12
X2.4724Y-1.7795
X2.4724Y-4.5984
X5.3839Y-1.7874
X5.3839Y-4.5984
T13
X2.6598Y-3.0346
X2.6598Y-4.3929
X4.6087Y-3.0346
X4.6087Y-4.3929
M30
