%TF.GenerationSoftware,KiCad,Pcbnew,9.0.4*%
%TF.CreationDate,2025-10-24T18:09:52-05:00*%
%TF.ProjectId,PS-ChargerInterfacePCB,50532d43-6861-4726-9765-72496e746572,rev?*%
%TF.SameCoordinates,Original*%
%TF.FileFunction,Soldermask,Bot*%
%TF.FilePolarity,Negative*%
%FSLAX46Y46*%
G04 Gerber Fmt 4.6, Leading zero omitted, Abs format (unit mm)*
G04 Created by KiCad (PCBNEW 9.0.4) date 2025-10-24 18:09:52*
%MOMM*%
%LPD*%
G01*
G04 APERTURE LIST*
G04 Aperture macros list*
%AMRoundRect*
0 Rectangle with rounded corners*
0 $1 Rounding radius*
0 $2 $3 $4 $5 $6 $7 $8 $9 X,Y pos of 4 corners*
0 Add a 4 corners polygon primitive as box body*
4,1,4,$2,$3,$4,$5,$6,$7,$8,$9,$2,$3,0*
0 Add four circle primitives for the rounded corners*
1,1,$1+$1,$2,$3*
1,1,$1+$1,$4,$5*
1,1,$1+$1,$6,$7*
1,1,$1+$1,$8,$9*
0 Add four rect primitives between the rounded corners*
20,1,$1+$1,$2,$3,$4,$5,0*
20,1,$1+$1,$4,$5,$6,$7,0*
20,1,$1+$1,$6,$7,$8,$9,0*
20,1,$1+$1,$8,$9,$2,$3,0*%
G04 Aperture macros list end*
%ADD10C,1.300000*%
%ADD11C,1.800000*%
%ADD12RoundRect,0.250000X-0.850000X-0.600000X0.850000X-0.600000X0.850000X0.600000X-0.850000X0.600000X0*%
%ADD13O,2.200000X1.700000*%
%ADD14C,3.400000*%
%ADD15C,6.000000*%
%ADD16C,1.524000*%
%ADD17C,3.000000*%
%ADD18C,2.400000*%
%ADD19C,1.100000*%
%ADD20C,2.085000*%
%ADD21RoundRect,0.250000X0.600000X-0.850000X0.600000X0.850000X-0.600000X0.850000X-0.600000X-0.850000X0*%
%ADD22O,1.700000X2.200000*%
G04 APERTURE END LIST*
D10*
%TO.C,J5*%
X123060000Y-48250000D03*
D11*
X124400000Y-47000000D03*
X124400000Y-49500000D03*
%TD*%
D10*
%TO.C,J1*%
X125560000Y-110750000D03*
D12*
X126900000Y-107000000D03*
D13*
X126900000Y-109500000D03*
X126900000Y-112000000D03*
X126900000Y-114500000D03*
%TD*%
D14*
%TO.C,H1*%
X67600000Y-45400000D03*
D15*
X67600000Y-45400000D03*
%TD*%
D16*
%TO.C,J2*%
X119260000Y-57060000D03*
X119260000Y-59600000D03*
X121800000Y-57060000D03*
X121800000Y-59600000D03*
X124340000Y-57060000D03*
X124340000Y-59600000D03*
X126880000Y-57060000D03*
X126880000Y-59600000D03*
X129420000Y-57060000D03*
X129420000Y-59600000D03*
%TD*%
D10*
%TO.C,J6*%
X126315000Y-96250000D03*
D11*
X127655000Y-95000000D03*
X127655000Y-97500000D03*
%TD*%
D14*
%TO.C,H2*%
X132400000Y-45400000D03*
D15*
X132400000Y-45400000D03*
%TD*%
D17*
%TO.C,U1*%
X67600000Y-77100000D03*
X67600000Y-111600000D03*
X117100000Y-77100000D03*
X117100000Y-111600000D03*
%TD*%
D18*
%TO.C,U2*%
X130730100Y-83064670D03*
X127330100Y-83064670D03*
X130730100Y-73144670D03*
X127330100Y-73144670D03*
%TD*%
D16*
%TO.C,J4*%
X68140000Y-56840000D03*
X65600000Y-56840000D03*
X68140000Y-59380000D03*
X65600000Y-59380000D03*
X68140000Y-61920000D03*
X65600000Y-61920000D03*
X68140000Y-64460000D03*
X65600000Y-64460000D03*
X68140000Y-67000000D03*
X65600000Y-67000000D03*
%TD*%
D19*
%TO.C,DS1*%
X81000000Y-66550000D03*
X82500000Y-66550000D03*
X84000000Y-66550000D03*
X85500000Y-66550000D03*
X87000000Y-66550000D03*
X88500000Y-66550000D03*
X90000000Y-66550000D03*
X91500000Y-66550000D03*
X93000000Y-66550000D03*
X94500000Y-66550000D03*
X96000000Y-66550000D03*
X97500000Y-66550000D03*
X99000000Y-66550000D03*
X100500000Y-66550000D03*
X102000000Y-66550000D03*
X103500000Y-66550000D03*
X105000000Y-66550000D03*
D20*
X75700000Y-64510000D03*
X110300000Y-64510000D03*
D10*
X72900000Y-66700000D03*
X113100000Y-66700000D03*
X113100000Y-43600000D03*
X72900000Y-43600000D03*
%TD*%
D14*
%TO.C,H3*%
X132400000Y-111600000D03*
D15*
X132400000Y-111600000D03*
%TD*%
D10*
%TO.C,J3*%
X121225000Y-66385000D03*
D21*
X117475000Y-65045000D03*
D22*
X119975000Y-65045000D03*
X122475000Y-65045000D03*
X124975000Y-65045000D03*
%TD*%
M02*
