%TF.GenerationSoftware,KiCad,Pcbnew,9.0.4*%
%TF.CreationDate,2026-01-10T18:56:52-06:00*%
%TF.ProjectId,PS-ChargerInterfacePCB,50532d43-6861-4726-9765-72496e746572,rev?*%
%TF.SameCoordinates,Original*%
%TF.FileFunction,Soldermask,Top*%
%TF.FilePolarity,Negative*%
%FSLAX46Y46*%
G04 Gerber Fmt 4.6, Leading zero omitted, Abs format (unit mm)*
G04 Created by KiCad (PCBNEW 9.0.4) date 2026-01-10 18:56:52*
%MOMM*%
%LPD*%
G01*
G04 APERTURE LIST*
G04 Aperture macros list*
%AMRoundRect*
0 Rectangle with rounded corners*
0 $1 Rounding radius*
0 $2 $3 $4 $5 $6 $7 $8 $9 X,Y pos of 4 corners*
0 Add a 4 corners polygon primitive as box body*
4,1,4,$2,$3,$4,$5,$6,$7,$8,$9,$2,$3,0*
0 Add four circle primitives for the rounded corners*
1,1,$1+$1,$2,$3*
1,1,$1+$1,$4,$5*
1,1,$1+$1,$6,$7*
1,1,$1+$1,$8,$9*
0 Add four rect primitives between the rounded corners*
20,1,$1+$1,$2,$3,$4,$5,0*
20,1,$1+$1,$4,$5,$6,$7,0*
20,1,$1+$1,$6,$7,$8,$9,0*
20,1,$1+$1,$8,$9,$2,$3,0*%
%AMFreePoly0*
4,1,22,0.945671,0.830970,1.026777,0.776777,1.080970,0.695671,1.100000,0.600000,1.100000,-0.600000,1.080970,-0.695671,1.026777,-0.776777,0.945671,-0.830970,0.850000,-0.850000,-0.450000,-0.850000,-0.545671,-0.830970,-0.626777,-0.776777,-1.026777,-0.376777,-1.080970,-0.295671,-1.100000,-0.200000,-1.100000,0.600000,-1.080970,0.695671,-1.026777,0.776777,-0.945671,0.830970,-0.850000,0.850000,
0.850000,0.850000,0.945671,0.830970,0.945671,0.830970,$1*%
G04 Aperture macros list end*
%ADD10R,0.750000X1.200000*%
%ADD11R,1.200000X0.750000*%
%ADD12RoundRect,0.200000X0.275000X-0.200000X0.275000X0.200000X-0.275000X0.200000X-0.275000X-0.200000X0*%
%ADD13R,0.550000X1.800000*%
%ADD14RoundRect,0.218750X0.256250X-0.218750X0.256250X0.218750X-0.256250X0.218750X-0.256250X-0.218750X0*%
%ADD15RoundRect,0.200000X-0.275000X0.200000X-0.275000X-0.200000X0.275000X-0.200000X0.275000X0.200000X0*%
%ADD16RoundRect,0.200000X0.200000X0.275000X-0.200000X0.275000X-0.200000X-0.275000X0.200000X-0.275000X0*%
%ADD17C,1.500000*%
%ADD18RoundRect,0.250000X0.475000X-0.250000X0.475000X0.250000X-0.475000X0.250000X-0.475000X-0.250000X0*%
%ADD19R,1.300000X0.600000*%
%ADD20C,3.000000*%
%ADD21C,3.400000*%
%ADD22C,6.000000*%
%ADD23RoundRect,0.225000X-0.225000X-0.250000X0.225000X-0.250000X0.225000X0.250000X-0.225000X0.250000X0*%
%ADD24RoundRect,0.225000X-0.250000X0.225000X-0.250000X-0.225000X0.250000X-0.225000X0.250000X0.225000X0*%
%ADD25C,1.524000*%
%ADD26C,1.800000*%
%ADD27RoundRect,0.225000X0.250000X-0.225000X0.250000X0.225000X-0.250000X0.225000X-0.250000X-0.225000X0*%
%ADD28RoundRect,0.250000X-0.250000X-0.475000X0.250000X-0.475000X0.250000X0.475000X-0.250000X0.475000X0*%
%ADD29RoundRect,0.250000X-0.850000X-0.600000X0.850000X-0.600000X0.850000X0.600000X-0.850000X0.600000X0*%
%ADD30O,2.200000X1.700000*%
%ADD31R,1.200000X0.450000*%
%ADD32RoundRect,0.250000X0.250000X0.475000X-0.250000X0.475000X-0.250000X-0.475000X0.250000X-0.475000X0*%
%ADD33C,1.752600*%
%ADD34C,2.400000*%
%ADD35R,1.000000X0.750000*%
%ADD36R,0.480000X0.750000*%
%ADD37R,2.720000X4.560000*%
%ADD38R,0.910000X5.560000*%
%ADD39R,0.420000X4.560000*%
%ADD40RoundRect,0.200000X-0.200000X-0.275000X0.200000X-0.275000X0.200000X0.275000X-0.200000X0.275000X0*%
%ADD41FreePoly0,90.000000*%
%ADD42O,1.700000X2.200000*%
%ADD43R,0.567408X0.203010*%
%ADD44R,0.203200X0.556120*%
%ADD45R,0.533400X0.254000*%
%ADD46R,0.570166X0.203210*%
%ADD47R,0.203200X0.556130*%
%ADD48R,0.254000X1.346200*%
%ADD49R,0.254000X2.409444*%
%ADD50R,0.203200X0.556132*%
%ADD51R,0.570166X0.203226*%
%ADD52R,0.570166X0.203224*%
%ADD53R,0.254000X0.533400*%
%ADD54FreePoly0,0.000000*%
%ADD55RoundRect,0.218750X0.218750X0.256250X-0.218750X0.256250X-0.218750X-0.256250X0.218750X-0.256250X0*%
%ADD56RoundRect,0.250000X-0.475000X0.250000X-0.475000X-0.250000X0.475000X-0.250000X0.475000X0.250000X0*%
%ADD57R,0.863600X3.251200*%
%ADD58R,1.970000X1.670000*%
%ADD59R,1.670000X1.970000*%
%ADD60RoundRect,0.250000X0.600000X-0.850000X0.600000X0.850000X-0.600000X0.850000X-0.600000X-0.850000X0*%
%ADD61R,0.750000X1.000000*%
%ADD62R,0.750000X0.480000*%
%ADD63R,4.560000X2.720000*%
%ADD64R,5.560000X0.910000*%
%ADD65R,4.560000X0.420000*%
%ADD66R,0.450000X1.200000*%
%ADD67C,1.100000*%
%ADD68C,2.085000*%
%ADD69C,1.300000*%
G04 APERTURE END LIST*
D10*
%TO.C,D11*%
X101400000Y-100300000D03*
X101400000Y-96900000D03*
%TD*%
D11*
%TO.C,D2*%
X75350000Y-85850000D03*
X71950000Y-85850000D03*
%TD*%
D12*
%TO.C,R3*%
X79801000Y-85250000D03*
X79801000Y-83600000D03*
%TD*%
D13*
%TO.C,U1*%
X95623911Y-79830002D03*
X95623910Y-75530061D03*
X96423910Y-79830061D03*
X96423910Y-75530000D03*
X97223910Y-79830061D03*
X97223911Y-75530000D03*
X98023910Y-79830061D03*
X98023909Y-75530000D03*
X98823910Y-79830061D03*
X98823910Y-75530000D03*
X99623910Y-79830061D03*
X99623908Y-75530000D03*
X100423910Y-79830061D03*
X100423909Y-75530000D03*
X101223910Y-79830061D03*
X101223910Y-75530000D03*
X102023909Y-79830002D03*
X102023909Y-75530000D03*
X102823909Y-79830002D03*
X102823909Y-75530000D03*
X103623908Y-79830002D03*
X103623908Y-75530000D03*
X104423909Y-79830002D03*
X104423909Y-75530000D03*
X79869933Y-79780002D03*
X79869933Y-75480000D03*
X80669932Y-79780002D03*
X80669932Y-75480000D03*
X81469933Y-79780002D03*
X81469933Y-75480000D03*
X82269931Y-79780002D03*
X82269931Y-75480000D03*
X83069932Y-79780002D03*
X83069932Y-75480000D03*
X83869930Y-79780002D03*
X83869930Y-75480000D03*
X84669931Y-79780002D03*
X84669931Y-75480000D03*
X85469932Y-79780002D03*
X85469932Y-75480000D03*
X86269931Y-79780002D03*
X86269931Y-75480000D03*
X87069931Y-79780002D03*
X87069931Y-75480000D03*
X87869930Y-79780002D03*
X87869930Y-75480000D03*
X88669931Y-79780002D03*
X88669931Y-75480000D03*
%TD*%
D14*
%TO.C,D7*%
X92100000Y-54600000D03*
X92100000Y-53025000D03*
%TD*%
D15*
%TO.C,R12*%
X78070000Y-85300000D03*
X78070000Y-86950000D03*
%TD*%
D12*
%TO.C,R22*%
X92400000Y-84125000D03*
X92400000Y-82475000D03*
%TD*%
D16*
%TO.C,R9*%
X89750000Y-99478800D03*
X88100000Y-99478800D03*
%TD*%
D12*
%TO.C,R17*%
X87200000Y-54637500D03*
X87200000Y-52987500D03*
%TD*%
D17*
%TO.C,Gate2*%
X71100000Y-117600000D03*
%TD*%
D18*
%TO.C,C26*%
X96444051Y-72841240D03*
X96444051Y-70941240D03*
%TD*%
D19*
%TO.C,Q4*%
X84600000Y-50950000D03*
X84600000Y-49050000D03*
X82500000Y-50000000D03*
%TD*%
D20*
%TO.C,24V_OUT1*%
X132600000Y-87200000D03*
%TD*%
%TO.C,+24V_IN1*%
X132600000Y-82700000D03*
%TD*%
D12*
%TO.C,R35*%
X89900000Y-58550000D03*
X89900000Y-56900000D03*
%TD*%
D21*
%TO.C,H1*%
X62800000Y-45200000D03*
D22*
X62800000Y-45200000D03*
%TD*%
D14*
%TO.C,D5*%
X135100000Y-81100000D03*
X135100000Y-79525000D03*
%TD*%
D23*
%TO.C,C4*%
X84265936Y-99508407D03*
X85815936Y-99508407D03*
%TD*%
D24*
%TO.C,C23*%
X98050000Y-107175000D03*
X98050000Y-108725000D03*
%TD*%
D15*
%TO.C,R20*%
X63100000Y-73250000D03*
X63100000Y-74900000D03*
%TD*%
D25*
%TO.C,Logic_Analyzer1*%
X121750000Y-54900000D03*
X121750000Y-57440000D03*
X124290000Y-54900000D03*
X124290000Y-57440000D03*
X126830000Y-54900000D03*
X126830000Y-57440000D03*
X129370000Y-54900000D03*
X129370000Y-57440000D03*
X131910000Y-54900000D03*
X131910000Y-57440000D03*
%TD*%
D19*
%TO.C,Q13*%
X84560000Y-62572500D03*
X84560000Y-60672500D03*
X82460000Y-61622500D03*
%TD*%
D18*
%TO.C,C12*%
X96300000Y-100550000D03*
X96300000Y-98650000D03*
%TD*%
D26*
%TO.C,Buzzer1*%
X127700000Y-99900000D03*
X127700000Y-102400000D03*
%TD*%
D21*
%TO.C,H2*%
X132400000Y-45400000D03*
D22*
X132400000Y-45400000D03*
%TD*%
D20*
%TO.C,+14V1*%
X133100000Y-99900000D03*
%TD*%
D17*
%TO.C,SW1*%
X88700000Y-117600000D03*
%TD*%
D27*
%TO.C,C27*%
X94710000Y-72875000D03*
X94710000Y-71325000D03*
%TD*%
D28*
%TO.C,C28*%
X98070000Y-68970000D03*
X99970000Y-68970000D03*
%TD*%
D17*
%TO.C,FB1*%
X74500000Y-117600000D03*
%TD*%
D29*
%TO.C,Elcon1*%
X126750707Y-108900000D03*
D30*
X126750707Y-111400000D03*
X126750707Y-113900000D03*
X126750707Y-116400000D03*
%TD*%
D20*
%TO.C,GND1*%
X133200000Y-50900000D03*
%TD*%
%TO.C,+24V1*%
X133150000Y-66200000D03*
%TD*%
D18*
%TO.C,C8*%
X97740000Y-93840000D03*
X97740000Y-91940000D03*
%TD*%
D31*
%TO.C,IC3*%
X112270000Y-86640000D03*
X112270000Y-85990000D03*
X112270000Y-85340000D03*
X112270000Y-84690000D03*
X109770000Y-84690000D03*
X109770000Y-85340000D03*
X109770000Y-85990000D03*
X109770000Y-86640000D03*
%TD*%
D12*
%TO.C,R11*%
X90425000Y-97103800D03*
X90425000Y-95453800D03*
%TD*%
D32*
%TO.C,C6*%
X93825000Y-94150000D03*
X91925000Y-94150000D03*
%TD*%
D33*
%TO.C,Panel_LED801*%
X73300000Y-60800000D03*
X73300000Y-58300000D03*
X73300000Y-55800000D03*
X73300000Y-53300000D03*
X73300000Y-50800000D03*
X70800000Y-60800000D03*
X70800000Y-58300000D03*
X70800000Y-55800000D03*
X70800000Y-53300000D03*
X70800000Y-50800000D03*
%TD*%
D24*
%TO.C,C16*%
X120410000Y-79955000D03*
X120410000Y-81505000D03*
%TD*%
D34*
%TO.C,U2*%
X127800000Y-82030000D03*
X124400000Y-82030000D03*
X127800000Y-91950000D03*
X124400000Y-91950000D03*
%TD*%
D35*
%TO.C,Q1*%
X110308183Y-102347303D03*
X110308183Y-101077303D03*
X110308183Y-99807303D03*
X110308183Y-98537303D03*
D36*
X104548183Y-98537303D03*
X104548183Y-102347303D03*
D37*
X106148183Y-100442303D03*
D38*
X107963183Y-100442303D03*
D39*
X108628183Y-100442303D03*
%TD*%
D24*
%TO.C,C35*%
X108200000Y-63750000D03*
X108200000Y-65300000D03*
%TD*%
D27*
%TO.C,C19*%
X112410000Y-83105000D03*
X112410000Y-81555000D03*
%TD*%
D18*
%TO.C,C9*%
X99890000Y-93890000D03*
X99890000Y-91990000D03*
%TD*%
D40*
%TO.C,R27*%
X122775000Y-51600000D03*
X124425000Y-51600000D03*
%TD*%
D35*
%TO.C,Q2*%
X106800000Y-87510000D03*
X106800000Y-86240000D03*
X106800000Y-84970000D03*
X106800000Y-83700000D03*
D36*
X101040000Y-83700000D03*
X101040000Y-87510000D03*
D37*
X102640000Y-85605000D03*
D38*
X104455000Y-85605000D03*
D39*
X105120000Y-85605000D03*
%TD*%
D17*
%TO.C,VCC1*%
X85100000Y-117650707D03*
%TD*%
%TO.C,OV2*%
X64200000Y-117600000D03*
%TD*%
D18*
%TO.C,C24*%
X102250000Y-70560000D03*
X102250000Y-68660000D03*
%TD*%
D14*
%TO.C,D8*%
X92000000Y-50887500D03*
X92000000Y-49312500D03*
%TD*%
D41*
%TO.C,Estop1*%
X121889886Y-45600000D03*
D42*
X124389886Y-45600000D03*
%TD*%
D17*
%TO.C,TP_FETConn1*%
X111000000Y-117650000D03*
%TD*%
D33*
%TO.C,EVSE1*%
X64780000Y-70310000D03*
X64780000Y-67810000D03*
X64780000Y-65310000D03*
%TD*%
D17*
%TO.C,TP_FETConn2*%
X67700000Y-117600000D03*
%TD*%
D19*
%TO.C,Q5*%
X84600000Y-58550000D03*
X84600000Y-56650000D03*
X82500000Y-57600000D03*
%TD*%
D17*
%TO.C,COMP1*%
X77900000Y-117600000D03*
%TD*%
D14*
%TO.C,D9*%
X92300000Y-58500000D03*
X92300000Y-56925000D03*
%TD*%
D24*
%TO.C,C11*%
X113100000Y-105944000D03*
X113100000Y-107494000D03*
%TD*%
D17*
%TO.C,Vcap1*%
X114449552Y-117650000D03*
%TD*%
D24*
%TO.C,C31*%
X101625000Y-63760000D03*
X101625000Y-65310000D03*
%TD*%
D43*
%TO.C,IC1*%
X94107104Y-100502245D03*
D44*
X93925000Y-100678800D03*
D45*
X94115500Y-100002214D03*
X94115500Y-99502088D03*
D46*
X94108483Y-98988305D03*
D47*
X93925000Y-98811845D03*
D48*
X93428176Y-99206889D03*
D49*
X92928050Y-99752151D03*
D48*
X92427924Y-99206889D03*
D50*
X91942530Y-98811844D03*
D51*
X91759047Y-98988297D03*
D45*
X91740600Y-99502088D03*
X91740600Y-100002214D03*
D50*
X91927798Y-100678793D03*
D52*
X91744315Y-100502269D03*
D53*
X92427924Y-100690173D03*
X93428176Y-100690173D03*
%TD*%
D15*
%TO.C,R25*%
X94000000Y-82475000D03*
X94000000Y-84125000D03*
%TD*%
D16*
%TO.C,R31*%
X133075000Y-79552500D03*
X131425000Y-79552500D03*
%TD*%
D18*
%TO.C,C22*%
X98400000Y-100550000D03*
X98400000Y-98650000D03*
%TD*%
D12*
%TO.C,R26*%
X119510000Y-107625000D03*
X119510000Y-105975000D03*
%TD*%
D54*
%TO.C,J9*%
X133331522Y-73194397D03*
D30*
X133331522Y-75694397D03*
%TD*%
D12*
%TO.C,R36*%
X89700000Y-62437500D03*
X89700000Y-60787500D03*
%TD*%
D20*
%TO.C,+14V2*%
X98650000Y-117750000D03*
%TD*%
D16*
%TO.C,R2*%
X113925000Y-79900000D03*
X112275000Y-79900000D03*
%TD*%
D17*
%TO.C,ILIM1*%
X81500000Y-117600000D03*
%TD*%
D55*
%TO.C,D4*%
X135067500Y-95360000D03*
X133492500Y-95360000D03*
%TD*%
D56*
%TO.C,C1*%
X99850000Y-107250000D03*
X99850000Y-109150000D03*
%TD*%
D19*
%TO.C,Q7*%
X84600000Y-47125000D03*
X84600000Y-45225000D03*
X82500000Y-46175000D03*
%TD*%
D21*
%TO.C,H3*%
X132400000Y-116800000D03*
D22*
X132400000Y-116800000D03*
%TD*%
D16*
%TO.C,R13*%
X78135000Y-88530000D03*
X76485000Y-88530000D03*
%TD*%
D56*
%TO.C,C30*%
X94500000Y-63150000D03*
X94500000Y-65050000D03*
%TD*%
D12*
%TO.C,R16*%
X87200000Y-50925000D03*
X87200000Y-49275000D03*
%TD*%
%TO.C,R18*%
X87300000Y-58550000D03*
X87300000Y-56900000D03*
%TD*%
D23*
%TO.C,C3*%
X86675000Y-96875000D03*
X88225000Y-96875000D03*
%TD*%
D17*
%TO.C,EN/UVLO1*%
X94900000Y-117650000D03*
%TD*%
D15*
%TO.C,R4*%
X114700000Y-105875000D03*
X114700000Y-107525000D03*
%TD*%
D23*
%TO.C,C5*%
X92175000Y-107800000D03*
X93725000Y-107800000D03*
%TD*%
D17*
%TO.C,Gate1*%
X102550000Y-117650000D03*
%TD*%
D16*
%TO.C,R1*%
X117295000Y-81560000D03*
X115645000Y-81560000D03*
%TD*%
D12*
%TO.C,R19*%
X87100000Y-62437500D03*
X87100000Y-60787500D03*
%TD*%
D16*
%TO.C,R28*%
X120025000Y-69000000D03*
X118375000Y-69000000D03*
%TD*%
D55*
%TO.C,D3*%
X131237500Y-69100000D03*
X129662500Y-69100000D03*
%TD*%
D17*
%TO.C,BOOT1*%
X92000000Y-117600000D03*
%TD*%
D23*
%TO.C,C17*%
X109345000Y-83120000D03*
X110895000Y-83120000D03*
%TD*%
D20*
%TO.C,+3V3*%
X128600000Y-50900000D03*
%TD*%
D16*
%TO.C,R24*%
X90670000Y-82535000D03*
X89020000Y-82535000D03*
%TD*%
D14*
%TO.C,D10*%
X92300000Y-62400000D03*
X92300000Y-60825000D03*
%TD*%
D28*
%TO.C,C2*%
X87900000Y-104025000D03*
X89800000Y-104025000D03*
%TD*%
D57*
%TO.C,L1*%
X94646200Y-104400000D03*
X91953800Y-104400000D03*
%TD*%
D35*
%TO.C,Q10*%
X113592358Y-99381053D03*
X113592358Y-100651053D03*
X113592358Y-101921053D03*
X113592358Y-103191053D03*
D36*
X119352358Y-103191053D03*
X119352358Y-99381053D03*
D37*
X117752358Y-101286053D03*
D38*
X115937358Y-101286053D03*
D39*
X115272358Y-101286053D03*
%TD*%
D20*
%TO.C,RPP_EN1*%
X106450000Y-117825000D03*
%TD*%
D32*
%TO.C,C29*%
X96502520Y-68970225D03*
X94602520Y-68970225D03*
%TD*%
D17*
%TO.C,Vcap2*%
X60800000Y-117600000D03*
%TD*%
D14*
%TO.C,D6*%
X92200000Y-47000000D03*
X92200000Y-45425000D03*
%TD*%
D16*
%TO.C,R7*%
X94750000Y-110925000D03*
X93100000Y-110925000D03*
%TD*%
D12*
%TO.C,R5*%
X113050000Y-110875000D03*
X113050000Y-109225000D03*
%TD*%
D17*
%TO.C,TP3*%
X74200000Y-71000000D03*
%TD*%
D19*
%TO.C,Q6*%
X84600000Y-54675000D03*
X84600000Y-52775000D03*
X82500000Y-53725000D03*
%TD*%
D15*
%TO.C,R21*%
X76480000Y-90125000D03*
X76480000Y-91775000D03*
%TD*%
D27*
%TO.C,C10*%
X117900000Y-107575000D03*
X117900000Y-106025000D03*
%TD*%
D58*
%TO.C,Z3*%
X122845240Y-75725201D03*
X126895240Y-75725201D03*
%TD*%
D15*
%TO.C,R6*%
X96450000Y-107125000D03*
X96450000Y-108775000D03*
%TD*%
D24*
%TO.C,C14*%
X116300000Y-106025000D03*
X116300000Y-107575000D03*
%TD*%
D59*
%TO.C,Z2*%
X134200000Y-107825000D03*
X134200000Y-103775000D03*
%TD*%
D17*
%TO.C,OV1*%
X118900000Y-117650000D03*
%TD*%
D16*
%TO.C,R10*%
X93650000Y-97078800D03*
X92000000Y-97078800D03*
%TD*%
D12*
%TO.C,R15*%
X87200000Y-47050000D03*
X87200000Y-45400000D03*
%TD*%
D17*
%TO.C,TP2*%
X71200000Y-71000000D03*
%TD*%
D24*
%TO.C,C32*%
X103200000Y-63735000D03*
X103200000Y-65285000D03*
%TD*%
D60*
%TO.C,Elcon2*%
X120850000Y-65870000D03*
D42*
X123350000Y-65870000D03*
X125850000Y-65870000D03*
X128350000Y-65870000D03*
%TD*%
D12*
%TO.C,R34*%
X89600000Y-50925000D03*
X89600000Y-49275000D03*
%TD*%
D56*
%TO.C,C13*%
X78400000Y-90100000D03*
X78400000Y-92000000D03*
%TD*%
D27*
%TO.C,C25*%
X104400000Y-70175000D03*
X104400000Y-68625000D03*
%TD*%
D61*
%TO.C,Q11*%
X115090000Y-89360000D03*
X116360000Y-89360000D03*
X117630000Y-89360000D03*
X118900000Y-89360000D03*
D62*
X118900000Y-83600000D03*
X115090000Y-83600000D03*
D63*
X116995000Y-85200000D03*
D64*
X116995000Y-87015000D03*
D65*
X116995000Y-87680000D03*
%TD*%
D24*
%TO.C,C34*%
X106500000Y-63725000D03*
X106500000Y-65275000D03*
%TD*%
D55*
%TO.C,D1*%
X123387500Y-117200000D03*
X121812500Y-117200000D03*
%TD*%
D40*
%TO.C,R30*%
X133475000Y-97000000D03*
X135125000Y-97000000D03*
%TD*%
D18*
%TO.C,C7*%
X95665000Y-93840000D03*
X95665000Y-91940000D03*
%TD*%
D66*
%TO.C,IC2*%
X109500000Y-108800000D03*
X110150000Y-108800000D03*
X110800000Y-108800000D03*
X111450000Y-108800000D03*
X111450000Y-106300000D03*
X110800000Y-106300000D03*
X110150000Y-106300000D03*
X109500000Y-106300000D03*
%TD*%
D24*
%TO.C,C33*%
X104875000Y-63710000D03*
X104875000Y-65260000D03*
%TD*%
D17*
%TO.C,TP4*%
X74000000Y-67500000D03*
%TD*%
D16*
%TO.C,R8*%
X89950000Y-101678800D03*
X88300000Y-101678800D03*
%TD*%
D12*
%TO.C,R14*%
X131930000Y-97010000D03*
X131930000Y-95360000D03*
%TD*%
%TO.C,R33*%
X89700000Y-54650000D03*
X89700000Y-53000000D03*
%TD*%
%TO.C,R32*%
X89700000Y-47050000D03*
X89700000Y-45400000D03*
%TD*%
D28*
%TO.C,C18*%
X118300000Y-70825000D03*
X120200000Y-70825000D03*
%TD*%
D19*
%TO.C,Q8*%
X132550000Y-90950000D03*
X132550000Y-92850000D03*
X134650000Y-91900000D03*
%TD*%
D17*
%TO.C,TP1*%
X71050000Y-67450000D03*
%TD*%
D16*
%TO.C,R23*%
X90700000Y-84175000D03*
X89050000Y-84175000D03*
%TD*%
D67*
%TO.C,DS1*%
X108070000Y-66770000D03*
X106570000Y-66770000D03*
X105070000Y-66770000D03*
X103570000Y-66770000D03*
X102070000Y-66770000D03*
X100570000Y-66770000D03*
X99070000Y-66770000D03*
X97570000Y-66770000D03*
X96070000Y-66770000D03*
X94570000Y-66770000D03*
X93070000Y-66770000D03*
X91570000Y-66770000D03*
X90070000Y-66770000D03*
X88570000Y-66770000D03*
X87070000Y-66770000D03*
X85570000Y-66770000D03*
X84070000Y-66770000D03*
D68*
X113370000Y-64730000D03*
X78770000Y-64730000D03*
D69*
X116170000Y-66920000D03*
X75970000Y-66920000D03*
X75970000Y-43820000D03*
X116170000Y-43820000D03*
%TD*%
M02*
