M48
; DRILL file {KiCad 9.0.4} date 2025-10-24T18:09:52-0500
; FORMAT={-:-/ absolute / inch / decimal}
; #@! TF.CreationDate,2025-10-24T18:09:52-05:00
; #@! TF.GenerationSoftware,Kicad,Pcbnew,9.0.4
; #@! TF.FileFunction,Plated,1,2,PTH
FMAT,2
INCH
; #@! TA.AperFunction,Plated,PTH,ViaDrill
T1C0.0118
; #@! TA.AperFunction,Plated,PTH,ViaDrill
T2C0.0157
; #@! TA.AperFunction,Plated,PTH,ComponentDrill
T3C0.0236
; #@! TA.AperFunction,Plated,PTH,ComponentDrill
T4C0.0315
; #@! TA.AperFunction,Plated,PTH,ComponentDrill
T5C0.0400
; #@! TA.AperFunction,Plated,PTH,ComponentDrill
T6C0.0472
; #@! TA.AperFunction,Plated,PTH,ComponentDrill
T7C0.0630
; #@! TA.AperFunction,Plated,PTH,ComponentDrill
T8C0.1181
%
G90
G05
T1
X3.1378Y-2.5079
X3.1575Y-2.4134
X3.1575Y-3.0827
X3.1969Y-2.5118
X3.2091Y-2.8858
X3.2126Y-2.3898
X3.2402Y-3.0551
X3.252Y-2.8976
X3.2638Y-2.5157
X3.2677Y-2.311
X3.3996Y-2.8465
X3.4311Y-2.8465
X3.4636Y-2.8465
X3.5Y-2.8465
X3.5394Y-3.3425
X3.6654Y-4.1024
X3.688Y-3.253
X3.7008Y-3.8307
X3.79Y-3.8943
X3.8307Y-3.0513
X3.8356Y-3.9891
X3.8642Y-3.0866
X3.8976Y-2.8228
X3.9213Y-3.0433
X3.9291Y-2.8346
X3.9331Y-3.9764
X3.9617Y-2.8494
X3.9685Y-2.7638
X4.0039Y-2.7323
X4.0039Y-2.7677
X4.0354Y-3.9764
X4.063Y-3.3504
X4.2379Y-4.1667
X4.3465Y-3.5177
X4.4465Y-4.0565
X4.9735Y-2.1624
X5.0197Y-2.1334
X5.1102Y-2.4921
X5.1575Y-3.4252
X5.2402Y-2.1772
X5.315Y-2.248
T2
X2.5591Y-3.189
X2.6378Y-3.189
X2.6378Y-3.2677
X2.7165Y-3.2677
X2.7165Y-3.3465
X2.7953Y-2.5197
X2.7953Y-2.5984
X2.7953Y-2.6772
X2.7953Y-2.7559
X2.7953Y-2.8346
X2.7953Y-3.3465
X2.7953Y-3.4252
X2.8346Y-3.1496
X2.8701Y-3.2205
X2.874Y-2.5197
X2.874Y-2.7559
X2.874Y-2.8346
X2.874Y-2.9134
X2.874Y-3.4252
X2.9528Y-2.9134
X2.9528Y-2.9921
X2.9528Y-3.1496
X2.9528Y-3.2283
X2.9528Y-3.2913
X2.9528Y-3.4252
X3.0315Y-3.2283
X3.0315Y-3.2913
X3.0315Y-3.4252
X3.1102Y-3.2283
X3.1102Y-3.2913
X3.1102Y-3.4252
X3.189Y-3.2283
X3.189Y-3.2913
X3.189Y-3.4252
X3.2677Y-3.2283
X3.2677Y-3.2913
X3.2677Y-3.4252
X3.3465Y-3.2283
X3.3465Y-3.2913
X3.3465Y-3.4252
X3.3858Y-2.5118
X3.4252Y-3.2283
X3.4252Y-3.2913
X3.4252Y-3.4252
X3.4252Y-4.2126
X3.4252Y-4.2913
X3.4646Y-2.5118
X3.5039Y-3.2283
X3.5039Y-3.4252
X3.5039Y-3.5039
X3.5039Y-3.5827
X3.5039Y-3.6614
X3.5039Y-3.7402
X3.5039Y-4.2126
X3.5039Y-4.2913
X3.5433Y-2.5118
X3.5748Y-3.0354
X3.5827Y-3.4252
X3.5827Y-3.5039
X3.5827Y-3.5827
X3.5827Y-3.6614
X3.5827Y-3.7402
X3.5827Y-4.2126
X3.5827Y-4.2913
X3.622Y-2.5118
X3.6339Y-3.126
X3.6614Y-4.2126
X3.6614Y-4.2913
X3.6654Y-3.1575
X3.6772Y-3.5039
X3.6772Y-3.5787
X3.6772Y-3.6575
X3.7008Y-2.5118
X3.7402Y-4.2913
X3.7441Y-3.4134
X3.7795Y-2.5118
X3.7874Y-3.4567
X3.8189Y-4.2913
X3.8425Y-3.5
X3.9449Y-2.5276
X3.9567Y-4.2677
X4.0157Y-2.5197
X4.0551Y-4.2913
X4.0787Y-2.7717
X4.0787Y-2.8346
X4.1181Y-3.3504
X4.1299Y-3.7874
X4.1339Y-2.1654
X4.1339Y-2.3228
X4.1339Y-4.2913
X4.1535Y-2.7126
X4.1535Y-2.7717
X4.2047Y-2.5472
X4.2126Y-2.0866
X4.2126Y-2.2441
X4.2126Y-2.3228
X4.2126Y-4.2913
X4.2205Y-3.7835
X4.248Y-2.5
X4.2913Y-2.0079
X4.2913Y-2.1654
X4.2913Y-2.2441
X4.2913Y-4.2913
X4.311Y-3.7835
X4.3701Y-1.9291
X4.3701Y-2.0866
X4.3701Y-2.1654
X4.3701Y-2.4803
X4.3701Y-4.2913
X4.4016Y-3.7835
X4.4134Y-3.5236
X4.4488Y-2.0079
X4.4488Y-2.0866
X4.4488Y-2.4803
X4.4488Y-2.5591
X4.4488Y-4.2913
X4.4764Y-3.7835
X4.5276Y-2.0079
X4.5276Y-2.0866
X4.5276Y-4.2913
X4.6063Y-2.0079
X4.6063Y-2.0866
X4.6063Y-4.2913
X4.685Y-4.2913
X5.0315Y-2.626
X5.0787Y-1.6929
X5.0945Y-2.5512
X5.0945Y-2.626
X5.189Y-2.2126
X5.189Y-2.2795
X5.189Y-2.4764
X5.2283Y-2.4331
X5.315Y-2.3228
X5.315Y-2.4016
X5.315Y-2.4803
X5.315Y-2.5591
T3
X3.189Y-2.6201
X3.248Y-2.6201
X3.3071Y-2.6201
X3.3661Y-2.6201
X3.4252Y-2.6201
X3.4843Y-2.6201
X3.5433Y-2.6201
X3.6024Y-2.6201
X3.6614Y-2.6201
X3.7205Y-2.6201
X3.7795Y-2.6201
X3.8386Y-2.6201
X3.8976Y-2.6201
X3.9567Y-2.6201
X4.0157Y-2.6201
X4.0748Y-2.6201
X4.1339Y-2.6201
T4
X2.8701Y-1.7165
X2.8701Y-2.626
X4.4528Y-1.7165
X4.4528Y-2.626
T5
X2.5827Y-2.2378
X2.5827Y-2.3378
X2.5827Y-2.4378
X2.5827Y-2.5378
X2.5827Y-2.6378
X2.6827Y-2.2378
X2.6827Y-2.3378
X2.6827Y-2.4378
X2.6827Y-2.5378
X2.6827Y-2.6378
X4.6953Y-2.2465
X4.6953Y-2.3465
X4.7953Y-2.2465
X4.7953Y-2.3465
X4.8953Y-2.2465
X4.8953Y-2.3465
X4.9953Y-2.2465
X4.9953Y-2.3465
X5.0953Y-2.2465
X5.0953Y-2.3465
T6
X2.9803Y-2.5398
X4.3425Y-2.5398
X4.625Y-2.5608
X4.7234Y-2.5608
X4.8219Y-2.5608
X4.8976Y-1.8504
X4.8976Y-1.9488
X4.9203Y-2.5608
X4.9961Y-4.2126
X4.9961Y-4.311
X4.9961Y-4.4094
X4.9961Y-4.5079
X5.0258Y-3.7402
X5.0258Y-3.8386
T7
X5.013Y-2.8797
X5.013Y-3.2703
X5.1469Y-2.8797
X5.1469Y-3.2703
T8
X2.6614Y-1.7874
X5.2126Y-1.7874
X5.2126Y-4.3937
M30
