%TF.GenerationSoftware,KiCad,Pcbnew,9.0.4*%
%TF.CreationDate,2025-10-13T22:12:45-05:00*%
%TF.ProjectId,PS-ChargerInterfacePCB,50532d43-6861-4726-9765-72496e746572,rev?*%
%TF.SameCoordinates,Original*%
%TF.FileFunction,Soldermask,Top*%
%TF.FilePolarity,Negative*%
%FSLAX46Y46*%
G04 Gerber Fmt 4.6, Leading zero omitted, Abs format (unit mm)*
G04 Created by KiCad (PCBNEW 9.0.4) date 2025-10-13 22:12:45*
%MOMM*%
%LPD*%
G01*
G04 APERTURE LIST*
G04 Aperture macros list*
%AMRoundRect*
0 Rectangle with rounded corners*
0 $1 Rounding radius*
0 $2 $3 $4 $5 $6 $7 $8 $9 X,Y pos of 4 corners*
0 Add a 4 corners polygon primitive as box body*
4,1,4,$2,$3,$4,$5,$6,$7,$8,$9,$2,$3,0*
0 Add four circle primitives for the rounded corners*
1,1,$1+$1,$2,$3*
1,1,$1+$1,$4,$5*
1,1,$1+$1,$6,$7*
1,1,$1+$1,$8,$9*
0 Add four rect primitives between the rounded corners*
20,1,$1+$1,$2,$3,$4,$5,0*
20,1,$1+$1,$4,$5,$6,$7,0*
20,1,$1+$1,$6,$7,$8,$9,0*
20,1,$1+$1,$8,$9,$2,$3,0*%
%AMFreePoly0*
4,1,21,1.545000,0.775000,0.925000,0.775000,0.925000,0.525000,1.545000,0.525000,1.545000,0.125000,0.925000,0.125000,0.925000,-0.125000,1.545000,-0.125000,1.545000,-0.525000,0.925000,-0.525000,0.925000,-0.775000,1.545000,-0.775000,1.545000,-1.175000,0.925000,-1.175000,0.925000,-1.125000,-0.925000,-1.125000,-0.925000,1.125000,0.925000,1.125000,0.925000,1.175000,1.545000,1.175000,
1.545000,0.775000,1.545000,0.775000,$1*%
%AMFreePoly1*
4,1,7,1.500000,0.866025,1.500000,-0.866025,0.000000,-1.732051,-1.500000,-0.866025,-1.500000,0.866025,0.000000,1.732051,1.500000,0.866025,1.500000,0.866025,$1*%
G04 Aperture macros list end*
%ADD10R,2.184400X1.625600*%
%ADD11R,1.625600X2.184400*%
%ADD12R,0.550000X1.800000*%
%ADD13C,1.800000*%
%ADD14RoundRect,0.200000X-0.275000X0.200000X-0.275000X-0.200000X0.275000X-0.200000X0.275000X0.200000X0*%
%ADD15RoundRect,0.225000X-0.250000X0.225000X-0.250000X-0.225000X0.250000X-0.225000X0.250000X0.225000X0*%
%ADD16RoundRect,0.200000X0.200000X0.275000X-0.200000X0.275000X-0.200000X-0.275000X0.200000X-0.275000X0*%
%ADD17RoundRect,0.250000X0.250000X0.475000X-0.250000X0.475000X-0.250000X-0.475000X0.250000X-0.475000X0*%
%ADD18RoundRect,0.250000X-0.850000X-0.600000X0.850000X-0.600000X0.850000X0.600000X-0.850000X0.600000X0*%
%ADD19O,2.200000X1.700000*%
%ADD20C,3.400000*%
%ADD21C,6.000000*%
%ADD22RoundRect,0.225000X0.250000X-0.225000X0.250000X0.225000X-0.250000X0.225000X-0.250000X-0.225000X0*%
%ADD23C,1.524000*%
%ADD24RoundRect,0.218750X-0.256250X0.218750X-0.256250X-0.218750X0.256250X-0.218750X0.256250X0.218750X0*%
%ADD25RoundRect,0.100000X-0.315000X-0.100000X0.315000X-0.100000X0.315000X0.100000X-0.315000X0.100000X0*%
%ADD26FreePoly0,0.000000*%
%ADD27RoundRect,0.250000X0.475000X-0.250000X0.475000X0.250000X-0.475000X0.250000X-0.475000X-0.250000X0*%
%ADD28FreePoly1,270.000000*%
%ADD29RoundRect,0.225000X0.225000X0.250000X-0.225000X0.250000X-0.225000X-0.250000X0.225000X-0.250000X0*%
%ADD30FreePoly1,90.000000*%
%ADD31RoundRect,0.250000X-0.475000X0.250000X-0.475000X-0.250000X0.475000X-0.250000X0.475000X0.250000X0*%
%ADD32R,1.200000X0.450000*%
%ADD33C,2.400000*%
%ADD34RoundRect,0.200000X0.275000X-0.200000X0.275000X0.200000X-0.275000X0.200000X-0.275000X-0.200000X0*%
%ADD35C,1.100000*%
%ADD36C,2.085000*%
%ADD37C,1.300000*%
%ADD38RoundRect,0.100000X0.315000X0.100000X-0.315000X0.100000X-0.315000X-0.100000X0.315000X-0.100000X0*%
%ADD39FreePoly0,180.000000*%
%ADD40R,0.567408X0.203010*%
%ADD41R,0.203200X0.556120*%
%ADD42R,0.533400X0.254000*%
%ADD43R,0.570166X0.203210*%
%ADD44R,0.203200X0.556130*%
%ADD45R,0.254000X1.346200*%
%ADD46R,0.254000X2.409444*%
%ADD47R,0.203200X0.556132*%
%ADD48R,0.570166X0.203226*%
%ADD49R,0.570166X0.203224*%
%ADD50R,0.254000X0.533400*%
%ADD51R,1.970000X1.670000*%
%ADD52RoundRect,0.225000X-0.225000X-0.250000X0.225000X-0.250000X0.225000X0.250000X-0.225000X0.250000X0*%
%ADD53FreePoly1,180.000000*%
%ADD54RoundRect,0.250000X-0.250000X-0.475000X0.250000X-0.475000X0.250000X0.475000X-0.250000X0.475000X0*%
%ADD55R,3.251200X0.863600*%
%ADD56RoundRect,0.250000X0.600000X-0.850000X0.600000X0.850000X-0.600000X0.850000X-0.600000X-0.850000X0*%
%ADD57O,1.700000X2.200000*%
G04 APERTURE END LIST*
D10*
%TO.C,D1*%
X119900000Y-89000000D03*
X117029800Y-89000000D03*
%TD*%
D11*
%TO.C,D2*%
X119400000Y-95649300D03*
X119400000Y-92779100D03*
%TD*%
D12*
%TO.C,U1*%
X95663911Y-79850002D03*
X95663910Y-75550061D03*
X96463910Y-79850061D03*
X96463910Y-75550000D03*
X97263910Y-79850061D03*
X97263911Y-75550000D03*
X98063910Y-79850061D03*
X98063909Y-75550000D03*
X98863910Y-79850061D03*
X98863910Y-75550000D03*
X99663910Y-79850061D03*
X99663908Y-75550000D03*
X100463910Y-79850061D03*
X100463909Y-75550000D03*
X101263910Y-79850061D03*
X101263910Y-75550000D03*
X102063909Y-79850002D03*
X102063909Y-75550000D03*
X102863909Y-79850002D03*
X102863909Y-75550000D03*
X103663908Y-79850002D03*
X103663908Y-75550000D03*
X104463909Y-79850002D03*
X104463909Y-75550000D03*
X79909933Y-79800002D03*
X79909933Y-75500000D03*
X80709932Y-79800002D03*
X80709932Y-75500000D03*
X81509933Y-79800002D03*
X81509933Y-75500000D03*
X82309931Y-79800002D03*
X82309931Y-75500000D03*
X83109932Y-79800002D03*
X83109932Y-75500000D03*
X83909930Y-79800002D03*
X83909930Y-75500000D03*
X84709931Y-79800002D03*
X84709931Y-75500000D03*
X85509932Y-79800002D03*
X85509932Y-75500000D03*
X86309931Y-79800002D03*
X86309931Y-75500000D03*
X87109931Y-79800002D03*
X87109931Y-75500000D03*
X87909930Y-79800002D03*
X87909930Y-75500000D03*
X88709931Y-79800002D03*
X88709931Y-75500000D03*
%TD*%
D13*
%TO.C,J5*%
X124400000Y-47000000D03*
X124400000Y-49500000D03*
%TD*%
D14*
%TO.C,R15*%
X134950000Y-49362500D03*
X134950000Y-51012500D03*
%TD*%
D15*
%TO.C,C15*%
X120500000Y-106375000D03*
X120500000Y-107925000D03*
%TD*%
D16*
%TO.C,R9*%
X91325000Y-100800000D03*
X89675000Y-100800000D03*
%TD*%
D17*
%TO.C,C26*%
X96250000Y-71400000D03*
X94350000Y-71400000D03*
%TD*%
D18*
%TO.C,J1*%
X126900000Y-107000000D03*
D19*
X126900000Y-109500000D03*
X126900000Y-112000000D03*
X126900000Y-114500000D03*
%TD*%
D20*
%TO.C,H1*%
X67600000Y-45400000D03*
D21*
X67600000Y-45400000D03*
%TD*%
D22*
%TO.C,C4*%
X87000000Y-102375000D03*
X87000000Y-100825000D03*
%TD*%
%TO.C,C23*%
X113690770Y-98875000D03*
X113690770Y-97325000D03*
%TD*%
D23*
%TO.C,J2*%
X119260000Y-57060000D03*
X119260000Y-59600000D03*
X121800000Y-57060000D03*
X121800000Y-59600000D03*
X124340000Y-57060000D03*
X124340000Y-59600000D03*
X126880000Y-57060000D03*
X126880000Y-59600000D03*
X129420000Y-57060000D03*
X129420000Y-59600000D03*
%TD*%
D24*
%TO.C,D6*%
X129200000Y-52612500D03*
X129200000Y-54187500D03*
%TD*%
D25*
%TO.C,Q1*%
X117760000Y-101125000D03*
X117760000Y-101775000D03*
X117760000Y-102425000D03*
X117760000Y-103075000D03*
D26*
X119700000Y-102100000D03*
%TD*%
D27*
%TO.C,C12*%
X109550000Y-99250000D03*
X109550000Y-97350000D03*
%TD*%
D13*
%TO.C,J6*%
X127655000Y-95000000D03*
X127655000Y-97500000D03*
%TD*%
D20*
%TO.C,H2*%
X132400000Y-45400000D03*
D21*
X132400000Y-45400000D03*
%TD*%
D28*
%TO.C,TP_12V1*%
X133807222Y-100491359D03*
%TD*%
D29*
%TO.C,C27*%
X96283760Y-73134051D03*
X94733760Y-73134051D03*
%TD*%
D17*
%TO.C,C28*%
X89225000Y-69415000D03*
X87325000Y-69415000D03*
%TD*%
D28*
%TO.C,TP_GND1*%
X64400000Y-49600000D03*
%TD*%
D30*
%TO.C,TP_24V1*%
X132300000Y-66700000D03*
%TD*%
D16*
%TO.C,R12*%
X116430685Y-107284095D03*
X114780685Y-107284095D03*
%TD*%
D22*
%TO.C,C20*%
X111300000Y-71475000D03*
X111300000Y-69925000D03*
%TD*%
D31*
%TO.C,C8*%
X99900000Y-97800000D03*
X99900000Y-99700000D03*
%TD*%
D32*
%TO.C,IC3*%
X99550000Y-82525000D03*
X99550000Y-83175000D03*
X99550000Y-83825000D03*
X99550000Y-84475000D03*
X102050000Y-84475000D03*
X102050000Y-83825000D03*
X102050000Y-83175000D03*
X102050000Y-82525000D03*
%TD*%
D33*
%TO.C,U2*%
X130730100Y-83064670D03*
X127330100Y-83064670D03*
X130730100Y-73144670D03*
X127330100Y-73144670D03*
%TD*%
D34*
%TO.C,R11*%
X92000000Y-98425000D03*
X92000000Y-96775000D03*
%TD*%
D17*
%TO.C,C6*%
X95450000Y-95500000D03*
X93550000Y-95500000D03*
%TD*%
D22*
%TO.C,C16*%
X94800000Y-84175000D03*
X94800000Y-82625000D03*
%TD*%
%TO.C,C35*%
X79200000Y-70725000D03*
X79200000Y-69175000D03*
%TD*%
D23*
%TO.C,J4*%
X68140000Y-56840000D03*
X65600000Y-56840000D03*
X68140000Y-59380000D03*
X65600000Y-59380000D03*
X68140000Y-61920000D03*
X65600000Y-61920000D03*
X68140000Y-64460000D03*
X65600000Y-64460000D03*
X68140000Y-67000000D03*
X65600000Y-67000000D03*
%TD*%
D31*
%TO.C,C9*%
X97500000Y-97800000D03*
X97500000Y-99700000D03*
%TD*%
D35*
%TO.C,DS1*%
X81000000Y-66550000D03*
X82500000Y-66550000D03*
X84000000Y-66550000D03*
X85500000Y-66550000D03*
X87000000Y-66550000D03*
X88500000Y-66550000D03*
X90000000Y-66550000D03*
X91500000Y-66550000D03*
X93000000Y-66550000D03*
X94500000Y-66550000D03*
X96000000Y-66550000D03*
X97500000Y-66550000D03*
X99000000Y-66550000D03*
X100500000Y-66550000D03*
X102000000Y-66550000D03*
X103500000Y-66550000D03*
X105000000Y-66550000D03*
D36*
X75700000Y-64510000D03*
X110300000Y-64510000D03*
D37*
X72900000Y-66700000D03*
X113100000Y-66700000D03*
X113100000Y-43600000D03*
X72900000Y-43600000D03*
%TD*%
D31*
%TO.C,C24*%
X77330697Y-69245243D03*
X77330697Y-71145243D03*
%TD*%
D38*
%TO.C,Q3*%
X129263968Y-90187007D03*
X129263968Y-89537007D03*
X129263968Y-88887007D03*
X129263968Y-88237007D03*
D39*
X127323968Y-89212007D03*
%TD*%
D27*
%TO.C,C13*%
X107200000Y-99200000D03*
X107200000Y-97300000D03*
%TD*%
D15*
%TO.C,C11*%
X106541625Y-105884095D03*
X106541625Y-107434095D03*
%TD*%
D14*
%TO.C,R17*%
X131080000Y-49455000D03*
X131080000Y-51105000D03*
%TD*%
D22*
%TO.C,C31*%
X85775000Y-70715000D03*
X85775000Y-69165000D03*
%TD*%
D40*
%TO.C,IC1*%
X95682104Y-101823445D03*
D41*
X95500000Y-102000000D03*
D42*
X95690500Y-101323414D03*
X95690500Y-100823288D03*
D43*
X95683483Y-100309505D03*
D44*
X95500000Y-100133045D03*
D45*
X95003176Y-100528089D03*
D46*
X94503050Y-101073351D03*
D45*
X94002924Y-100528089D03*
D47*
X93517530Y-100133044D03*
D48*
X93334047Y-100309497D03*
D42*
X93315600Y-100823288D03*
X93315600Y-101323414D03*
D47*
X93502798Y-101999993D03*
D49*
X93319315Y-101823469D03*
D50*
X94002924Y-102011373D03*
X95003176Y-102011373D03*
%TD*%
D27*
%TO.C,C22*%
X111890770Y-99250000D03*
X111890770Y-97350000D03*
%TD*%
D24*
%TO.C,D3*%
X135000000Y-52525000D03*
X135000000Y-54100000D03*
%TD*%
D14*
%TO.C,R2*%
X99700000Y-86575000D03*
X99700000Y-88225000D03*
%TD*%
D51*
%TO.C,Z1*%
X106538403Y-87396426D03*
X102488403Y-87396426D03*
%TD*%
D31*
%TO.C,C1*%
X101499225Y-103970059D03*
X101499225Y-105870059D03*
%TD*%
D20*
%TO.C,H3*%
X132400000Y-111600000D03*
D21*
X132400000Y-111600000D03*
%TD*%
D17*
%TO.C,C30*%
X96164965Y-69405137D03*
X94264965Y-69405137D03*
%TD*%
D24*
%TO.C,D5*%
X131100000Y-52612500D03*
X131100000Y-54187500D03*
%TD*%
D52*
%TO.C,C3*%
X88125000Y-97800000D03*
X89675000Y-97800000D03*
%TD*%
D16*
%TO.C,R4*%
X116416625Y-104734095D03*
X114766625Y-104734095D03*
%TD*%
D22*
%TO.C,C5*%
X94500000Y-105175000D03*
X94500000Y-103625000D03*
%TD*%
D14*
%TO.C,R1*%
X108700000Y-86716865D03*
X108700000Y-88366865D03*
%TD*%
D15*
%TO.C,C21*%
X112100000Y-86725000D03*
X112100000Y-88275000D03*
%TD*%
D27*
%TO.C,C19*%
X113350000Y-71500000D03*
X113350000Y-69600000D03*
%TD*%
D15*
%TO.C,C17*%
X97600000Y-82625000D03*
X97600000Y-84175000D03*
%TD*%
D14*
%TO.C,R18*%
X129175000Y-49430000D03*
X129175000Y-51080000D03*
%TD*%
D53*
%TO.C,TP_3V1*%
X116500000Y-45100000D03*
%TD*%
D24*
%TO.C,D4*%
X133100000Y-52512500D03*
X133100000Y-54087500D03*
%TD*%
D54*
%TO.C,C2*%
X89750000Y-105300000D03*
X91650000Y-105300000D03*
%TD*%
D55*
%TO.C,L1*%
X98000000Y-103853800D03*
X98000000Y-106546200D03*
%TD*%
D54*
%TO.C,C29*%
X90792480Y-69414775D03*
X92692480Y-69414775D03*
%TD*%
D14*
%TO.C,R16*%
X133025000Y-49350000D03*
X133025000Y-51000000D03*
%TD*%
%TO.C,R7*%
X103241625Y-105809095D03*
X103241625Y-107459095D03*
%TD*%
D25*
%TO.C,Q2*%
X109580000Y-82399000D03*
X109580000Y-83049000D03*
X109580000Y-83699000D03*
X109580000Y-84349000D03*
D26*
X111520000Y-83374000D03*
%TD*%
D34*
%TO.C,R5*%
X112991625Y-105609095D03*
X112991625Y-103959095D03*
%TD*%
D22*
%TO.C,C10*%
X104841625Y-107409095D03*
X104841625Y-105859095D03*
%TD*%
D14*
%TO.C,R13*%
X110400000Y-86675000D03*
X110400000Y-88325000D03*
%TD*%
%TO.C,R6*%
X105041625Y-102809095D03*
X105041625Y-104459095D03*
%TD*%
D16*
%TO.C,R10*%
X95225000Y-98400000D03*
X93575000Y-98400000D03*
%TD*%
D22*
%TO.C,C32*%
X84200000Y-70740000D03*
X84200000Y-69190000D03*
%TD*%
D56*
%TO.C,J3*%
X117475000Y-65045000D03*
D57*
X119975000Y-65045000D03*
X122475000Y-65045000D03*
X124975000Y-65045000D03*
%TD*%
D51*
%TO.C,Z2*%
X125746504Y-102903878D03*
X129796504Y-102903878D03*
%TD*%
D15*
%TO.C,C25*%
X75500000Y-69225000D03*
X75500000Y-70775000D03*
%TD*%
D14*
%TO.C,R3*%
X117000000Y-47800000D03*
X117000000Y-49450000D03*
%TD*%
D22*
%TO.C,C34*%
X80900000Y-70750000D03*
X80900000Y-69200000D03*
%TD*%
%TO.C,C14*%
X104900000Y-98975000D03*
X104900000Y-97425000D03*
%TD*%
D31*
%TO.C,C7*%
X102500000Y-97800000D03*
X102500000Y-99700000D03*
%TD*%
D32*
%TO.C,IC2*%
X108791625Y-105184095D03*
X108791625Y-105834095D03*
X108791625Y-106484095D03*
X108791625Y-107134095D03*
X111291625Y-107134095D03*
X111291625Y-106484095D03*
X111291625Y-105834095D03*
X111291625Y-105184095D03*
%TD*%
D22*
%TO.C,C33*%
X82525000Y-70765000D03*
X82525000Y-69215000D03*
%TD*%
D16*
%TO.C,R8*%
X91525000Y-103000000D03*
X89875000Y-103000000D03*
%TD*%
D34*
%TO.C,R14*%
X130900000Y-90025000D03*
X130900000Y-88375000D03*
%TD*%
D54*
%TO.C,C18*%
X116750000Y-71325000D03*
X118650000Y-71325000D03*
%TD*%
M02*
