%TF.GenerationSoftware,KiCad,Pcbnew,9.0.4*%
%TF.CreationDate,2025-10-13T22:12:45-05:00*%
%TF.ProjectId,PS-ChargerInterfacePCB,50532d43-6861-4726-9765-72496e746572,rev?*%
%TF.SameCoordinates,Original*%
%TF.FileFunction,Copper,L2,Bot*%
%TF.FilePolarity,Positive*%
%FSLAX46Y46*%
G04 Gerber Fmt 4.6, Leading zero omitted, Abs format (unit mm)*
G04 Created by KiCad (PCBNEW 9.0.4) date 2025-10-13 22:12:45*
%MOMM*%
%LPD*%
G01*
G04 APERTURE LIST*
G04 Aperture macros list*
%AMRoundRect*
0 Rectangle with rounded corners*
0 $1 Rounding radius*
0 $2 $3 $4 $5 $6 $7 $8 $9 X,Y pos of 4 corners*
0 Add a 4 corners polygon primitive as box body*
4,1,4,$2,$3,$4,$5,$6,$7,$8,$9,$2,$3,0*
0 Add four circle primitives for the rounded corners*
1,1,$1+$1,$2,$3*
1,1,$1+$1,$4,$5*
1,1,$1+$1,$6,$7*
1,1,$1+$1,$8,$9*
0 Add four rect primitives between the rounded corners*
20,1,$1+$1,$2,$3,$4,$5,0*
20,1,$1+$1,$4,$5,$6,$7,0*
20,1,$1+$1,$6,$7,$8,$9,0*
20,1,$1+$1,$8,$9,$2,$3,0*%
G04 Aperture macros list end*
%TA.AperFunction,ComponentPad*%
%ADD10C,1.800000*%
%TD*%
%TA.AperFunction,ComponentPad*%
%ADD11RoundRect,0.250000X-0.850000X-0.600000X0.850000X-0.600000X0.850000X0.600000X-0.850000X0.600000X0*%
%TD*%
%TA.AperFunction,ComponentPad*%
%ADD12O,2.200000X1.700000*%
%TD*%
%TA.AperFunction,ComponentPad*%
%ADD13C,3.400000*%
%TD*%
%TA.AperFunction,ConnectorPad*%
%ADD14C,6.000000*%
%TD*%
%TA.AperFunction,ComponentPad*%
%ADD15C,1.524000*%
%TD*%
%TA.AperFunction,ComponentPad*%
%ADD16C,2.400000*%
%TD*%
%TA.AperFunction,ComponentPad*%
%ADD17C,1.100000*%
%TD*%
%TA.AperFunction,ComponentPad*%
%ADD18C,2.085000*%
%TD*%
%TA.AperFunction,ComponentPad*%
%ADD19C,1.300000*%
%TD*%
%TA.AperFunction,ComponentPad*%
%ADD20RoundRect,0.250000X0.600000X-0.850000X0.600000X0.850000X-0.600000X0.850000X-0.600000X-0.850000X0*%
%TD*%
%TA.AperFunction,ComponentPad*%
%ADD21O,1.700000X2.200000*%
%TD*%
%TA.AperFunction,ViaPad*%
%ADD22C,0.900000*%
%TD*%
%TA.AperFunction,ViaPad*%
%ADD23C,0.600000*%
%TD*%
%TA.AperFunction,ViaPad*%
%ADD24C,0.700000*%
%TD*%
%TA.AperFunction,Conductor*%
%ADD25C,0.250000*%
%TD*%
%TA.AperFunction,Conductor*%
%ADD26C,0.200000*%
%TD*%
%TA.AperFunction,Conductor*%
%ADD27C,0.300000*%
%TD*%
G04 APERTURE END LIST*
D10*
%TO.P,J5,1,Pin_1*%
%TO.N,+3.3V*%
X124400000Y-47000000D03*
%TO.P,J5,2,Pin_2*%
%TO.N,/Estop*%
X124400000Y-49500000D03*
%TD*%
D11*
%TO.P,J1,1,Pin_1*%
%TO.N,/12V_IN*%
X126900000Y-107000000D03*
D12*
%TO.P,J1,2,Pin_2*%
%TO.N,/CAN_Elcon_+*%
X126900000Y-109500000D03*
%TO.P,J1,3,Pin_3*%
%TO.N,/CAN_Elcon_-*%
X126900000Y-112000000D03*
%TO.P,J1,4,Pin_4*%
%TO.N,GND*%
X126900000Y-114500000D03*
%TD*%
D13*
%TO.P,H1,1*%
%TO.N,N/C*%
X67600000Y-45400000D03*
D14*
X67600000Y-45400000D03*
%TD*%
D15*
%TO.P,J2,1,GND*%
%TO.N,GND*%
X119260000Y-57060000D03*
%TO.P,J2,2,GND*%
X119260000Y-59600000D03*
%TO.P,J2,3,CH7*%
%TO.N,/Display_MOSI*%
X121800000Y-57060000D03*
%TO.P,J2,4,CH6*%
%TO.N,/Display_SCLK*%
X121800000Y-59600000D03*
%TO.P,J2,5,CH5*%
%TO.N,/Estop*%
X124340000Y-57060000D03*
%TO.P,J2,6,CH4*%
%TO.N,/Display_MISO*%
X124340000Y-59600000D03*
%TO.P,J2,7,CH3*%
%TO.N,unconnected-(J2-CH3-Pad7)*%
X126880000Y-57060000D03*
%TO.P,J2,8,CH2*%
%TO.N,/Display_RES*%
X126880000Y-59600000D03*
%TO.P,J2,9,CH1*%
%TO.N,unconnected-(J2-CH1-Pad9)*%
X129420000Y-57060000D03*
%TO.P,J2,10,CH0*%
%TO.N,/Display_NSS*%
X129420000Y-59600000D03*
%TD*%
D10*
%TO.P,J6,1,Pin_1*%
%TO.N,+12V*%
X127655000Y-95000000D03*
%TO.P,J6,2,Pin_2*%
%TO.N,/Buzzer/Buzz_Post_Diodes*%
X127655000Y-97500000D03*
%TD*%
D13*
%TO.P,H2,1*%
%TO.N,N/C*%
X132400000Y-45400000D03*
D14*
X132400000Y-45400000D03*
%TD*%
D16*
%TO.P,U2,1,1*%
%TO.N,/12V-24V Boost Converter/24V_Out_Fuse*%
X130730100Y-83064670D03*
%TO.P,U2,2,2*%
X127330100Y-83064670D03*
%TO.P,U2,3,3*%
%TO.N,/24V_OUT*%
X130730100Y-73144670D03*
%TO.P,U2,4,4*%
X127330100Y-73144670D03*
%TD*%
D15*
%TO.P,J4,1,GND*%
%TO.N,GND*%
X68140000Y-56840000D03*
%TO.P,J4,2,GND*%
X65600000Y-56840000D03*
%TO.P,J4,3,CH7*%
%TO.N,/LED_CHARGE*%
X68140000Y-59380000D03*
%TO.P,J4,4,CH6*%
%TO.N,/LED_HEART*%
X65600000Y-59380000D03*
%TO.P,J4,5,CH5*%
%TO.N,/LED_HV*%
X68140000Y-61920000D03*
%TO.P,J4,6,CH4*%
%TO.N,/LED_FAULT*%
X65600000Y-61920000D03*
%TO.P,J4,7,CH3*%
%TO.N,/CAN_Elcon_+*%
X68140000Y-64460000D03*
%TO.P,J4,8,CH2*%
%TO.N,/CAN_Car_-*%
X65600000Y-64460000D03*
%TO.P,J4,9,CH1*%
%TO.N,/CAN_Elcon_-*%
X68140000Y-67000000D03*
%TO.P,J4,10,CH0*%
%TO.N,/CAN_Car_+*%
X65600000Y-67000000D03*
%TD*%
D17*
%TO.P,DS1,1,V0*%
%TO.N,Net-(DS1-V0)*%
X81000000Y-66550000D03*
%TO.P,DS1,2,V1*%
%TO.N,Net-(DS1-V1)*%
X82500000Y-66550000D03*
%TO.P,DS1,3,V2*%
%TO.N,Net-(DS1-V2)*%
X84000000Y-66550000D03*
%TO.P,DS1,4,V3*%
%TO.N,Net-(DS1-V3)*%
X85500000Y-66550000D03*
%TO.P,DS1,5,V4*%
%TO.N,Net-(DS1-V4)*%
X87000000Y-66550000D03*
%TO.P,DS1,6,C2-*%
%TO.N,Net-(DS1-C2-)*%
X88500000Y-66550000D03*
%TO.P,DS1,7,C2+*%
%TO.N,Net-(DS1-C2+)*%
X90000000Y-66550000D03*
%TO.P,DS1,8,C1+*%
%TO.N,Net-(DS1-C1+)*%
X91500000Y-66550000D03*
%TO.P,DS1,9,C1-*%
%TO.N,Net-(DS1-C1-)*%
X93000000Y-66550000D03*
%TO.P,DS1,10,VOUT*%
%TO.N,Net-(DS1-VOUT)*%
X94500000Y-66550000D03*
%TO.P,DS1,11,VSS*%
%TO.N,GND*%
X96000000Y-66550000D03*
%TO.P,DS1,12,VDD*%
%TO.N,+3.3V*%
X97500000Y-66550000D03*
%TO.P,DS1,13,SI*%
%TO.N,/Display_MOSI*%
X99000000Y-66550000D03*
%TO.P,DS1,14,SCL*%
%TO.N,/Display_SCLK*%
X100500000Y-66550000D03*
%TO.P,DS1,15,A0*%
%TO.N,/Display_MISO*%
X102000000Y-66550000D03*
%TO.P,DS1,16,~{RES}*%
%TO.N,/Display_RES*%
X103500000Y-66550000D03*
%TO.P,DS1,17,CS1B*%
%TO.N,/Display_NSS*%
X105000000Y-66550000D03*
D18*
%TO.P,DS1,A1,A*%
%TO.N,+3.3V*%
X75700000Y-64510000D03*
%TO.P,DS1,K1,K*%
%TO.N,GND*%
X110300000Y-64510000D03*
D19*
%TO.P,DS1,MH1,MH1*%
%TO.N,unconnected-(DS1-PadMH1)*%
X72900000Y-66700000D03*
%TO.P,DS1,MH2,MH2*%
%TO.N,unconnected-(DS1-PadMH2)*%
X113100000Y-66700000D03*
%TO.P,DS1,MH3,MH3*%
%TO.N,unconnected-(DS1-PadMH3)*%
X113100000Y-43600000D03*
%TO.P,DS1,MH4,MH4*%
%TO.N,unconnected-(DS1-PadMH4)*%
X72900000Y-43600000D03*
%TD*%
D13*
%TO.P,H3,1*%
%TO.N,N/C*%
X132400000Y-111600000D03*
D14*
X132400000Y-111600000D03*
%TD*%
D20*
%TO.P,J3,1,24V*%
%TO.N,+24V*%
X117475000Y-65045000D03*
D21*
%TO.P,J3,2,GND*%
%TO.N,GND*%
X119975000Y-65045000D03*
%TO.P,J3,3,CAN_H*%
%TO.N,/CAN_Car_+*%
X122475000Y-65045000D03*
%TO.P,J3,4,CAN_L*%
%TO.N,/CAN_Car_-*%
X124975000Y-65045000D03*
%TD*%
D22*
%TO.N,GND*%
X113700000Y-96100000D03*
X111800000Y-96100000D03*
X109500000Y-96100000D03*
X107200000Y-96100000D03*
X104900000Y-96200000D03*
D23*
%TO.N,/Display_NSS*%
X100626738Y-72375265D03*
D22*
%TO.N,GND*%
X107000000Y-59000000D03*
X109000000Y-51000000D03*
X93400000Y-92900000D03*
X96200000Y-87800000D03*
X93400000Y-89000000D03*
X95100000Y-86700000D03*
X71000000Y-85000000D03*
X85000000Y-83600000D03*
X71000000Y-66000000D03*
X89000000Y-95000000D03*
X127800000Y-66700000D03*
X71000000Y-70000000D03*
X73000000Y-87000000D03*
X129000000Y-43000000D03*
X107900000Y-63500000D03*
X117000000Y-53000000D03*
X65000000Y-81000000D03*
X90000000Y-63800000D03*
D23*
X99900000Y-101000000D03*
D22*
X77000000Y-83600000D03*
X91000000Y-109000000D03*
X91000000Y-89000000D03*
X75000000Y-87000000D03*
X103600000Y-72000000D03*
X131800000Y-56200000D03*
X113000000Y-63000000D03*
X91000000Y-91000000D03*
X87000000Y-107000000D03*
X79000000Y-87000000D03*
X111000000Y-53000000D03*
X71000000Y-72000000D03*
X75000000Y-80000000D03*
X89000000Y-82000000D03*
X115000000Y-109000000D03*
X73000000Y-64000000D03*
X86000000Y-63800000D03*
X105500000Y-68900000D03*
X77000000Y-82000000D03*
X79000000Y-82000000D03*
X77000000Y-87000000D03*
X83000000Y-83600000D03*
X107000000Y-57000000D03*
X83000000Y-82000000D03*
X69000000Y-83000000D03*
X103600000Y-70400000D03*
X93000000Y-107000000D03*
X135000000Y-61000000D03*
X75000000Y-83600000D03*
X107000000Y-53000000D03*
X97000000Y-109000000D03*
X117000000Y-51000000D03*
X73000000Y-74000000D03*
X113000000Y-65000000D03*
X75000000Y-82000000D03*
X111000000Y-49000000D03*
X79000000Y-83600000D03*
X72000000Y-80000000D03*
X113000000Y-109000000D03*
X81000000Y-82000000D03*
X93000000Y-109000000D03*
X67000000Y-81000000D03*
X81000000Y-87000000D03*
X89000000Y-93000000D03*
X89000000Y-87000000D03*
X91000000Y-107000000D03*
X115000000Y-51000000D03*
X109000000Y-109000000D03*
X105500000Y-70400000D03*
X131800000Y-62900000D03*
X89000000Y-89000000D03*
X104600000Y-85100000D03*
X88000000Y-63800000D03*
X119000000Y-109000000D03*
X67000000Y-83000000D03*
X105000000Y-59000000D03*
X73000000Y-70000000D03*
X111000000Y-55000000D03*
D23*
X96267183Y-98915305D03*
D22*
X115000000Y-53000000D03*
X87000000Y-87000000D03*
X111000000Y-109000000D03*
X89000000Y-107000000D03*
X132800000Y-61800000D03*
X95000000Y-109000000D03*
X89000000Y-109000000D03*
X93400000Y-90900000D03*
X113000000Y-51000000D03*
X72900000Y-81800000D03*
X87000000Y-82000000D03*
X111000000Y-63000000D03*
X135000000Y-63000000D03*
X91000000Y-95000000D03*
X91000000Y-93000000D03*
X71000000Y-68000000D03*
X92000000Y-63800000D03*
X105000000Y-109000000D03*
X85000000Y-87000000D03*
D23*
X94000000Y-97300000D03*
D22*
X107000000Y-109000000D03*
D23*
X112941625Y-103034095D03*
D22*
X97600000Y-88900000D03*
X71000000Y-87000000D03*
X102000000Y-64000000D03*
X109000000Y-57000000D03*
X89000000Y-91000000D03*
X117000000Y-109000000D03*
X85000000Y-82000000D03*
X75000000Y-76000000D03*
X81000000Y-83600000D03*
X87000000Y-83600000D03*
X103000000Y-109000000D03*
X100200000Y-64200000D03*
X129400000Y-64800000D03*
X135000000Y-59000000D03*
X131800000Y-57900000D03*
X106800000Y-64700000D03*
X75000000Y-74000000D03*
X96000000Y-63800000D03*
X71000000Y-64000000D03*
X109000000Y-55000000D03*
D23*
X102500000Y-101000000D03*
D22*
X112100000Y-89500000D03*
X105000000Y-55000000D03*
X73000000Y-72000000D03*
X69000000Y-85000000D03*
X91000000Y-87000000D03*
X87000000Y-109000000D03*
X129400000Y-66700000D03*
D23*
X107641625Y-105834095D03*
D22*
X94000000Y-63800000D03*
X113000000Y-53000000D03*
X135000000Y-65000000D03*
X83000000Y-87000000D03*
D23*
%TO.N,/Power24V/RPP_EN*%
X110400000Y-89350000D03*
X103200000Y-85100000D03*
X93675000Y-82625000D03*
%TO.N,/LED_HV*%
X86350000Y-72301000D03*
D24*
X135000000Y-57100000D03*
%TO.N,/LED_FAULT*%
X133100000Y-55300000D03*
X79700000Y-63700000D03*
D23*
X87150003Y-72301000D03*
D24*
X80200000Y-61300000D03*
%TO.N,/LED_CHARGE*%
X81200000Y-63800000D03*
D23*
X87975000Y-72301000D03*
D24*
X81600000Y-60700000D03*
X126326000Y-54926000D03*
%TO.N,/LED_HEART*%
X83000000Y-58700000D03*
X82900000Y-63900000D03*
D23*
X88900000Y-72301000D03*
D24*
X127500000Y-54187500D03*
D23*
%TO.N,/Display_MISO*%
X99800000Y-72000000D03*
X100800000Y-70200000D03*
%TO.N,/Display_RES*%
X99000000Y-71700000D03*
X101700000Y-69400000D03*
%TO.N,/Display_NSS*%
X101700000Y-70300000D03*
D22*
%TO.N,/Estop*%
X90800000Y-77100000D03*
D24*
X129800000Y-63300000D03*
D23*
%TO.N,/BuzzPWM*%
X131000000Y-87000000D03*
X99600000Y-77300000D03*
D22*
%TO.N,/CAN_Elcon_+*%
X92300000Y-79400000D03*
D23*
X97300001Y-77503715D03*
D24*
%TO.N,/CAN_Car_+*%
X81509933Y-73300000D03*
X80200000Y-78300000D03*
%TO.N,/CAN_Elcon_-*%
X89900000Y-84900000D03*
D22*
X93100000Y-80200000D03*
D23*
X98150000Y-78400000D03*
D24*
%TO.N,/CAN_Car_-*%
X82600000Y-73600000D03*
X82300000Y-77600000D03*
D22*
%TO.N,Net-(IC1-EN{slash}UVLO)*%
X100500000Y-108400000D03*
D23*
X97423414Y-101323414D03*
%TO.N,GND*%
X93100000Y-104200000D03*
%TD*%
D25*
%TO.N,Net-(IC1-EN{slash}UVLO)*%
X97423414Y-101323414D02*
X98100000Y-102000000D01*
X98100000Y-102000000D02*
X98100000Y-106700000D01*
X98100000Y-106700000D02*
X99800000Y-108400000D01*
X99800000Y-108400000D02*
X100500000Y-108400000D01*
D26*
%TO.N,/CAN_Elcon_-*%
X89900000Y-84900000D02*
X89900000Y-109800000D01*
X122725000Y-114500000D02*
X125225000Y-112000000D01*
X89900000Y-109800000D02*
X94600000Y-114500000D01*
X94600000Y-114500000D02*
X122725000Y-114500000D01*
X125225000Y-112000000D02*
X126900000Y-112000000D01*
%TO.N,/Estop*%
X90800000Y-77100000D02*
X93334900Y-74565100D01*
X93334900Y-74565100D02*
X118134900Y-74565100D01*
X118134900Y-74565100D02*
X129400000Y-63300000D01*
X129400000Y-63300000D02*
X129800000Y-63300000D01*
%TO.N,/LED_FAULT*%
X133100000Y-55300000D02*
X133100000Y-58300000D01*
X129700000Y-61700000D02*
X109532900Y-61700000D01*
X109532900Y-61700000D02*
X108915899Y-62317001D01*
X133100000Y-58300000D02*
X129700000Y-61700000D01*
X108915899Y-62317001D02*
X81217001Y-62317001D01*
X81217001Y-62317001D02*
X80200000Y-61300000D01*
%TO.N,/LED_HEART*%
X127500000Y-54187500D02*
X117612500Y-54187500D01*
X117612500Y-54187500D02*
X112049000Y-59751000D01*
X112049000Y-59751000D02*
X107149000Y-59751000D01*
X101467100Y-59600000D02*
X83900000Y-59600000D01*
X107149000Y-59751000D02*
X105400000Y-61500000D01*
X105400000Y-61500000D02*
X103367100Y-61500000D01*
X103367100Y-61500000D02*
X101467100Y-59600000D01*
X83900000Y-59600000D02*
X83000000Y-58700000D01*
%TO.N,/LED_CHARGE*%
X107400000Y-60200000D02*
X105700000Y-61900000D01*
X105700000Y-61900000D02*
X105567100Y-61900000D01*
X112600000Y-60200000D02*
X107400000Y-60200000D01*
X117874000Y-54926000D02*
X112600000Y-60200000D01*
X126326000Y-54926000D02*
X117874000Y-54926000D01*
X105566100Y-61901000D02*
X103201000Y-61901000D01*
X81601000Y-60700000D02*
X81600000Y-60700000D01*
X105567100Y-61900000D02*
X105566100Y-61901000D01*
X82300000Y-60001000D02*
X81601000Y-60700000D01*
X103201000Y-61901000D02*
X101301000Y-60001000D01*
X101301000Y-60001000D02*
X82300000Y-60001000D01*
%TO.N,/Display_RES*%
X101700000Y-69400000D02*
X101500000Y-69600000D01*
X100500000Y-69600000D02*
X99000000Y-71100000D01*
X101500000Y-69600000D02*
X100500000Y-69600000D01*
X99000000Y-71100000D02*
X99000000Y-71700000D01*
D27*
%TO.N,/Power24V/RPP_EN*%
X96500000Y-89850000D02*
X93700000Y-87050000D01*
X103200000Y-85100000D02*
X102600000Y-85700000D01*
X109900000Y-89850000D02*
X96500000Y-89850000D01*
X93700000Y-87050000D02*
X93700000Y-85750000D01*
X102600000Y-85700000D02*
X93750000Y-85700000D01*
X110400000Y-89350000D02*
X109900000Y-89850000D01*
X93750000Y-85700000D02*
X93700000Y-85750000D01*
X93700000Y-82650000D02*
X93675000Y-82625000D01*
X93700000Y-85750000D02*
X93700000Y-82650000D01*
D26*
%TO.N,/LED_HV*%
X129900000Y-62200000D02*
X135000000Y-57100000D01*
X79000000Y-62718001D02*
X79100000Y-62718001D01*
X77100000Y-69400000D02*
X77100000Y-64618001D01*
X70360000Y-62700000D02*
X69580000Y-61920000D01*
X86149000Y-72100000D02*
X79800000Y-72100000D01*
X109081999Y-62718001D02*
X109600000Y-62200000D01*
X79100000Y-62718001D02*
X79081999Y-62700000D01*
X109600000Y-62200000D02*
X129900000Y-62200000D01*
X79100000Y-62718001D02*
X102500000Y-62718001D01*
X102500000Y-62718001D02*
X109081999Y-62718001D01*
X86350000Y-72301000D02*
X86149000Y-72100000D01*
X69580000Y-61920000D02*
X68140000Y-61920000D01*
X79081999Y-62700000D02*
X70360000Y-62700000D01*
X77100000Y-64618001D02*
X79000000Y-62718001D01*
X79800000Y-72100000D02*
X77100000Y-69400000D01*
%TO.N,/LED_FAULT*%
X66920000Y-60600000D02*
X65600000Y-61920000D01*
X80200000Y-61300000D02*
X79500000Y-60600000D01*
X77700000Y-69200000D02*
X77700000Y-65700000D01*
X77700000Y-65700000D02*
X79700000Y-63700000D01*
X87149558Y-72300555D02*
X87149558Y-71749558D01*
X86600000Y-71200000D02*
X79700000Y-71200000D01*
X79500000Y-60600000D02*
X66920000Y-60600000D01*
X79700000Y-71200000D02*
X77700000Y-69200000D01*
X87149558Y-71749558D02*
X86600000Y-71200000D01*
X87150003Y-72301000D02*
X87149558Y-72300555D01*
%TO.N,/LED_CHARGE*%
X80600000Y-64400000D02*
X81200000Y-63800000D01*
X78101000Y-65866100D02*
X79567100Y-64400000D01*
X87975000Y-72301000D02*
X87975000Y-72007900D01*
X79567100Y-64400000D02*
X80600000Y-64400000D01*
X87975000Y-72007900D02*
X86667100Y-70700000D01*
X81600000Y-60700000D02*
X80280000Y-59380000D01*
X78101000Y-68901000D02*
X78101000Y-65866100D01*
X86667100Y-70700000D02*
X79900000Y-70700000D01*
X80280000Y-59380000D02*
X68140000Y-59380000D01*
X79900000Y-70700000D02*
X78101000Y-68901000D01*
%TO.N,/LED_HEART*%
X88900000Y-72301000D02*
X88900000Y-72000000D01*
X78502000Y-68702000D02*
X78502000Y-66098000D01*
X88900000Y-72000000D02*
X87100000Y-70200000D01*
X82400000Y-58100000D02*
X66880000Y-58100000D01*
X87100000Y-70200000D02*
X80000000Y-70200000D01*
X66880000Y-58100000D02*
X65600000Y-59380000D01*
X80000000Y-70200000D02*
X78502000Y-68702000D01*
X81700000Y-65100000D02*
X82900000Y-63900000D01*
X83000000Y-58700000D02*
X82400000Y-58100000D01*
X79500000Y-65100000D02*
X81700000Y-65100000D01*
X78502000Y-66098000D02*
X79500000Y-65100000D01*
%TO.N,/Display_MISO*%
X99800000Y-71900000D02*
X100800000Y-70900000D01*
X100800000Y-70900000D02*
X100800000Y-70200000D01*
X99800000Y-72000000D02*
X99800000Y-71900000D01*
%TO.N,/BuzzPWM*%
X114400000Y-78448254D02*
X114350000Y-78398254D01*
X114350000Y-78398254D02*
X114350000Y-78350000D01*
X131000000Y-87000000D02*
X129300000Y-85300000D01*
X112800000Y-76800000D02*
X100100000Y-76800000D01*
X114350000Y-78350000D02*
X112800000Y-76800000D01*
X114400000Y-82700000D02*
X114400000Y-78448254D01*
X129300000Y-85300000D02*
X117000000Y-85300000D01*
X117000000Y-85300000D02*
X114400000Y-82700000D01*
X100100000Y-76800000D02*
X99600000Y-77300000D01*
%TO.N,/CAN_Elcon_+*%
X126900000Y-109500000D02*
X125380230Y-109500000D01*
X94850000Y-114050000D02*
X92249000Y-111449000D01*
X97300001Y-77503715D02*
X97346286Y-77550000D01*
X92249000Y-79451000D02*
X92300000Y-79400000D01*
X125380230Y-109500000D02*
X120830230Y-114050000D01*
X92249000Y-111449000D02*
X92249000Y-79451000D01*
X92300000Y-79400000D02*
X94200000Y-77500000D01*
X97296286Y-77500000D02*
X97300001Y-77503715D01*
X120830230Y-114050000D02*
X94850000Y-114050000D01*
X94200000Y-77500000D02*
X97296286Y-77500000D01*
%TO.N,/CAN_Car_+*%
X122800000Y-66600000D02*
X122800000Y-64170000D01*
X81509933Y-73292067D02*
X81901000Y-72901000D01*
X80200000Y-78300000D02*
X72900000Y-78300000D01*
X116424735Y-72975265D02*
X122800000Y-66600000D01*
X65600000Y-71100000D02*
X65600000Y-67000000D01*
X65700000Y-71100000D02*
X65600000Y-71100000D01*
X72900000Y-78300000D02*
X65700000Y-71100000D01*
X100302527Y-72901000D02*
X100376792Y-72975265D01*
X81509933Y-73300000D02*
X81509933Y-73292067D01*
X100376792Y-72975265D02*
X116424735Y-72975265D01*
X81901000Y-72901000D02*
X100302527Y-72901000D01*
%TO.N,/CAN_Elcon_-*%
X94900000Y-78400000D02*
X93100000Y-80200000D01*
X98150000Y-78400000D02*
X94900000Y-78400000D01*
%TO.N,/CAN_Car_-*%
X125300000Y-64900000D02*
X125300000Y-64170000D01*
X116600000Y-73600000D02*
X125300000Y-64900000D01*
X82300000Y-77600000D02*
X73200000Y-77600000D01*
X73200000Y-77600000D02*
X66800000Y-71200000D01*
X66800000Y-71200000D02*
X66800000Y-65660000D01*
X82600000Y-73600000D02*
X116600000Y-73600000D01*
X66800000Y-65660000D02*
X65600000Y-64460000D01*
%TO.N,/Display_NSS*%
X100626738Y-72375265D02*
X100626738Y-72373262D01*
X100626738Y-72373262D02*
X101700000Y-71300000D01*
X101700000Y-71300000D02*
X101700000Y-70300000D01*
%TD*%
%TA.AperFunction,Conductor*%
%TO.N,GND*%
G36*
X66652268Y-57538715D02*
G01*
X66679362Y-57501425D01*
X66759515Y-57344117D01*
X66807489Y-57293321D01*
X66875310Y-57276526D01*
X66941445Y-57299063D01*
X66980485Y-57344117D01*
X67060641Y-57501432D01*
X67134155Y-57602614D01*
X67157635Y-57668420D01*
X67141810Y-57736474D01*
X67091704Y-57785169D01*
X67033837Y-57799500D01*
X66840438Y-57799500D01*
X66810127Y-57807622D01*
X66764009Y-57819979D01*
X66764004Y-57819982D01*
X66695495Y-57859535D01*
X66695491Y-57859538D01*
X66516136Y-58038892D01*
X66505504Y-58045513D01*
X66499931Y-58052537D01*
X66468489Y-58068570D01*
X66458220Y-58072073D01*
X66388415Y-58075086D01*
X66328063Y-58039882D01*
X66296324Y-57977638D01*
X66294568Y-57944986D01*
X66298716Y-57892268D01*
X65735942Y-57329494D01*
X65796081Y-57313381D01*
X65911920Y-57246502D01*
X66006502Y-57151920D01*
X66073381Y-57036081D01*
X66089495Y-56975942D01*
X66652268Y-57538715D01*
G37*
%TD.AperFunction*%
%TA.AperFunction,Conductor*%
G36*
X134672890Y-41821226D02*
G01*
X134703072Y-41824965D01*
X134879261Y-41869248D01*
X134895512Y-41874547D01*
X135088070Y-41952400D01*
X135103433Y-41959882D01*
X135283451Y-42063479D01*
X135297637Y-42073002D01*
X135461690Y-42200371D01*
X135474435Y-42211758D01*
X135619416Y-42360487D01*
X135630477Y-42373522D01*
X135753617Y-42540768D01*
X135762780Y-42555201D01*
X135861745Y-42737794D01*
X135868836Y-42753349D01*
X135941748Y-42947820D01*
X135946632Y-42964204D01*
X135992103Y-43166859D01*
X135994687Y-43183759D01*
X136012166Y-43394527D01*
X136012546Y-43401469D01*
X136012566Y-43402254D01*
X136013181Y-43446869D01*
X136013805Y-43448707D01*
X136014101Y-43459767D01*
X136013919Y-43460453D01*
X136014145Y-43463098D01*
X135999524Y-115160173D01*
X135994843Y-115193896D01*
X135937295Y-115397364D01*
X135931564Y-115413353D01*
X135833822Y-115636576D01*
X135825960Y-115651631D01*
X135698627Y-115859411D01*
X135688782Y-115873251D01*
X135534253Y-116061678D01*
X135522608Y-116074042D01*
X135343780Y-116239585D01*
X135330555Y-116250242D01*
X135130783Y-116389796D01*
X135116226Y-116398547D01*
X134899252Y-116509495D01*
X134883636Y-116516173D01*
X134653545Y-116596428D01*
X134637163Y-116600910D01*
X134398264Y-116648971D01*
X134381422Y-116651173D01*
X134135004Y-116666332D01*
X134126511Y-116666563D01*
X134076220Y-116666206D01*
X134070044Y-116666670D01*
X64314432Y-116690645D01*
X64306317Y-116690382D01*
X64070373Y-116674990D01*
X64054371Y-116672894D01*
X63826363Y-116627768D01*
X63810768Y-116623610D01*
X63590576Y-116549260D01*
X63575653Y-116543113D01*
X63366965Y-116440786D01*
X63352975Y-116432757D01*
X63159346Y-116304192D01*
X63146513Y-116294410D01*
X62971225Y-116141789D01*
X62959768Y-116130421D01*
X62805786Y-115956324D01*
X62795907Y-115943569D01*
X62665842Y-115750948D01*
X62657700Y-115737014D01*
X62553751Y-115529125D01*
X62547492Y-115514259D01*
X62514291Y-115418399D01*
X62471429Y-115294643D01*
X62467151Y-115279084D01*
X62461403Y-115251185D01*
X62420251Y-115051431D01*
X62418032Y-115035448D01*
X62416773Y-115018217D01*
X62400827Y-114799927D01*
X62400498Y-114790909D01*
X62400492Y-114731591D01*
X62400139Y-111484603D01*
X65839500Y-111484603D01*
X65839500Y-111715396D01*
X65862929Y-111893347D01*
X65869623Y-111944193D01*
X65876714Y-111970657D01*
X65929353Y-112167110D01*
X66017665Y-112380313D01*
X66017669Y-112380323D01*
X66133056Y-112580179D01*
X66273544Y-112763267D01*
X66273550Y-112763274D01*
X66436725Y-112926449D01*
X66436732Y-112926455D01*
X66619820Y-113066943D01*
X66819676Y-113182330D01*
X66819677Y-113182330D01*
X66819680Y-113182332D01*
X66961821Y-113241208D01*
X67032889Y-113270646D01*
X67032890Y-113270646D01*
X67032892Y-113270647D01*
X67255807Y-113330377D01*
X67484611Y-113360500D01*
X67484618Y-113360500D01*
X67715382Y-113360500D01*
X67715389Y-113360500D01*
X67944193Y-113330377D01*
X68167108Y-113270647D01*
X68380320Y-113182332D01*
X68580180Y-113066943D01*
X68763269Y-112926454D01*
X68926454Y-112763269D01*
X69066943Y-112580180D01*
X69182332Y-112380320D01*
X69270647Y-112167108D01*
X69330377Y-111944193D01*
X69360500Y-111715389D01*
X69360500Y-111484611D01*
X69330377Y-111255807D01*
X69270647Y-111032892D01*
X69263477Y-111015583D01*
X69227951Y-110929815D01*
X69182332Y-110819680D01*
X69098512Y-110674500D01*
X69066943Y-110619820D01*
X68926455Y-110436732D01*
X68926449Y-110436725D01*
X68763274Y-110273550D01*
X68763267Y-110273544D01*
X68580179Y-110133056D01*
X68380323Y-110017669D01*
X68380313Y-110017665D01*
X68167110Y-109929353D01*
X68055650Y-109899488D01*
X67944193Y-109869623D01*
X67893347Y-109862929D01*
X67715396Y-109839500D01*
X67715389Y-109839500D01*
X67484611Y-109839500D01*
X67484603Y-109839500D01*
X67281229Y-109866276D01*
X67255807Y-109869623D01*
X67200078Y-109884555D01*
X67032889Y-109929353D01*
X66819686Y-110017665D01*
X66819676Y-110017669D01*
X66619820Y-110133056D01*
X66436732Y-110273544D01*
X66436725Y-110273550D01*
X66273550Y-110436725D01*
X66273544Y-110436732D01*
X66133056Y-110619820D01*
X66017669Y-110819676D01*
X66017665Y-110819686D01*
X65929353Y-111032889D01*
X65904896Y-111124167D01*
X65869623Y-111255807D01*
X65866276Y-111281229D01*
X65839500Y-111484603D01*
X62400139Y-111484603D01*
X62397244Y-84827525D01*
X89349500Y-84827525D01*
X89349500Y-84972475D01*
X89367251Y-85038723D01*
X89369175Y-85049614D01*
X89369176Y-85049619D01*
X89370265Y-85055783D01*
X89370266Y-85055786D01*
X89372801Y-85062298D01*
X89377015Y-85075163D01*
X89387016Y-85112485D01*
X89398611Y-85132567D01*
X89406778Y-85149588D01*
X89589956Y-85620185D01*
X89591055Y-85623009D01*
X89599500Y-85667987D01*
X89599500Y-109839562D01*
X89607555Y-109869623D01*
X89619979Y-109915989D01*
X89627693Y-109929349D01*
X89627694Y-109929353D01*
X89659535Y-109984504D01*
X89659539Y-109984509D01*
X89659540Y-109984511D01*
X94415489Y-114740460D01*
X94474829Y-114774720D01*
X94484008Y-114780020D01*
X94484012Y-114780022D01*
X94560438Y-114800500D01*
X94560440Y-114800500D01*
X122764560Y-114800500D01*
X122764562Y-114800500D01*
X122840989Y-114780021D01*
X122909511Y-114740460D01*
X122965460Y-114684511D01*
X125095855Y-112554114D01*
X125157176Y-112520631D01*
X125226868Y-112525615D01*
X125232083Y-112527696D01*
X126092916Y-112893975D01*
X126092868Y-112894086D01*
X126099258Y-112896811D01*
X126106859Y-112900510D01*
X126152402Y-112930941D01*
X126266442Y-112978178D01*
X126269801Y-112979813D01*
X126292979Y-113000915D01*
X126317393Y-113020589D01*
X126318612Y-113024251D01*
X126321466Y-113026850D01*
X126329557Y-113057138D01*
X126339458Y-113086883D01*
X126338503Y-113090622D01*
X126339500Y-113094352D01*
X126329930Y-113124211D01*
X126322179Y-113154582D01*
X126319354Y-113157211D01*
X126318176Y-113160889D01*
X126293980Y-113180835D01*
X126271042Y-113202193D01*
X126265138Y-113204613D01*
X126264265Y-113205334D01*
X126263021Y-113205481D01*
X126253856Y-113209240D01*
X126131781Y-113248905D01*
X125942442Y-113345379D01*
X125770540Y-113470272D01*
X125770535Y-113470276D01*
X125620276Y-113620535D01*
X125620272Y-113620540D01*
X125495379Y-113792442D01*
X125398904Y-113981782D01*
X125333242Y-114183870D01*
X125333242Y-114183873D01*
X125322769Y-114250000D01*
X126351518Y-114250000D01*
X126340889Y-114268409D01*
X126300000Y-114421009D01*
X126300000Y-114578991D01*
X126340889Y-114731591D01*
X126351518Y-114750000D01*
X125322769Y-114750000D01*
X125333242Y-114816126D01*
X125333242Y-114816129D01*
X125398904Y-115018217D01*
X125495379Y-115207557D01*
X125620272Y-115379459D01*
X125620276Y-115379464D01*
X125770535Y-115529723D01*
X125770540Y-115529727D01*
X125942442Y-115654620D01*
X126131782Y-115751095D01*
X126333870Y-115816757D01*
X126543754Y-115850000D01*
X126650000Y-115850000D01*
X126650000Y-115048482D01*
X126668409Y-115059111D01*
X126821009Y-115100000D01*
X126978991Y-115100000D01*
X127131591Y-115059111D01*
X127150000Y-115048482D01*
X127150000Y-115850000D01*
X127256246Y-115850000D01*
X127466127Y-115816757D01*
X127466130Y-115816757D01*
X127668217Y-115751095D01*
X127857557Y-115654620D01*
X128029459Y-115529727D01*
X128029464Y-115529723D01*
X128179723Y-115379464D01*
X128179727Y-115379459D01*
X128304620Y-115207557D01*
X128401095Y-115018217D01*
X128466757Y-114816129D01*
X128466757Y-114816126D01*
X128477231Y-114750000D01*
X127448482Y-114750000D01*
X127459111Y-114731591D01*
X127500000Y-114578991D01*
X127500000Y-114421009D01*
X127459111Y-114268409D01*
X127448482Y-114250000D01*
X128477231Y-114250000D01*
X128466757Y-114183873D01*
X128466757Y-114183870D01*
X128401095Y-113981782D01*
X128304620Y-113792442D01*
X128179727Y-113620540D01*
X128179723Y-113620535D01*
X128029464Y-113470276D01*
X128029459Y-113470272D01*
X127857557Y-113345379D01*
X127668216Y-113248904D01*
X127546144Y-113209240D01*
X127488468Y-113169802D01*
X127461270Y-113105444D01*
X127473185Y-113036597D01*
X127520429Y-112985122D01*
X127537006Y-112976749D01*
X127647598Y-112930941D01*
X127819655Y-112815977D01*
X127965977Y-112669655D01*
X128080941Y-112497598D01*
X128160130Y-112306420D01*
X128200500Y-112103465D01*
X128200500Y-111896535D01*
X128160130Y-111693580D01*
X128080941Y-111502402D01*
X128026055Y-111420259D01*
X129199500Y-111420259D01*
X129199500Y-111779740D01*
X129239746Y-112136935D01*
X129239748Y-112136951D01*
X129319737Y-112487407D01*
X129319741Y-112487419D01*
X129438465Y-112826711D01*
X129594432Y-113150579D01*
X129594434Y-113150582D01*
X129785685Y-113454956D01*
X130009812Y-113736003D01*
X130263997Y-113990188D01*
X130545044Y-114214315D01*
X130849418Y-114405566D01*
X131173292Y-114561536D01*
X131355391Y-114625255D01*
X131512580Y-114680258D01*
X131512592Y-114680262D01*
X131863052Y-114760252D01*
X132220260Y-114800499D01*
X132220261Y-114800500D01*
X132220264Y-114800500D01*
X132579739Y-114800500D01*
X132579739Y-114800499D01*
X132936948Y-114760252D01*
X133287408Y-114680262D01*
X133626708Y-114561536D01*
X133950582Y-114405566D01*
X134254956Y-114214315D01*
X134536003Y-113990188D01*
X134790188Y-113736003D01*
X135014315Y-113454956D01*
X135205566Y-113150582D01*
X135361536Y-112826708D01*
X135480262Y-112487408D01*
X135560252Y-112136948D01*
X135600500Y-111779736D01*
X135600500Y-111420264D01*
X135560252Y-111063052D01*
X135480262Y-110712592D01*
X135361536Y-110373292D01*
X135205566Y-110049418D01*
X135014315Y-109745044D01*
X134790188Y-109463997D01*
X134536003Y-109209812D01*
X134515657Y-109193587D01*
X134464626Y-109152891D01*
X134254956Y-108985685D01*
X133950582Y-108794434D01*
X133950579Y-108794432D01*
X133626711Y-108638465D01*
X133287419Y-108519741D01*
X133287407Y-108519737D01*
X132936951Y-108439748D01*
X132936935Y-108439746D01*
X132579740Y-108399500D01*
X132579736Y-108399500D01*
X132220264Y-108399500D01*
X132220259Y-108399500D01*
X131863064Y-108439746D01*
X131863048Y-108439748D01*
X131512592Y-108519737D01*
X131512580Y-108519741D01*
X131173288Y-108638465D01*
X130849420Y-108794432D01*
X130545045Y-108985684D01*
X130263997Y-109209811D01*
X130009811Y-109463997D01*
X129785684Y-109745045D01*
X129594432Y-110049420D01*
X129438465Y-110373288D01*
X129319741Y-110712580D01*
X129319737Y-110712592D01*
X129239748Y-111063048D01*
X129239746Y-111063064D01*
X129199500Y-111420259D01*
X128026055Y-111420259D01*
X127965977Y-111330345D01*
X127965975Y-111330342D01*
X127819657Y-111184024D01*
X127730074Y-111124167D01*
X127647598Y-111069059D01*
X127633086Y-111063048D01*
X127456420Y-110989870D01*
X127456412Y-110989868D01*
X127253469Y-110949500D01*
X127253465Y-110949500D01*
X126594500Y-110949500D01*
X126585814Y-110946949D01*
X126576853Y-110948238D01*
X126552812Y-110937259D01*
X126527461Y-110929815D01*
X126521533Y-110922974D01*
X126513297Y-110919213D01*
X126499007Y-110896978D01*
X126481706Y-110877011D01*
X126479418Y-110866496D01*
X126475523Y-110860435D01*
X126470500Y-110825500D01*
X126470500Y-110674500D01*
X126490185Y-110607461D01*
X126542989Y-110561706D01*
X126594500Y-110550500D01*
X127253466Y-110550500D01*
X127253467Y-110550499D01*
X127456420Y-110510130D01*
X127647598Y-110430941D01*
X127819655Y-110315977D01*
X127965977Y-110169655D01*
X128080941Y-109997598D01*
X128160130Y-109806420D01*
X128200500Y-109603465D01*
X128200500Y-109396535D01*
X128160130Y-109193580D01*
X128080941Y-109002402D01*
X127965977Y-108830345D01*
X127965975Y-108830342D01*
X127819657Y-108684024D01*
X127725962Y-108621420D01*
X127647598Y-108569059D01*
X127456420Y-108489870D01*
X127456412Y-108489868D01*
X127253469Y-108449500D01*
X127253465Y-108449500D01*
X126546535Y-108449500D01*
X126546530Y-108449500D01*
X126343587Y-108489868D01*
X126343579Y-108489870D01*
X126152400Y-108569059D01*
X126074033Y-108621420D01*
X126074034Y-108621421D01*
X126068315Y-108625241D01*
X126041312Y-108639244D01*
X126010655Y-108663767D01*
X126006223Y-108666729D01*
X126006223Y-108666730D01*
X125980348Y-108684020D01*
X125980345Y-108684023D01*
X125965237Y-108699130D01*
X125955021Y-108708273D01*
X125361406Y-109183153D01*
X125316040Y-109206098D01*
X125264242Y-109219977D01*
X125195720Y-109259539D01*
X124919805Y-109535453D01*
X124919804Y-109535452D01*
X124914940Y-109540315D01*
X124898677Y-109553327D01*
X124889869Y-109560788D01*
X124888912Y-109561646D01*
X124877496Y-109577760D01*
X124870062Y-109585195D01*
X120742078Y-113713181D01*
X120680755Y-113746666D01*
X120654397Y-113749500D01*
X95025833Y-113749500D01*
X94958794Y-113729815D01*
X94938152Y-113713181D01*
X92709574Y-111484603D01*
X115339500Y-111484603D01*
X115339500Y-111715396D01*
X115362929Y-111893347D01*
X115369623Y-111944193D01*
X115376714Y-111970657D01*
X115429353Y-112167110D01*
X115517665Y-112380313D01*
X115517669Y-112380323D01*
X115633056Y-112580179D01*
X115773544Y-112763267D01*
X115773550Y-112763274D01*
X115936725Y-112926449D01*
X115936732Y-112926455D01*
X116119820Y-113066943D01*
X116319676Y-113182330D01*
X116319677Y-113182330D01*
X116319680Y-113182332D01*
X116461821Y-113241208D01*
X116532889Y-113270646D01*
X116532890Y-113270646D01*
X116532892Y-113270647D01*
X116755807Y-113330377D01*
X116984611Y-113360500D01*
X116984618Y-113360500D01*
X117215382Y-113360500D01*
X117215389Y-113360500D01*
X117444193Y-113330377D01*
X117667108Y-113270647D01*
X117880320Y-113182332D01*
X118080180Y-113066943D01*
X118263269Y-112926454D01*
X118426454Y-112763269D01*
X118566943Y-112580180D01*
X118682332Y-112380320D01*
X118770647Y-112167108D01*
X118830377Y-111944193D01*
X118860500Y-111715389D01*
X118860500Y-111484611D01*
X118830377Y-111255807D01*
X118770647Y-111032892D01*
X118763477Y-111015583D01*
X118727951Y-110929815D01*
X118682332Y-110819680D01*
X118598512Y-110674500D01*
X118566943Y-110619820D01*
X118426455Y-110436732D01*
X118426449Y-110436725D01*
X118263274Y-110273550D01*
X118263267Y-110273544D01*
X118080179Y-110133056D01*
X117880323Y-110017669D01*
X117880313Y-110017665D01*
X117667110Y-109929353D01*
X117555650Y-109899488D01*
X117444193Y-109869623D01*
X117393347Y-109862929D01*
X117215396Y-109839500D01*
X117215389Y-109839500D01*
X116984611Y-109839500D01*
X116984603Y-109839500D01*
X116781229Y-109866276D01*
X116755807Y-109869623D01*
X116700078Y-109884555D01*
X116532889Y-109929353D01*
X116319686Y-110017665D01*
X116319676Y-110017669D01*
X116119820Y-110133056D01*
X115936732Y-110273544D01*
X115936725Y-110273550D01*
X115773550Y-110436725D01*
X115773544Y-110436732D01*
X115633056Y-110619820D01*
X115517669Y-110819676D01*
X115517665Y-110819686D01*
X115429353Y-111032889D01*
X115404896Y-111124167D01*
X115369623Y-111255807D01*
X115366276Y-111281229D01*
X115339500Y-111484603D01*
X92709574Y-111484603D01*
X92585819Y-111360848D01*
X92552334Y-111299525D01*
X92549500Y-111273167D01*
X92549500Y-101257522D01*
X96922914Y-101257522D01*
X96922914Y-101389305D01*
X96957022Y-101516601D01*
X96982400Y-101560556D01*
X97022914Y-101630728D01*
X97116100Y-101723914D01*
X97146882Y-101741686D01*
X97162436Y-101752320D01*
X97173502Y-101761191D01*
X97550442Y-101957147D01*
X97630071Y-101998543D01*
X97631436Y-101999543D01*
X97632302Y-101999732D01*
X97660556Y-102020883D01*
X97738181Y-102098508D01*
X97771666Y-102159831D01*
X97774500Y-102186189D01*
X97774500Y-106742852D01*
X97796682Y-106825640D01*
X97818108Y-106862750D01*
X97839535Y-106899862D01*
X99600138Y-108660465D01*
X99674361Y-108703318D01*
X99757147Y-108725500D01*
X99757148Y-108725500D01*
X99764995Y-108726533D01*
X99814532Y-108744321D01*
X99927087Y-108814672D01*
X100072045Y-108905276D01*
X100131471Y-108942419D01*
X100140421Y-108945895D01*
X100141346Y-108946254D01*
X100165348Y-108958742D01*
X100191867Y-108976461D01*
X100191873Y-108976465D01*
X100310256Y-109025501D01*
X100310260Y-109025501D01*
X100310261Y-109025502D01*
X100435928Y-109050500D01*
X100435931Y-109050500D01*
X100564071Y-109050500D01*
X100648615Y-109033682D01*
X100689744Y-109025501D01*
X100808127Y-108976465D01*
X100914669Y-108905276D01*
X101005276Y-108814669D01*
X101076465Y-108708127D01*
X101125501Y-108589744D01*
X101139426Y-108519741D01*
X101150500Y-108464071D01*
X101150500Y-108335928D01*
X101125502Y-108210261D01*
X101125501Y-108210260D01*
X101125501Y-108210256D01*
X101076465Y-108091873D01*
X101076464Y-108091872D01*
X101076461Y-108091866D01*
X101005276Y-107985331D01*
X101005273Y-107985327D01*
X100914672Y-107894726D01*
X100914668Y-107894723D01*
X100808133Y-107823538D01*
X100808124Y-107823533D01*
X100689744Y-107774499D01*
X100689738Y-107774497D01*
X100564071Y-107749500D01*
X100564069Y-107749500D01*
X100435931Y-107749500D01*
X100435926Y-107749500D01*
X100364520Y-107763703D01*
X100364521Y-107763704D01*
X100360032Y-107764597D01*
X100335224Y-107767654D01*
X100320919Y-107772377D01*
X100313455Y-107773862D01*
X100313454Y-107773861D01*
X100310260Y-107774497D01*
X100310248Y-107774501D01*
X100297801Y-107779656D01*
X100289240Y-107782837D01*
X99876092Y-107919267D01*
X99806261Y-107921597D01*
X99749529Y-107889202D01*
X98461819Y-106601492D01*
X98447115Y-106574564D01*
X98430523Y-106548746D01*
X98429631Y-106542545D01*
X98428334Y-106540169D01*
X98425500Y-106513811D01*
X98425500Y-106345730D01*
X125599500Y-106345730D01*
X125599500Y-107654269D01*
X125602353Y-107684699D01*
X125602353Y-107684701D01*
X125647206Y-107812880D01*
X125647207Y-107812882D01*
X125727850Y-107922150D01*
X125837118Y-108002793D01*
X125879845Y-108017744D01*
X125965299Y-108047646D01*
X125995730Y-108050500D01*
X125995734Y-108050500D01*
X127804270Y-108050500D01*
X127834699Y-108047646D01*
X127834701Y-108047646D01*
X127898790Y-108025219D01*
X127962882Y-108002793D01*
X128072150Y-107922150D01*
X128152793Y-107812882D01*
X128175219Y-107748790D01*
X128197646Y-107684701D01*
X128197646Y-107684699D01*
X128200500Y-107654269D01*
X128200500Y-106345730D01*
X128197646Y-106315300D01*
X128197646Y-106315298D01*
X128152793Y-106187119D01*
X128152792Y-106187117D01*
X128072150Y-106077850D01*
X127962882Y-105997207D01*
X127962880Y-105997206D01*
X127834700Y-105952353D01*
X127804270Y-105949500D01*
X127804266Y-105949500D01*
X125995734Y-105949500D01*
X125995730Y-105949500D01*
X125965300Y-105952353D01*
X125965298Y-105952353D01*
X125837119Y-105997206D01*
X125837117Y-105997207D01*
X125727850Y-106077850D01*
X125647207Y-106187117D01*
X125647206Y-106187119D01*
X125602353Y-106315298D01*
X125602353Y-106315300D01*
X125599500Y-106345730D01*
X98425500Y-106345730D01*
X98425500Y-101957149D01*
X98425500Y-101957147D01*
X98403318Y-101874362D01*
X98403318Y-101874361D01*
X98360465Y-101800138D01*
X98120883Y-101560556D01*
X98098543Y-101530071D01*
X97861191Y-101073502D01*
X97855841Y-101063852D01*
X97855209Y-101062781D01*
X97853913Y-101061406D01*
X97836765Y-101038359D01*
X97823916Y-101016103D01*
X97823912Y-101016098D01*
X97730730Y-100922916D01*
X97730728Y-100922914D01*
X97673664Y-100889968D01*
X97616601Y-100857022D01*
X97552953Y-100839968D01*
X97489306Y-100822914D01*
X97357522Y-100822914D01*
X97230226Y-100857022D01*
X97116100Y-100922914D01*
X97116097Y-100922916D01*
X97022916Y-101016097D01*
X97022914Y-101016100D01*
X96957022Y-101130226D01*
X96922914Y-101257522D01*
X92549500Y-101257522D01*
X92549500Y-96160319D01*
X125404500Y-96160319D01*
X125404500Y-96339680D01*
X125439487Y-96515575D01*
X125439490Y-96515584D01*
X125508121Y-96681277D01*
X125508128Y-96681290D01*
X125607767Y-96830409D01*
X125607770Y-96830413D01*
X125734586Y-96957229D01*
X125734590Y-96957232D01*
X125883709Y-97056871D01*
X125883722Y-97056878D01*
X125933642Y-97077555D01*
X126049417Y-97125510D01*
X126049419Y-97125510D01*
X126049424Y-97125512D01*
X126225319Y-97160499D01*
X126225323Y-97160500D01*
X126225324Y-97160500D01*
X126404676Y-97160500D01*
X126426232Y-97156212D01*
X126495824Y-97162439D01*
X126551002Y-97205301D01*
X126574247Y-97271190D01*
X126572898Y-97297226D01*
X126554500Y-97413389D01*
X126554500Y-97586611D01*
X126581598Y-97757701D01*
X126635127Y-97922445D01*
X126713768Y-98076788D01*
X126815586Y-98216928D01*
X126938072Y-98339414D01*
X127078212Y-98441232D01*
X127232555Y-98519873D01*
X127397299Y-98573402D01*
X127568389Y-98600500D01*
X127568390Y-98600500D01*
X127741610Y-98600500D01*
X127741611Y-98600500D01*
X127912701Y-98573402D01*
X128077445Y-98519873D01*
X128231788Y-98441232D01*
X128371928Y-98339414D01*
X128494414Y-98216928D01*
X128596232Y-98076788D01*
X128674873Y-97922445D01*
X128728402Y-97757701D01*
X128755500Y-97586611D01*
X128755500Y-97413389D01*
X128728402Y-97242299D01*
X128674873Y-97077555D01*
X128596232Y-96923212D01*
X128494414Y-96783072D01*
X128371928Y-96660586D01*
X128231788Y-96558768D01*
X128077445Y-96480127D01*
X127912701Y-96426598D01*
X127912699Y-96426597D01*
X127912698Y-96426597D01*
X127779241Y-96405460D01*
X127741611Y-96399500D01*
X127568389Y-96399500D01*
X127536192Y-96404599D01*
X127397301Y-96426597D01*
X127397295Y-96426599D01*
X127387811Y-96429680D01*
X127359696Y-96430481D01*
X127331853Y-96434485D01*
X127325237Y-96431463D01*
X127317970Y-96431671D01*
X127293886Y-96417146D01*
X127268297Y-96405460D01*
X127264365Y-96399342D01*
X127258139Y-96395587D01*
X127245730Y-96370344D01*
X127230523Y-96346682D01*
X127229045Y-96336404D01*
X127227315Y-96332885D01*
X127225500Y-96311747D01*
X127225500Y-96188252D01*
X127245185Y-96121213D01*
X127297989Y-96075458D01*
X127367147Y-96065514D01*
X127387811Y-96070319D01*
X127397299Y-96073402D01*
X127568389Y-96100500D01*
X127568390Y-96100500D01*
X127741610Y-96100500D01*
X127741611Y-96100500D01*
X127912701Y-96073402D01*
X128077445Y-96019873D01*
X128231788Y-95941232D01*
X128371928Y-95839414D01*
X128494414Y-95716928D01*
X128596232Y-95576788D01*
X128674873Y-95422445D01*
X128728402Y-95257701D01*
X128755500Y-95086611D01*
X128755500Y-94913389D01*
X128728402Y-94742299D01*
X128674873Y-94577555D01*
X128596232Y-94423212D01*
X128494414Y-94283072D01*
X128371928Y-94160586D01*
X128231788Y-94058768D01*
X128077445Y-93980127D01*
X127912701Y-93926598D01*
X127912699Y-93926597D01*
X127912698Y-93926597D01*
X127781271Y-93905781D01*
X127741611Y-93899500D01*
X127568389Y-93899500D01*
X127528728Y-93905781D01*
X127397302Y-93926597D01*
X127232552Y-93980128D01*
X127078211Y-94058768D01*
X126998256Y-94116859D01*
X126938072Y-94160586D01*
X126938070Y-94160588D01*
X126938069Y-94160588D01*
X126815588Y-94283069D01*
X126815588Y-94283070D01*
X126815586Y-94283072D01*
X126771859Y-94343256D01*
X126713768Y-94423211D01*
X126635128Y-94577552D01*
X126581597Y-94742302D01*
X126554500Y-94913389D01*
X126554500Y-95086610D01*
X126572898Y-95202772D01*
X126563943Y-95272066D01*
X126518947Y-95325518D01*
X126452195Y-95346157D01*
X126426237Y-95343788D01*
X126404677Y-95339500D01*
X126404676Y-95339500D01*
X126225324Y-95339500D01*
X126225319Y-95339500D01*
X126049424Y-95374487D01*
X126049415Y-95374490D01*
X125883722Y-95443121D01*
X125883709Y-95443128D01*
X125734590Y-95542767D01*
X125734586Y-95542770D01*
X125607770Y-95669586D01*
X125607767Y-95669590D01*
X125508128Y-95818709D01*
X125508121Y-95818722D01*
X125439490Y-95984415D01*
X125439487Y-95984424D01*
X125404500Y-96160319D01*
X92549500Y-96160319D01*
X92549500Y-82559108D01*
X93174500Y-82559108D01*
X93174500Y-82690892D01*
X93186144Y-82734351D01*
X93187477Y-82746465D01*
X93187479Y-82746486D01*
X93188729Y-82757839D01*
X93343740Y-83248517D01*
X93349500Y-83285870D01*
X93349500Y-87096144D01*
X93362335Y-87144045D01*
X93373385Y-87185287D01*
X93419527Y-87265208D01*
X93419529Y-87265211D01*
X93419530Y-87265212D01*
X96284788Y-90130470D01*
X96364712Y-90176614D01*
X96453856Y-90200500D01*
X96453858Y-90200500D01*
X109946142Y-90200500D01*
X109946144Y-90200500D01*
X110035288Y-90176614D01*
X110115212Y-90130470D01*
X110183705Y-90061975D01*
X110209511Y-90042198D01*
X110658402Y-89783752D01*
X110664233Y-89780265D01*
X110664863Y-89779874D01*
X110666536Y-89778261D01*
X110690578Y-89760161D01*
X110707314Y-89750500D01*
X110800500Y-89657314D01*
X110866392Y-89543186D01*
X110900500Y-89415892D01*
X110900500Y-89284108D01*
X110866392Y-89156814D01*
X110800500Y-89042686D01*
X110707314Y-88949500D01*
X110650250Y-88916554D01*
X110593187Y-88883608D01*
X110529539Y-88866554D01*
X110465892Y-88849500D01*
X110334108Y-88849500D01*
X110206812Y-88883608D01*
X110092686Y-88949500D01*
X110092683Y-88949502D01*
X109999502Y-89042683D01*
X109999500Y-89042686D01*
X109987058Y-89064235D01*
X109973001Y-89083875D01*
X109966249Y-89091592D01*
X109966244Y-89091599D01*
X109767171Y-89437370D01*
X109716662Y-89485647D01*
X109659709Y-89499500D01*
X96696544Y-89499500D01*
X96629505Y-89479815D01*
X96608863Y-89463181D01*
X94086819Y-86941137D01*
X94053334Y-86879814D01*
X94050500Y-86853456D01*
X94050500Y-86174500D01*
X94070185Y-86107461D01*
X94122989Y-86061706D01*
X94174500Y-86050500D01*
X102646142Y-86050500D01*
X102646144Y-86050500D01*
X102735288Y-86026614D01*
X102815212Y-85980470D01*
X102983710Y-85811970D01*
X103009510Y-85792199D01*
X103458402Y-85533752D01*
X103464233Y-85530265D01*
X103464863Y-85529874D01*
X103466536Y-85528261D01*
X103490578Y-85510161D01*
X103507314Y-85500500D01*
X103600500Y-85407314D01*
X103666392Y-85293186D01*
X103700500Y-85165892D01*
X103700500Y-85034108D01*
X103666392Y-84906814D01*
X103600500Y-84792686D01*
X103507314Y-84699500D01*
X103450250Y-84666554D01*
X103393187Y-84633608D01*
X103329539Y-84616554D01*
X103265892Y-84599500D01*
X103134108Y-84599500D01*
X103006812Y-84633608D01*
X102892686Y-84699500D01*
X102892683Y-84699502D01*
X102799502Y-84792683D01*
X102799500Y-84792686D01*
X102787058Y-84814235D01*
X102773001Y-84833875D01*
X102766249Y-84841592D01*
X102766244Y-84841600D01*
X102509596Y-85287370D01*
X102459087Y-85335647D01*
X102402134Y-85349500D01*
X94174500Y-85349500D01*
X94107461Y-85329815D01*
X94061706Y-85277011D01*
X94050500Y-85225500D01*
X94050500Y-83277921D01*
X94053462Y-83250981D01*
X94167235Y-82739818D01*
X94167688Y-82737734D01*
X94167735Y-82737512D01*
X94167752Y-82735194D01*
X94171973Y-82704051D01*
X94175500Y-82690892D01*
X94175500Y-82559108D01*
X94141392Y-82431814D01*
X94075500Y-82317686D01*
X93982314Y-82224500D01*
X93925250Y-82191554D01*
X93868187Y-82158608D01*
X93804539Y-82141554D01*
X93740892Y-82124500D01*
X93609108Y-82124500D01*
X93481812Y-82158608D01*
X93367686Y-82224500D01*
X93367683Y-82224502D01*
X93274502Y-82317683D01*
X93274500Y-82317686D01*
X93208608Y-82431812D01*
X93175135Y-82556735D01*
X93175135Y-82556737D01*
X93174500Y-82559108D01*
X92549500Y-82559108D01*
X92549500Y-80846504D01*
X92569185Y-80779465D01*
X92621989Y-80733710D01*
X92691147Y-80723766D01*
X92742392Y-80743403D01*
X92791864Y-80776460D01*
X92791875Y-80776466D01*
X92818692Y-80787574D01*
X92910256Y-80825501D01*
X92910260Y-80825501D01*
X92910261Y-80825502D01*
X93035928Y-80850500D01*
X93035931Y-80850500D01*
X93164071Y-80850500D01*
X93248615Y-80833682D01*
X93289744Y-80825501D01*
X93408127Y-80776465D01*
X93514669Y-80705276D01*
X93605276Y-80614669D01*
X93676465Y-80508127D01*
X93725501Y-80389744D01*
X93726838Y-80383022D01*
X93734475Y-80361366D01*
X93733424Y-80360945D01*
X93971341Y-79767743D01*
X93998746Y-79726223D01*
X94988152Y-78736819D01*
X95049475Y-78703334D01*
X95075833Y-78700500D01*
X97484083Y-78700500D01*
X97526350Y-78707926D01*
X97945688Y-78859968D01*
X97956814Y-78866392D01*
X97982065Y-78873158D01*
X98008661Y-78882801D01*
X98020206Y-78886511D01*
X98023097Y-78887441D01*
X98024698Y-78887891D01*
X98024743Y-78887903D01*
X98024753Y-78887906D01*
X98028415Y-78888899D01*
X98028417Y-78888899D01*
X98035585Y-78889968D01*
X98035581Y-78889993D01*
X98056314Y-78893052D01*
X98084108Y-78900500D01*
X98084110Y-78900500D01*
X98215890Y-78900500D01*
X98215892Y-78900500D01*
X98343186Y-78866392D01*
X98457314Y-78800500D01*
X98550500Y-78707314D01*
X98616392Y-78593186D01*
X98650500Y-78465892D01*
X98650500Y-78334108D01*
X98616392Y-78206814D01*
X98550500Y-78092686D01*
X98457314Y-77999500D01*
X98392336Y-77961985D01*
X98343187Y-77933608D01*
X98269496Y-77913863D01*
X98215892Y-77899500D01*
X98084108Y-77899500D01*
X98084104Y-77899500D01*
X98037115Y-77912091D01*
X98037114Y-77912091D01*
X98030497Y-77913863D01*
X98008664Y-77917198D01*
X97982075Y-77926837D01*
X97976933Y-77928215D01*
X97976919Y-77928220D01*
X97956813Y-77933608D01*
X97956803Y-77933612D01*
X97955133Y-77934577D01*
X97935418Y-77943754D01*
X97861060Y-77970715D01*
X97791325Y-77975061D01*
X97730311Y-77941016D01*
X97697389Y-77879388D01*
X97703012Y-77809745D01*
X97711403Y-77792145D01*
X97766393Y-77696901D01*
X97800501Y-77569607D01*
X97800501Y-77437823D01*
X97766393Y-77310529D01*
X97766390Y-77310523D01*
X97753376Y-77287982D01*
X97753375Y-77287981D01*
X97745550Y-77274428D01*
X97722271Y-77234108D01*
X99099500Y-77234108D01*
X99099500Y-77365891D01*
X99133608Y-77493187D01*
X99153435Y-77527527D01*
X99199500Y-77607314D01*
X99292686Y-77700500D01*
X99406814Y-77766392D01*
X99534108Y-77800500D01*
X99534110Y-77800500D01*
X99665890Y-77800500D01*
X99665892Y-77800500D01*
X99793186Y-77766392D01*
X99907314Y-77700500D01*
X100000500Y-77607314D01*
X100028264Y-77559225D01*
X100041332Y-77541450D01*
X100053312Y-77515841D01*
X100066392Y-77493186D01*
X100066892Y-77491316D01*
X100074345Y-77470878D01*
X100214184Y-77171955D01*
X100260421Y-77119574D01*
X100326501Y-77100500D01*
X112624167Y-77100500D01*
X112691206Y-77120185D01*
X112711848Y-77136819D01*
X114039423Y-78464394D01*
X114062177Y-78495683D01*
X114068129Y-78507339D01*
X114069979Y-78514243D01*
X114084480Y-78539360D01*
X114085935Y-78542209D01*
X114089614Y-78561707D01*
X114099500Y-78598601D01*
X114099500Y-82739562D01*
X114104398Y-82757841D01*
X114119979Y-82815990D01*
X114119980Y-82815991D01*
X114133964Y-82840212D01*
X114159540Y-82884511D01*
X116759540Y-85484511D01*
X116815489Y-85540460D01*
X116815491Y-85540461D01*
X116815495Y-85540464D01*
X116884004Y-85580017D01*
X116884011Y-85580021D01*
X116960438Y-85600500D01*
X117039562Y-85600500D01*
X129124167Y-85600500D01*
X129191206Y-85620185D01*
X129211848Y-85636819D01*
X130316638Y-86741609D01*
X130341275Y-86776747D01*
X130525653Y-87170879D01*
X130530282Y-87180775D01*
X130533608Y-87193186D01*
X130546679Y-87215826D01*
X130548941Y-87220661D01*
X130558669Y-87241455D01*
X130565676Y-87255085D01*
X130566541Y-87256623D01*
X130568304Y-87259697D01*
X130572618Y-87265522D01*
X130572597Y-87265537D01*
X130585097Y-87282367D01*
X130599497Y-87307310D01*
X130599499Y-87307313D01*
X130599500Y-87307314D01*
X130692686Y-87400500D01*
X130806814Y-87466392D01*
X130934108Y-87500500D01*
X130934110Y-87500500D01*
X131065890Y-87500500D01*
X131065892Y-87500500D01*
X131193186Y-87466392D01*
X131307314Y-87400500D01*
X131400500Y-87307314D01*
X131466392Y-87193186D01*
X131500500Y-87065892D01*
X131500500Y-86934108D01*
X131466392Y-86806814D01*
X131400500Y-86692686D01*
X131307314Y-86599500D01*
X131299193Y-86594811D01*
X131265162Y-86575162D01*
X131265162Y-86575163D01*
X131259228Y-86571737D01*
X131241450Y-86558667D01*
X131215834Y-86546683D01*
X131211215Y-86544016D01*
X131211212Y-86544013D01*
X131193192Y-86533610D01*
X131193176Y-86533604D01*
X131191321Y-86533107D01*
X131170877Y-86525652D01*
X130776748Y-86341276D01*
X130741610Y-86316639D01*
X129484510Y-85059539D01*
X129459958Y-85045364D01*
X129435405Y-85031189D01*
X129415989Y-85019979D01*
X129339562Y-84999500D01*
X129339560Y-84999500D01*
X117175833Y-84999500D01*
X117108794Y-84979815D01*
X117088152Y-84963181D01*
X115079419Y-82954448D01*
X125929600Y-82954448D01*
X125929600Y-83174891D01*
X125964085Y-83392622D01*
X126032203Y-83602273D01*
X126032204Y-83602276D01*
X126132287Y-83798695D01*
X126261852Y-83977028D01*
X126261856Y-83977033D01*
X126417736Y-84132913D01*
X126417741Y-84132917D01*
X126573292Y-84245930D01*
X126596078Y-84262485D01*
X126724475Y-84327907D01*
X126792493Y-84362565D01*
X126792496Y-84362566D01*
X126897321Y-84396625D01*
X127002149Y-84430685D01*
X127219878Y-84465170D01*
X127219879Y-84465170D01*
X127440321Y-84465170D01*
X127440322Y-84465170D01*
X127658051Y-84430685D01*
X127867706Y-84362565D01*
X128064122Y-84262485D01*
X128242465Y-84132912D01*
X128398342Y-83977035D01*
X128527915Y-83798692D01*
X128627995Y-83602276D01*
X128696115Y-83392621D01*
X128730600Y-83174892D01*
X128730600Y-82954448D01*
X129329600Y-82954448D01*
X129329600Y-83174891D01*
X129364085Y-83392622D01*
X129432203Y-83602273D01*
X129432204Y-83602276D01*
X129532287Y-83798695D01*
X129661852Y-83977028D01*
X129661856Y-83977033D01*
X129817736Y-84132913D01*
X129817741Y-84132917D01*
X129973292Y-84245930D01*
X129996078Y-84262485D01*
X130124475Y-84327907D01*
X130192493Y-84362565D01*
X130192496Y-84362566D01*
X130297321Y-84396625D01*
X130402149Y-84430685D01*
X130619878Y-84465170D01*
X130619879Y-84465170D01*
X130840321Y-84465170D01*
X130840322Y-84465170D01*
X131058051Y-84430685D01*
X131267706Y-84362565D01*
X131464122Y-84262485D01*
X131642465Y-84132912D01*
X131798342Y-83977035D01*
X131927915Y-83798692D01*
X132027995Y-83602276D01*
X132096115Y-83392621D01*
X132130600Y-83174892D01*
X132130600Y-82954448D01*
X132096115Y-82736719D01*
X132027995Y-82527064D01*
X132027995Y-82527063D01*
X131979461Y-82431812D01*
X131927915Y-82330648D01*
X131850796Y-82224502D01*
X131798347Y-82152311D01*
X131798343Y-82152306D01*
X131642463Y-81996426D01*
X131642458Y-81996422D01*
X131464125Y-81866857D01*
X131464124Y-81866856D01*
X131464122Y-81866855D01*
X131401196Y-81834792D01*
X131267706Y-81766774D01*
X131267703Y-81766773D01*
X131058052Y-81698655D01*
X130949186Y-81681412D01*
X130840322Y-81664170D01*
X130619878Y-81664170D01*
X130547301Y-81675665D01*
X130402147Y-81698655D01*
X130192496Y-81766773D01*
X130192493Y-81766774D01*
X129996074Y-81866857D01*
X129817741Y-81996422D01*
X129817736Y-81996426D01*
X129661856Y-82152306D01*
X129661852Y-82152311D01*
X129532287Y-82330644D01*
X129432204Y-82527063D01*
X129432203Y-82527066D01*
X129364085Y-82736717D01*
X129329600Y-82954448D01*
X128730600Y-82954448D01*
X128696115Y-82736719D01*
X128627995Y-82527064D01*
X128627995Y-82527063D01*
X128579461Y-82431812D01*
X128527915Y-82330648D01*
X128450796Y-82224502D01*
X128398347Y-82152311D01*
X128398343Y-82152306D01*
X128242463Y-81996426D01*
X128242458Y-81996422D01*
X128064125Y-81866857D01*
X128064124Y-81866856D01*
X128064122Y-81866855D01*
X128001196Y-81834792D01*
X127867706Y-81766774D01*
X127867703Y-81766773D01*
X127658052Y-81698655D01*
X127549186Y-81681412D01*
X127440322Y-81664170D01*
X127219878Y-81664170D01*
X127147301Y-81675665D01*
X127002147Y-81698655D01*
X126792496Y-81766773D01*
X126792493Y-81766774D01*
X126596074Y-81866857D01*
X126417741Y-81996422D01*
X126417736Y-81996426D01*
X126261856Y-82152306D01*
X126261852Y-82152311D01*
X126132287Y-82330644D01*
X126032204Y-82527063D01*
X126032203Y-82527066D01*
X125964085Y-82736717D01*
X125929600Y-82954448D01*
X115079419Y-82954448D01*
X114736819Y-82611848D01*
X114703334Y-82550525D01*
X114700500Y-82524167D01*
X114700500Y-78408693D01*
X114700499Y-78408689D01*
X114695374Y-78389561D01*
X114695374Y-78389562D01*
X114680022Y-78332266D01*
X114680020Y-78332262D01*
X114680018Y-78332258D01*
X114644009Y-78269890D01*
X114631619Y-78239978D01*
X114630021Y-78234011D01*
X114630019Y-78234007D01*
X114590464Y-78165495D01*
X114590458Y-78165487D01*
X113409574Y-76984603D01*
X115339500Y-76984603D01*
X115339500Y-77215396D01*
X115359314Y-77365891D01*
X115369623Y-77444193D01*
X115382253Y-77491327D01*
X115429353Y-77667110D01*
X115517665Y-77880313D01*
X115517669Y-77880323D01*
X115633056Y-78080179D01*
X115773544Y-78263267D01*
X115773550Y-78263274D01*
X115936725Y-78426449D01*
X115936732Y-78426455D01*
X116119820Y-78566943D01*
X116319676Y-78682330D01*
X116319677Y-78682330D01*
X116319680Y-78682332D01*
X116381470Y-78707926D01*
X116532889Y-78770646D01*
X116532890Y-78770646D01*
X116532892Y-78770647D01*
X116755807Y-78830377D01*
X116984611Y-78860500D01*
X116984618Y-78860500D01*
X117215382Y-78860500D01*
X117215389Y-78860500D01*
X117444193Y-78830377D01*
X117667108Y-78770647D01*
X117880320Y-78682332D01*
X118080180Y-78566943D01*
X118263269Y-78426454D01*
X118426454Y-78263269D01*
X118566943Y-78080180D01*
X118682332Y-77880320D01*
X118770647Y-77667108D01*
X118830377Y-77444193D01*
X118860500Y-77215389D01*
X118860500Y-76984611D01*
X118830377Y-76755807D01*
X118770647Y-76532892D01*
X118766772Y-76523538D01*
X118682334Y-76319686D01*
X118682330Y-76319676D01*
X118566943Y-76119820D01*
X118426455Y-75936732D01*
X118426449Y-75936725D01*
X118263274Y-75773550D01*
X118263267Y-75773544D01*
X118080179Y-75633056D01*
X117880323Y-75517669D01*
X117880313Y-75517665D01*
X117667110Y-75429353D01*
X117555650Y-75399488D01*
X117444193Y-75369623D01*
X117393347Y-75362929D01*
X117215396Y-75339500D01*
X117215389Y-75339500D01*
X116984611Y-75339500D01*
X116984603Y-75339500D01*
X116781229Y-75366276D01*
X116755807Y-75369623D01*
X116700078Y-75384555D01*
X116532889Y-75429353D01*
X116319686Y-75517665D01*
X116319676Y-75517669D01*
X116119820Y-75633056D01*
X115936732Y-75773544D01*
X115936725Y-75773550D01*
X115773550Y-75936725D01*
X115773544Y-75936732D01*
X115633056Y-76119820D01*
X115517669Y-76319676D01*
X115517665Y-76319686D01*
X115429353Y-76532889D01*
X115369623Y-76755808D01*
X115339500Y-76984603D01*
X113409574Y-76984603D01*
X112984512Y-76559541D01*
X112984507Y-76559537D01*
X112958679Y-76544626D01*
X112942872Y-76535500D01*
X112942870Y-76535498D01*
X112942870Y-76535499D01*
X112942868Y-76535498D01*
X112937189Y-76532219D01*
X112915990Y-76519979D01*
X112915991Y-76519979D01*
X112877775Y-76509739D01*
X112839562Y-76499500D01*
X100139562Y-76499500D01*
X100060438Y-76499500D01*
X99984010Y-76519978D01*
X99915487Y-76559541D01*
X99858387Y-76616640D01*
X99823250Y-76641275D01*
X99429114Y-76825655D01*
X99429113Y-76825655D01*
X99419215Y-76830284D01*
X99406814Y-76833608D01*
X99384195Y-76846666D01*
X99379356Y-76848930D01*
X99379353Y-76848933D01*
X99358539Y-76858671D01*
X99344843Y-76865715D01*
X99343255Y-76866609D01*
X99340300Y-76868305D01*
X99334493Y-76872607D01*
X99334478Y-76872587D01*
X99317640Y-76885092D01*
X99292685Y-76899500D01*
X99199500Y-76992686D01*
X99133608Y-77106812D01*
X99099500Y-77234108D01*
X97722271Y-77234108D01*
X97700501Y-77196401D01*
X97607315Y-77103215D01*
X97542604Y-77065854D01*
X97493188Y-77037323D01*
X97410756Y-77015236D01*
X97365893Y-77003215D01*
X97234109Y-77003215D01*
X97234107Y-77003215D01*
X97189237Y-77015237D01*
X97189236Y-77015236D01*
X97182239Y-77017110D01*
X97159901Y-77020380D01*
X97128914Y-77031399D01*
X97124108Y-77032687D01*
X97106824Y-77037319D01*
X97104250Y-77038385D01*
X97087424Y-77046155D01*
X96676406Y-77192331D01*
X96634858Y-77199500D01*
X94160438Y-77199500D01*
X94084010Y-77219978D01*
X94015489Y-77259540D01*
X94015486Y-77259542D01*
X92773776Y-78501251D01*
X92732254Y-78528658D01*
X92140401Y-78766034D01*
X92140141Y-78765385D01*
X92117385Y-78773080D01*
X92110260Y-78774497D01*
X92110252Y-78774500D01*
X91991876Y-78823533D01*
X91991866Y-78823538D01*
X91885331Y-78894723D01*
X91885327Y-78894726D01*
X91794726Y-78985327D01*
X91794723Y-78985331D01*
X91723538Y-79091866D01*
X91723533Y-79091875D01*
X91674499Y-79210255D01*
X91674497Y-79210261D01*
X91649500Y-79335928D01*
X91649500Y-79335931D01*
X91649500Y-79464069D01*
X91649500Y-79464071D01*
X91649499Y-79464071D01*
X91667325Y-79553681D01*
X91667883Y-79556485D01*
X91669990Y-79570392D01*
X91671454Y-79574446D01*
X91673277Y-79583607D01*
X91673279Y-79583613D01*
X91674497Y-79589740D01*
X91674498Y-79589742D01*
X91692860Y-79634071D01*
X91694919Y-79639385D01*
X91941120Y-80320753D01*
X91948500Y-80362892D01*
X91948500Y-111124167D01*
X91928815Y-111191206D01*
X91876011Y-111236961D01*
X91806853Y-111246905D01*
X91743297Y-111217880D01*
X91736819Y-111211848D01*
X90236819Y-109711848D01*
X90203334Y-109650525D01*
X90200500Y-109624167D01*
X90200500Y-85667987D01*
X90208945Y-85623008D01*
X90243687Y-85533752D01*
X90396652Y-85140772D01*
X90412984Y-85112485D01*
X90424739Y-85068614D01*
X90429733Y-85055785D01*
X90435416Y-85039101D01*
X90435982Y-85037172D01*
X90437640Y-85031189D01*
X90437640Y-85031181D01*
X90438754Y-85023841D01*
X90438982Y-85023875D01*
X90441735Y-85005185D01*
X90450500Y-84972475D01*
X90450500Y-84827525D01*
X90412984Y-84687515D01*
X90362168Y-84599500D01*
X90340511Y-84561988D01*
X90340506Y-84561982D01*
X90238017Y-84459493D01*
X90238011Y-84459488D01*
X90112488Y-84387017D01*
X90112489Y-84387017D01*
X90101006Y-84383940D01*
X89972475Y-84349500D01*
X89827525Y-84349500D01*
X89698993Y-84383940D01*
X89687511Y-84387017D01*
X89561988Y-84459488D01*
X89561982Y-84459493D01*
X89459493Y-84561982D01*
X89459488Y-84561988D01*
X89387017Y-84687511D01*
X89387016Y-84687515D01*
X89349500Y-84827525D01*
X62397244Y-84827525D01*
X62396392Y-76984603D01*
X65839500Y-76984603D01*
X65839500Y-77215396D01*
X65859314Y-77365891D01*
X65869623Y-77444193D01*
X65882253Y-77491327D01*
X65929353Y-77667110D01*
X66017665Y-77880313D01*
X66017669Y-77880323D01*
X66133056Y-78080179D01*
X66273544Y-78263267D01*
X66273550Y-78263274D01*
X66436725Y-78426449D01*
X66436732Y-78426455D01*
X66619820Y-78566943D01*
X66819676Y-78682330D01*
X66819677Y-78682330D01*
X66819680Y-78682332D01*
X66881470Y-78707926D01*
X67032889Y-78770646D01*
X67032890Y-78770646D01*
X67032892Y-78770647D01*
X67255807Y-78830377D01*
X67484611Y-78860500D01*
X67484618Y-78860500D01*
X67715382Y-78860500D01*
X67715389Y-78860500D01*
X67944193Y-78830377D01*
X68167108Y-78770647D01*
X68380320Y-78682332D01*
X68580180Y-78566943D01*
X68763269Y-78426454D01*
X68926454Y-78263269D01*
X69066943Y-78080180D01*
X69182332Y-77880320D01*
X69270647Y-77667108D01*
X69330377Y-77444193D01*
X69360500Y-77215389D01*
X69360500Y-76984611D01*
X69330377Y-76755807D01*
X69270647Y-76532892D01*
X69266772Y-76523538D01*
X69182334Y-76319686D01*
X69182330Y-76319676D01*
X69066943Y-76119820D01*
X68926455Y-75936732D01*
X68926449Y-75936725D01*
X68763274Y-75773550D01*
X68763267Y-75773544D01*
X68580179Y-75633056D01*
X68380323Y-75517669D01*
X68380313Y-75517665D01*
X68167110Y-75429353D01*
X68055650Y-75399488D01*
X67944193Y-75369623D01*
X67893347Y-75362929D01*
X67715396Y-75339500D01*
X67715389Y-75339500D01*
X67484611Y-75339500D01*
X67484603Y-75339500D01*
X67281229Y-75366276D01*
X67255807Y-75369623D01*
X67200078Y-75384555D01*
X67032889Y-75429353D01*
X66819686Y-75517665D01*
X66819676Y-75517669D01*
X66619820Y-75633056D01*
X66436732Y-75773544D01*
X66436725Y-75773550D01*
X66273550Y-75936725D01*
X66273544Y-75936732D01*
X66133056Y-76119820D01*
X66017669Y-76319676D01*
X66017665Y-76319686D01*
X65929353Y-76532889D01*
X65869623Y-76755808D01*
X65839500Y-76984603D01*
X62396392Y-76984603D01*
X62395021Y-64365197D01*
X64637500Y-64365197D01*
X64637500Y-64554802D01*
X64674486Y-64740743D01*
X64674488Y-64740751D01*
X64747042Y-64915912D01*
X64852377Y-65073558D01*
X64986441Y-65207622D01*
X65087528Y-65275166D01*
X65144085Y-65312956D01*
X65144086Y-65312956D01*
X65144087Y-65312957D01*
X65157334Y-65318444D01*
X65319249Y-65385512D01*
X65362469Y-65394108D01*
X65389625Y-65402857D01*
X65394679Y-65405156D01*
X65394680Y-65405156D01*
X65394685Y-65405159D01*
X66415533Y-65753364D01*
X66472626Y-65793636D01*
X66498884Y-65858384D01*
X66499500Y-65870724D01*
X66499500Y-66238957D01*
X66479815Y-66305996D01*
X66427011Y-66351751D01*
X66357853Y-66361695D01*
X66294297Y-66332670D01*
X66287819Y-66326638D01*
X66213558Y-66252377D01*
X66055912Y-66147042D01*
X65880751Y-66074488D01*
X65880743Y-66074486D01*
X65694802Y-66037500D01*
X65694798Y-66037500D01*
X65505202Y-66037500D01*
X65505197Y-66037500D01*
X65319256Y-66074486D01*
X65319248Y-66074488D01*
X65144087Y-66147042D01*
X64986441Y-66252377D01*
X64852377Y-66386441D01*
X64747042Y-66544087D01*
X64674488Y-66719248D01*
X64674486Y-66719256D01*
X64637500Y-66905197D01*
X64637500Y-67094802D01*
X64674486Y-67280743D01*
X64674488Y-67280751D01*
X64747042Y-67455911D01*
X64747044Y-67455915D01*
X64771522Y-67492549D01*
X64784534Y-67517927D01*
X64786489Y-67523146D01*
X65002353Y-67962500D01*
X65286792Y-68541428D01*
X65286793Y-68541429D01*
X65299500Y-68596108D01*
X65299500Y-71060438D01*
X65299500Y-71139562D01*
X65309041Y-71175167D01*
X65319979Y-71215990D01*
X65319982Y-71215995D01*
X65359535Y-71284504D01*
X65359539Y-71284509D01*
X65359540Y-71284511D01*
X65415489Y-71340460D01*
X65415491Y-71340461D01*
X65415495Y-71340464D01*
X65469283Y-71371518D01*
X65484011Y-71380021D01*
X65548960Y-71397424D01*
X65604546Y-71429517D01*
X72715489Y-78540460D01*
X72784012Y-78580022D01*
X72860438Y-78600500D01*
X72939562Y-78600500D01*
X79432012Y-78600500D01*
X79476990Y-78608944D01*
X79959229Y-78796653D01*
X79987515Y-78812984D01*
X80031382Y-78824738D01*
X80044214Y-78829733D01*
X80060898Y-78835416D01*
X80062827Y-78835982D01*
X80066063Y-78836878D01*
X80068802Y-78837638D01*
X80068803Y-78837638D01*
X80068810Y-78837640D01*
X80068816Y-78837640D01*
X80076158Y-78838754D01*
X80076123Y-78838981D01*
X80094817Y-78841736D01*
X80104155Y-78844237D01*
X80127525Y-78850500D01*
X80127526Y-78850500D01*
X80272472Y-78850500D01*
X80272475Y-78850500D01*
X80412485Y-78812984D01*
X80538015Y-78740509D01*
X80640509Y-78638015D01*
X80712984Y-78512485D01*
X80750500Y-78372475D01*
X80750500Y-78227525D01*
X80712984Y-78087515D01*
X80712982Y-78087512D01*
X80712982Y-78087510D01*
X80712981Y-78087507D01*
X80712397Y-78086496D01*
X80712163Y-78085534D01*
X80709872Y-78080001D01*
X80710734Y-78079643D01*
X80695927Y-78018595D01*
X80718781Y-77952569D01*
X80773704Y-77909381D01*
X80819786Y-77900500D01*
X81532012Y-77900500D01*
X81576990Y-77908944D01*
X82059229Y-78096653D01*
X82087515Y-78112984D01*
X82131382Y-78124738D01*
X82144214Y-78129733D01*
X82160898Y-78135416D01*
X82162827Y-78135982D01*
X82166063Y-78136878D01*
X82168802Y-78137638D01*
X82168803Y-78137638D01*
X82168810Y-78137640D01*
X82168816Y-78137640D01*
X82176158Y-78138754D01*
X82176123Y-78138981D01*
X82194817Y-78141736D01*
X82204155Y-78144237D01*
X82227525Y-78150500D01*
X82227526Y-78150500D01*
X82372472Y-78150500D01*
X82372475Y-78150500D01*
X82512485Y-78112984D01*
X82638015Y-78040509D01*
X82740509Y-77938015D01*
X82812984Y-77812485D01*
X82850500Y-77672475D01*
X82850500Y-77527525D01*
X82812984Y-77387515D01*
X82800499Y-77365891D01*
X82740511Y-77261988D01*
X82740506Y-77261982D01*
X82642595Y-77164071D01*
X90149499Y-77164071D01*
X90174497Y-77289738D01*
X90174499Y-77289744D01*
X90223533Y-77408124D01*
X90223538Y-77408133D01*
X90294723Y-77514668D01*
X90294726Y-77514672D01*
X90385327Y-77605273D01*
X90385331Y-77605276D01*
X90491866Y-77676461D01*
X90491872Y-77676464D01*
X90491873Y-77676465D01*
X90610256Y-77725501D01*
X90610260Y-77725501D01*
X90610261Y-77725502D01*
X90735928Y-77750500D01*
X90735931Y-77750500D01*
X90864071Y-77750500D01*
X90948615Y-77733682D01*
X90989744Y-77725501D01*
X91108127Y-77676465D01*
X91214669Y-77605276D01*
X91305276Y-77514669D01*
X91376465Y-77408127D01*
X91425501Y-77289744D01*
X91426838Y-77283022D01*
X91434475Y-77261366D01*
X91433424Y-77260945D01*
X91671341Y-76667743D01*
X91698746Y-76626223D01*
X93423052Y-74901919D01*
X93484375Y-74868434D01*
X93510733Y-74865600D01*
X118174460Y-74865600D01*
X118174462Y-74865600D01*
X118250889Y-74845121D01*
X118319411Y-74805560D01*
X118375360Y-74749611D01*
X120090523Y-73034448D01*
X125929600Y-73034448D01*
X125929600Y-73254892D01*
X125930879Y-73262965D01*
X125964085Y-73472622D01*
X126032203Y-73682273D01*
X126032204Y-73682276D01*
X126079260Y-73774626D01*
X126117920Y-73850500D01*
X126132287Y-73878695D01*
X126261852Y-74057028D01*
X126261856Y-74057033D01*
X126417736Y-74212913D01*
X126417741Y-74212917D01*
X126517065Y-74285079D01*
X126596078Y-74342485D01*
X126724475Y-74407907D01*
X126792493Y-74442565D01*
X126792496Y-74442566D01*
X126897321Y-74476625D01*
X127002149Y-74510685D01*
X127219878Y-74545170D01*
X127219879Y-74545170D01*
X127440321Y-74545170D01*
X127440322Y-74545170D01*
X127658051Y-74510685D01*
X127867706Y-74442565D01*
X128064122Y-74342485D01*
X128242465Y-74212912D01*
X128398342Y-74057035D01*
X128527915Y-73878692D01*
X128627995Y-73682276D01*
X128696115Y-73472621D01*
X128730600Y-73254892D01*
X128730600Y-73034448D01*
X129329600Y-73034448D01*
X129329600Y-73254892D01*
X129330879Y-73262965D01*
X129364085Y-73472622D01*
X129432203Y-73682273D01*
X129432204Y-73682276D01*
X129479260Y-73774626D01*
X129517920Y-73850500D01*
X129532287Y-73878695D01*
X129661852Y-74057028D01*
X129661856Y-74057033D01*
X129817736Y-74212913D01*
X129817741Y-74212917D01*
X129917065Y-74285079D01*
X129996078Y-74342485D01*
X130124475Y-74407907D01*
X130192493Y-74442565D01*
X130192496Y-74442566D01*
X130297321Y-74476625D01*
X130402149Y-74510685D01*
X130619878Y-74545170D01*
X130619879Y-74545170D01*
X130840321Y-74545170D01*
X130840322Y-74545170D01*
X131058051Y-74510685D01*
X131267706Y-74442565D01*
X131464122Y-74342485D01*
X131642465Y-74212912D01*
X131798342Y-74057035D01*
X131927915Y-73878692D01*
X132027995Y-73682276D01*
X132096115Y-73472621D01*
X132130600Y-73254892D01*
X132130600Y-73034448D01*
X132096115Y-72816719D01*
X132043012Y-72653281D01*
X132027996Y-72607066D01*
X132027995Y-72607063D01*
X131986763Y-72526142D01*
X131927915Y-72410648D01*
X131852839Y-72307314D01*
X131798347Y-72232311D01*
X131798343Y-72232306D01*
X131642463Y-72076426D01*
X131642458Y-72076422D01*
X131464125Y-71946857D01*
X131464124Y-71946856D01*
X131464122Y-71946855D01*
X131383595Y-71905824D01*
X131267706Y-71846774D01*
X131267703Y-71846773D01*
X131058052Y-71778655D01*
X130933254Y-71758889D01*
X130840322Y-71744170D01*
X130619878Y-71744170D01*
X130547301Y-71755665D01*
X130402147Y-71778655D01*
X130192496Y-71846773D01*
X130192493Y-71846774D01*
X129996074Y-71946857D01*
X129817741Y-72076422D01*
X129817736Y-72076426D01*
X129661856Y-72232306D01*
X129661852Y-72232311D01*
X129532287Y-72410644D01*
X129432204Y-72607063D01*
X129432203Y-72607066D01*
X129364085Y-72816717D01*
X129329600Y-73034448D01*
X128730600Y-73034448D01*
X128696115Y-72816719D01*
X128643012Y-72653281D01*
X128627996Y-72607066D01*
X128627995Y-72607063D01*
X128586763Y-72526142D01*
X128527915Y-72410648D01*
X128452839Y-72307314D01*
X128398347Y-72232311D01*
X128398343Y-72232306D01*
X128242463Y-72076426D01*
X128242458Y-72076422D01*
X128064125Y-71946857D01*
X128064124Y-71946856D01*
X128064122Y-71946855D01*
X127983595Y-71905824D01*
X127867706Y-71846774D01*
X127867703Y-71846773D01*
X127658052Y-71778655D01*
X127533254Y-71758889D01*
X127440322Y-71744170D01*
X127219878Y-71744170D01*
X127147301Y-71755665D01*
X127002147Y-71778655D01*
X126792496Y-71846773D01*
X126792493Y-71846774D01*
X126596074Y-71946857D01*
X126417741Y-72076422D01*
X126417736Y-72076426D01*
X126261856Y-72232306D01*
X126261852Y-72232311D01*
X126132287Y-72410644D01*
X126032204Y-72607063D01*
X126032203Y-72607066D01*
X125964085Y-72816717D01*
X125929600Y-73034448D01*
X120090523Y-73034448D01*
X129286468Y-63838501D01*
X129347789Y-63805018D01*
X129391240Y-63803368D01*
X129692472Y-63845293D01*
X129692479Y-63845292D01*
X129698092Y-63845560D01*
X129698027Y-63846920D01*
X129724325Y-63849642D01*
X129727525Y-63850500D01*
X129727527Y-63850500D01*
X129872472Y-63850500D01*
X129872475Y-63850500D01*
X130012485Y-63812984D01*
X130138015Y-63740509D01*
X130240509Y-63638015D01*
X130312984Y-63512485D01*
X130350500Y-63372475D01*
X130350500Y-63227525D01*
X130312984Y-63087515D01*
X130304597Y-63072989D01*
X130240511Y-62961988D01*
X130240506Y-62961982D01*
X130138017Y-62859493D01*
X130138011Y-62859488D01*
X130012488Y-62787017D01*
X130012489Y-62787017D01*
X130001006Y-62783940D01*
X129872475Y-62749500D01*
X129727525Y-62749500D01*
X129598993Y-62783940D01*
X129587511Y-62787017D01*
X129461984Y-62859490D01*
X129461983Y-62859491D01*
X129446309Y-62875164D01*
X129440777Y-62880367D01*
X129290156Y-63013562D01*
X129270016Y-63028057D01*
X129235573Y-63047944D01*
X129235570Y-63047946D01*
X129215487Y-63059540D01*
X129042170Y-63232856D01*
X128995100Y-63274482D01*
X128990282Y-63278881D01*
X128989760Y-63279373D01*
X128976650Y-63298376D01*
X128968667Y-63306360D01*
X118046748Y-74228281D01*
X117985425Y-74261766D01*
X117959067Y-74264600D01*
X93295338Y-74264600D01*
X93257124Y-74274839D01*
X93218909Y-74285079D01*
X93218904Y-74285082D01*
X93150395Y-74324635D01*
X93150387Y-74324641D01*
X91273776Y-76201251D01*
X91232254Y-76228658D01*
X90640401Y-76466034D01*
X90640141Y-76465385D01*
X90617385Y-76473080D01*
X90610260Y-76474497D01*
X90610252Y-76474500D01*
X90491876Y-76523533D01*
X90491866Y-76523538D01*
X90385331Y-76594723D01*
X90385327Y-76594726D01*
X90294726Y-76685327D01*
X90294723Y-76685331D01*
X90223538Y-76791866D01*
X90223533Y-76791875D01*
X90174499Y-76910255D01*
X90174497Y-76910261D01*
X90149500Y-77035928D01*
X90149500Y-77035931D01*
X90149500Y-77164069D01*
X90149500Y-77164071D01*
X90149499Y-77164071D01*
X82642595Y-77164071D01*
X82638017Y-77159493D01*
X82638015Y-77159491D01*
X82512485Y-77087016D01*
X82372475Y-77049500D01*
X82227525Y-77049500D01*
X82227521Y-77049500D01*
X82166483Y-77065854D01*
X82166484Y-77065855D01*
X82161265Y-77067253D01*
X82144214Y-77070266D01*
X82131380Y-77075260D01*
X82124823Y-77077017D01*
X82124822Y-77077018D01*
X82087515Y-77087015D01*
X82067429Y-77098611D01*
X82050413Y-77106776D01*
X81576987Y-77291055D01*
X81532008Y-77299500D01*
X73375833Y-77299500D01*
X73308794Y-77279815D01*
X73288152Y-77263181D01*
X67136819Y-71111848D01*
X67103334Y-71050525D01*
X67100500Y-71024167D01*
X67100500Y-67585505D01*
X67120185Y-67518466D01*
X67172989Y-67472711D01*
X67242147Y-67462767D01*
X67305703Y-67491792D01*
X67327602Y-67516614D01*
X67392377Y-67613558D01*
X67526441Y-67747622D01*
X67573893Y-67779328D01*
X67684085Y-67852956D01*
X67859249Y-67925512D01*
X68045197Y-67962499D01*
X68045201Y-67962500D01*
X68045202Y-67962500D01*
X68234799Y-67962500D01*
X68234800Y-67962499D01*
X68420751Y-67925512D01*
X68595915Y-67852956D01*
X68753558Y-67747622D01*
X68887622Y-67613558D01*
X68992956Y-67455915D01*
X69065512Y-67280751D01*
X69102500Y-67094798D01*
X69102500Y-66905202D01*
X69065512Y-66719249D01*
X69022839Y-66616228D01*
X72049500Y-66616228D01*
X72049500Y-66783771D01*
X72082182Y-66948074D01*
X72082184Y-66948082D01*
X72146295Y-67102860D01*
X72239373Y-67242162D01*
X72357837Y-67360626D01*
X72450494Y-67422537D01*
X72497137Y-67453703D01*
X72497138Y-67453703D01*
X72497139Y-67453704D01*
X72502470Y-67455912D01*
X72651918Y-67517816D01*
X72816228Y-67550499D01*
X72816232Y-67550500D01*
X72816233Y-67550500D01*
X72983768Y-67550500D01*
X72983769Y-67550499D01*
X73148082Y-67517816D01*
X73302863Y-67453703D01*
X73442162Y-67360626D01*
X73560626Y-67242162D01*
X73653703Y-67102863D01*
X73717816Y-66948082D01*
X73750500Y-66783767D01*
X73750500Y-66616233D01*
X73717816Y-66451918D01*
X73666714Y-66328548D01*
X73653704Y-66297139D01*
X73652491Y-66295324D01*
X73596877Y-66212091D01*
X73560626Y-66157837D01*
X73442162Y-66039373D01*
X73302860Y-65946295D01*
X73148082Y-65882184D01*
X73148074Y-65882182D01*
X72983771Y-65849500D01*
X72983767Y-65849500D01*
X72816233Y-65849500D01*
X72816228Y-65849500D01*
X72651925Y-65882182D01*
X72651917Y-65882184D01*
X72497139Y-65946295D01*
X72357837Y-66039373D01*
X72239373Y-66157837D01*
X72146295Y-66297139D01*
X72082184Y-66451917D01*
X72082182Y-66451925D01*
X72049500Y-66616228D01*
X69022839Y-66616228D01*
X68995407Y-66550001D01*
X68992957Y-66544086D01*
X68887622Y-66386441D01*
X68753558Y-66252377D01*
X68595912Y-66147042D01*
X68420751Y-66074488D01*
X68420743Y-66074486D01*
X68234802Y-66037500D01*
X68234798Y-66037500D01*
X68045202Y-66037500D01*
X68045197Y-66037500D01*
X67859256Y-66074486D01*
X67859248Y-66074488D01*
X67684087Y-66147042D01*
X67526441Y-66252377D01*
X67392380Y-66386438D01*
X67392377Y-66386442D01*
X67327602Y-66483385D01*
X67273990Y-66528190D01*
X67204665Y-66536897D01*
X67141637Y-66506742D01*
X67104918Y-66447299D01*
X67100500Y-66414494D01*
X67100500Y-65620439D01*
X67100250Y-65619505D01*
X67080021Y-65544011D01*
X67063554Y-65515489D01*
X67040464Y-65475495D01*
X67040458Y-65475487D01*
X66941106Y-65376135D01*
X66911426Y-65328485D01*
X66908450Y-65319760D01*
X66582854Y-64365197D01*
X67177500Y-64365197D01*
X67177500Y-64554802D01*
X67214486Y-64740743D01*
X67214488Y-64740751D01*
X67287042Y-64915912D01*
X67392377Y-65073558D01*
X67526441Y-65207622D01*
X67627528Y-65275166D01*
X67684085Y-65312956D01*
X67684086Y-65312956D01*
X67684087Y-65312957D01*
X67697334Y-65318444D01*
X67859249Y-65385512D01*
X68020261Y-65417539D01*
X68045197Y-65422499D01*
X68045201Y-65422500D01*
X68045202Y-65422500D01*
X68234799Y-65422500D01*
X68234800Y-65422499D01*
X68420751Y-65385512D01*
X68595915Y-65312956D01*
X68753558Y-65207622D01*
X68887622Y-65073558D01*
X68992956Y-64915915D01*
X69065512Y-64740751D01*
X69102500Y-64554798D01*
X69102500Y-64365202D01*
X69065512Y-64179249D01*
X68996437Y-64012488D01*
X68992957Y-64004087D01*
X68887622Y-63846441D01*
X68753558Y-63712377D01*
X68595912Y-63607042D01*
X68420751Y-63534488D01*
X68420743Y-63534486D01*
X68234802Y-63497500D01*
X68234798Y-63497500D01*
X68045202Y-63497500D01*
X68045197Y-63497500D01*
X67859256Y-63534486D01*
X67859248Y-63534488D01*
X67684087Y-63607042D01*
X67526441Y-63712377D01*
X67392377Y-63846441D01*
X67287042Y-64004087D01*
X67214488Y-64179248D01*
X67214486Y-64179256D01*
X67177500Y-64365197D01*
X66582854Y-64365197D01*
X66545159Y-64254685D01*
X66541907Y-64248615D01*
X66538715Y-64239464D01*
X66538482Y-64234824D01*
X66534176Y-64222805D01*
X66525513Y-64179256D01*
X66525512Y-64179249D01*
X66456437Y-64012488D01*
X66452957Y-64004087D01*
X66347622Y-63846441D01*
X66213558Y-63712377D01*
X66055912Y-63607042D01*
X65880751Y-63534488D01*
X65880743Y-63534486D01*
X65694802Y-63497500D01*
X65694798Y-63497500D01*
X65505202Y-63497500D01*
X65505197Y-63497500D01*
X65319256Y-63534486D01*
X65319248Y-63534488D01*
X65144087Y-63607042D01*
X64986441Y-63712377D01*
X64852377Y-63846441D01*
X64747042Y-64004087D01*
X64674488Y-64179248D01*
X64674486Y-64179256D01*
X64637500Y-64365197D01*
X62395021Y-64365197D01*
X62394193Y-56740678D01*
X64338000Y-56740678D01*
X64338000Y-56939321D01*
X64369075Y-57135520D01*
X64369075Y-57135523D01*
X64430457Y-57324437D01*
X64520641Y-57501432D01*
X64547730Y-57538715D01*
X65110504Y-56975941D01*
X65126619Y-57036081D01*
X65193498Y-57151920D01*
X65288080Y-57246502D01*
X65403919Y-57313381D01*
X65464057Y-57329494D01*
X64901283Y-57892268D01*
X64901283Y-57892269D01*
X64938567Y-57919358D01*
X65115562Y-58009542D01*
X65304477Y-58070924D01*
X65500679Y-58102000D01*
X65622848Y-58102000D01*
X65689887Y-58121685D01*
X65735642Y-58174489D01*
X65745586Y-58243647D01*
X65716561Y-58307203D01*
X65662879Y-58343361D01*
X65394683Y-58434841D01*
X65390054Y-58436855D01*
X65389757Y-58436172D01*
X65362806Y-58445823D01*
X65319252Y-58454486D01*
X65319250Y-58454487D01*
X65144087Y-58527042D01*
X64986441Y-58632377D01*
X64852377Y-58766441D01*
X64747042Y-58924087D01*
X64674488Y-59099248D01*
X64674486Y-59099256D01*
X64637500Y-59285197D01*
X64637500Y-59474802D01*
X64674486Y-59660743D01*
X64674488Y-59660751D01*
X64747042Y-59835912D01*
X64852377Y-59993558D01*
X64986441Y-60127622D01*
X65085047Y-60193508D01*
X65144085Y-60232956D01*
X65319249Y-60305512D01*
X65481654Y-60337816D01*
X65505197Y-60342499D01*
X65505201Y-60342500D01*
X65505202Y-60342500D01*
X65694799Y-60342500D01*
X65694800Y-60342499D01*
X65880751Y-60305512D01*
X66055915Y-60232956D01*
X66213558Y-60127622D01*
X66347622Y-59993558D01*
X66452956Y-59835915D01*
X66525512Y-59660751D01*
X66534110Y-59617522D01*
X66542863Y-59590358D01*
X66545155Y-59585319D01*
X66545159Y-59585314D01*
X66911426Y-58511512D01*
X66918047Y-58500882D01*
X66919955Y-58492116D01*
X66941107Y-58463863D01*
X66968156Y-58436816D01*
X67029480Y-58403333D01*
X67055834Y-58400500D01*
X67464698Y-58400500D01*
X67531737Y-58420185D01*
X67577492Y-58472989D01*
X67587436Y-58542147D01*
X67558411Y-58605703D01*
X67533590Y-58627601D01*
X67526444Y-58632375D01*
X67526438Y-58632380D01*
X67392377Y-58766441D01*
X67287042Y-58924087D01*
X67214488Y-59099248D01*
X67214486Y-59099256D01*
X67177500Y-59285197D01*
X67177500Y-59474802D01*
X67214486Y-59660743D01*
X67214488Y-59660751D01*
X67287042Y-59835912D01*
X67392377Y-59993558D01*
X67486638Y-60087819D01*
X67520123Y-60149142D01*
X67515139Y-60218834D01*
X67473267Y-60274767D01*
X67407803Y-60299184D01*
X67398957Y-60299500D01*
X66880438Y-60299500D01*
X66857998Y-60305513D01*
X66804008Y-60319979D01*
X66804007Y-60319980D01*
X66756133Y-60347621D01*
X66756132Y-60347622D01*
X66735491Y-60359538D01*
X66516136Y-60578892D01*
X66468486Y-60608571D01*
X65394683Y-60974841D01*
X65390054Y-60976855D01*
X65389757Y-60976172D01*
X65362806Y-60985823D01*
X65319252Y-60994486D01*
X65319250Y-60994487D01*
X65144087Y-61067042D01*
X64986441Y-61172377D01*
X64852377Y-61306441D01*
X64747042Y-61464087D01*
X64674488Y-61639248D01*
X64674486Y-61639256D01*
X64637500Y-61825197D01*
X64637500Y-62014802D01*
X64674486Y-62200743D01*
X64674488Y-62200751D01*
X64747042Y-62375912D01*
X64852377Y-62533558D01*
X64986441Y-62667622D01*
X65088498Y-62735814D01*
X65144085Y-62772956D01*
X65144086Y-62772956D01*
X65144087Y-62772957D01*
X65178031Y-62787017D01*
X65319249Y-62845512D01*
X65481810Y-62877847D01*
X65505197Y-62882499D01*
X65505201Y-62882500D01*
X65505202Y-62882500D01*
X65694799Y-62882500D01*
X65694800Y-62882499D01*
X65880751Y-62845512D01*
X66055915Y-62772956D01*
X66213558Y-62667622D01*
X66347622Y-62533558D01*
X66452956Y-62375915D01*
X66525512Y-62200751D01*
X66534110Y-62157522D01*
X66542863Y-62130358D01*
X66545155Y-62125319D01*
X66545159Y-62125314D01*
X66911426Y-61051512D01*
X66918047Y-61040882D01*
X66919954Y-61032119D01*
X66941101Y-61003868D01*
X67008154Y-60936817D01*
X67069478Y-60903333D01*
X67095834Y-60900500D01*
X67524563Y-60900500D01*
X67591602Y-60920185D01*
X67637357Y-60972989D01*
X67647301Y-61042147D01*
X67618276Y-61105703D01*
X67593453Y-61127602D01*
X67526446Y-61172374D01*
X67526438Y-61172380D01*
X67392377Y-61306441D01*
X67287042Y-61464087D01*
X67214488Y-61639248D01*
X67214486Y-61639256D01*
X67177500Y-61825197D01*
X67177500Y-62014802D01*
X67214486Y-62200743D01*
X67214488Y-62200751D01*
X67287042Y-62375912D01*
X67392377Y-62533558D01*
X67526441Y-62667622D01*
X67628498Y-62735814D01*
X67684085Y-62772956D01*
X67684086Y-62772956D01*
X67684087Y-62772957D01*
X67718031Y-62787017D01*
X67859249Y-62845512D01*
X68021810Y-62877847D01*
X68045197Y-62882499D01*
X68045201Y-62882500D01*
X68045202Y-62882500D01*
X68234799Y-62882500D01*
X68234800Y-62882499D01*
X68420751Y-62845512D01*
X68595915Y-62772956D01*
X68635464Y-62746529D01*
X68661579Y-62734409D01*
X68661267Y-62733623D01*
X68666917Y-62731375D01*
X68666923Y-62731374D01*
X69443358Y-62330410D01*
X69511955Y-62317140D01*
X69576838Y-62343063D01*
X69587935Y-62352906D01*
X70175489Y-62940460D01*
X70244012Y-62980022D01*
X70320438Y-63000500D01*
X77993168Y-63000500D01*
X78060207Y-63020185D01*
X78105962Y-63072989D01*
X78115906Y-63142147D01*
X78086881Y-63205703D01*
X78080849Y-63212181D01*
X77095132Y-64197896D01*
X77033809Y-64231381D01*
X76964117Y-64226397D01*
X76908184Y-64184525D01*
X76889521Y-64148536D01*
X76851934Y-64032853D01*
X76763109Y-63858526D01*
X76730021Y-63812984D01*
X76648113Y-63700246D01*
X76648109Y-63700241D01*
X76509758Y-63561890D01*
X76509753Y-63561886D01*
X76351477Y-63446893D01*
X76351476Y-63446892D01*
X76351474Y-63446891D01*
X76177147Y-63358066D01*
X76150784Y-63349500D01*
X75991071Y-63297606D01*
X75797830Y-63267000D01*
X75797826Y-63267000D01*
X75602174Y-63267000D01*
X75602170Y-63267000D01*
X75408929Y-63297606D01*
X75408926Y-63297606D01*
X75222855Y-63358065D01*
X75048522Y-63446893D01*
X74890246Y-63561886D01*
X74890241Y-63561890D01*
X74751890Y-63700241D01*
X74751886Y-63700246D01*
X74636893Y-63858522D01*
X74636891Y-63858526D01*
X74551862Y-64025404D01*
X74548065Y-64032855D01*
X74487606Y-64218926D01*
X74487606Y-64218929D01*
X74457000Y-64412169D01*
X74457000Y-64607830D01*
X74487606Y-64801070D01*
X74487606Y-64801073D01*
X74524920Y-64915912D01*
X74548066Y-64987147D01*
X74636891Y-65161474D01*
X74636893Y-65161477D01*
X74751886Y-65319753D01*
X74751890Y-65319758D01*
X74890241Y-65458109D01*
X74890246Y-65458113D01*
X75003434Y-65540348D01*
X75048526Y-65573109D01*
X75222853Y-65661934D01*
X75408930Y-65722394D01*
X75509197Y-65738274D01*
X75602170Y-65753000D01*
X75602174Y-65753000D01*
X75797830Y-65753000D01*
X75872773Y-65741129D01*
X75991070Y-65722394D01*
X76177147Y-65661934D01*
X76351474Y-65573109D01*
X76509760Y-65458108D01*
X76587819Y-65380049D01*
X76649142Y-65346564D01*
X76718834Y-65351548D01*
X76774767Y-65393420D01*
X76799184Y-65458884D01*
X76799500Y-65467730D01*
X76799500Y-69439562D01*
X76813152Y-69490513D01*
X76819979Y-69515990D01*
X76819980Y-69515991D01*
X76844492Y-69558447D01*
X76859540Y-69584511D01*
X79615489Y-72340460D01*
X79684012Y-72380022D01*
X79760438Y-72400500D01*
X79839562Y-72400500D01*
X81704117Y-72400500D01*
X81707046Y-72401360D01*
X81710015Y-72400640D01*
X81740358Y-72411141D01*
X81771156Y-72420185D01*
X81773155Y-72422492D01*
X81776043Y-72423492D01*
X81795897Y-72448737D01*
X81816911Y-72472989D01*
X81817345Y-72476010D01*
X81819234Y-72478412D01*
X81822285Y-72510369D01*
X81826855Y-72542147D01*
X81825585Y-72544926D01*
X81825876Y-72547965D01*
X81811170Y-72576491D01*
X81797830Y-72605703D01*
X81794838Y-72608173D01*
X81793861Y-72610069D01*
X81766119Y-72631886D01*
X81754757Y-72638446D01*
X81729059Y-72653283D01*
X81721797Y-72657475D01*
X81716485Y-72660542D01*
X81713197Y-72663065D01*
X81669170Y-72684626D01*
X81400162Y-72755155D01*
X81388256Y-72760718D01*
X81367870Y-72768145D01*
X81297451Y-72787014D01*
X81297444Y-72787017D01*
X81171921Y-72859488D01*
X81171915Y-72859493D01*
X81069426Y-72961982D01*
X81069421Y-72961988D01*
X80996950Y-73087511D01*
X80996949Y-73087515D01*
X80959433Y-73227525D01*
X80959433Y-73372475D01*
X80986268Y-73472622D01*
X80996950Y-73512488D01*
X81069421Y-73638011D01*
X81069423Y-73638013D01*
X81069424Y-73638015D01*
X81171918Y-73740509D01*
X81171919Y-73740510D01*
X81171921Y-73740511D01*
X81297444Y-73812982D01*
X81297445Y-73812982D01*
X81297448Y-73812984D01*
X81437458Y-73850500D01*
X81437461Y-73850500D01*
X81582405Y-73850500D01*
X81582408Y-73850500D01*
X81722418Y-73812984D01*
X81847948Y-73740509D01*
X81869418Y-73719038D01*
X81930737Y-73685555D01*
X82000428Y-73690538D01*
X82056363Y-73732409D01*
X82076871Y-73774626D01*
X82087015Y-73812483D01*
X82087017Y-73812488D01*
X82159488Y-73938011D01*
X82159490Y-73938013D01*
X82159491Y-73938015D01*
X82261985Y-74040509D01*
X82261986Y-74040510D01*
X82261988Y-74040511D01*
X82387511Y-74112982D01*
X82387512Y-74112982D01*
X82387515Y-74112984D01*
X82527525Y-74150500D01*
X82527528Y-74150500D01*
X82672473Y-74150500D01*
X82672475Y-74150500D01*
X82738734Y-74132745D01*
X82755785Y-74129733D01*
X82768614Y-74124739D01*
X82812485Y-74112984D01*
X82832575Y-74101384D01*
X82849582Y-74093222D01*
X83323009Y-73908945D01*
X83367988Y-73900500D01*
X116639560Y-73900500D01*
X116639562Y-73900500D01*
X116715989Y-73880021D01*
X116784511Y-73840460D01*
X116840460Y-73784511D01*
X123896374Y-66728595D01*
X123948719Y-66697418D01*
X125189615Y-66328551D01*
X125193415Y-66326710D01*
X125223261Y-66316697D01*
X125281420Y-66305130D01*
X125472598Y-66225941D01*
X125644655Y-66110977D01*
X125790977Y-65964655D01*
X125905941Y-65792598D01*
X125985130Y-65601420D01*
X126025500Y-65398465D01*
X126025500Y-64691535D01*
X125985130Y-64488580D01*
X125905941Y-64297402D01*
X125790977Y-64125345D01*
X125790975Y-64125342D01*
X125644657Y-63979024D01*
X125541354Y-63910000D01*
X125472598Y-63864059D01*
X125459240Y-63858526D01*
X125281420Y-63784870D01*
X125281412Y-63784868D01*
X125078469Y-63744500D01*
X125078465Y-63744500D01*
X124871535Y-63744500D01*
X124871530Y-63744500D01*
X124668587Y-63784868D01*
X124668579Y-63784870D01*
X124477403Y-63864058D01*
X124305342Y-63979024D01*
X124159024Y-64125342D01*
X124044058Y-64297403D01*
X123964870Y-64488579D01*
X123964868Y-64488587D01*
X123924499Y-64691536D01*
X123924251Y-64694055D01*
X123920469Y-64714558D01*
X123769120Y-65268805D01*
X123732471Y-65328291D01*
X123669479Y-65358520D01*
X123600144Y-65349894D01*
X123546479Y-65305152D01*
X123525522Y-65238499D01*
X123525500Y-65236140D01*
X123525500Y-64691534D01*
X123525499Y-64691530D01*
X123515341Y-64640460D01*
X123485130Y-64488580D01*
X123405941Y-64297402D01*
X123290977Y-64125345D01*
X123290975Y-64125342D01*
X123144657Y-63979024D01*
X123041354Y-63910000D01*
X122972598Y-63864059D01*
X122959240Y-63858526D01*
X122781420Y-63784870D01*
X122781412Y-63784868D01*
X122578469Y-63744500D01*
X122578465Y-63744500D01*
X122371535Y-63744500D01*
X122371530Y-63744500D01*
X122168587Y-63784868D01*
X122168579Y-63784870D01*
X121977403Y-63864058D01*
X121805342Y-63979024D01*
X121659024Y-64125342D01*
X121544058Y-64297403D01*
X121464870Y-64488579D01*
X121464868Y-64488587D01*
X121424500Y-64691530D01*
X121424500Y-65350500D01*
X121404815Y-65417539D01*
X121352011Y-65463294D01*
X121300500Y-65474500D01*
X121135319Y-65474500D01*
X120959424Y-65509487D01*
X120959415Y-65509490D01*
X120793722Y-65578121D01*
X120793709Y-65578128D01*
X120644590Y-65677767D01*
X120644586Y-65677770D01*
X120517770Y-65804586D01*
X120517767Y-65804590D01*
X120418128Y-65953709D01*
X120418121Y-65953722D01*
X120349490Y-66119415D01*
X120349487Y-66119424D01*
X120314500Y-66295319D01*
X120314500Y-66474680D01*
X120349487Y-66650575D01*
X120349490Y-66650584D01*
X120418121Y-66816277D01*
X120418128Y-66816290D01*
X120517767Y-66965409D01*
X120517770Y-66965413D01*
X120644586Y-67092229D01*
X120644590Y-67092232D01*
X120793709Y-67191871D01*
X120793722Y-67191878D01*
X120849755Y-67215087D01*
X120959417Y-67260510D01*
X120959419Y-67260510D01*
X120959424Y-67260512D01*
X121135319Y-67295499D01*
X121135323Y-67295500D01*
X121135324Y-67295500D01*
X121314677Y-67295500D01*
X121314677Y-67295499D01*
X121369202Y-67284654D01*
X121438794Y-67290881D01*
X121493971Y-67333744D01*
X121517216Y-67399633D01*
X121501149Y-67467630D01*
X121481075Y-67493952D01*
X116336583Y-72638446D01*
X116275260Y-72671931D01*
X116248902Y-72674765D01*
X101235448Y-72674765D01*
X101168409Y-72655080D01*
X101122654Y-72602276D01*
X101112710Y-72533118D01*
X101123008Y-72498485D01*
X101246771Y-72232306D01*
X101284544Y-72151065D01*
X101309300Y-72115669D01*
X101940460Y-71484511D01*
X101980022Y-71415988D01*
X102000500Y-71339562D01*
X102000500Y-71260438D01*
X102000500Y-70965914D01*
X102007926Y-70923647D01*
X102012204Y-70911848D01*
X102159966Y-70504315D01*
X102166392Y-70493186D01*
X102173160Y-70467927D01*
X102182801Y-70441337D01*
X102187437Y-70426914D01*
X102187906Y-70425246D01*
X102188899Y-70421584D01*
X102188899Y-70421580D01*
X102189968Y-70414414D01*
X102189993Y-70414417D01*
X102193052Y-70393684D01*
X102200500Y-70365892D01*
X102200500Y-70234108D01*
X102166392Y-70106814D01*
X102100500Y-69992686D01*
X102045495Y-69937681D01*
X102012010Y-69876358D01*
X102016994Y-69806666D01*
X102045495Y-69762319D01*
X102100500Y-69707314D01*
X102166392Y-69593186D01*
X102200500Y-69465892D01*
X102200500Y-69334108D01*
X102166392Y-69206814D01*
X102100500Y-69092686D01*
X102007314Y-68999500D01*
X101950250Y-68966554D01*
X101893187Y-68933608D01*
X101829539Y-68916554D01*
X101765892Y-68899500D01*
X101634108Y-68899500D01*
X101506812Y-68933608D01*
X101392686Y-68999500D01*
X101297891Y-69094294D01*
X101290196Y-69103067D01*
X101130086Y-69263180D01*
X101068763Y-69296666D01*
X101042404Y-69299500D01*
X100460438Y-69299500D01*
X100384011Y-69319979D01*
X100377563Y-69323702D01*
X100359539Y-69334108D01*
X100315489Y-69359539D01*
X98759541Y-70915487D01*
X98759537Y-70915492D01*
X98719980Y-70984007D01*
X98719977Y-70984014D01*
X98705570Y-71037781D01*
X98702370Y-71047953D01*
X98543752Y-71485422D01*
X98543751Y-71485424D01*
X98540025Y-71495697D01*
X98533608Y-71506814D01*
X98526847Y-71532041D01*
X98525025Y-71537068D01*
X98517197Y-71558660D01*
X98512531Y-71573191D01*
X98512068Y-71574841D01*
X98511099Y-71578418D01*
X98510033Y-71585575D01*
X98510007Y-71585571D01*
X98506945Y-71606317D01*
X98499501Y-71634100D01*
X98499500Y-71634108D01*
X98499500Y-71765892D01*
X98512569Y-71814666D01*
X98533608Y-71893187D01*
X98559503Y-71938037D01*
X98599500Y-72007314D01*
X98692686Y-72100500D01*
X98806814Y-72166392D01*
X98934108Y-72200500D01*
X98934110Y-72200500D01*
X99065890Y-72200500D01*
X99065892Y-72200500D01*
X99193186Y-72166392D01*
X99193197Y-72166385D01*
X99193545Y-72166242D01*
X99193878Y-72166206D01*
X99201037Y-72164288D01*
X99201335Y-72165403D01*
X99220832Y-72163305D01*
X99247530Y-72156971D01*
X99255067Y-72159622D01*
X99263014Y-72158767D01*
X99287554Y-72171048D01*
X99313442Y-72180154D01*
X99319804Y-72187188D01*
X99325496Y-72190037D01*
X99338862Y-72204638D01*
X99344120Y-72211394D01*
X99399500Y-72307314D01*
X99486448Y-72394262D01*
X99491178Y-72400339D01*
X99501287Y-72425964D01*
X99514490Y-72450142D01*
X99513927Y-72458002D01*
X99516820Y-72465333D01*
X99511471Y-72492355D01*
X99509506Y-72519834D01*
X99504783Y-72526142D01*
X99503253Y-72533873D01*
X99484142Y-72553715D01*
X99467634Y-72575767D01*
X99460251Y-72578520D01*
X99454784Y-72584197D01*
X99427981Y-72590556D01*
X99402170Y-72600184D01*
X99393324Y-72600500D01*
X89499505Y-72600500D01*
X89432466Y-72580815D01*
X89386711Y-72528011D01*
X89376767Y-72458853D01*
X89379730Y-72444407D01*
X89380601Y-72441157D01*
X89400500Y-72366892D01*
X89400500Y-72235108D01*
X89366392Y-72107814D01*
X89300500Y-71993686D01*
X89282735Y-71975921D01*
X89279895Y-71972986D01*
X89163094Y-71848226D01*
X89146230Y-71825483D01*
X89140460Y-71815489D01*
X89084511Y-71759540D01*
X89014830Y-71689859D01*
X88921642Y-71590321D01*
X88919315Y-71587877D01*
X88919047Y-71587600D01*
X88898795Y-71573824D01*
X87284511Y-69959540D01*
X87284510Y-69959539D01*
X87284507Y-69959537D01*
X87264431Y-69947946D01*
X87264429Y-69947946D01*
X87237347Y-69932310D01*
X87215990Y-69919979D01*
X87190513Y-69913152D01*
X87139562Y-69899500D01*
X87139560Y-69899500D01*
X80175833Y-69899500D01*
X80108794Y-69879815D01*
X80088152Y-69863181D01*
X78838819Y-68613848D01*
X78805334Y-68552525D01*
X78802500Y-68526167D01*
X78802500Y-67448620D01*
X95454931Y-67448620D01*
X95454932Y-67448621D01*
X95502633Y-67480495D01*
X95502639Y-67480498D01*
X95693725Y-67559649D01*
X95693733Y-67559651D01*
X95896579Y-67599999D01*
X95896583Y-67600000D01*
X96103417Y-67600000D01*
X96103420Y-67599999D01*
X96306266Y-67559651D01*
X96306274Y-67559649D01*
X96497366Y-67480495D01*
X96545066Y-67448621D01*
X96545067Y-67448620D01*
X96000001Y-66903554D01*
X96000000Y-66903554D01*
X95454931Y-67448620D01*
X78802500Y-67448620D01*
X78802500Y-66623920D01*
X80249499Y-66623920D01*
X80278340Y-66768907D01*
X80278343Y-66768917D01*
X80334912Y-66905488D01*
X80334919Y-66905501D01*
X80417048Y-67028415D01*
X80417051Y-67028419D01*
X80521580Y-67132948D01*
X80521584Y-67132951D01*
X80644498Y-67215080D01*
X80644511Y-67215087D01*
X80754173Y-67260510D01*
X80781087Y-67271658D01*
X80781091Y-67271658D01*
X80781092Y-67271659D01*
X80926079Y-67300500D01*
X80926082Y-67300500D01*
X81073920Y-67300500D01*
X81172994Y-67280792D01*
X81218913Y-67271658D01*
X81355495Y-67215084D01*
X81478416Y-67132951D01*
X81582951Y-67028416D01*
X81625051Y-66965409D01*
X81646898Y-66932713D01*
X81700510Y-66887908D01*
X81769835Y-66879201D01*
X81832862Y-66909355D01*
X81853102Y-66932713D01*
X81917048Y-67028415D01*
X81917051Y-67028419D01*
X82021580Y-67132948D01*
X82021584Y-67132951D01*
X82144498Y-67215080D01*
X82144511Y-67215087D01*
X82254173Y-67260510D01*
X82281087Y-67271658D01*
X82281091Y-67271658D01*
X82281092Y-67271659D01*
X82426079Y-67300500D01*
X82426082Y-67300500D01*
X82573920Y-67300500D01*
X82672994Y-67280792D01*
X82718913Y-67271658D01*
X82855495Y-67215084D01*
X82978416Y-67132951D01*
X83082951Y-67028416D01*
X83125051Y-66965409D01*
X83146898Y-66932713D01*
X83200510Y-66887908D01*
X83269835Y-66879201D01*
X83332862Y-66909355D01*
X83353102Y-66932713D01*
X83417048Y-67028415D01*
X83417051Y-67028419D01*
X83521580Y-67132948D01*
X83521584Y-67132951D01*
X83644498Y-67215080D01*
X83644511Y-67215087D01*
X83754173Y-67260510D01*
X83781087Y-67271658D01*
X83781091Y-67271658D01*
X83781092Y-67271659D01*
X83926079Y-67300500D01*
X83926082Y-67300500D01*
X84073920Y-67300500D01*
X84172994Y-67280792D01*
X84218913Y-67271658D01*
X84355495Y-67215084D01*
X84478416Y-67132951D01*
X84582951Y-67028416D01*
X84625051Y-66965409D01*
X84646898Y-66932713D01*
X84700510Y-66887908D01*
X84769835Y-66879201D01*
X84832862Y-66909355D01*
X84853102Y-66932713D01*
X84917048Y-67028415D01*
X84917051Y-67028419D01*
X85021580Y-67132948D01*
X85021584Y-67132951D01*
X85144498Y-67215080D01*
X85144511Y-67215087D01*
X85254173Y-67260510D01*
X85281087Y-67271658D01*
X85281091Y-67271658D01*
X85281092Y-67271659D01*
X85426079Y-67300500D01*
X85426082Y-67300500D01*
X85573920Y-67300500D01*
X85672994Y-67280792D01*
X85718913Y-67271658D01*
X85855495Y-67215084D01*
X85978416Y-67132951D01*
X86082951Y-67028416D01*
X86125051Y-66965409D01*
X86146898Y-66932713D01*
X86200510Y-66887908D01*
X86269835Y-66879201D01*
X86332862Y-66909355D01*
X86353102Y-66932713D01*
X86417048Y-67028415D01*
X86417051Y-67028419D01*
X86521580Y-67132948D01*
X86521584Y-67132951D01*
X86644498Y-67215080D01*
X86644511Y-67215087D01*
X86754173Y-67260510D01*
X86781087Y-67271658D01*
X86781091Y-67271658D01*
X86781092Y-67271659D01*
X86926079Y-67300500D01*
X86926082Y-67300500D01*
X87073920Y-67300500D01*
X87172994Y-67280792D01*
X87218913Y-67271658D01*
X87355495Y-67215084D01*
X87478416Y-67132951D01*
X87582951Y-67028416D01*
X87625051Y-66965409D01*
X87646898Y-66932713D01*
X87700510Y-66887908D01*
X87769835Y-66879201D01*
X87832862Y-66909355D01*
X87853102Y-66932713D01*
X87917048Y-67028415D01*
X87917051Y-67028419D01*
X88021580Y-67132948D01*
X88021584Y-67132951D01*
X88144498Y-67215080D01*
X88144511Y-67215087D01*
X88254173Y-67260510D01*
X88281087Y-67271658D01*
X88281091Y-67271658D01*
X88281092Y-67271659D01*
X88426079Y-67300500D01*
X88426082Y-67300500D01*
X88573920Y-67300500D01*
X88672994Y-67280792D01*
X88718913Y-67271658D01*
X88855495Y-67215084D01*
X88978416Y-67132951D01*
X89082951Y-67028416D01*
X89125051Y-66965409D01*
X89146898Y-66932713D01*
X89200510Y-66887908D01*
X89269835Y-66879201D01*
X89332862Y-66909355D01*
X89353102Y-66932713D01*
X89417048Y-67028415D01*
X89417051Y-67028419D01*
X89521580Y-67132948D01*
X89521584Y-67132951D01*
X89644498Y-67215080D01*
X89644511Y-67215087D01*
X89754173Y-67260510D01*
X89781087Y-67271658D01*
X89781091Y-67271658D01*
X89781092Y-67271659D01*
X89926079Y-67300500D01*
X89926082Y-67300500D01*
X90073920Y-67300500D01*
X90172994Y-67280792D01*
X90218913Y-67271658D01*
X90355495Y-67215084D01*
X90478416Y-67132951D01*
X90582951Y-67028416D01*
X90625051Y-66965409D01*
X90646898Y-66932713D01*
X90700510Y-66887908D01*
X90769835Y-66879201D01*
X90832862Y-66909355D01*
X90853102Y-66932713D01*
X90917048Y-67028415D01*
X90917051Y-67028419D01*
X91021580Y-67132948D01*
X91021584Y-67132951D01*
X91144498Y-67215080D01*
X91144511Y-67215087D01*
X91254173Y-67260510D01*
X91281087Y-67271658D01*
X91281091Y-67271658D01*
X91281092Y-67271659D01*
X91426079Y-67300500D01*
X91426082Y-67300500D01*
X91573920Y-67300500D01*
X91672994Y-67280792D01*
X91718913Y-67271658D01*
X91855495Y-67215084D01*
X91978416Y-67132951D01*
X92082951Y-67028416D01*
X92125051Y-66965409D01*
X92146898Y-66932713D01*
X92200510Y-66887908D01*
X92269835Y-66879201D01*
X92332862Y-66909355D01*
X92353102Y-66932713D01*
X92417048Y-67028415D01*
X92417051Y-67028419D01*
X92521580Y-67132948D01*
X92521584Y-67132951D01*
X92644498Y-67215080D01*
X92644511Y-67215087D01*
X92754173Y-67260510D01*
X92781087Y-67271658D01*
X92781091Y-67271658D01*
X92781092Y-67271659D01*
X92926079Y-67300500D01*
X92926082Y-67300500D01*
X93073920Y-67300500D01*
X93172994Y-67280792D01*
X93218913Y-67271658D01*
X93355495Y-67215084D01*
X93478416Y-67132951D01*
X93582951Y-67028416D01*
X93625051Y-66965409D01*
X93646898Y-66932713D01*
X93700510Y-66887908D01*
X93769835Y-66879201D01*
X93832862Y-66909355D01*
X93853102Y-66932713D01*
X93917048Y-67028415D01*
X93917051Y-67028419D01*
X94021580Y-67132948D01*
X94021584Y-67132951D01*
X94144498Y-67215080D01*
X94144511Y-67215087D01*
X94254173Y-67260510D01*
X94281087Y-67271658D01*
X94281091Y-67271658D01*
X94281092Y-67271659D01*
X94426079Y-67300500D01*
X94426082Y-67300500D01*
X94573920Y-67300500D01*
X94672996Y-67280792D01*
X94701563Y-67275109D01*
X94718913Y-67271658D01*
X94855495Y-67215084D01*
X94978416Y-67132951D01*
X94982454Y-67128912D01*
X95043773Y-67095425D01*
X95082292Y-67093187D01*
X95101378Y-67095066D01*
X95646446Y-66550000D01*
X95606950Y-66510504D01*
X95700000Y-66510504D01*
X95700000Y-66589496D01*
X95720444Y-66665796D01*
X95759940Y-66734205D01*
X95815795Y-66790060D01*
X95884204Y-66829556D01*
X95960504Y-66850000D01*
X96039496Y-66850000D01*
X96115796Y-66829556D01*
X96184205Y-66790060D01*
X96240060Y-66734205D01*
X96279556Y-66665796D01*
X96300000Y-66589496D01*
X96300000Y-66549999D01*
X96353554Y-66549999D01*
X96353554Y-66550001D01*
X96898619Y-67095066D01*
X96917706Y-67093187D01*
X96986352Y-67106206D01*
X97017541Y-67128909D01*
X97021580Y-67132948D01*
X97021584Y-67132951D01*
X97144498Y-67215080D01*
X97144511Y-67215087D01*
X97254173Y-67260510D01*
X97281087Y-67271658D01*
X97281091Y-67271658D01*
X97281092Y-67271659D01*
X97426079Y-67300500D01*
X97426082Y-67300500D01*
X97573920Y-67300500D01*
X97672994Y-67280792D01*
X97718913Y-67271658D01*
X97855495Y-67215084D01*
X97978416Y-67132951D01*
X98082951Y-67028416D01*
X98125051Y-66965409D01*
X98146898Y-66932713D01*
X98200510Y-66887908D01*
X98269835Y-66879201D01*
X98332862Y-66909355D01*
X98353102Y-66932713D01*
X98417048Y-67028415D01*
X98417051Y-67028419D01*
X98521580Y-67132948D01*
X98521584Y-67132951D01*
X98644498Y-67215080D01*
X98644511Y-67215087D01*
X98754173Y-67260510D01*
X98781087Y-67271658D01*
X98781091Y-67271658D01*
X98781092Y-67271659D01*
X98926079Y-67300500D01*
X98926082Y-67300500D01*
X99073920Y-67300500D01*
X99172994Y-67280792D01*
X99218913Y-67271658D01*
X99355495Y-67215084D01*
X99478416Y-67132951D01*
X99582951Y-67028416D01*
X99625051Y-66965409D01*
X99646898Y-66932713D01*
X99700510Y-66887908D01*
X99769835Y-66879201D01*
X99832862Y-66909355D01*
X99853102Y-66932713D01*
X99917048Y-67028415D01*
X99917051Y-67028419D01*
X100021580Y-67132948D01*
X100021584Y-67132951D01*
X100144498Y-67215080D01*
X100144511Y-67215087D01*
X100254173Y-67260510D01*
X100281087Y-67271658D01*
X100281091Y-67271658D01*
X100281092Y-67271659D01*
X100426079Y-67300500D01*
X100426082Y-67300500D01*
X100573920Y-67300500D01*
X100672994Y-67280792D01*
X100718913Y-67271658D01*
X100855495Y-67215084D01*
X100978416Y-67132951D01*
X101082951Y-67028416D01*
X101125051Y-66965409D01*
X101146898Y-66932713D01*
X101200510Y-66887908D01*
X101269835Y-66879201D01*
X101332862Y-66909355D01*
X101353102Y-66932713D01*
X101417048Y-67028415D01*
X101417051Y-67028419D01*
X101521580Y-67132948D01*
X101521584Y-67132951D01*
X101644498Y-67215080D01*
X101644511Y-67215087D01*
X101754173Y-67260510D01*
X101781087Y-67271658D01*
X101781091Y-67271658D01*
X101781092Y-67271659D01*
X101926079Y-67300500D01*
X101926082Y-67300500D01*
X102073920Y-67300500D01*
X102172994Y-67280792D01*
X102218913Y-67271658D01*
X102355495Y-67215084D01*
X102478416Y-67132951D01*
X102582951Y-67028416D01*
X102625051Y-66965409D01*
X102646898Y-66932713D01*
X102700510Y-66887908D01*
X102769835Y-66879201D01*
X102832862Y-66909355D01*
X102853102Y-66932713D01*
X102917048Y-67028415D01*
X102917051Y-67028419D01*
X103021580Y-67132948D01*
X103021584Y-67132951D01*
X103144498Y-67215080D01*
X103144511Y-67215087D01*
X103254173Y-67260510D01*
X103281087Y-67271658D01*
X103281091Y-67271658D01*
X103281092Y-67271659D01*
X103426079Y-67300500D01*
X103426082Y-67300500D01*
X103573920Y-67300500D01*
X103672994Y-67280792D01*
X103718913Y-67271658D01*
X103855495Y-67215084D01*
X103978416Y-67132951D01*
X104082951Y-67028416D01*
X104125051Y-66965409D01*
X104146898Y-66932713D01*
X104200510Y-66887908D01*
X104269835Y-66879201D01*
X104332862Y-66909355D01*
X104353102Y-66932713D01*
X104417048Y-67028415D01*
X104417051Y-67028419D01*
X104521580Y-67132948D01*
X104521584Y-67132951D01*
X104644498Y-67215080D01*
X104644511Y-67215087D01*
X104754173Y-67260510D01*
X104781087Y-67271658D01*
X104781091Y-67271658D01*
X104781092Y-67271659D01*
X104926079Y-67300500D01*
X104926082Y-67300500D01*
X105073920Y-67300500D01*
X105172994Y-67280792D01*
X105218913Y-67271658D01*
X105355495Y-67215084D01*
X105478416Y-67132951D01*
X105582951Y-67028416D01*
X105665084Y-66905495D01*
X105665208Y-66905197D01*
X105702039Y-66816277D01*
X105721658Y-66768913D01*
X105742170Y-66665796D01*
X105750500Y-66623920D01*
X105750500Y-66616228D01*
X112249500Y-66616228D01*
X112249500Y-66783771D01*
X112282182Y-66948074D01*
X112282184Y-66948082D01*
X112346295Y-67102860D01*
X112439373Y-67242162D01*
X112557837Y-67360626D01*
X112650494Y-67422537D01*
X112697137Y-67453703D01*
X112697138Y-67453703D01*
X112697139Y-67453704D01*
X112702470Y-67455912D01*
X112851918Y-67517816D01*
X113016228Y-67550499D01*
X113016232Y-67550500D01*
X113016233Y-67550500D01*
X113183768Y-67550500D01*
X113183769Y-67550499D01*
X113348082Y-67517816D01*
X113502863Y-67453703D01*
X113642162Y-67360626D01*
X113760626Y-67242162D01*
X113853703Y-67102863D01*
X113917816Y-66948082D01*
X113950500Y-66783767D01*
X113950500Y-66616233D01*
X113917816Y-66451918D01*
X113866714Y-66328548D01*
X113853704Y-66297139D01*
X113852491Y-66295324D01*
X113796877Y-66212091D01*
X113760626Y-66157837D01*
X113642162Y-66039373D01*
X113502860Y-65946295D01*
X113348082Y-65882184D01*
X113348074Y-65882182D01*
X113183771Y-65849500D01*
X113183767Y-65849500D01*
X113016233Y-65849500D01*
X113016228Y-65849500D01*
X112851925Y-65882182D01*
X112851917Y-65882184D01*
X112697139Y-65946295D01*
X112557837Y-66039373D01*
X112439373Y-66157837D01*
X112346295Y-66297139D01*
X112282184Y-66451917D01*
X112282182Y-66451925D01*
X112249500Y-66616228D01*
X105750500Y-66616228D01*
X105750500Y-66476079D01*
X105721659Y-66331092D01*
X105721658Y-66331091D01*
X105721658Y-66331087D01*
X105719815Y-66326638D01*
X105665087Y-66194511D01*
X105665080Y-66194498D01*
X105582951Y-66071584D01*
X105582948Y-66071580D01*
X105478419Y-65967051D01*
X105478415Y-65967048D01*
X105355501Y-65884919D01*
X105355492Y-65884914D01*
X105223850Y-65830387D01*
X105218913Y-65828342D01*
X105218911Y-65828341D01*
X105218907Y-65828340D01*
X105073920Y-65799500D01*
X105073918Y-65799500D01*
X104926082Y-65799500D01*
X104926080Y-65799500D01*
X104781092Y-65828340D01*
X104781082Y-65828343D01*
X104644511Y-65884912D01*
X104644498Y-65884919D01*
X104521584Y-65967048D01*
X104521580Y-65967051D01*
X104417051Y-66071580D01*
X104417048Y-66071584D01*
X104353102Y-66167286D01*
X104299489Y-66212091D01*
X104230164Y-66220798D01*
X104167137Y-66190643D01*
X104146898Y-66167286D01*
X104082951Y-66071584D01*
X104082948Y-66071580D01*
X103978419Y-65967051D01*
X103978415Y-65967048D01*
X103855501Y-65884919D01*
X103855488Y-65884912D01*
X103718917Y-65828343D01*
X103718907Y-65828340D01*
X103573920Y-65799500D01*
X103573918Y-65799500D01*
X103426082Y-65799500D01*
X103426080Y-65799500D01*
X103281092Y-65828340D01*
X103281082Y-65828343D01*
X103144511Y-65884912D01*
X103144498Y-65884919D01*
X103021584Y-65967048D01*
X103021580Y-65967051D01*
X102917051Y-66071580D01*
X102917048Y-66071584D01*
X102853102Y-66167286D01*
X102799489Y-66212091D01*
X102730164Y-66220798D01*
X102667137Y-66190643D01*
X102646898Y-66167286D01*
X102582951Y-66071584D01*
X102582948Y-66071580D01*
X102478419Y-65967051D01*
X102478415Y-65967048D01*
X102355501Y-65884919D01*
X102355488Y-65884912D01*
X102218917Y-65828343D01*
X102218907Y-65828340D01*
X102073920Y-65799500D01*
X102073918Y-65799500D01*
X101926082Y-65799500D01*
X101926080Y-65799500D01*
X101781092Y-65828340D01*
X101781082Y-65828343D01*
X101644511Y-65884912D01*
X101644498Y-65884919D01*
X101521584Y-65967048D01*
X101521580Y-65967051D01*
X101417051Y-66071580D01*
X101417048Y-66071584D01*
X101353102Y-66167286D01*
X101299489Y-66212091D01*
X101230164Y-66220798D01*
X101167137Y-66190643D01*
X101146898Y-66167286D01*
X101082951Y-66071584D01*
X101082948Y-66071580D01*
X100978419Y-65967051D01*
X100978415Y-65967048D01*
X100855501Y-65884919D01*
X100855488Y-65884912D01*
X100718917Y-65828343D01*
X100718907Y-65828340D01*
X100573920Y-65799500D01*
X100573918Y-65799500D01*
X100426082Y-65799500D01*
X100426080Y-65799500D01*
X100281092Y-65828340D01*
X100281082Y-65828343D01*
X100144511Y-65884912D01*
X100144498Y-65884919D01*
X100021584Y-65967048D01*
X100021580Y-65967051D01*
X99917051Y-66071580D01*
X99917048Y-66071584D01*
X99853102Y-66167286D01*
X99799489Y-66212091D01*
X99730164Y-66220798D01*
X99667137Y-66190643D01*
X99646898Y-66167286D01*
X99582951Y-66071584D01*
X99582948Y-66071580D01*
X99478419Y-65967051D01*
X99478415Y-65967048D01*
X99355501Y-65884919D01*
X99355488Y-65884912D01*
X99218917Y-65828343D01*
X99218907Y-65828340D01*
X99073920Y-65799500D01*
X99073918Y-65799500D01*
X98926082Y-65799500D01*
X98926080Y-65799500D01*
X98781092Y-65828340D01*
X98781082Y-65828343D01*
X98644511Y-65884912D01*
X98644498Y-65884919D01*
X98521584Y-65967048D01*
X98521580Y-65967051D01*
X98417051Y-66071580D01*
X98417048Y-66071584D01*
X98353102Y-66167286D01*
X98299489Y-66212091D01*
X98230164Y-66220798D01*
X98167137Y-66190643D01*
X98146898Y-66167286D01*
X98082951Y-66071584D01*
X98082948Y-66071580D01*
X97978419Y-65967051D01*
X97978415Y-65967048D01*
X97855501Y-65884919D01*
X97855488Y-65884912D01*
X97718917Y-65828343D01*
X97718907Y-65828340D01*
X97573920Y-65799500D01*
X97573918Y-65799500D01*
X97426082Y-65799500D01*
X97426080Y-65799500D01*
X97281092Y-65828340D01*
X97281082Y-65828343D01*
X97144511Y-65884912D01*
X97144498Y-65884919D01*
X97021587Y-65967046D01*
X97021582Y-65967050D01*
X97017532Y-65971100D01*
X96956205Y-66004577D01*
X96917709Y-66006811D01*
X96898620Y-66004931D01*
X96353554Y-66549999D01*
X96300000Y-66549999D01*
X96300000Y-66510504D01*
X96279556Y-66434204D01*
X96240060Y-66365795D01*
X96184205Y-66309940D01*
X96115796Y-66270444D01*
X96039496Y-66250000D01*
X95960504Y-66250000D01*
X95884204Y-66270444D01*
X95815795Y-66309940D01*
X95759940Y-66365795D01*
X95720444Y-66434204D01*
X95700000Y-66510504D01*
X95606950Y-66510504D01*
X95101378Y-66004932D01*
X95082293Y-66006812D01*
X95013647Y-65993793D01*
X94982458Y-65971090D01*
X94978419Y-65967051D01*
X94978415Y-65967048D01*
X94855501Y-65884919D01*
X94855488Y-65884912D01*
X94718917Y-65828343D01*
X94718907Y-65828340D01*
X94672986Y-65819206D01*
X94573920Y-65799500D01*
X94573918Y-65799500D01*
X94426082Y-65799500D01*
X94426080Y-65799500D01*
X94281092Y-65828340D01*
X94281082Y-65828343D01*
X94144511Y-65884912D01*
X94144498Y-65884919D01*
X94021584Y-65967048D01*
X94021580Y-65967051D01*
X93917051Y-66071580D01*
X93917048Y-66071584D01*
X93853102Y-66167286D01*
X93799489Y-66212091D01*
X93730164Y-66220798D01*
X93667137Y-66190643D01*
X93646898Y-66167286D01*
X93582951Y-66071584D01*
X93582948Y-66071580D01*
X93478419Y-65967051D01*
X93478415Y-65967048D01*
X93355501Y-65884919D01*
X93355488Y-65884912D01*
X93218917Y-65828343D01*
X93218907Y-65828340D01*
X93073920Y-65799500D01*
X93073918Y-65799500D01*
X92926082Y-65799500D01*
X92926080Y-65799500D01*
X92781092Y-65828340D01*
X92781082Y-65828343D01*
X92644511Y-65884912D01*
X92644498Y-65884919D01*
X92521584Y-65967048D01*
X92521580Y-65967051D01*
X92417051Y-66071580D01*
X92417048Y-66071584D01*
X92353102Y-66167286D01*
X92299489Y-66212091D01*
X92230164Y-66220798D01*
X92167137Y-66190643D01*
X92146898Y-66167286D01*
X92082951Y-66071584D01*
X92082948Y-66071580D01*
X91978419Y-65967051D01*
X91978415Y-65967048D01*
X91855501Y-65884919D01*
X91855488Y-65884912D01*
X91718917Y-65828343D01*
X91718907Y-65828340D01*
X91573920Y-65799500D01*
X91573918Y-65799500D01*
X91426082Y-65799500D01*
X91426080Y-65799500D01*
X91281092Y-65828340D01*
X91281082Y-65828343D01*
X91144511Y-65884912D01*
X91144498Y-65884919D01*
X91021584Y-65967048D01*
X91021580Y-65967051D01*
X90917051Y-66071580D01*
X90917048Y-66071584D01*
X90853102Y-66167286D01*
X90799489Y-66212091D01*
X90730164Y-66220798D01*
X90667137Y-66190643D01*
X90646898Y-66167286D01*
X90582951Y-66071584D01*
X90582948Y-66071580D01*
X90478419Y-65967051D01*
X90478415Y-65967048D01*
X90355501Y-65884919D01*
X90355488Y-65884912D01*
X90218917Y-65828343D01*
X90218907Y-65828340D01*
X90073920Y-65799500D01*
X90073918Y-65799500D01*
X89926082Y-65799500D01*
X89926080Y-65799500D01*
X89781092Y-65828340D01*
X89781082Y-65828343D01*
X89644511Y-65884912D01*
X89644498Y-65884919D01*
X89521584Y-65967048D01*
X89521580Y-65967051D01*
X89417051Y-66071580D01*
X89417048Y-66071584D01*
X89353102Y-66167286D01*
X89299489Y-66212091D01*
X89230164Y-66220798D01*
X89167137Y-66190643D01*
X89146898Y-66167286D01*
X89082951Y-66071584D01*
X89082948Y-66071580D01*
X88978419Y-65967051D01*
X88978415Y-65967048D01*
X88855501Y-65884919D01*
X88855488Y-65884912D01*
X88718917Y-65828343D01*
X88718907Y-65828340D01*
X88573920Y-65799500D01*
X88573918Y-65799500D01*
X88426082Y-65799500D01*
X88426080Y-65799500D01*
X88281092Y-65828340D01*
X88281082Y-65828343D01*
X88144511Y-65884912D01*
X88144498Y-65884919D01*
X88021584Y-65967048D01*
X88021580Y-65967051D01*
X87917051Y-66071580D01*
X87917048Y-66071584D01*
X87853102Y-66167286D01*
X87799489Y-66212091D01*
X87730164Y-66220798D01*
X87667137Y-66190643D01*
X87646898Y-66167286D01*
X87582951Y-66071584D01*
X87582948Y-66071580D01*
X87478419Y-65967051D01*
X87478415Y-65967048D01*
X87355501Y-65884919D01*
X87355488Y-65884912D01*
X87218917Y-65828343D01*
X87218907Y-65828340D01*
X87073920Y-65799500D01*
X87073918Y-65799500D01*
X86926082Y-65799500D01*
X86926080Y-65799500D01*
X86781092Y-65828340D01*
X86781082Y-65828343D01*
X86644511Y-65884912D01*
X86644498Y-65884919D01*
X86521584Y-65967048D01*
X86521580Y-65967051D01*
X86417051Y-66071580D01*
X86417048Y-66071584D01*
X86353102Y-66167286D01*
X86299489Y-66212091D01*
X86230164Y-66220798D01*
X86167137Y-66190643D01*
X86146898Y-66167286D01*
X86082951Y-66071584D01*
X86082948Y-66071580D01*
X85978419Y-65967051D01*
X85978415Y-65967048D01*
X85855501Y-65884919D01*
X85855488Y-65884912D01*
X85718917Y-65828343D01*
X85718907Y-65828340D01*
X85573920Y-65799500D01*
X85573918Y-65799500D01*
X85426082Y-65799500D01*
X85426080Y-65799500D01*
X85281092Y-65828340D01*
X85281082Y-65828343D01*
X85144511Y-65884912D01*
X85144498Y-65884919D01*
X85021584Y-65967048D01*
X85021580Y-65967051D01*
X84917051Y-66071580D01*
X84917048Y-66071584D01*
X84853102Y-66167286D01*
X84799489Y-66212091D01*
X84730164Y-66220798D01*
X84667137Y-66190643D01*
X84646898Y-66167286D01*
X84582951Y-66071584D01*
X84582948Y-66071580D01*
X84478419Y-65967051D01*
X84478415Y-65967048D01*
X84355501Y-65884919D01*
X84355488Y-65884912D01*
X84218917Y-65828343D01*
X84218907Y-65828340D01*
X84073920Y-65799500D01*
X84073918Y-65799500D01*
X83926082Y-65799500D01*
X83926080Y-65799500D01*
X83781092Y-65828340D01*
X83781082Y-65828343D01*
X83644511Y-65884912D01*
X83644498Y-65884919D01*
X83521584Y-65967048D01*
X83521580Y-65967051D01*
X83417051Y-66071580D01*
X83417048Y-66071584D01*
X83353102Y-66167286D01*
X83299489Y-66212091D01*
X83230164Y-66220798D01*
X83167137Y-66190643D01*
X83146898Y-66167286D01*
X83082951Y-66071584D01*
X83082948Y-66071580D01*
X82978419Y-65967051D01*
X82978415Y-65967048D01*
X82855501Y-65884919D01*
X82855488Y-65884912D01*
X82718917Y-65828343D01*
X82718907Y-65828340D01*
X82573920Y-65799500D01*
X82573918Y-65799500D01*
X82426082Y-65799500D01*
X82426080Y-65799500D01*
X82281092Y-65828340D01*
X82281082Y-65828343D01*
X82144511Y-65884912D01*
X82144498Y-65884919D01*
X82021584Y-65967048D01*
X82021580Y-65967051D01*
X81917051Y-66071580D01*
X81917048Y-66071584D01*
X81853102Y-66167286D01*
X81799489Y-66212091D01*
X81730164Y-66220798D01*
X81667137Y-66190643D01*
X81646898Y-66167286D01*
X81582951Y-66071584D01*
X81582948Y-66071580D01*
X81478419Y-65967051D01*
X81478415Y-65967048D01*
X81355501Y-65884919D01*
X81355488Y-65884912D01*
X81218917Y-65828343D01*
X81218907Y-65828340D01*
X81073920Y-65799500D01*
X81073918Y-65799500D01*
X80926082Y-65799500D01*
X80926080Y-65799500D01*
X80781092Y-65828340D01*
X80781082Y-65828343D01*
X80644511Y-65884912D01*
X80644498Y-65884919D01*
X80521584Y-65967048D01*
X80521580Y-65967051D01*
X80417051Y-66071580D01*
X80417048Y-66071584D01*
X80334919Y-66194498D01*
X80334912Y-66194511D01*
X80278343Y-66331082D01*
X80278340Y-66331092D01*
X80249500Y-66476079D01*
X80249500Y-66476082D01*
X80249500Y-66623918D01*
X80249500Y-66623920D01*
X80249499Y-66623920D01*
X78802500Y-66623920D01*
X78802500Y-66273833D01*
X78822185Y-66206794D01*
X78838819Y-66186152D01*
X79373594Y-65651377D01*
X95454932Y-65651377D01*
X95454932Y-65651378D01*
X96000000Y-66196446D01*
X96000001Y-66196446D01*
X96545067Y-65651378D01*
X96545067Y-65651377D01*
X96497359Y-65619500D01*
X96306274Y-65540350D01*
X96306266Y-65540348D01*
X96103420Y-65500000D01*
X95896579Y-65500000D01*
X95693733Y-65540348D01*
X95693725Y-65540350D01*
X95502641Y-65619500D01*
X95502631Y-65619505D01*
X95454932Y-65651377D01*
X79373594Y-65651377D01*
X79588152Y-65436819D01*
X79649475Y-65403334D01*
X79675833Y-65400500D01*
X81739560Y-65400500D01*
X81739562Y-65400500D01*
X81815989Y-65380021D01*
X81884511Y-65340460D01*
X81940460Y-65284511D01*
X82569437Y-64655532D01*
X82607207Y-64629703D01*
X83080933Y-64421438D01*
X83112485Y-64412984D01*
X83151817Y-64390275D01*
X83155634Y-64388597D01*
X108757500Y-64388597D01*
X108757500Y-64631402D01*
X108795480Y-64871203D01*
X108870510Y-65102119D01*
X108980735Y-65318446D01*
X109046913Y-65409531D01*
X109046914Y-65409532D01*
X109735387Y-64721058D01*
X109740889Y-64741591D01*
X109819881Y-64878408D01*
X109931592Y-64990119D01*
X110068409Y-65069111D01*
X110088940Y-65074612D01*
X109400466Y-65763085D01*
X109491553Y-65829264D01*
X109707880Y-65939489D01*
X109938796Y-66014519D01*
X110178598Y-66052500D01*
X110421402Y-66052500D01*
X110661203Y-66014519D01*
X110892119Y-65939489D01*
X111108438Y-65829268D01*
X111108444Y-65829264D01*
X111199531Y-65763085D01*
X111199532Y-65763085D01*
X110511058Y-65074612D01*
X110531591Y-65069111D01*
X110668408Y-64990119D01*
X110780119Y-64878408D01*
X110859111Y-64741591D01*
X110864612Y-64721058D01*
X111553085Y-65409532D01*
X111553085Y-65409531D01*
X111619264Y-65318444D01*
X111619268Y-65318438D01*
X111729489Y-65102119D01*
X111804519Y-64871203D01*
X111842500Y-64631402D01*
X111842500Y-64388597D01*
X111805855Y-64157233D01*
X111805854Y-64157230D01*
X111804517Y-64148792D01*
X111801897Y-64140730D01*
X116424500Y-64140730D01*
X116424500Y-65949269D01*
X116427353Y-65979699D01*
X116427353Y-65979701D01*
X116472206Y-66107880D01*
X116472207Y-66107882D01*
X116552850Y-66217150D01*
X116662118Y-66297793D01*
X116685561Y-66305996D01*
X116790299Y-66342646D01*
X116820730Y-66345500D01*
X116820734Y-66345500D01*
X118129270Y-66345500D01*
X118159699Y-66342646D01*
X118159701Y-66342646D01*
X118233860Y-66316696D01*
X118287882Y-66297793D01*
X118397150Y-66217150D01*
X118477793Y-66107882D01*
X118510462Y-66014519D01*
X118522646Y-65979701D01*
X118522646Y-65979699D01*
X118525500Y-65949269D01*
X118525500Y-64140730D01*
X118522646Y-64110300D01*
X118522646Y-64110298D01*
X118485480Y-64004087D01*
X118477793Y-63982118D01*
X118397150Y-63872850D01*
X118287882Y-63792207D01*
X118287880Y-63792206D01*
X118159700Y-63747353D01*
X118129270Y-63744500D01*
X118129266Y-63744500D01*
X116820734Y-63744500D01*
X116820730Y-63744500D01*
X116790300Y-63747353D01*
X116790298Y-63747353D01*
X116662119Y-63792206D01*
X116662117Y-63792207D01*
X116552850Y-63872850D01*
X116472207Y-63982117D01*
X116472206Y-63982119D01*
X116427353Y-64110298D01*
X116427353Y-64110300D01*
X116424500Y-64140730D01*
X111801897Y-64140730D01*
X111729489Y-63917880D01*
X111619264Y-63701553D01*
X111553085Y-63610467D01*
X111553085Y-63610466D01*
X110864612Y-64298940D01*
X110859111Y-64278409D01*
X110780119Y-64141592D01*
X110668408Y-64029881D01*
X110531591Y-63950889D01*
X110511059Y-63945387D01*
X111199532Y-63256914D01*
X111199531Y-63256913D01*
X111108446Y-63190735D01*
X110892119Y-63080510D01*
X110661203Y-63005480D01*
X110421402Y-62967500D01*
X110178598Y-62967500D01*
X109938796Y-63005480D01*
X109707880Y-63080510D01*
X109491549Y-63190737D01*
X109400467Y-63256912D01*
X109400466Y-63256913D01*
X110088941Y-63945387D01*
X110068409Y-63950889D01*
X109931592Y-64029881D01*
X109819881Y-64141592D01*
X109740889Y-64278409D01*
X109735387Y-64298940D01*
X109046913Y-63610466D01*
X109046912Y-63610467D01*
X108980737Y-63701549D01*
X108870510Y-63917880D01*
X108795480Y-64148796D01*
X108757500Y-64388597D01*
X83155634Y-64388597D01*
X83164422Y-64384734D01*
X83164436Y-64384726D01*
X83164443Y-64384724D01*
X83171424Y-64381287D01*
X83180343Y-64376897D01*
X83182107Y-64375932D01*
X83187384Y-64372943D01*
X83187386Y-64372940D01*
X83193360Y-64368540D01*
X83193497Y-64368726D01*
X83208668Y-64357452D01*
X83238015Y-64340509D01*
X83340509Y-64238015D01*
X83412984Y-64112485D01*
X83450500Y-63972475D01*
X83450500Y-63827525D01*
X83412984Y-63687515D01*
X83384406Y-63638017D01*
X83340511Y-63561988D01*
X83340506Y-63561982D01*
X83238017Y-63459493D01*
X83238015Y-63459491D01*
X83154995Y-63411559D01*
X83154994Y-63411558D01*
X83112488Y-63387017D01*
X83112489Y-63387017D01*
X83101006Y-63383940D01*
X82972475Y-63349500D01*
X82827525Y-63349500D01*
X82698993Y-63383940D01*
X82687511Y-63387017D01*
X82561988Y-63459488D01*
X82561986Y-63459490D01*
X82459490Y-63561985D01*
X82427889Y-63616718D01*
X82425190Y-63621391D01*
X82415266Y-63635576D01*
X82409720Y-63648187D01*
X82406328Y-63654064D01*
X82387015Y-63687517D01*
X82381013Y-63709916D01*
X82374753Y-63727725D01*
X82170294Y-64192790D01*
X82144461Y-64230566D01*
X81611848Y-64763181D01*
X81550525Y-64796666D01*
X81524167Y-64799500D01*
X80924834Y-64799500D01*
X80903589Y-64793261D01*
X80881504Y-64791683D01*
X80870718Y-64783609D01*
X80857795Y-64779815D01*
X80843298Y-64763084D01*
X80825569Y-64749814D01*
X80820859Y-64737189D01*
X80812040Y-64727011D01*
X80808889Y-64705097D01*
X80801150Y-64684350D01*
X80804013Y-64671186D01*
X80802096Y-64657853D01*
X80811294Y-64637712D01*
X80816000Y-64616076D01*
X80829270Y-64598348D01*
X80831121Y-64594297D01*
X80837150Y-64587821D01*
X80840460Y-64584511D01*
X80869436Y-64555534D01*
X80869440Y-64555532D01*
X80907209Y-64529702D01*
X81372273Y-64325245D01*
X81390066Y-64318990D01*
X81412485Y-64312984D01*
X81451817Y-64290275D01*
X81464422Y-64284734D01*
X81480343Y-64276897D01*
X81482107Y-64275932D01*
X81487384Y-64272943D01*
X81496213Y-64264643D01*
X81538015Y-64240509D01*
X81640509Y-64138015D01*
X81712984Y-64012485D01*
X81750500Y-63872475D01*
X81750500Y-63727525D01*
X81712984Y-63587515D01*
X81698244Y-63561985D01*
X81640511Y-63461988D01*
X81640506Y-63461982D01*
X81538017Y-63359493D01*
X81538011Y-63359488D01*
X81412488Y-63287017D01*
X81412489Y-63287017D01*
X81382125Y-63278881D01*
X81320151Y-63262274D01*
X81260493Y-63225911D01*
X81229964Y-63163064D01*
X81238259Y-63093688D01*
X81282744Y-63039810D01*
X81349296Y-63018536D01*
X81352247Y-63018501D01*
X109121559Y-63018501D01*
X109121561Y-63018501D01*
X109197988Y-62998022D01*
X109266510Y-62958461D01*
X109322459Y-62902512D01*
X109688152Y-62536819D01*
X109749475Y-62503334D01*
X109775833Y-62500500D01*
X129939560Y-62500500D01*
X129939562Y-62500500D01*
X130015989Y-62480021D01*
X130084511Y-62440460D01*
X130140460Y-62384511D01*
X134669437Y-57855532D01*
X134707207Y-57829703D01*
X135180933Y-57621438D01*
X135212485Y-57612984D01*
X135251817Y-57590275D01*
X135264422Y-57584734D01*
X135264436Y-57584726D01*
X135264443Y-57584724D01*
X135271424Y-57581287D01*
X135280343Y-57576897D01*
X135282107Y-57575932D01*
X135287384Y-57572943D01*
X135287386Y-57572940D01*
X135293360Y-57568540D01*
X135293497Y-57568726D01*
X135308668Y-57557452D01*
X135331211Y-57544437D01*
X135338015Y-57540509D01*
X135440509Y-57438015D01*
X135512984Y-57312485D01*
X135550500Y-57172475D01*
X135550500Y-57027525D01*
X135512984Y-56887515D01*
X135450480Y-56779256D01*
X135440511Y-56761988D01*
X135440506Y-56761982D01*
X135338017Y-56659493D01*
X135338011Y-56659488D01*
X135212488Y-56587017D01*
X135212489Y-56587017D01*
X135201006Y-56583940D01*
X135072475Y-56549500D01*
X134927525Y-56549500D01*
X134798993Y-56583940D01*
X134787511Y-56587017D01*
X134661988Y-56659488D01*
X134661986Y-56659490D01*
X134559490Y-56761985D01*
X134527889Y-56816718D01*
X134525190Y-56821391D01*
X134515266Y-56835576D01*
X134509720Y-56848187D01*
X134506328Y-56854064D01*
X134487015Y-56887517D01*
X134481013Y-56909916D01*
X134474753Y-56927725D01*
X134270294Y-57392790D01*
X134244461Y-57430566D01*
X133612181Y-58062847D01*
X133550858Y-58096332D01*
X133481167Y-58091348D01*
X133425233Y-58049477D01*
X133400816Y-57984012D01*
X133400500Y-57975166D01*
X133400500Y-56067987D01*
X133408945Y-56023008D01*
X133425436Y-55980641D01*
X133596652Y-55540772D01*
X133612984Y-55512485D01*
X133624739Y-55468614D01*
X133629733Y-55455785D01*
X133635416Y-55439101D01*
X133635982Y-55437172D01*
X133637640Y-55431189D01*
X133637640Y-55431181D01*
X133638754Y-55423841D01*
X133638982Y-55423875D01*
X133641735Y-55405185D01*
X133650500Y-55372475D01*
X133650500Y-55227525D01*
X133612984Y-55087515D01*
X133540509Y-54961985D01*
X133438015Y-54859491D01*
X133438013Y-54859490D01*
X133438011Y-54859488D01*
X133312488Y-54787017D01*
X133312489Y-54787017D01*
X133301006Y-54783940D01*
X133172475Y-54749500D01*
X133027525Y-54749500D01*
X132898993Y-54783940D01*
X132887511Y-54787017D01*
X132761988Y-54859488D01*
X132761982Y-54859493D01*
X132659493Y-54961982D01*
X132659488Y-54961988D01*
X132587017Y-55087511D01*
X132587016Y-55087515D01*
X132549500Y-55227525D01*
X132549500Y-55372475D01*
X132567251Y-55438723D01*
X132570266Y-55455785D01*
X132575262Y-55468622D01*
X132587016Y-55512485D01*
X132598611Y-55532567D01*
X132606778Y-55549588D01*
X132774564Y-55980643D01*
X132791055Y-56023009D01*
X132799500Y-56067988D01*
X132799500Y-58124167D01*
X132779815Y-58191206D01*
X132763181Y-58211848D01*
X129611848Y-61363181D01*
X129550525Y-61396666D01*
X129524167Y-61399500D01*
X109493338Y-61399500D01*
X109416911Y-61419979D01*
X109416909Y-61419980D01*
X109399363Y-61430110D01*
X109399362Y-61430109D01*
X109348395Y-61459535D01*
X109348387Y-61459541D01*
X108827747Y-61980182D01*
X108766424Y-62013667D01*
X108740066Y-62016501D01*
X106307832Y-62016501D01*
X106240793Y-61996816D01*
X106195038Y-61944012D01*
X106185094Y-61874854D01*
X106214119Y-61811298D01*
X106220151Y-61804820D01*
X107488152Y-60536819D01*
X107549475Y-60503334D01*
X107575833Y-60500500D01*
X112639560Y-60500500D01*
X112639562Y-60500500D01*
X112715989Y-60480021D01*
X112784511Y-60440460D01*
X112840460Y-60384511D01*
X116264293Y-56960678D01*
X117998000Y-56960678D01*
X117998000Y-57159321D01*
X118029075Y-57355520D01*
X118029075Y-57355523D01*
X118090457Y-57544437D01*
X118180641Y-57721432D01*
X118207730Y-57758715D01*
X118207731Y-57758716D01*
X118770504Y-57195942D01*
X118786619Y-57256081D01*
X118853498Y-57371920D01*
X118948080Y-57466502D01*
X119063919Y-57533381D01*
X119124057Y-57549494D01*
X118561283Y-58112268D01*
X118561283Y-58112269D01*
X118598567Y-58139358D01*
X118755882Y-58219515D01*
X118806678Y-58267490D01*
X118823473Y-58335311D01*
X118800935Y-58401446D01*
X118755882Y-58440485D01*
X118598564Y-58520643D01*
X118561283Y-58547729D01*
X118561282Y-58547730D01*
X119124058Y-59110504D01*
X119063919Y-59126619D01*
X118948080Y-59193498D01*
X118853498Y-59288080D01*
X118786619Y-59403919D01*
X118770504Y-59464057D01*
X118207730Y-58901282D01*
X118207729Y-58901283D01*
X118180643Y-58938564D01*
X118090457Y-59115562D01*
X118029075Y-59304476D01*
X118029075Y-59304479D01*
X117998000Y-59500678D01*
X117998000Y-59699321D01*
X118029075Y-59895520D01*
X118029075Y-59895523D01*
X118090457Y-60084437D01*
X118180641Y-60261432D01*
X118207730Y-60298715D01*
X118207731Y-60298716D01*
X118770504Y-59735942D01*
X118786619Y-59796081D01*
X118853498Y-59911920D01*
X118948080Y-60006502D01*
X119063919Y-60073381D01*
X119124057Y-60089494D01*
X118561283Y-60652268D01*
X118561283Y-60652269D01*
X118598567Y-60679358D01*
X118775562Y-60769542D01*
X118964477Y-60830924D01*
X119160679Y-60862000D01*
X119359321Y-60862000D01*
X119555520Y-60830924D01*
X119555523Y-60830924D01*
X119744437Y-60769542D01*
X119921425Y-60679362D01*
X119958716Y-60652268D01*
X119395942Y-60089494D01*
X119456081Y-60073381D01*
X119571920Y-60006502D01*
X119666502Y-59911920D01*
X119733381Y-59796081D01*
X119749495Y-59735942D01*
X120312268Y-60298715D01*
X120339362Y-60261425D01*
X120429542Y-60084437D01*
X120490924Y-59895523D01*
X120490924Y-59895520D01*
X120522000Y-59699321D01*
X120522000Y-59505197D01*
X120837500Y-59505197D01*
X120837500Y-59694802D01*
X120874486Y-59880743D01*
X120874488Y-59880751D01*
X120947042Y-60055912D01*
X121052377Y-60213558D01*
X121186439Y-60347620D01*
X121186442Y-60347622D01*
X121344085Y-60452956D01*
X121519249Y-60525512D01*
X121697289Y-60560926D01*
X121705197Y-60562499D01*
X121705201Y-60562500D01*
X121705202Y-60562500D01*
X121894799Y-60562500D01*
X121894800Y-60562499D01*
X122080751Y-60525512D01*
X122255915Y-60452956D01*
X122413558Y-60347622D01*
X122413557Y-60347622D01*
X122413561Y-60347620D01*
X122413561Y-60347619D01*
X122547622Y-60213558D01*
X122584843Y-60157853D01*
X122652956Y-60055915D01*
X122725512Y-59880751D01*
X122762500Y-59694798D01*
X122762500Y-59505202D01*
X122762499Y-59505197D01*
X123377500Y-59505197D01*
X123377500Y-59694802D01*
X123414486Y-59880743D01*
X123414488Y-59880751D01*
X123487042Y-60055912D01*
X123592377Y-60213558D01*
X123726439Y-60347620D01*
X123726442Y-60347622D01*
X123884085Y-60452956D01*
X124059249Y-60525512D01*
X124237289Y-60560926D01*
X124245197Y-60562499D01*
X124245201Y-60562500D01*
X124245202Y-60562500D01*
X124434799Y-60562500D01*
X124434800Y-60562499D01*
X124620751Y-60525512D01*
X124795915Y-60452956D01*
X124953558Y-60347622D01*
X124953557Y-60347622D01*
X124953561Y-60347620D01*
X124953561Y-60347619D01*
X125087622Y-60213558D01*
X125124843Y-60157853D01*
X125192956Y-60055915D01*
X125265512Y-59880751D01*
X125302500Y-59694798D01*
X125302500Y-59505202D01*
X125302499Y-59505197D01*
X125917500Y-59505197D01*
X125917500Y-59694802D01*
X125954486Y-59880743D01*
X125954488Y-59880751D01*
X126027042Y-60055912D01*
X126132377Y-60213558D01*
X126266439Y-60347620D01*
X126266442Y-60347622D01*
X126424085Y-60452956D01*
X126599249Y-60525512D01*
X126777289Y-60560926D01*
X126785197Y-60562499D01*
X126785201Y-60562500D01*
X126785202Y-60562500D01*
X126974799Y-60562500D01*
X126974800Y-60562499D01*
X127160751Y-60525512D01*
X127335915Y-60452956D01*
X127493558Y-60347622D01*
X127493557Y-60347622D01*
X127493561Y-60347620D01*
X127493561Y-60347619D01*
X127627622Y-60213558D01*
X127664843Y-60157853D01*
X127732956Y-60055915D01*
X127805512Y-59880751D01*
X127842500Y-59694798D01*
X127842500Y-59505202D01*
X127842499Y-59505197D01*
X128457500Y-59505197D01*
X128457500Y-59694802D01*
X128494486Y-59880743D01*
X128494488Y-59880751D01*
X128567042Y-60055912D01*
X128672377Y-60213558D01*
X128806439Y-60347620D01*
X128806442Y-60347622D01*
X128964085Y-60452956D01*
X129139249Y-60525512D01*
X129317289Y-60560926D01*
X129325197Y-60562499D01*
X129325201Y-60562500D01*
X129325202Y-60562500D01*
X129514799Y-60562500D01*
X129514800Y-60562499D01*
X129700751Y-60525512D01*
X129875915Y-60452956D01*
X130033558Y-60347622D01*
X130033557Y-60347622D01*
X130033561Y-60347620D01*
X130033561Y-60347619D01*
X130167622Y-60213558D01*
X130204843Y-60157853D01*
X130272956Y-60055915D01*
X130345512Y-59880751D01*
X130382500Y-59694798D01*
X130382500Y-59505202D01*
X130345512Y-59319249D01*
X130272956Y-59144085D01*
X130221311Y-59066793D01*
X130167622Y-58986441D01*
X130033558Y-58852377D01*
X129875912Y-58747042D01*
X129700751Y-58674488D01*
X129700743Y-58674486D01*
X129514802Y-58637500D01*
X129514798Y-58637500D01*
X129325202Y-58637500D01*
X129325197Y-58637500D01*
X129139256Y-58674486D01*
X129139248Y-58674488D01*
X128964087Y-58747042D01*
X128806441Y-58852377D01*
X128672377Y-58986441D01*
X128567042Y-59144087D01*
X128494488Y-59319248D01*
X128494486Y-59319256D01*
X128457500Y-59505197D01*
X127842499Y-59505197D01*
X127805512Y-59319249D01*
X127732956Y-59144085D01*
X127681311Y-59066793D01*
X127627622Y-58986441D01*
X127493558Y-58852377D01*
X127335912Y-58747042D01*
X127160751Y-58674488D01*
X127160743Y-58674486D01*
X126974802Y-58637500D01*
X126974798Y-58637500D01*
X126785202Y-58637500D01*
X126785197Y-58637500D01*
X126599256Y-58674486D01*
X126599248Y-58674488D01*
X126424087Y-58747042D01*
X126266441Y-58852377D01*
X126132377Y-58986441D01*
X126027042Y-59144087D01*
X125954488Y-59319248D01*
X125954486Y-59319256D01*
X125917500Y-59505197D01*
X125302499Y-59505197D01*
X125265512Y-59319249D01*
X125192956Y-59144085D01*
X125141311Y-59066793D01*
X125087622Y-58986441D01*
X124953558Y-58852377D01*
X124795912Y-58747042D01*
X124620751Y-58674488D01*
X124620743Y-58674486D01*
X124434802Y-58637500D01*
X124434798Y-58637500D01*
X124245202Y-58637500D01*
X124245197Y-58637500D01*
X124059256Y-58674486D01*
X124059248Y-58674488D01*
X123884087Y-58747042D01*
X123726441Y-58852377D01*
X123592377Y-58986441D01*
X123487042Y-59144087D01*
X123414488Y-59319248D01*
X123414486Y-59319256D01*
X123377500Y-59505197D01*
X122762499Y-59505197D01*
X122725512Y-59319249D01*
X122652956Y-59144085D01*
X122601311Y-59066793D01*
X122547622Y-58986441D01*
X122413558Y-58852377D01*
X122255912Y-58747042D01*
X122080751Y-58674488D01*
X122080743Y-58674486D01*
X121894802Y-58637500D01*
X121894798Y-58637500D01*
X121705202Y-58637500D01*
X121705197Y-58637500D01*
X121519256Y-58674486D01*
X121519248Y-58674488D01*
X121344087Y-58747042D01*
X121186441Y-58852377D01*
X121052377Y-58986441D01*
X120947042Y-59144087D01*
X120874488Y-59319248D01*
X120874486Y-59319256D01*
X120837500Y-59505197D01*
X120522000Y-59505197D01*
X120522000Y-59500678D01*
X120490924Y-59304479D01*
X120490924Y-59304476D01*
X120429542Y-59115562D01*
X120339358Y-58938567D01*
X120312268Y-58901283D01*
X119749494Y-59464057D01*
X119733381Y-59403919D01*
X119666502Y-59288080D01*
X119571920Y-59193498D01*
X119456081Y-59126619D01*
X119395942Y-59110504D01*
X119958716Y-58547731D01*
X119958715Y-58547730D01*
X119921432Y-58520641D01*
X119764117Y-58440485D01*
X119713321Y-58392510D01*
X119696526Y-58324689D01*
X119719063Y-58258554D01*
X119764117Y-58219515D01*
X119921425Y-58139362D01*
X119958716Y-58112268D01*
X119395942Y-57549494D01*
X119456081Y-57533381D01*
X119571920Y-57466502D01*
X119666502Y-57371920D01*
X119733381Y-57256081D01*
X119749495Y-57195942D01*
X120312268Y-57758715D01*
X120339362Y-57721425D01*
X120429542Y-57544437D01*
X120490924Y-57355523D01*
X120490924Y-57355520D01*
X120522000Y-57159321D01*
X120522000Y-56965197D01*
X120837500Y-56965197D01*
X120837500Y-57154802D01*
X120874486Y-57340743D01*
X120874488Y-57340751D01*
X120947042Y-57515912D01*
X121052377Y-57673558D01*
X121186441Y-57807622D01*
X121264144Y-57859541D01*
X121344085Y-57912956D01*
X121344086Y-57912956D01*
X121344087Y-57912957D01*
X121383766Y-57929392D01*
X121519249Y-57985512D01*
X121705197Y-58022499D01*
X121705201Y-58022500D01*
X121705202Y-58022500D01*
X121894799Y-58022500D01*
X121894800Y-58022499D01*
X122080751Y-57985512D01*
X122255915Y-57912956D01*
X122413558Y-57807622D01*
X122547622Y-57673558D01*
X122652956Y-57515915D01*
X122725512Y-57340751D01*
X122762500Y-57154798D01*
X122762500Y-56965202D01*
X122762499Y-56965197D01*
X123377500Y-56965197D01*
X123377500Y-57154802D01*
X123414486Y-57340743D01*
X123414488Y-57340751D01*
X123487042Y-57515912D01*
X123592377Y-57673558D01*
X123726441Y-57807622D01*
X123804144Y-57859541D01*
X123884085Y-57912956D01*
X123884086Y-57912956D01*
X123884087Y-57912957D01*
X123923766Y-57929392D01*
X124059249Y-57985512D01*
X124245197Y-58022499D01*
X124245201Y-58022500D01*
X124245202Y-58022500D01*
X124434799Y-58022500D01*
X124434800Y-58022499D01*
X124620751Y-57985512D01*
X124795915Y-57912956D01*
X124953558Y-57807622D01*
X125087622Y-57673558D01*
X125192956Y-57515915D01*
X125265512Y-57340751D01*
X125302500Y-57154798D01*
X125302500Y-56965202D01*
X125302499Y-56965197D01*
X125917500Y-56965197D01*
X125917500Y-57154802D01*
X125954486Y-57340743D01*
X125954488Y-57340751D01*
X126027042Y-57515912D01*
X126132377Y-57673558D01*
X126266441Y-57807622D01*
X126344144Y-57859541D01*
X126424085Y-57912956D01*
X126424086Y-57912956D01*
X126424087Y-57912957D01*
X126463766Y-57929392D01*
X126599249Y-57985512D01*
X126785197Y-58022499D01*
X126785201Y-58022500D01*
X126785202Y-58022500D01*
X126974799Y-58022500D01*
X126974800Y-58022499D01*
X127160751Y-57985512D01*
X127335915Y-57912956D01*
X127493558Y-57807622D01*
X127627622Y-57673558D01*
X127732956Y-57515915D01*
X127805512Y-57340751D01*
X127842500Y-57154798D01*
X127842500Y-56965202D01*
X127842499Y-56965197D01*
X128457500Y-56965197D01*
X128457500Y-57154802D01*
X128494486Y-57340743D01*
X128494488Y-57340751D01*
X128567042Y-57515912D01*
X128672377Y-57673558D01*
X128806441Y-57807622D01*
X128884144Y-57859541D01*
X128964085Y-57912956D01*
X128964086Y-57912956D01*
X128964087Y-57912957D01*
X129003766Y-57929392D01*
X129139249Y-57985512D01*
X129325197Y-58022499D01*
X129325201Y-58022500D01*
X129325202Y-58022500D01*
X129514799Y-58022500D01*
X129514800Y-58022499D01*
X129700751Y-57985512D01*
X129875915Y-57912956D01*
X130033558Y-57807622D01*
X130167622Y-57673558D01*
X130272956Y-57515915D01*
X130345512Y-57340751D01*
X130382500Y-57154798D01*
X130382500Y-56965202D01*
X130345512Y-56779249D01*
X130272956Y-56604085D01*
X130194352Y-56486446D01*
X130167622Y-56446441D01*
X130033558Y-56312377D01*
X129875912Y-56207042D01*
X129700751Y-56134488D01*
X129700743Y-56134486D01*
X129514802Y-56097500D01*
X129514798Y-56097500D01*
X129325202Y-56097500D01*
X129325197Y-56097500D01*
X129139256Y-56134486D01*
X129139248Y-56134488D01*
X128964087Y-56207042D01*
X128806441Y-56312377D01*
X128672377Y-56446441D01*
X128567042Y-56604087D01*
X128494488Y-56779248D01*
X128494486Y-56779256D01*
X128457500Y-56965197D01*
X127842499Y-56965197D01*
X127805512Y-56779249D01*
X127732956Y-56604085D01*
X127654352Y-56486446D01*
X127627622Y-56446441D01*
X127493558Y-56312377D01*
X127335912Y-56207042D01*
X127160751Y-56134488D01*
X127160743Y-56134486D01*
X126974802Y-56097500D01*
X126974798Y-56097500D01*
X126785202Y-56097500D01*
X126785197Y-56097500D01*
X126599256Y-56134486D01*
X126599248Y-56134488D01*
X126424087Y-56207042D01*
X126266441Y-56312377D01*
X126132377Y-56446441D01*
X126027042Y-56604087D01*
X125954488Y-56779248D01*
X125954486Y-56779256D01*
X125917500Y-56965197D01*
X125302499Y-56965197D01*
X125265512Y-56779249D01*
X125192956Y-56604085D01*
X125114352Y-56486446D01*
X125087622Y-56446441D01*
X124953558Y-56312377D01*
X124795912Y-56207042D01*
X124620751Y-56134488D01*
X124620743Y-56134486D01*
X124434802Y-56097500D01*
X124434798Y-56097500D01*
X124245202Y-56097500D01*
X124245197Y-56097500D01*
X124059256Y-56134486D01*
X124059248Y-56134488D01*
X123884087Y-56207042D01*
X123726441Y-56312377D01*
X123592377Y-56446441D01*
X123487042Y-56604087D01*
X123414488Y-56779248D01*
X123414486Y-56779256D01*
X123377500Y-56965197D01*
X122762499Y-56965197D01*
X122725512Y-56779249D01*
X122652956Y-56604085D01*
X122574352Y-56486446D01*
X122547622Y-56446441D01*
X122413558Y-56312377D01*
X122255912Y-56207042D01*
X122080751Y-56134488D01*
X122080743Y-56134486D01*
X121894802Y-56097500D01*
X121894798Y-56097500D01*
X121705202Y-56097500D01*
X121705197Y-56097500D01*
X121519256Y-56134486D01*
X121519248Y-56134488D01*
X121344087Y-56207042D01*
X121186441Y-56312377D01*
X121052377Y-56446441D01*
X120947042Y-56604087D01*
X120874488Y-56779248D01*
X120874486Y-56779256D01*
X120837500Y-56965197D01*
X120522000Y-56965197D01*
X120522000Y-56960678D01*
X120490924Y-56764479D01*
X120490924Y-56764476D01*
X120429542Y-56575562D01*
X120339358Y-56398567D01*
X120312268Y-56361283D01*
X119749494Y-56924057D01*
X119733381Y-56863919D01*
X119666502Y-56748080D01*
X119571920Y-56653498D01*
X119456081Y-56586619D01*
X119395942Y-56570504D01*
X119958716Y-56007731D01*
X119958715Y-56007730D01*
X119921432Y-55980641D01*
X119744437Y-55890457D01*
X119555522Y-55829075D01*
X119359321Y-55798000D01*
X119160679Y-55798000D01*
X118964479Y-55829075D01*
X118964476Y-55829075D01*
X118775562Y-55890457D01*
X118598564Y-55980643D01*
X118561283Y-56007729D01*
X118561282Y-56007730D01*
X119124058Y-56570504D01*
X119063919Y-56586619D01*
X118948080Y-56653498D01*
X118853498Y-56748080D01*
X118786619Y-56863919D01*
X118770504Y-56924057D01*
X118207730Y-56361282D01*
X118207729Y-56361283D01*
X118180643Y-56398564D01*
X118090457Y-56575562D01*
X118029075Y-56764476D01*
X118029075Y-56764479D01*
X117998000Y-56960678D01*
X116264293Y-56960678D01*
X117962152Y-55262819D01*
X118023475Y-55229334D01*
X118049833Y-55226500D01*
X125558012Y-55226500D01*
X125602990Y-55234944D01*
X126085229Y-55422653D01*
X126113515Y-55438984D01*
X126157382Y-55450738D01*
X126170214Y-55455733D01*
X126186898Y-55461416D01*
X126188827Y-55461982D01*
X126189935Y-55462289D01*
X126194802Y-55463638D01*
X126194803Y-55463638D01*
X126194810Y-55463640D01*
X126194816Y-55463640D01*
X126202158Y-55464754D01*
X126202123Y-55464981D01*
X126220817Y-55467736D01*
X126230155Y-55470237D01*
X126253525Y-55476500D01*
X126253526Y-55476500D01*
X126398472Y-55476500D01*
X126398475Y-55476500D01*
X126538485Y-55438984D01*
X126664015Y-55366509D01*
X126766509Y-55264015D01*
X126838984Y-55138485D01*
X126876500Y-54998475D01*
X126876500Y-54853525D01*
X126844619Y-54734545D01*
X126846282Y-54664697D01*
X126885444Y-54606834D01*
X126949673Y-54579330D01*
X127009372Y-54586897D01*
X127259229Y-54684153D01*
X127287515Y-54700484D01*
X127331382Y-54712238D01*
X127344214Y-54717233D01*
X127360898Y-54722916D01*
X127362827Y-54723482D01*
X127366063Y-54724378D01*
X127368802Y-54725138D01*
X127368803Y-54725138D01*
X127368810Y-54725140D01*
X127368816Y-54725140D01*
X127376158Y-54726254D01*
X127376123Y-54726481D01*
X127394817Y-54729236D01*
X127404155Y-54731737D01*
X127427525Y-54738000D01*
X127427526Y-54738000D01*
X127572472Y-54738000D01*
X127572475Y-54738000D01*
X127712485Y-54700484D01*
X127838015Y-54628009D01*
X127940509Y-54525515D01*
X128012984Y-54399985D01*
X128050500Y-54259975D01*
X128050500Y-54115025D01*
X128012984Y-53975015D01*
X127989300Y-53933994D01*
X127940511Y-53849488D01*
X127940506Y-53849482D01*
X127838017Y-53746993D01*
X127838011Y-53746988D01*
X127712488Y-53674517D01*
X127712489Y-53674517D01*
X127675172Y-53664518D01*
X127572475Y-53637000D01*
X127427525Y-53637000D01*
X127427521Y-53637000D01*
X127366483Y-53653354D01*
X127366484Y-53653355D01*
X127361265Y-53654753D01*
X127344214Y-53657766D01*
X127331380Y-53662760D01*
X127324823Y-53664517D01*
X127324822Y-53664518D01*
X127287515Y-53674515D01*
X127267429Y-53686111D01*
X127250413Y-53694276D01*
X126776987Y-53878555D01*
X126732008Y-53887000D01*
X117572938Y-53887000D01*
X117542367Y-53895191D01*
X117496508Y-53907479D01*
X117496507Y-53907480D01*
X117450585Y-53933994D01*
X117450584Y-53933994D01*
X117427995Y-53947035D01*
X117427987Y-53947041D01*
X111960848Y-59414181D01*
X111899525Y-59447666D01*
X111873167Y-59450500D01*
X107109438Y-59450500D01*
X107033010Y-59470978D01*
X106964489Y-59510540D01*
X106964486Y-59510542D01*
X105311848Y-61163181D01*
X105250525Y-61196666D01*
X105224167Y-61199500D01*
X103542933Y-61199500D01*
X103475894Y-61179815D01*
X103455252Y-61163181D01*
X101651612Y-59359541D01*
X101651604Y-59359535D01*
X101594579Y-59326612D01*
X101594578Y-59326612D01*
X101583090Y-59319979D01*
X101557613Y-59313152D01*
X101506662Y-59299500D01*
X101506660Y-59299500D01*
X84075833Y-59299500D01*
X84008794Y-59279815D01*
X83988152Y-59263181D01*
X83755536Y-59030565D01*
X83729703Y-58992789D01*
X83525248Y-58527731D01*
X83521436Y-58519061D01*
X83512984Y-58487515D01*
X83490277Y-58448186D01*
X83484734Y-58435577D01*
X83476897Y-58419656D01*
X83475932Y-58417892D01*
X83472943Y-58412615D01*
X83468540Y-58406639D01*
X83468725Y-58406502D01*
X83457450Y-58391328D01*
X83440511Y-58361988D01*
X83440507Y-58361983D01*
X83338017Y-58259493D01*
X83338015Y-58259491D01*
X83310573Y-58243647D01*
X83283284Y-58227891D01*
X83283284Y-58227890D01*
X83278595Y-58225183D01*
X83264422Y-58215265D01*
X83251818Y-58209724D01*
X83245929Y-58206324D01*
X83245927Y-58206322D01*
X83212492Y-58187019D01*
X83212483Y-58187015D01*
X83190077Y-58181011D01*
X83172268Y-58174751D01*
X82707209Y-57970295D01*
X82669433Y-57944462D01*
X82584512Y-57859541D01*
X82584504Y-57859535D01*
X82515995Y-57819982D01*
X82515990Y-57819979D01*
X82490513Y-57813152D01*
X82439562Y-57799500D01*
X69246163Y-57799500D01*
X69179124Y-57779815D01*
X69133369Y-57727011D01*
X69123425Y-57657853D01*
X69145845Y-57602614D01*
X69219358Y-57501432D01*
X69309542Y-57324437D01*
X69370924Y-57135523D01*
X69370924Y-57135520D01*
X69402000Y-56939321D01*
X69402000Y-56740678D01*
X69370924Y-56544479D01*
X69370924Y-56544476D01*
X69309542Y-56355562D01*
X69219358Y-56178567D01*
X69192268Y-56141283D01*
X68629494Y-56704056D01*
X68613381Y-56643919D01*
X68546502Y-56528080D01*
X68451920Y-56433498D01*
X68336081Y-56366619D01*
X68275942Y-56350504D01*
X68838716Y-55787731D01*
X68838715Y-55787730D01*
X68801432Y-55760641D01*
X68624437Y-55670457D01*
X68435522Y-55609075D01*
X68239321Y-55578000D01*
X68040679Y-55578000D01*
X67844479Y-55609075D01*
X67844476Y-55609075D01*
X67655562Y-55670457D01*
X67478564Y-55760643D01*
X67441283Y-55787729D01*
X67441282Y-55787730D01*
X68004058Y-56350504D01*
X67943919Y-56366619D01*
X67828080Y-56433498D01*
X67733498Y-56528080D01*
X67666619Y-56643919D01*
X67650505Y-56704057D01*
X67087730Y-56141282D01*
X67087729Y-56141283D01*
X67060643Y-56178564D01*
X66980485Y-56335882D01*
X66932510Y-56386678D01*
X66864689Y-56403473D01*
X66798554Y-56380935D01*
X66759515Y-56335882D01*
X66679358Y-56178567D01*
X66652268Y-56141283D01*
X66089494Y-56704057D01*
X66073381Y-56643919D01*
X66006502Y-56528080D01*
X65911920Y-56433498D01*
X65796081Y-56366619D01*
X65735942Y-56350504D01*
X66298716Y-55787731D01*
X66298715Y-55787730D01*
X66261432Y-55760641D01*
X66084437Y-55670457D01*
X65895522Y-55609075D01*
X65699321Y-55578000D01*
X65500679Y-55578000D01*
X65304479Y-55609075D01*
X65304476Y-55609075D01*
X65115562Y-55670457D01*
X64938564Y-55760643D01*
X64901283Y-55787729D01*
X64901282Y-55787730D01*
X65464058Y-56350504D01*
X65403919Y-56366619D01*
X65288080Y-56433498D01*
X65193498Y-56528080D01*
X65126619Y-56643919D01*
X65110504Y-56704057D01*
X64547730Y-56141282D01*
X64547729Y-56141283D01*
X64520643Y-56178564D01*
X64430457Y-56355562D01*
X64369075Y-56544476D01*
X64369075Y-56544479D01*
X64338000Y-56740678D01*
X62394193Y-56740678D01*
X62392942Y-45220259D01*
X64399500Y-45220259D01*
X64399500Y-45579740D01*
X64439746Y-45936935D01*
X64439748Y-45936951D01*
X64519737Y-46287407D01*
X64519741Y-46287419D01*
X64638465Y-46626711D01*
X64794432Y-46950579D01*
X64794434Y-46950582D01*
X64985685Y-47254956D01*
X65209812Y-47536003D01*
X65463997Y-47790188D01*
X65745044Y-48014315D01*
X66049418Y-48205566D01*
X66373292Y-48361536D01*
X66573727Y-48431671D01*
X66712580Y-48480258D01*
X66712592Y-48480262D01*
X67063052Y-48560252D01*
X67420260Y-48600499D01*
X67420261Y-48600500D01*
X67420264Y-48600500D01*
X67779739Y-48600500D01*
X67779739Y-48600499D01*
X68136948Y-48560252D01*
X68487408Y-48480262D01*
X68826708Y-48361536D01*
X69150582Y-48205566D01*
X69222592Y-48160319D01*
X122149500Y-48160319D01*
X122149500Y-48339680D01*
X122184487Y-48515575D01*
X122184490Y-48515584D01*
X122253121Y-48681277D01*
X122253128Y-48681290D01*
X122352767Y-48830409D01*
X122352770Y-48830413D01*
X122479586Y-48957229D01*
X122479590Y-48957232D01*
X122628709Y-49056871D01*
X122628722Y-49056878D01*
X122678642Y-49077555D01*
X122794417Y-49125510D01*
X122794419Y-49125510D01*
X122794424Y-49125512D01*
X122970319Y-49160499D01*
X122970323Y-49160500D01*
X122970324Y-49160500D01*
X123149676Y-49160500D01*
X123171232Y-49156212D01*
X123240824Y-49162439D01*
X123296002Y-49205301D01*
X123319247Y-49271190D01*
X123317898Y-49297226D01*
X123299500Y-49413389D01*
X123299500Y-49586611D01*
X123326598Y-49757701D01*
X123380127Y-49922445D01*
X123458768Y-50076788D01*
X123560586Y-50216928D01*
X123683072Y-50339414D01*
X123823212Y-50441232D01*
X123977555Y-50519873D01*
X124142299Y-50573402D01*
X124313389Y-50600500D01*
X124313390Y-50600500D01*
X124486610Y-50600500D01*
X124486611Y-50600500D01*
X124657701Y-50573402D01*
X124822445Y-50519873D01*
X124976788Y-50441232D01*
X125116928Y-50339414D01*
X125239414Y-50216928D01*
X125341232Y-50076788D01*
X125419873Y-49922445D01*
X125473402Y-49757701D01*
X125500500Y-49586611D01*
X125500500Y-49413389D01*
X125473402Y-49242299D01*
X125419873Y-49077555D01*
X125341232Y-48923212D01*
X125239414Y-48783072D01*
X125116928Y-48660586D01*
X124976788Y-48558768D01*
X124822445Y-48480127D01*
X124657701Y-48426598D01*
X124657699Y-48426597D01*
X124657698Y-48426597D01*
X124524241Y-48405460D01*
X124486611Y-48399500D01*
X124313389Y-48399500D01*
X124281192Y-48404599D01*
X124142301Y-48426597D01*
X124142295Y-48426599D01*
X124132811Y-48429680D01*
X124104696Y-48430481D01*
X124076853Y-48434485D01*
X124070237Y-48431463D01*
X124062970Y-48431671D01*
X124038886Y-48417146D01*
X124013297Y-48405460D01*
X124009365Y-48399342D01*
X124003139Y-48395587D01*
X123990730Y-48370344D01*
X123975523Y-48346682D01*
X123974045Y-48336404D01*
X123972315Y-48332885D01*
X123970500Y-48311747D01*
X123970500Y-48188252D01*
X123990185Y-48121213D01*
X124042989Y-48075458D01*
X124112147Y-48065514D01*
X124132811Y-48070319D01*
X124142299Y-48073402D01*
X124313389Y-48100500D01*
X124313390Y-48100500D01*
X124486610Y-48100500D01*
X124486611Y-48100500D01*
X124657701Y-48073402D01*
X124822445Y-48019873D01*
X124976788Y-47941232D01*
X125116928Y-47839414D01*
X125239414Y-47716928D01*
X125341232Y-47576788D01*
X125419873Y-47422445D01*
X125473402Y-47257701D01*
X125500500Y-47086611D01*
X125500500Y-46913389D01*
X125473402Y-46742299D01*
X125419873Y-46577555D01*
X125341232Y-46423212D01*
X125239414Y-46283072D01*
X125116928Y-46160586D01*
X124976788Y-46058768D01*
X124822445Y-45980127D01*
X124657701Y-45926598D01*
X124657699Y-45926597D01*
X124657698Y-45926597D01*
X124526271Y-45905781D01*
X124486611Y-45899500D01*
X124313389Y-45899500D01*
X124273728Y-45905781D01*
X124142302Y-45926597D01*
X123977552Y-45980128D01*
X123823211Y-46058768D01*
X123743256Y-46116859D01*
X123683072Y-46160586D01*
X123683070Y-46160588D01*
X123683069Y-46160588D01*
X123560588Y-46283069D01*
X123560588Y-46283070D01*
X123560586Y-46283072D01*
X123557436Y-46287408D01*
X123458768Y-46423211D01*
X123380128Y-46577552D01*
X123326597Y-46742302D01*
X123299500Y-46913389D01*
X123299500Y-47086610D01*
X123317898Y-47202772D01*
X123308943Y-47272066D01*
X123263947Y-47325518D01*
X123197195Y-47346157D01*
X123171237Y-47343788D01*
X123149677Y-47339500D01*
X123149676Y-47339500D01*
X122970324Y-47339500D01*
X122970319Y-47339500D01*
X122794424Y-47374487D01*
X122794415Y-47374490D01*
X122628722Y-47443121D01*
X122628709Y-47443128D01*
X122479590Y-47542767D01*
X122479586Y-47542770D01*
X122352770Y-47669586D01*
X122352767Y-47669590D01*
X122253128Y-47818709D01*
X122253121Y-47818722D01*
X122184490Y-47984415D01*
X122184487Y-47984424D01*
X122149500Y-48160319D01*
X69222592Y-48160319D01*
X69454956Y-48014315D01*
X69736003Y-47790188D01*
X69990188Y-47536003D01*
X70214315Y-47254956D01*
X70405566Y-46950582D01*
X70561536Y-46626708D01*
X70680262Y-46287408D01*
X70760252Y-45936948D01*
X70800500Y-45579736D01*
X70800500Y-45220264D01*
X70800499Y-45220259D01*
X129199500Y-45220259D01*
X129199500Y-45579740D01*
X129239746Y-45936935D01*
X129239748Y-45936951D01*
X129319737Y-46287407D01*
X129319741Y-46287419D01*
X129438465Y-46626711D01*
X129594432Y-46950579D01*
X129594434Y-46950582D01*
X129785685Y-47254956D01*
X130009812Y-47536003D01*
X130263997Y-47790188D01*
X130545044Y-48014315D01*
X130849418Y-48205566D01*
X131173292Y-48361536D01*
X131373727Y-48431671D01*
X131512580Y-48480258D01*
X131512592Y-48480262D01*
X131863052Y-48560252D01*
X132220260Y-48600499D01*
X132220261Y-48600500D01*
X132220264Y-48600500D01*
X132579739Y-48600500D01*
X132579739Y-48600499D01*
X132936948Y-48560252D01*
X133287408Y-48480262D01*
X133626708Y-48361536D01*
X133950582Y-48205566D01*
X134254956Y-48014315D01*
X134536003Y-47790188D01*
X134790188Y-47536003D01*
X135014315Y-47254956D01*
X135205566Y-46950582D01*
X135361536Y-46626708D01*
X135480262Y-46287408D01*
X135560252Y-45936948D01*
X135600500Y-45579736D01*
X135600500Y-45220264D01*
X135560252Y-44863052D01*
X135480262Y-44512592D01*
X135361536Y-44173292D01*
X135205566Y-43849418D01*
X135014315Y-43545044D01*
X134790188Y-43263997D01*
X134536003Y-43009812D01*
X134529033Y-43004254D01*
X134330961Y-42846297D01*
X134254956Y-42785685D01*
X133950582Y-42594434D01*
X133950579Y-42594432D01*
X133626711Y-42438465D01*
X133287419Y-42319741D01*
X133287407Y-42319737D01*
X132936951Y-42239748D01*
X132936935Y-42239746D01*
X132579740Y-42199500D01*
X132579736Y-42199500D01*
X132220264Y-42199500D01*
X132220259Y-42199500D01*
X131863064Y-42239746D01*
X131863048Y-42239748D01*
X131512592Y-42319737D01*
X131512580Y-42319741D01*
X131173288Y-42438465D01*
X130849420Y-42594432D01*
X130545045Y-42785684D01*
X130263997Y-43009811D01*
X130009811Y-43263997D01*
X129785684Y-43545045D01*
X129594432Y-43849420D01*
X129438465Y-44173288D01*
X129319741Y-44512580D01*
X129319737Y-44512592D01*
X129239748Y-44863048D01*
X129239746Y-44863064D01*
X129199500Y-45220259D01*
X70800499Y-45220259D01*
X70760252Y-44863052D01*
X70680262Y-44512592D01*
X70561536Y-44173292D01*
X70405566Y-43849418D01*
X70214315Y-43545044D01*
X70191335Y-43516228D01*
X72049500Y-43516228D01*
X72049500Y-43683771D01*
X72082182Y-43848074D01*
X72082184Y-43848082D01*
X72146295Y-44002860D01*
X72239373Y-44142162D01*
X72357837Y-44260626D01*
X72450494Y-44322537D01*
X72497137Y-44353703D01*
X72651918Y-44417816D01*
X72816228Y-44450499D01*
X72816232Y-44450500D01*
X72816233Y-44450500D01*
X72983768Y-44450500D01*
X72983769Y-44450499D01*
X73148082Y-44417816D01*
X73302863Y-44353703D01*
X73442162Y-44260626D01*
X73560626Y-44142162D01*
X73653703Y-44002863D01*
X73717816Y-43848082D01*
X73750500Y-43683767D01*
X73750500Y-43516233D01*
X73750499Y-43516228D01*
X112249500Y-43516228D01*
X112249500Y-43683771D01*
X112282182Y-43848074D01*
X112282184Y-43848082D01*
X112346295Y-44002860D01*
X112439373Y-44142162D01*
X112557837Y-44260626D01*
X112650494Y-44322537D01*
X112697137Y-44353703D01*
X112851918Y-44417816D01*
X113016228Y-44450499D01*
X113016232Y-44450500D01*
X113016233Y-44450500D01*
X113183768Y-44450500D01*
X113183769Y-44450499D01*
X113348082Y-44417816D01*
X113502863Y-44353703D01*
X113642162Y-44260626D01*
X113760626Y-44142162D01*
X113853703Y-44002863D01*
X113917816Y-43848082D01*
X113950500Y-43683767D01*
X113950500Y-43516233D01*
X113917816Y-43351918D01*
X113853703Y-43197137D01*
X113768996Y-43070364D01*
X113760626Y-43057837D01*
X113642162Y-42939373D01*
X113502860Y-42846295D01*
X113348082Y-42782184D01*
X113348074Y-42782182D01*
X113183771Y-42749500D01*
X113183767Y-42749500D01*
X113016233Y-42749500D01*
X113016228Y-42749500D01*
X112851925Y-42782182D01*
X112851917Y-42782184D01*
X112697139Y-42846295D01*
X112557837Y-42939373D01*
X112439373Y-43057837D01*
X112346295Y-43197139D01*
X112282184Y-43351917D01*
X112282182Y-43351925D01*
X112249500Y-43516228D01*
X73750499Y-43516228D01*
X73717816Y-43351918D01*
X73653703Y-43197137D01*
X73568996Y-43070364D01*
X73560626Y-43057837D01*
X73442162Y-42939373D01*
X73302860Y-42846295D01*
X73148082Y-42782184D01*
X73148074Y-42782182D01*
X72983771Y-42749500D01*
X72983767Y-42749500D01*
X72816233Y-42749500D01*
X72816228Y-42749500D01*
X72651925Y-42782182D01*
X72651917Y-42782184D01*
X72497139Y-42846295D01*
X72357837Y-42939373D01*
X72239373Y-43057837D01*
X72146295Y-43197139D01*
X72082184Y-43351917D01*
X72082182Y-43351925D01*
X72049500Y-43516228D01*
X70191335Y-43516228D01*
X69990188Y-43263997D01*
X69736003Y-43009812D01*
X69729033Y-43004254D01*
X69530961Y-42846297D01*
X69454956Y-42785685D01*
X69150582Y-42594434D01*
X69150579Y-42594432D01*
X68826711Y-42438465D01*
X68487419Y-42319741D01*
X68487407Y-42319737D01*
X68136951Y-42239748D01*
X68136935Y-42239746D01*
X67779740Y-42199500D01*
X67779736Y-42199500D01*
X67420264Y-42199500D01*
X67420259Y-42199500D01*
X67063064Y-42239746D01*
X67063048Y-42239748D01*
X66712592Y-42319737D01*
X66712580Y-42319741D01*
X66373288Y-42438465D01*
X66049420Y-42594432D01*
X65745045Y-42785684D01*
X65463997Y-43009811D01*
X65209811Y-43263997D01*
X64985684Y-43545045D01*
X64794432Y-43849420D01*
X64638465Y-44173288D01*
X64519741Y-44512580D01*
X64519737Y-44512592D01*
X64439748Y-44863048D01*
X64439746Y-44863064D01*
X64399500Y-45220259D01*
X62392942Y-45220259D01*
X62392753Y-43484828D01*
X62393108Y-43475457D01*
X62410025Y-43252584D01*
X62412554Y-43235379D01*
X62423888Y-43183759D01*
X62459636Y-43020935D01*
X62464548Y-43004254D01*
X62479464Y-42964204D01*
X62541174Y-42798503D01*
X62548370Y-42782677D01*
X62653031Y-42589669D01*
X62662359Y-42575022D01*
X62793006Y-42398542D01*
X62804292Y-42385345D01*
X62958341Y-42228885D01*
X62971373Y-42217387D01*
X63145789Y-42084029D01*
X63160301Y-42074467D01*
X63351664Y-41966821D01*
X63367368Y-41959385D01*
X63571909Y-41879574D01*
X63588498Y-41874408D01*
X63802199Y-41823999D01*
X63819357Y-41821204D01*
X64040286Y-41800983D01*
X64051594Y-41800468D01*
X134672890Y-41821226D01*
G37*
%TD.AperFunction*%
%TD*%
%TA.AperFunction,Conductor*%
%TO.N,Net-(IC1-EN{slash}UVLO)*%
G36*
X97678226Y-101167219D02*
G01*
X97678858Y-101168290D01*
X97928035Y-101647605D01*
X97928811Y-101656526D01*
X97925927Y-101661275D01*
X97761275Y-101825927D01*
X97753002Y-101829354D01*
X97747605Y-101828035D01*
X97268290Y-101578858D01*
X97262530Y-101572001D01*
X97263306Y-101563080D01*
X97263930Y-101562021D01*
X97421399Y-101324677D01*
X97424677Y-101321399D01*
X97662010Y-101163937D01*
X97670797Y-101162219D01*
X97678226Y-101167219D01*
G37*
%TD.AperFunction*%
%TD*%
%TA.AperFunction,Conductor*%
%TO.N,Net-(IC1-EN{slash}UVLO)*%
G36*
X100408592Y-107963450D02*
G01*
X100414440Y-107970231D01*
X100414802Y-107971603D01*
X100499751Y-108395931D01*
X100498015Y-108404716D01*
X100497993Y-108404749D01*
X100256305Y-108764758D01*
X100248849Y-108769717D01*
X100240390Y-108768158D01*
X99588776Y-108360876D01*
X99583577Y-108353586D01*
X99585056Y-108344754D01*
X99586700Y-108342686D01*
X99751118Y-108178268D01*
X99755716Y-108175434D01*
X100399662Y-107962790D01*
X100408592Y-107963450D01*
G37*
%TD.AperFunction*%
%TD*%
%TA.AperFunction,Conductor*%
%TO.N,/CAN_Elcon_-*%
G36*
X90229641Y-84965530D02*
G01*
X90237072Y-84970526D01*
X90238795Y-84979314D01*
X90238229Y-84981243D01*
X90002902Y-85585819D01*
X89996708Y-85592286D01*
X89991999Y-85593275D01*
X89808001Y-85593275D01*
X89799728Y-85589848D01*
X89797098Y-85585819D01*
X89561770Y-84981243D01*
X89561962Y-84972290D01*
X89568429Y-84966096D01*
X89570352Y-84965531D01*
X89897686Y-84899467D01*
X89902314Y-84899467D01*
X90229641Y-84965530D01*
G37*
%TD.AperFunction*%
%TD*%
%TA.AperFunction,Conductor*%
%TO.N,/CAN_Elcon_-*%
G36*
X126250098Y-111363893D02*
G01*
X126892145Y-111990931D01*
X126895669Y-111999163D01*
X126892340Y-112007476D01*
X126892153Y-112007663D01*
X126183345Y-112701288D01*
X126175035Y-112704625D01*
X126170581Y-112703692D01*
X125114893Y-112254503D01*
X125111201Y-112252010D01*
X124981390Y-112122199D01*
X124977963Y-112113926D01*
X124981390Y-112105653D01*
X124983086Y-112104250D01*
X125633797Y-111662519D01*
X125640368Y-111660500D01*
X125649675Y-111660500D01*
X125649676Y-111660500D01*
X125825583Y-111625510D01*
X125991284Y-111556875D01*
X126140410Y-111457232D01*
X126233653Y-111363988D01*
X126241923Y-111360563D01*
X126250098Y-111363893D01*
G37*
%TD.AperFunction*%
%TD*%
%TA.AperFunction,Conductor*%
%TO.N,/Estop*%
G36*
X91361357Y-76401983D02*
G01*
X91365031Y-76404468D01*
X91495531Y-76534968D01*
X91498958Y-76543241D01*
X91498117Y-76547596D01*
X91244961Y-77178793D01*
X91238701Y-77185196D01*
X91231841Y-77185917D01*
X90989332Y-77138143D01*
X90806992Y-77102223D01*
X90799538Y-77097263D01*
X90797776Y-77093010D01*
X90714082Y-76668156D01*
X90715845Y-76659379D01*
X90721204Y-76655039D01*
X91352405Y-76401882D01*
X91361357Y-76401983D01*
G37*
%TD.AperFunction*%
%TD*%
%TA.AperFunction,Conductor*%
%TO.N,/Estop*%
G36*
X129612058Y-63018849D02*
G01*
X129613003Y-63020073D01*
X129797986Y-63295245D01*
X129799758Y-63304022D01*
X129799748Y-63304073D01*
X129733885Y-63632468D01*
X129728898Y-63639905D01*
X129720800Y-63641755D01*
X129267219Y-63578627D01*
X129260559Y-63575312D01*
X129130710Y-63445463D01*
X129127283Y-63437190D01*
X129130710Y-63428917D01*
X129131232Y-63428425D01*
X129271854Y-63304073D01*
X129595543Y-63017834D01*
X129604010Y-63014922D01*
X129612058Y-63018849D01*
G37*
%TD.AperFunction*%
%TD*%
%TA.AperFunction,Conductor*%
%TO.N,/LED_FAULT*%
G36*
X133429641Y-55365530D02*
G01*
X133437072Y-55370526D01*
X133438795Y-55379314D01*
X133438229Y-55381243D01*
X133202902Y-55985819D01*
X133196708Y-55992286D01*
X133191999Y-55993275D01*
X133008001Y-55993275D01*
X132999728Y-55989848D01*
X132997098Y-55985819D01*
X132761770Y-55381243D01*
X132761962Y-55372290D01*
X132768429Y-55366096D01*
X132770352Y-55365531D01*
X133097686Y-55299467D01*
X133102314Y-55299467D01*
X133429641Y-55365530D01*
G37*
%TD.AperFunction*%
%TD*%
%TA.AperFunction,Conductor*%
%TO.N,/LED_FAULT*%
G36*
X80495646Y-61116518D02*
G01*
X80496611Y-61118282D01*
X80706900Y-61596611D01*
X80757710Y-61712183D01*
X80757902Y-61721136D01*
X80755272Y-61725165D01*
X80625165Y-61855272D01*
X80616892Y-61858699D01*
X80612184Y-61857710D01*
X80281164Y-61712183D01*
X80018282Y-61596611D01*
X80012088Y-61590144D01*
X80012280Y-61581191D01*
X80013245Y-61579427D01*
X80197989Y-61301255D01*
X80201255Y-61297989D01*
X80479427Y-61113244D01*
X80488215Y-61111522D01*
X80495646Y-61116518D01*
G37*
%TD.AperFunction*%
%TD*%
%TA.AperFunction,Conductor*%
%TO.N,/LED_HEART*%
G36*
X127427709Y-53849462D02*
G01*
X127433903Y-53855929D01*
X127434469Y-53857858D01*
X127500532Y-54185185D01*
X127500532Y-54189815D01*
X127434469Y-54517141D01*
X127429473Y-54524572D01*
X127420685Y-54526295D01*
X127418756Y-54525729D01*
X126814181Y-54290402D01*
X126807714Y-54284208D01*
X126806725Y-54279499D01*
X126806725Y-54095500D01*
X126810152Y-54087227D01*
X126814177Y-54084598D01*
X127418756Y-53849270D01*
X127427709Y-53849462D01*
G37*
%TD.AperFunction*%
%TD*%
%TA.AperFunction,Conductor*%
%TO.N,/LED_HEART*%
G36*
X83295646Y-58516518D02*
G01*
X83296611Y-58518282D01*
X83506900Y-58996611D01*
X83557710Y-59112183D01*
X83557902Y-59121136D01*
X83555272Y-59125165D01*
X83425165Y-59255272D01*
X83416892Y-59258699D01*
X83412184Y-59257710D01*
X83081164Y-59112183D01*
X82818282Y-58996611D01*
X82812088Y-58990144D01*
X82812280Y-58981191D01*
X82813245Y-58979427D01*
X82997989Y-58701255D01*
X83001255Y-58697989D01*
X83279427Y-58513244D01*
X83288215Y-58511522D01*
X83295646Y-58516518D01*
G37*
%TD.AperFunction*%
%TD*%
%TA.AperFunction,Conductor*%
%TO.N,/LED_CHARGE*%
G36*
X126253709Y-54587962D02*
G01*
X126259903Y-54594429D01*
X126260469Y-54596358D01*
X126326532Y-54923685D01*
X126326532Y-54928315D01*
X126260469Y-55255641D01*
X126255473Y-55263072D01*
X126246685Y-55264795D01*
X126244756Y-55264229D01*
X125640181Y-55028902D01*
X125633714Y-55022708D01*
X125632725Y-55017999D01*
X125632725Y-54834000D01*
X125636152Y-54825727D01*
X125640177Y-54823098D01*
X126244756Y-54587770D01*
X126253709Y-54587962D01*
G37*
%TD.AperFunction*%
%TD*%
%TA.AperFunction,Conductor*%
%TO.N,/LED_CHARGE*%
G36*
X82025659Y-60145221D02*
G01*
X82155766Y-60275328D01*
X82159193Y-60283601D01*
X82158199Y-60288320D01*
X81896618Y-60881735D01*
X81890145Y-60887923D01*
X81881193Y-60887722D01*
X81879439Y-60886762D01*
X81601259Y-60702013D01*
X81597987Y-60698741D01*
X81413251Y-60420582D01*
X81411529Y-60411795D01*
X81416525Y-60404364D01*
X81418294Y-60403398D01*
X82012689Y-60142778D01*
X82021641Y-60142595D01*
X82025659Y-60145221D01*
G37*
%TD.AperFunction*%
%TD*%
%TA.AperFunction,Conductor*%
%TO.N,/Display_RES*%
G36*
X101539822Y-69160611D02*
G01*
X101541259Y-69162357D01*
X101699680Y-69398036D01*
X101701453Y-69402318D01*
X101755828Y-69680433D01*
X101754052Y-69689210D01*
X101746590Y-69694161D01*
X101744462Y-69694377D01*
X101195705Y-69699881D01*
X101187398Y-69696538D01*
X101183889Y-69688299D01*
X101183888Y-69688182D01*
X101183888Y-69504846D01*
X101187315Y-69496573D01*
X101285852Y-69398036D01*
X101523277Y-69160610D01*
X101531549Y-69157184D01*
X101539822Y-69160611D01*
G37*
%TD.AperFunction*%
%TD*%
%TA.AperFunction,Conductor*%
%TO.N,/Display_RES*%
G36*
X99100070Y-71109191D02*
G01*
X99102796Y-71113476D01*
X99289608Y-71628709D01*
X99289207Y-71637655D01*
X99282597Y-71643696D01*
X99280929Y-71644165D01*
X99002320Y-71700530D01*
X98997680Y-71700530D01*
X98719070Y-71644165D01*
X98711641Y-71639165D01*
X98709922Y-71630377D01*
X98710387Y-71628720D01*
X98897204Y-71113476D01*
X98903245Y-71106866D01*
X98908203Y-71105764D01*
X99091797Y-71105764D01*
X99100070Y-71109191D01*
G37*
%TD.AperFunction*%
%TD*%
%TA.AperFunction,Conductor*%
%TO.N,/Power24V/RPP_EN*%
G36*
X102960317Y-84939830D02*
G01*
X102960947Y-84940221D01*
X103198734Y-85097984D01*
X103202015Y-85101265D01*
X103359778Y-85339052D01*
X103361497Y-85347840D01*
X103356497Y-85355269D01*
X103355867Y-85355660D01*
X102893648Y-85621780D01*
X102884768Y-85622938D01*
X102879537Y-85619913D01*
X102680086Y-85420462D01*
X102676659Y-85412189D01*
X102678218Y-85406354D01*
X102944339Y-84944131D01*
X102951437Y-84938672D01*
X102960317Y-84939830D01*
G37*
%TD.AperFunction*%
%TD*%
%TA.AperFunction,Conductor*%
%TO.N,/Power24V/RPP_EN*%
G36*
X110160317Y-89189830D02*
G01*
X110160947Y-89190221D01*
X110398734Y-89347984D01*
X110402015Y-89351265D01*
X110559778Y-89589052D01*
X110561497Y-89597840D01*
X110556497Y-89605269D01*
X110555867Y-89605660D01*
X110093648Y-89871780D01*
X110084768Y-89872938D01*
X110079537Y-89869913D01*
X109880086Y-89670462D01*
X109876659Y-89662189D01*
X109878218Y-89656354D01*
X110144339Y-89194131D01*
X110151437Y-89188672D01*
X110160317Y-89189830D01*
G37*
%TD.AperFunction*%
%TD*%
%TA.AperFunction,Conductor*%
%TO.N,/Power24V/RPP_EN*%
G36*
X93957543Y-82681161D02*
G01*
X93964972Y-82686161D01*
X93966691Y-82694949D01*
X93966644Y-82695171D01*
X93852038Y-83210078D01*
X93846895Y-83217409D01*
X93840617Y-83219236D01*
X93558574Y-83219236D01*
X93550301Y-83215809D01*
X93547417Y-83211060D01*
X93384684Y-82695937D01*
X93385460Y-82687016D01*
X93392317Y-82681256D01*
X93393500Y-82680950D01*
X93672682Y-82624469D01*
X93677318Y-82624469D01*
X93957543Y-82681161D01*
G37*
%TD.AperFunction*%
%TD*%
%TA.AperFunction,Conductor*%
%TO.N,/LED_HV*%
G36*
X134718808Y-56912280D02*
G01*
X134720572Y-56913245D01*
X134808728Y-56971792D01*
X134998741Y-57097987D01*
X135002013Y-57101259D01*
X135186754Y-57379427D01*
X135188477Y-57388215D01*
X135183481Y-57395646D01*
X135181717Y-57396611D01*
X134587816Y-57657710D01*
X134578863Y-57657902D01*
X134574834Y-57655272D01*
X134444727Y-57525165D01*
X134441300Y-57516892D01*
X134442287Y-57512188D01*
X134703389Y-56918281D01*
X134709855Y-56912088D01*
X134718808Y-56912280D01*
G37*
%TD.AperFunction*%
%TD*%
%TA.AperFunction,Conductor*%
%TO.N,/LED_HV*%
G36*
X86394489Y-72006598D02*
G01*
X86402720Y-72010122D01*
X86406049Y-72018435D01*
X86405833Y-72020542D01*
X86351936Y-72296209D01*
X86346985Y-72303671D01*
X86346935Y-72303704D01*
X86108567Y-72462340D01*
X86099781Y-72464071D01*
X86093781Y-72460842D01*
X85838284Y-72203421D01*
X85834888Y-72195179D01*
X85834888Y-72011838D01*
X85838315Y-72003565D01*
X85846588Y-72000138D01*
X85846596Y-72000138D01*
X86394489Y-72006598D01*
G37*
%TD.AperFunction*%
%TD*%
%TA.AperFunction,Conductor*%
%TO.N,/LED_HV*%
G36*
X68572697Y-61291455D02*
G01*
X69685908Y-61890877D01*
X69691568Y-61897817D01*
X69690663Y-61906726D01*
X69688634Y-61909452D01*
X69559620Y-62038466D01*
X69556715Y-62040589D01*
X68572631Y-62548784D01*
X68563708Y-62549535D01*
X68557536Y-62544891D01*
X68143645Y-61925803D01*
X68141896Y-61917020D01*
X68143652Y-61912787D01*
X68158333Y-61890877D01*
X68557432Y-61295243D01*
X68564883Y-61290280D01*
X68572697Y-61291455D01*
G37*
%TD.AperFunction*%
%TD*%
%TA.AperFunction,Conductor*%
%TO.N,/LED_FAULT*%
G36*
X66598606Y-60784936D02*
G01*
X66601720Y-60787164D01*
X66732835Y-60918279D01*
X66736262Y-60926552D01*
X66735636Y-60930329D01*
X66350662Y-62058972D01*
X66344747Y-62065696D01*
X66337318Y-62066673D01*
X65606980Y-61922227D01*
X65599529Y-61917260D01*
X65597772Y-61913019D01*
X65453326Y-61182679D01*
X65455083Y-61173900D01*
X65461024Y-61169339D01*
X66589671Y-60784363D01*
X66598606Y-60784936D01*
G37*
%TD.AperFunction*%
%TD*%
%TA.AperFunction,Conductor*%
%TO.N,/LED_FAULT*%
G36*
X79787812Y-60742288D02*
G01*
X80381717Y-61003388D01*
X80387911Y-61009855D01*
X80387719Y-61018808D01*
X80386754Y-61020572D01*
X80202013Y-61298740D01*
X80198740Y-61302013D01*
X79920572Y-61486754D01*
X79911784Y-61488477D01*
X79904353Y-61483481D01*
X79903388Y-61481717D01*
X79822945Y-61298740D01*
X79642288Y-60887813D01*
X79642097Y-60878863D01*
X79644725Y-60874836D01*
X79774835Y-60744726D01*
X79783107Y-60741300D01*
X79787812Y-60742288D01*
G37*
%TD.AperFunction*%
%TD*%
%TA.AperFunction,Conductor*%
%TO.N,/LED_FAULT*%
G36*
X79418808Y-63512280D02*
G01*
X79420572Y-63513245D01*
X79508728Y-63571792D01*
X79698741Y-63697987D01*
X79702013Y-63701259D01*
X79886754Y-63979427D01*
X79888477Y-63988215D01*
X79883481Y-63995646D01*
X79881717Y-63996611D01*
X79649935Y-64098511D01*
X79645226Y-64099500D01*
X79527535Y-64099500D01*
X79451113Y-64119976D01*
X79451109Y-64119978D01*
X79382592Y-64159537D01*
X79382587Y-64159541D01*
X79289118Y-64253010D01*
X79280845Y-64256437D01*
X79272572Y-64253010D01*
X79144727Y-64125165D01*
X79141300Y-64116892D01*
X79142287Y-64112188D01*
X79403389Y-63518281D01*
X79409855Y-63512088D01*
X79418808Y-63512280D01*
G37*
%TD.AperFunction*%
%TD*%
%TA.AperFunction,Conductor*%
%TO.N,/LED_FAULT*%
G36*
X87194363Y-71660778D02*
G01*
X87196834Y-71664419D01*
X87395599Y-72125411D01*
X87395728Y-72134364D01*
X87391387Y-72139750D01*
X87157223Y-72297324D01*
X87148446Y-72299100D01*
X87144185Y-72297341D01*
X86908646Y-72139738D01*
X86903675Y-72132289D01*
X86904402Y-72125395D01*
X87047702Y-71792067D01*
X87050174Y-71788421D01*
X87177818Y-71660777D01*
X87186090Y-71657351D01*
X87194363Y-71660778D01*
G37*
%TD.AperFunction*%
%TD*%
%TA.AperFunction,Conductor*%
%TO.N,/LED_CHARGE*%
G36*
X80918808Y-63612280D02*
G01*
X80920572Y-63613245D01*
X81008728Y-63671792D01*
X81198741Y-63797987D01*
X81202013Y-63801259D01*
X81386754Y-64079427D01*
X81388477Y-64088215D01*
X81383481Y-64095646D01*
X81381717Y-64096611D01*
X80787816Y-64357710D01*
X80778863Y-64357902D01*
X80774834Y-64355272D01*
X80644727Y-64225165D01*
X80641300Y-64216892D01*
X80642287Y-64212188D01*
X80903389Y-63618281D01*
X80909855Y-63612088D01*
X80918808Y-63612280D01*
G37*
%TD.AperFunction*%
%TD*%
%TA.AperFunction,Conductor*%
%TO.N,/LED_CHARGE*%
G36*
X87840523Y-71732387D02*
G01*
X87840711Y-71732579D01*
X88026464Y-71927054D01*
X88214853Y-72124291D01*
X88218089Y-72132639D01*
X88214473Y-72140832D01*
X88212924Y-72142078D01*
X87979756Y-72298981D01*
X87970979Y-72300757D01*
X87970920Y-72300745D01*
X87749165Y-72256210D01*
X87690422Y-72244412D01*
X87682987Y-72239424D01*
X87681031Y-72232626D01*
X87690895Y-71870000D01*
X87694317Y-71862047D01*
X87823978Y-71732386D01*
X87832250Y-71728960D01*
X87840523Y-71732387D01*
G37*
%TD.AperFunction*%
%TD*%
%TA.AperFunction,Conductor*%
%TO.N,/LED_CHARGE*%
G36*
X81187812Y-60142288D02*
G01*
X81781717Y-60403388D01*
X81787911Y-60409855D01*
X81787719Y-60418808D01*
X81786754Y-60420572D01*
X81602013Y-60698740D01*
X81598740Y-60702013D01*
X81320572Y-60886754D01*
X81311784Y-60888477D01*
X81304353Y-60883481D01*
X81303388Y-60881717D01*
X81222945Y-60698740D01*
X81042288Y-60287813D01*
X81042097Y-60278863D01*
X81044725Y-60274836D01*
X81174835Y-60144726D01*
X81183107Y-60141300D01*
X81187812Y-60142288D01*
G37*
%TD.AperFunction*%
%TD*%
%TA.AperFunction,Conductor*%
%TO.N,/LED_CHARGE*%
G36*
X68572527Y-58750931D02*
G01*
X69642817Y-59276786D01*
X69648732Y-59283510D01*
X69649358Y-59287287D01*
X69649358Y-59472712D01*
X69645931Y-59480985D01*
X69642817Y-59483213D01*
X68572530Y-60009067D01*
X68563594Y-60009640D01*
X68557650Y-60005077D01*
X68143359Y-59386509D01*
X68141603Y-59377730D01*
X68143358Y-59373492D01*
X68557651Y-58754921D01*
X68565101Y-58749955D01*
X68572527Y-58750931D01*
G37*
%TD.AperFunction*%
%TD*%
%TA.AperFunction,Conductor*%
%TO.N,/LED_HEART*%
G36*
X88771357Y-71730491D02*
G01*
X88771625Y-71730768D01*
X89140049Y-72124297D01*
X89143202Y-72132678D01*
X89139504Y-72140834D01*
X89138040Y-72142000D01*
X88904756Y-72298981D01*
X88895979Y-72300757D01*
X88895920Y-72300745D01*
X88615575Y-72244443D01*
X88608139Y-72239454D01*
X88606190Y-72232475D01*
X88621746Y-71867912D01*
X88625161Y-71860141D01*
X88754812Y-71730490D01*
X88763084Y-71727064D01*
X88771357Y-71730491D01*
G37*
%TD.AperFunction*%
%TD*%
%TA.AperFunction,Conductor*%
%TO.N,/LED_HEART*%
G36*
X66598606Y-58244936D02*
G01*
X66601720Y-58247164D01*
X66732835Y-58378279D01*
X66736262Y-58386552D01*
X66735636Y-58390329D01*
X66350662Y-59518972D01*
X66344747Y-59525696D01*
X66337318Y-59526673D01*
X65606980Y-59382227D01*
X65599529Y-59377260D01*
X65597772Y-59373019D01*
X65453326Y-58642679D01*
X65455083Y-58633900D01*
X65461024Y-58629339D01*
X66589671Y-58244363D01*
X66598606Y-58244936D01*
G37*
%TD.AperFunction*%
%TD*%
%TA.AperFunction,Conductor*%
%TO.N,/LED_HEART*%
G36*
X82618808Y-63712280D02*
G01*
X82620572Y-63713245D01*
X82708728Y-63771792D01*
X82898741Y-63897987D01*
X82902013Y-63901259D01*
X83086754Y-64179427D01*
X83088477Y-64188215D01*
X83083481Y-64195646D01*
X83081717Y-64196611D01*
X82487816Y-64457710D01*
X82478863Y-64457902D01*
X82474834Y-64455272D01*
X82344727Y-64325165D01*
X82341300Y-64316892D01*
X82342287Y-64312188D01*
X82603389Y-63718281D01*
X82609855Y-63712088D01*
X82618808Y-63712280D01*
G37*
%TD.AperFunction*%
%TD*%
%TA.AperFunction,Conductor*%
%TO.N,/LED_HEART*%
G36*
X82587812Y-58142288D02*
G01*
X83181717Y-58403388D01*
X83187911Y-58409855D01*
X83187719Y-58418808D01*
X83186754Y-58420572D01*
X83002013Y-58698740D01*
X82998740Y-58702013D01*
X82720572Y-58886754D01*
X82711784Y-58888477D01*
X82704353Y-58883481D01*
X82703388Y-58881717D01*
X82622945Y-58698740D01*
X82442288Y-58287813D01*
X82442097Y-58278863D01*
X82444725Y-58274836D01*
X82574835Y-58144726D01*
X82583107Y-58141300D01*
X82587812Y-58142288D01*
G37*
%TD.AperFunction*%
%TD*%
%TA.AperFunction,Conductor*%
%TO.N,/Display_MISO*%
G36*
X100102477Y-71469238D02*
G01*
X100232311Y-71599072D01*
X100235738Y-71607345D01*
X100235198Y-71610859D01*
X100097378Y-72048546D01*
X100091624Y-72055408D01*
X100083967Y-72056513D01*
X99804088Y-72001647D01*
X99796630Y-71996694D01*
X99639988Y-71760595D01*
X99638269Y-71751807D01*
X99643269Y-71744378D01*
X99643517Y-71744218D01*
X100088023Y-71467577D01*
X100096857Y-71466116D01*
X100102477Y-71469238D01*
G37*
%TD.AperFunction*%
%TD*%
%TA.AperFunction,Conductor*%
%TO.N,/Display_MISO*%
G36*
X101080930Y-70255835D02*
G01*
X101088358Y-70260834D01*
X101090077Y-70269622D01*
X101089608Y-70271290D01*
X100902796Y-70786524D01*
X100896755Y-70793134D01*
X100891797Y-70794236D01*
X100708203Y-70794236D01*
X100699930Y-70790809D01*
X100697204Y-70786524D01*
X100649544Y-70655078D01*
X100510391Y-70271288D01*
X100510792Y-70262344D01*
X100517402Y-70256303D01*
X100519056Y-70255837D01*
X100797682Y-70199469D01*
X100802318Y-70199469D01*
X101080930Y-70255835D01*
G37*
%TD.AperFunction*%
%TD*%
%TA.AperFunction,Conductor*%
%TO.N,/BuzzPWM*%
G36*
X130657949Y-86512576D02*
G01*
X130968713Y-86657953D01*
X131154373Y-86744806D01*
X131160414Y-86751416D01*
X131160013Y-86760362D01*
X131159164Y-86761872D01*
X131002015Y-86998734D01*
X130998734Y-87002015D01*
X130761872Y-87159164D01*
X130753084Y-87160883D01*
X130745655Y-87155883D01*
X130744806Y-87154373D01*
X130671997Y-86998734D01*
X130512576Y-86657951D01*
X130512176Y-86649007D01*
X130514900Y-86644724D01*
X130644723Y-86514901D01*
X130652995Y-86511475D01*
X130657949Y-86512576D01*
G37*
%TD.AperFunction*%
%TD*%
%TA.AperFunction,Conductor*%
%TO.N,/BuzzPWM*%
G36*
X99955277Y-76814902D02*
G01*
X100085097Y-76944722D01*
X100088524Y-76952995D01*
X100087422Y-76957953D01*
X99855193Y-77454373D01*
X99848583Y-77460414D01*
X99839637Y-77460013D01*
X99838127Y-77459164D01*
X99601265Y-77302015D01*
X99597984Y-77298734D01*
X99440835Y-77061872D01*
X99439116Y-77053084D01*
X99444116Y-77045655D01*
X99445621Y-77044808D01*
X99942048Y-76812576D01*
X99950992Y-76812176D01*
X99955277Y-76814902D01*
G37*
%TD.AperFunction*%
%TD*%
%TA.AperFunction,Conductor*%
%TO.N,/CAN_Elcon_+*%
G36*
X126185168Y-108800481D02*
G01*
X126894602Y-109493331D01*
X126898126Y-109501563D01*
X126896895Y-109506927D01*
X126488796Y-110324405D01*
X126482035Y-110330276D01*
X126474417Y-110330206D01*
X126347192Y-110285080D01*
X126341375Y-110280553D01*
X126267232Y-110169590D01*
X126267229Y-110169586D01*
X126140413Y-110042770D01*
X126140409Y-110042767D01*
X125991290Y-109943128D01*
X125991282Y-109943124D01*
X125825583Y-109874490D01*
X125760323Y-109861509D01*
X125649676Y-109839500D01*
X125470324Y-109839500D01*
X125383559Y-109856758D01*
X125294421Y-109874489D01*
X125294420Y-109874489D01*
X125294417Y-109874490D01*
X125279744Y-109880567D01*
X125250214Y-109892798D01*
X125241826Y-109893015D01*
X125160763Y-109864263D01*
X125156401Y-109861509D01*
X125026093Y-109731201D01*
X125022666Y-109722928D01*
X125026093Y-109714655D01*
X125027050Y-109713797D01*
X126169685Y-108799714D01*
X126178285Y-108797223D01*
X126185168Y-108800481D01*
G37*
%TD.AperFunction*%
%TD*%
%TA.AperFunction,Conductor*%
%TO.N,/CAN_Elcon_+*%
G36*
X92304008Y-79401689D02*
G01*
X92304047Y-79401715D01*
X92665560Y-79644237D01*
X92670521Y-79651692D01*
X92669477Y-79659244D01*
X92617530Y-79761703D01*
X92615368Y-79764685D01*
X92594726Y-79785327D01*
X92594723Y-79785331D01*
X92523538Y-79891866D01*
X92523534Y-79891874D01*
X92474499Y-80010255D01*
X92463824Y-80063915D01*
X92462784Y-80066923D01*
X92352249Y-80284944D01*
X92345452Y-80290773D01*
X92341814Y-80291353D01*
X92157213Y-80291353D01*
X92148940Y-80287926D01*
X92146209Y-80283629D01*
X91966156Y-79785327D01*
X91863260Y-79500557D01*
X91863672Y-79491614D01*
X91870288Y-79485579D01*
X91871949Y-79485114D01*
X92295222Y-79399961D01*
X92304008Y-79401689D01*
G37*
%TD.AperFunction*%
%TD*%
%TA.AperFunction,Conductor*%
%TO.N,/CAN_Elcon_+*%
G36*
X92861357Y-78701983D02*
G01*
X92865031Y-78704468D01*
X92995531Y-78834968D01*
X92998958Y-78843241D01*
X92998117Y-78847596D01*
X92744961Y-79478793D01*
X92738701Y-79485196D01*
X92731841Y-79485917D01*
X92489332Y-79438143D01*
X92306992Y-79402223D01*
X92299538Y-79397263D01*
X92297776Y-79393010D01*
X92214082Y-78968156D01*
X92215845Y-78959379D01*
X92221204Y-78955039D01*
X92852405Y-78701882D01*
X92861357Y-78701983D01*
G37*
%TD.AperFunction*%
%TD*%
%TA.AperFunction,Conductor*%
%TO.N,/CAN_Elcon_+*%
G36*
X97237704Y-77214457D02*
G01*
X97243705Y-77221104D01*
X97244149Y-77222704D01*
X97300531Y-77501395D01*
X97300531Y-77506035D01*
X97244182Y-77784561D01*
X97239182Y-77791990D01*
X97230394Y-77793709D01*
X97228662Y-77793216D01*
X97102475Y-77746589D01*
X96713410Y-77602824D01*
X96706837Y-77596742D01*
X96705765Y-77591849D01*
X96705765Y-77408257D01*
X96709192Y-77399984D01*
X96713545Y-77397233D01*
X97228761Y-77214000D01*
X97237704Y-77214457D01*
G37*
%TD.AperFunction*%
%TD*%
%TA.AperFunction,Conductor*%
%TO.N,/CAN_Car_+*%
G36*
X122483881Y-65052667D02*
G01*
X122484060Y-65052846D01*
X123176062Y-65761412D01*
X123179391Y-65769724D01*
X123178268Y-65774590D01*
X122656677Y-66876834D01*
X122650040Y-66882847D01*
X122641097Y-66882406D01*
X122637828Y-66880103D01*
X122508735Y-66751010D01*
X122507659Y-66749772D01*
X122126267Y-66242972D01*
X122124141Y-66238220D01*
X122100510Y-66119417D01*
X122031875Y-65953716D01*
X122031873Y-65953713D01*
X122031871Y-65953709D01*
X121932232Y-65804590D01*
X121932229Y-65804586D01*
X121839061Y-65711419D01*
X121835634Y-65703146D01*
X121838969Y-65694968D01*
X122467338Y-65052845D01*
X122475571Y-65049330D01*
X122483881Y-65052667D01*
G37*
%TD.AperFunction*%
%TD*%
%TA.AperFunction,Conductor*%
%TO.N,/CAN_Car_+*%
G36*
X82029819Y-72806061D02*
G01*
X82035231Y-72813195D01*
X82035614Y-72816162D01*
X82035614Y-72998359D01*
X82034480Y-73003384D01*
X81806750Y-73482247D01*
X81800102Y-73488246D01*
X81791159Y-73487788D01*
X81789699Y-73486960D01*
X81512992Y-73302702D01*
X81508005Y-73295265D01*
X81507995Y-73295214D01*
X81504075Y-73275216D01*
X81443763Y-72967502D01*
X81445535Y-72958728D01*
X81452276Y-72953939D01*
X82020947Y-72804845D01*
X82029819Y-72806061D01*
G37*
%TD.AperFunction*%
%TD*%
%TA.AperFunction,Conductor*%
%TO.N,/CAN_Car_+*%
G36*
X80127709Y-77961962D02*
G01*
X80133903Y-77968429D01*
X80134469Y-77970358D01*
X80200532Y-78297685D01*
X80200532Y-78302315D01*
X80134469Y-78629641D01*
X80129473Y-78637072D01*
X80120685Y-78638795D01*
X80118756Y-78638229D01*
X79514181Y-78402902D01*
X79507714Y-78396708D01*
X79506725Y-78391999D01*
X79506725Y-78208000D01*
X79510152Y-78199727D01*
X79514177Y-78197098D01*
X80118756Y-77961770D01*
X80127709Y-77961962D01*
G37*
%TD.AperFunction*%
%TD*%
%TA.AperFunction,Conductor*%
%TO.N,/CAN_Car_+*%
G36*
X65606507Y-67003358D02*
G01*
X66225077Y-67417650D01*
X66230044Y-67425101D01*
X66229067Y-67432530D01*
X65703214Y-68502817D01*
X65696490Y-68508732D01*
X65692713Y-68509358D01*
X65507287Y-68509358D01*
X65499014Y-68505931D01*
X65496786Y-68502817D01*
X64970931Y-67432528D01*
X64970359Y-67423594D01*
X64974920Y-67417651D01*
X65593490Y-67003359D01*
X65602270Y-67001603D01*
X65606507Y-67003358D01*
G37*
%TD.AperFunction*%
%TD*%
%TA.AperFunction,Conductor*%
%TO.N,/CAN_Elcon_-*%
G36*
X93661357Y-79501983D02*
G01*
X93665031Y-79504468D01*
X93795531Y-79634968D01*
X93798958Y-79643241D01*
X93798117Y-79647596D01*
X93544961Y-80278793D01*
X93538701Y-80285196D01*
X93531841Y-80285917D01*
X93289332Y-80238143D01*
X93106992Y-80202223D01*
X93099538Y-80197263D01*
X93097776Y-80193010D01*
X93014082Y-79768156D01*
X93015845Y-79759379D01*
X93021204Y-79755039D01*
X93652405Y-79501882D01*
X93661357Y-79501983D01*
G37*
%TD.AperFunction*%
%TD*%
%TA.AperFunction,Conductor*%
%TO.N,/CAN_Elcon_-*%
G36*
X98087655Y-78110792D02*
G01*
X98093696Y-78117402D01*
X98094165Y-78119070D01*
X98150530Y-78397680D01*
X98150530Y-78402320D01*
X98094165Y-78680929D01*
X98089165Y-78688358D01*
X98080377Y-78690077D01*
X98078709Y-78689608D01*
X97563476Y-78502796D01*
X97556866Y-78496755D01*
X97555764Y-78491797D01*
X97555764Y-78308202D01*
X97559191Y-78299929D01*
X97563473Y-78297204D01*
X98078711Y-78110391D01*
X98087655Y-78110792D01*
G37*
%TD.AperFunction*%
%TD*%
%TA.AperFunction,Conductor*%
%TO.N,/CAN_Car_-*%
G36*
X124144690Y-64722520D02*
G01*
X124164913Y-64730351D01*
X124969385Y-65041845D01*
X124975862Y-65048028D01*
X124976727Y-65050995D01*
X125139293Y-66118594D01*
X125137150Y-66127288D01*
X125131060Y-66131570D01*
X123826857Y-66519257D01*
X123817950Y-66518330D01*
X123815250Y-66516315D01*
X123683560Y-66384625D01*
X123680133Y-66376352D01*
X123680546Y-66373270D01*
X123746548Y-66131570D01*
X124129182Y-64730350D01*
X124134667Y-64723273D01*
X124143551Y-64722146D01*
X124144690Y-64722520D01*
G37*
%TD.AperFunction*%
%TD*%
%TA.AperFunction,Conductor*%
%TO.N,/CAN_Car_-*%
G36*
X82227709Y-77261962D02*
G01*
X82233903Y-77268429D01*
X82234469Y-77270358D01*
X82300532Y-77597685D01*
X82300532Y-77602315D01*
X82234469Y-77929641D01*
X82229473Y-77937072D01*
X82220685Y-77938795D01*
X82218756Y-77938229D01*
X81614181Y-77702902D01*
X81607714Y-77696708D01*
X81606725Y-77691999D01*
X81606725Y-77508000D01*
X81610152Y-77499727D01*
X81614177Y-77497098D01*
X82218756Y-77261770D01*
X82227709Y-77261962D01*
G37*
%TD.AperFunction*%
%TD*%
%TA.AperFunction,Conductor*%
%TO.N,/CAN_Car_-*%
G36*
X82681243Y-73261770D02*
G01*
X83285820Y-73497098D01*
X83292286Y-73503291D01*
X83293275Y-73508000D01*
X83293275Y-73691999D01*
X83289848Y-73700272D01*
X83285819Y-73702902D01*
X82681243Y-73938229D01*
X82672290Y-73938037D01*
X82666096Y-73931570D01*
X82665530Y-73929641D01*
X82619237Y-73700272D01*
X82599467Y-73602313D01*
X82599467Y-73597685D01*
X82618518Y-73503291D01*
X82665530Y-73270356D01*
X82670526Y-73262927D01*
X82679314Y-73261204D01*
X82681243Y-73261770D01*
G37*
%TD.AperFunction*%
%TD*%
%TA.AperFunction,Conductor*%
%TO.N,/CAN_Car_-*%
G36*
X66346099Y-64315083D02*
G01*
X66350662Y-64321027D01*
X66735636Y-65449670D01*
X66735063Y-65458606D01*
X66732835Y-65461720D01*
X66601720Y-65592835D01*
X66593447Y-65596262D01*
X66589670Y-65595636D01*
X65461027Y-65210662D01*
X65454303Y-65204747D01*
X65453326Y-65197320D01*
X65597772Y-64466978D01*
X65602739Y-64459529D01*
X65606976Y-64457773D01*
X66337319Y-64313326D01*
X66346099Y-64315083D01*
G37*
%TD.AperFunction*%
%TD*%
%TA.AperFunction,Conductor*%
%TO.N,/Display_NSS*%
G36*
X100981028Y-71889179D02*
G01*
X101110848Y-72018999D01*
X101114275Y-72027272D01*
X101113184Y-72032205D01*
X100881916Y-72529596D01*
X100875321Y-72535653D01*
X100866374Y-72535272D01*
X100864839Y-72534412D01*
X100628003Y-72377280D01*
X100624722Y-72373999D01*
X100622352Y-72370426D01*
X100467553Y-72137108D01*
X100465835Y-72128322D01*
X100470835Y-72120893D01*
X100472315Y-72120059D01*
X100967775Y-71886865D01*
X100976717Y-71886443D01*
X100981028Y-71889179D01*
G37*
%TD.AperFunction*%
%TD*%
%TA.AperFunction,Conductor*%
%TO.N,/Display_NSS*%
G36*
X101980930Y-70355835D02*
G01*
X101988358Y-70360834D01*
X101990077Y-70369622D01*
X101989608Y-70371290D01*
X101802796Y-70886524D01*
X101796755Y-70893134D01*
X101791797Y-70894236D01*
X101608203Y-70894236D01*
X101599930Y-70890809D01*
X101597204Y-70886524D01*
X101549544Y-70755078D01*
X101410391Y-70371288D01*
X101410792Y-70362344D01*
X101417402Y-70356303D01*
X101419056Y-70355837D01*
X101697682Y-70299469D01*
X101702318Y-70299469D01*
X101980930Y-70355835D01*
G37*
%TD.AperFunction*%
%TD*%
M02*
