%TF.GenerationSoftware,KiCad,Pcbnew,9.0.4*%
%TF.CreationDate,2025-10-13T22:12:45-05:00*%
%TF.ProjectId,PS-ChargerInterfacePCB,50532d43-6861-4726-9765-72496e746572,rev?*%
%TF.SameCoordinates,Original*%
%TF.FileFunction,Legend,Top*%
%TF.FilePolarity,Positive*%
%FSLAX46Y46*%
G04 Gerber Fmt 4.6, Leading zero omitted, Abs format (unit mm)*
G04 Created by KiCad (PCBNEW 9.0.4) date 2025-10-13 22:12:45*
%MOMM*%
%LPD*%
G01*
G04 APERTURE LIST*
G04 Aperture macros list*
%AMRoundRect*
0 Rectangle with rounded corners*
0 $1 Rounding radius*
0 $2 $3 $4 $5 $6 $7 $8 $9 X,Y pos of 4 corners*
0 Add a 4 corners polygon primitive as box body*
4,1,4,$2,$3,$4,$5,$6,$7,$8,$9,$2,$3,0*
0 Add four circle primitives for the rounded corners*
1,1,$1+$1,$2,$3*
1,1,$1+$1,$4,$5*
1,1,$1+$1,$6,$7*
1,1,$1+$1,$8,$9*
0 Add four rect primitives between the rounded corners*
20,1,$1+$1,$2,$3,$4,$5,0*
20,1,$1+$1,$4,$5,$6,$7,0*
20,1,$1+$1,$6,$7,$8,$9,0*
20,1,$1+$1,$8,$9,$2,$3,0*%
%AMFreePoly0*
4,1,21,1.545000,0.775000,0.925000,0.775000,0.925000,0.525000,1.545000,0.525000,1.545000,0.125000,0.925000,0.125000,0.925000,-0.125000,1.545000,-0.125000,1.545000,-0.525000,0.925000,-0.525000,0.925000,-0.775000,1.545000,-0.775000,1.545000,-1.175000,0.925000,-1.175000,0.925000,-1.125000,-0.925000,-1.125000,-0.925000,1.125000,0.925000,1.125000,0.925000,1.175000,1.545000,1.175000,
1.545000,0.775000,1.545000,0.775000,$1*%
%AMFreePoly1*
4,1,7,1.500000,0.866025,1.500000,-0.866025,0.000000,-1.732051,-1.500000,-0.866025,-1.500000,0.866025,0.000000,1.732051,1.500000,0.866025,1.500000,0.866025,$1*%
G04 Aperture macros list end*
%ADD10C,0.120000*%
%ADD11C,0.150000*%
%ADD12C,0.100000*%
%ADD13C,0.254000*%
%ADD14C,0.125000*%
%ADD15C,0.152400*%
%ADD16C,0.508000*%
%ADD17C,0.200000*%
%ADD18R,2.184400X1.625600*%
%ADD19R,1.625600X2.184400*%
%ADD20C,3.000000*%
%ADD21R,0.550000X1.800000*%
%ADD22C,1.300000*%
%ADD23C,1.800000*%
%ADD24RoundRect,0.200000X-0.275000X0.200000X-0.275000X-0.200000X0.275000X-0.200000X0.275000X0.200000X0*%
%ADD25RoundRect,0.225000X-0.250000X0.225000X-0.250000X-0.225000X0.250000X-0.225000X0.250000X0.225000X0*%
%ADD26RoundRect,0.200000X0.200000X0.275000X-0.200000X0.275000X-0.200000X-0.275000X0.200000X-0.275000X0*%
%ADD27RoundRect,0.250000X0.250000X0.475000X-0.250000X0.475000X-0.250000X-0.475000X0.250000X-0.475000X0*%
%ADD28RoundRect,0.250000X-0.850000X-0.600000X0.850000X-0.600000X0.850000X0.600000X-0.850000X0.600000X0*%
%ADD29O,2.200000X1.700000*%
%ADD30C,3.400000*%
%ADD31C,6.000000*%
%ADD32RoundRect,0.225000X0.250000X-0.225000X0.250000X0.225000X-0.250000X0.225000X-0.250000X-0.225000X0*%
%ADD33C,1.524000*%
%ADD34RoundRect,0.218750X-0.256250X0.218750X-0.256250X-0.218750X0.256250X-0.218750X0.256250X0.218750X0*%
%ADD35RoundRect,0.100000X-0.315000X-0.100000X0.315000X-0.100000X0.315000X0.100000X-0.315000X0.100000X0*%
%ADD36FreePoly0,0.000000*%
%ADD37RoundRect,0.250000X0.475000X-0.250000X0.475000X0.250000X-0.475000X0.250000X-0.475000X-0.250000X0*%
%ADD38FreePoly1,270.000000*%
%ADD39RoundRect,0.225000X0.225000X0.250000X-0.225000X0.250000X-0.225000X-0.250000X0.225000X-0.250000X0*%
%ADD40FreePoly1,90.000000*%
%ADD41RoundRect,0.250000X-0.475000X0.250000X-0.475000X-0.250000X0.475000X-0.250000X0.475000X0.250000X0*%
%ADD42R,1.200000X0.450000*%
%ADD43C,2.400000*%
%ADD44RoundRect,0.200000X0.275000X-0.200000X0.275000X0.200000X-0.275000X0.200000X-0.275000X-0.200000X0*%
%ADD45C,1.100000*%
%ADD46C,2.085000*%
%ADD47RoundRect,0.100000X0.315000X0.100000X-0.315000X0.100000X-0.315000X-0.100000X0.315000X-0.100000X0*%
%ADD48FreePoly0,180.000000*%
%ADD49R,0.567408X0.203010*%
%ADD50R,0.203200X0.556120*%
%ADD51R,0.533400X0.254000*%
%ADD52R,0.570166X0.203210*%
%ADD53R,0.203200X0.556130*%
%ADD54R,0.254000X1.346200*%
%ADD55R,0.254000X2.409444*%
%ADD56R,0.203200X0.556132*%
%ADD57R,0.570166X0.203226*%
%ADD58R,0.570166X0.203224*%
%ADD59R,0.254000X0.533400*%
%ADD60R,1.970000X1.670000*%
%ADD61RoundRect,0.225000X-0.225000X-0.250000X0.225000X-0.250000X0.225000X0.250000X-0.225000X0.250000X0*%
%ADD62FreePoly1,180.000000*%
%ADD63RoundRect,0.250000X-0.250000X-0.475000X0.250000X-0.475000X0.250000X0.475000X-0.250000X0.475000X0*%
%ADD64R,3.251200X0.863600*%
%ADD65RoundRect,0.250000X0.600000X-0.850000X0.600000X0.850000X-0.600000X0.850000X-0.600000X-0.850000X0*%
%ADD66O,1.700000X2.200000*%
G04 APERTURE END LIST*
D10*
X128720331Y-47735338D02*
X128434617Y-47935338D01*
X128720331Y-48078195D02*
X128120331Y-48078195D01*
X128120331Y-48078195D02*
X128120331Y-47849624D01*
X128120331Y-47849624D02*
X128148902Y-47792481D01*
X128148902Y-47792481D02*
X128177474Y-47763910D01*
X128177474Y-47763910D02*
X128234617Y-47735338D01*
X128234617Y-47735338D02*
X128320331Y-47735338D01*
X128320331Y-47735338D02*
X128377474Y-47763910D01*
X128377474Y-47763910D02*
X128406045Y-47792481D01*
X128406045Y-47792481D02*
X128434617Y-47849624D01*
X128434617Y-47849624D02*
X128434617Y-48078195D01*
X128720331Y-47163910D02*
X128720331Y-47506767D01*
X128720331Y-47335338D02*
X128120331Y-47335338D01*
X128120331Y-47335338D02*
X128206045Y-47392481D01*
X128206045Y-47392481D02*
X128263188Y-47449624D01*
X128263188Y-47449624D02*
X128291760Y-47506767D01*
X128120331Y-46621052D02*
X128120331Y-46906766D01*
X128120331Y-46906766D02*
X128406045Y-46935338D01*
X128406045Y-46935338D02*
X128377474Y-46906766D01*
X128377474Y-46906766D02*
X128348902Y-46849624D01*
X128348902Y-46849624D02*
X128348902Y-46706766D01*
X128348902Y-46706766D02*
X128377474Y-46649624D01*
X128377474Y-46649624D02*
X128406045Y-46621052D01*
X128406045Y-46621052D02*
X128463188Y-46592481D01*
X128463188Y-46592481D02*
X128606045Y-46592481D01*
X128606045Y-46592481D02*
X128663188Y-46621052D01*
X128663188Y-46621052D02*
X128691760Y-46649624D01*
X128691760Y-46649624D02*
X128720331Y-46706766D01*
X128720331Y-46706766D02*
X128720331Y-46849624D01*
X128720331Y-46849624D02*
X128691760Y-46906766D01*
X128691760Y-46906766D02*
X128663188Y-46935338D01*
X128491760Y-46335337D02*
X128491760Y-45878195D01*
X128720331Y-45249623D02*
X128434617Y-45449623D01*
X128720331Y-45592480D02*
X128120331Y-45592480D01*
X128120331Y-45592480D02*
X128120331Y-45363909D01*
X128120331Y-45363909D02*
X128148902Y-45306766D01*
X128148902Y-45306766D02*
X128177474Y-45278195D01*
X128177474Y-45278195D02*
X128234617Y-45249623D01*
X128234617Y-45249623D02*
X128320331Y-45249623D01*
X128320331Y-45249623D02*
X128377474Y-45278195D01*
X128377474Y-45278195D02*
X128406045Y-45306766D01*
X128406045Y-45306766D02*
X128434617Y-45363909D01*
X128434617Y-45363909D02*
X128434617Y-45592480D01*
X128720331Y-44678195D02*
X128720331Y-45021052D01*
X128720331Y-44849623D02*
X128120331Y-44849623D01*
X128120331Y-44849623D02*
X128206045Y-44906766D01*
X128206045Y-44906766D02*
X128263188Y-44963909D01*
X128263188Y-44963909D02*
X128291760Y-45021052D01*
X128377474Y-44335337D02*
X128348902Y-44392480D01*
X128348902Y-44392480D02*
X128320331Y-44421051D01*
X128320331Y-44421051D02*
X128263188Y-44449623D01*
X128263188Y-44449623D02*
X128234617Y-44449623D01*
X128234617Y-44449623D02*
X128177474Y-44421051D01*
X128177474Y-44421051D02*
X128148902Y-44392480D01*
X128148902Y-44392480D02*
X128120331Y-44335337D01*
X128120331Y-44335337D02*
X128120331Y-44221051D01*
X128120331Y-44221051D02*
X128148902Y-44163909D01*
X128148902Y-44163909D02*
X128177474Y-44135337D01*
X128177474Y-44135337D02*
X128234617Y-44106766D01*
X128234617Y-44106766D02*
X128263188Y-44106766D01*
X128263188Y-44106766D02*
X128320331Y-44135337D01*
X128320331Y-44135337D02*
X128348902Y-44163909D01*
X128348902Y-44163909D02*
X128377474Y-44221051D01*
X128377474Y-44221051D02*
X128377474Y-44335337D01*
X128377474Y-44335337D02*
X128406045Y-44392480D01*
X128406045Y-44392480D02*
X128434617Y-44421051D01*
X128434617Y-44421051D02*
X128491760Y-44449623D01*
X128491760Y-44449623D02*
X128606045Y-44449623D01*
X128606045Y-44449623D02*
X128663188Y-44421051D01*
X128663188Y-44421051D02*
X128691760Y-44392480D01*
X128691760Y-44392480D02*
X128720331Y-44335337D01*
X128720331Y-44335337D02*
X128720331Y-44221051D01*
X128720331Y-44221051D02*
X128691760Y-44163909D01*
X128691760Y-44163909D02*
X128663188Y-44135337D01*
X128663188Y-44135337D02*
X128606045Y-44106766D01*
X128606045Y-44106766D02*
X128491760Y-44106766D01*
X128491760Y-44106766D02*
X128434617Y-44135337D01*
X128434617Y-44135337D02*
X128406045Y-44163909D01*
X128406045Y-44163909D02*
X128377474Y-44221051D01*
D11*
X117905403Y-86986464D02*
X117905403Y-86236464D01*
X117905403Y-86236464D02*
X118083974Y-86236464D01*
X118083974Y-86236464D02*
X118191117Y-86272178D01*
X118191117Y-86272178D02*
X118262546Y-86343607D01*
X118262546Y-86343607D02*
X118298260Y-86415035D01*
X118298260Y-86415035D02*
X118333974Y-86557892D01*
X118333974Y-86557892D02*
X118333974Y-86665035D01*
X118333974Y-86665035D02*
X118298260Y-86807892D01*
X118298260Y-86807892D02*
X118262546Y-86879321D01*
X118262546Y-86879321D02*
X118191117Y-86950750D01*
X118191117Y-86950750D02*
X118083974Y-86986464D01*
X118083974Y-86986464D02*
X117905403Y-86986464D01*
X119048260Y-86986464D02*
X118619689Y-86986464D01*
X118833974Y-86986464D02*
X118833974Y-86236464D01*
X118833974Y-86236464D02*
X118762546Y-86343607D01*
X118762546Y-86343607D02*
X118691117Y-86415035D01*
X118691117Y-86415035D02*
X118619689Y-86450750D01*
X116196428Y-94553364D02*
X116196428Y-93803364D01*
X116196428Y-93803364D02*
X116374999Y-93803364D01*
X116374999Y-93803364D02*
X116482142Y-93839078D01*
X116482142Y-93839078D02*
X116553571Y-93910507D01*
X116553571Y-93910507D02*
X116589285Y-93981935D01*
X116589285Y-93981935D02*
X116624999Y-94124792D01*
X116624999Y-94124792D02*
X116624999Y-94231935D01*
X116624999Y-94231935D02*
X116589285Y-94374792D01*
X116589285Y-94374792D02*
X116553571Y-94446221D01*
X116553571Y-94446221D02*
X116482142Y-94517650D01*
X116482142Y-94517650D02*
X116374999Y-94553364D01*
X116374999Y-94553364D02*
X116196428Y-94553364D01*
X116910714Y-93874792D02*
X116946428Y-93839078D01*
X116946428Y-93839078D02*
X117017857Y-93803364D01*
X117017857Y-93803364D02*
X117196428Y-93803364D01*
X117196428Y-93803364D02*
X117267857Y-93839078D01*
X117267857Y-93839078D02*
X117303571Y-93874792D01*
X117303571Y-93874792D02*
X117339285Y-93946221D01*
X117339285Y-93946221D02*
X117339285Y-94017650D01*
X117339285Y-94017650D02*
X117303571Y-94124792D01*
X117303571Y-94124792D02*
X116874999Y-94553364D01*
X116874999Y-94553364D02*
X117339285Y-94553364D01*
D12*
X91423341Y-71622775D02*
X91423341Y-72432298D01*
X91423341Y-72432298D02*
X91470960Y-72527536D01*
X91470960Y-72527536D02*
X91518579Y-72575156D01*
X91518579Y-72575156D02*
X91613817Y-72622775D01*
X91613817Y-72622775D02*
X91804293Y-72622775D01*
X91804293Y-72622775D02*
X91899531Y-72575156D01*
X91899531Y-72575156D02*
X91947150Y-72527536D01*
X91947150Y-72527536D02*
X91994769Y-72432298D01*
X91994769Y-72432298D02*
X91994769Y-71622775D01*
X92994769Y-72622775D02*
X92423341Y-72622775D01*
X92709055Y-72622775D02*
X92709055Y-71622775D01*
X92709055Y-71622775D02*
X92613817Y-71765632D01*
X92613817Y-71765632D02*
X92518579Y-71860870D01*
X92518579Y-71860870D02*
X92423341Y-71908489D01*
D13*
X122759613Y-41869007D02*
X122759613Y-42776150D01*
X122759613Y-42776150D02*
X122699136Y-42957578D01*
X122699136Y-42957578D02*
X122578184Y-43078531D01*
X122578184Y-43078531D02*
X122396755Y-43139007D01*
X122396755Y-43139007D02*
X122275803Y-43139007D01*
X123969136Y-41869007D02*
X123364374Y-41869007D01*
X123364374Y-41869007D02*
X123303898Y-42473769D01*
X123303898Y-42473769D02*
X123364374Y-42413292D01*
X123364374Y-42413292D02*
X123485327Y-42352816D01*
X123485327Y-42352816D02*
X123787708Y-42352816D01*
X123787708Y-42352816D02*
X123908660Y-42413292D01*
X123908660Y-42413292D02*
X123969136Y-42473769D01*
X123969136Y-42473769D02*
X124029613Y-42594721D01*
X124029613Y-42594721D02*
X124029613Y-42897102D01*
X124029613Y-42897102D02*
X123969136Y-43018054D01*
X123969136Y-43018054D02*
X123908660Y-43078531D01*
X123908660Y-43078531D02*
X123787708Y-43139007D01*
X123787708Y-43139007D02*
X123485327Y-43139007D01*
X123485327Y-43139007D02*
X123364374Y-43078531D01*
X123364374Y-43078531D02*
X123303898Y-43018054D01*
D11*
X119662955Y-105350304D02*
X119627241Y-105386019D01*
X119627241Y-105386019D02*
X119520098Y-105421733D01*
X119520098Y-105421733D02*
X119448670Y-105421733D01*
X119448670Y-105421733D02*
X119341527Y-105386019D01*
X119341527Y-105386019D02*
X119270098Y-105314590D01*
X119270098Y-105314590D02*
X119234384Y-105243161D01*
X119234384Y-105243161D02*
X119198670Y-105100304D01*
X119198670Y-105100304D02*
X119198670Y-104993161D01*
X119198670Y-104993161D02*
X119234384Y-104850304D01*
X119234384Y-104850304D02*
X119270098Y-104778876D01*
X119270098Y-104778876D02*
X119341527Y-104707447D01*
X119341527Y-104707447D02*
X119448670Y-104671733D01*
X119448670Y-104671733D02*
X119520098Y-104671733D01*
X119520098Y-104671733D02*
X119627241Y-104707447D01*
X119627241Y-104707447D02*
X119662955Y-104743161D01*
X120377241Y-105421733D02*
X119948670Y-105421733D01*
X120162955Y-105421733D02*
X120162955Y-104671733D01*
X120162955Y-104671733D02*
X120091527Y-104778876D01*
X120091527Y-104778876D02*
X120020098Y-104850304D01*
X120020098Y-104850304D02*
X119948670Y-104886019D01*
X121055813Y-104671733D02*
X120698670Y-104671733D01*
X120698670Y-104671733D02*
X120662956Y-105028876D01*
X120662956Y-105028876D02*
X120698670Y-104993161D01*
X120698670Y-104993161D02*
X120770099Y-104957447D01*
X120770099Y-104957447D02*
X120948670Y-104957447D01*
X120948670Y-104957447D02*
X121020099Y-104993161D01*
X121020099Y-104993161D02*
X121055813Y-105028876D01*
X121055813Y-105028876D02*
X121091527Y-105100304D01*
X121091527Y-105100304D02*
X121091527Y-105278876D01*
X121091527Y-105278876D02*
X121055813Y-105350304D01*
X121055813Y-105350304D02*
X121020099Y-105386019D01*
X121020099Y-105386019D02*
X120948670Y-105421733D01*
X120948670Y-105421733D02*
X120770099Y-105421733D01*
X120770099Y-105421733D02*
X120698670Y-105386019D01*
X120698670Y-105386019D02*
X120662956Y-105350304D01*
X89674999Y-99939164D02*
X89424999Y-99582021D01*
X89246428Y-99939164D02*
X89246428Y-99189164D01*
X89246428Y-99189164D02*
X89532142Y-99189164D01*
X89532142Y-99189164D02*
X89603571Y-99224878D01*
X89603571Y-99224878D02*
X89639285Y-99260592D01*
X89639285Y-99260592D02*
X89674999Y-99332021D01*
X89674999Y-99332021D02*
X89674999Y-99439164D01*
X89674999Y-99439164D02*
X89639285Y-99510592D01*
X89639285Y-99510592D02*
X89603571Y-99546307D01*
X89603571Y-99546307D02*
X89532142Y-99582021D01*
X89532142Y-99582021D02*
X89246428Y-99582021D01*
X90032142Y-99939164D02*
X90174999Y-99939164D01*
X90174999Y-99939164D02*
X90246428Y-99903450D01*
X90246428Y-99903450D02*
X90282142Y-99867735D01*
X90282142Y-99867735D02*
X90353571Y-99760592D01*
X90353571Y-99760592D02*
X90389285Y-99617735D01*
X90389285Y-99617735D02*
X90389285Y-99332021D01*
X90389285Y-99332021D02*
X90353571Y-99260592D01*
X90353571Y-99260592D02*
X90317857Y-99224878D01*
X90317857Y-99224878D02*
X90246428Y-99189164D01*
X90246428Y-99189164D02*
X90103571Y-99189164D01*
X90103571Y-99189164D02*
X90032142Y-99224878D01*
X90032142Y-99224878D02*
X89996428Y-99260592D01*
X89996428Y-99260592D02*
X89960714Y-99332021D01*
X89960714Y-99332021D02*
X89960714Y-99510592D01*
X89960714Y-99510592D02*
X89996428Y-99582021D01*
X89996428Y-99582021D02*
X90032142Y-99617735D01*
X90032142Y-99617735D02*
X90103571Y-99653450D01*
X90103571Y-99653450D02*
X90246428Y-99653450D01*
X90246428Y-99653450D02*
X90317857Y-99617735D01*
X90317857Y-99617735D02*
X90353571Y-99582021D01*
X90353571Y-99582021D02*
X90389285Y-99510592D01*
X97617856Y-71667735D02*
X97582142Y-71703450D01*
X97582142Y-71703450D02*
X97474999Y-71739164D01*
X97474999Y-71739164D02*
X97403571Y-71739164D01*
X97403571Y-71739164D02*
X97296428Y-71703450D01*
X97296428Y-71703450D02*
X97224999Y-71632021D01*
X97224999Y-71632021D02*
X97189285Y-71560592D01*
X97189285Y-71560592D02*
X97153571Y-71417735D01*
X97153571Y-71417735D02*
X97153571Y-71310592D01*
X97153571Y-71310592D02*
X97189285Y-71167735D01*
X97189285Y-71167735D02*
X97224999Y-71096307D01*
X97224999Y-71096307D02*
X97296428Y-71024878D01*
X97296428Y-71024878D02*
X97403571Y-70989164D01*
X97403571Y-70989164D02*
X97474999Y-70989164D01*
X97474999Y-70989164D02*
X97582142Y-71024878D01*
X97582142Y-71024878D02*
X97617856Y-71060592D01*
X97903571Y-71060592D02*
X97939285Y-71024878D01*
X97939285Y-71024878D02*
X98010714Y-70989164D01*
X98010714Y-70989164D02*
X98189285Y-70989164D01*
X98189285Y-70989164D02*
X98260714Y-71024878D01*
X98260714Y-71024878D02*
X98296428Y-71060592D01*
X98296428Y-71060592D02*
X98332142Y-71132021D01*
X98332142Y-71132021D02*
X98332142Y-71203450D01*
X98332142Y-71203450D02*
X98296428Y-71310592D01*
X98296428Y-71310592D02*
X97867856Y-71739164D01*
X97867856Y-71739164D02*
X98332142Y-71739164D01*
X98975000Y-70989164D02*
X98832142Y-70989164D01*
X98832142Y-70989164D02*
X98760714Y-71024878D01*
X98760714Y-71024878D02*
X98725000Y-71060592D01*
X98725000Y-71060592D02*
X98653571Y-71167735D01*
X98653571Y-71167735D02*
X98617857Y-71310592D01*
X98617857Y-71310592D02*
X98617857Y-71596307D01*
X98617857Y-71596307D02*
X98653571Y-71667735D01*
X98653571Y-71667735D02*
X98689285Y-71703450D01*
X98689285Y-71703450D02*
X98760714Y-71739164D01*
X98760714Y-71739164D02*
X98903571Y-71739164D01*
X98903571Y-71739164D02*
X98975000Y-71703450D01*
X98975000Y-71703450D02*
X99010714Y-71667735D01*
X99010714Y-71667735D02*
X99046428Y-71596307D01*
X99046428Y-71596307D02*
X99046428Y-71417735D01*
X99046428Y-71417735D02*
X99010714Y-71346307D01*
X99010714Y-71346307D02*
X98975000Y-71310592D01*
X98975000Y-71310592D02*
X98903571Y-71274878D01*
X98903571Y-71274878D02*
X98760714Y-71274878D01*
X98760714Y-71274878D02*
X98689285Y-71310592D01*
X98689285Y-71310592D02*
X98653571Y-71346307D01*
X98653571Y-71346307D02*
X98617857Y-71417735D01*
X86765390Y-99876219D02*
X86729676Y-99911934D01*
X86729676Y-99911934D02*
X86622533Y-99947648D01*
X86622533Y-99947648D02*
X86551105Y-99947648D01*
X86551105Y-99947648D02*
X86443962Y-99911934D01*
X86443962Y-99911934D02*
X86372533Y-99840505D01*
X86372533Y-99840505D02*
X86336819Y-99769076D01*
X86336819Y-99769076D02*
X86301105Y-99626219D01*
X86301105Y-99626219D02*
X86301105Y-99519076D01*
X86301105Y-99519076D02*
X86336819Y-99376219D01*
X86336819Y-99376219D02*
X86372533Y-99304791D01*
X86372533Y-99304791D02*
X86443962Y-99233362D01*
X86443962Y-99233362D02*
X86551105Y-99197648D01*
X86551105Y-99197648D02*
X86622533Y-99197648D01*
X86622533Y-99197648D02*
X86729676Y-99233362D01*
X86729676Y-99233362D02*
X86765390Y-99269076D01*
X87408248Y-99447648D02*
X87408248Y-99947648D01*
X87229676Y-99161934D02*
X87051105Y-99697648D01*
X87051105Y-99697648D02*
X87515390Y-99697648D01*
X113958505Y-101257143D02*
X113994220Y-101292857D01*
X113994220Y-101292857D02*
X114029934Y-101400000D01*
X114029934Y-101400000D02*
X114029934Y-101471428D01*
X114029934Y-101471428D02*
X113994220Y-101578571D01*
X113994220Y-101578571D02*
X113922791Y-101650000D01*
X113922791Y-101650000D02*
X113851362Y-101685714D01*
X113851362Y-101685714D02*
X113708505Y-101721428D01*
X113708505Y-101721428D02*
X113601362Y-101721428D01*
X113601362Y-101721428D02*
X113458505Y-101685714D01*
X113458505Y-101685714D02*
X113387077Y-101650000D01*
X113387077Y-101650000D02*
X113315648Y-101578571D01*
X113315648Y-101578571D02*
X113279934Y-101471428D01*
X113279934Y-101471428D02*
X113279934Y-101400000D01*
X113279934Y-101400000D02*
X113315648Y-101292857D01*
X113315648Y-101292857D02*
X113351362Y-101257143D01*
X113351362Y-100971428D02*
X113315648Y-100935714D01*
X113315648Y-100935714D02*
X113279934Y-100864286D01*
X113279934Y-100864286D02*
X113279934Y-100685714D01*
X113279934Y-100685714D02*
X113315648Y-100614286D01*
X113315648Y-100614286D02*
X113351362Y-100578571D01*
X113351362Y-100578571D02*
X113422791Y-100542857D01*
X113422791Y-100542857D02*
X113494220Y-100542857D01*
X113494220Y-100542857D02*
X113601362Y-100578571D01*
X113601362Y-100578571D02*
X114029934Y-101007143D01*
X114029934Y-101007143D02*
X114029934Y-100542857D01*
X113279934Y-100292857D02*
X113279934Y-99828571D01*
X113279934Y-99828571D02*
X113565648Y-100078571D01*
X113565648Y-100078571D02*
X113565648Y-99971428D01*
X113565648Y-99971428D02*
X113601362Y-99900000D01*
X113601362Y-99900000D02*
X113637077Y-99864285D01*
X113637077Y-99864285D02*
X113708505Y-99828571D01*
X113708505Y-99828571D02*
X113887077Y-99828571D01*
X113887077Y-99828571D02*
X113958505Y-99864285D01*
X113958505Y-99864285D02*
X113994220Y-99900000D01*
X113994220Y-99900000D02*
X114029934Y-99971428D01*
X114029934Y-99971428D02*
X114029934Y-100185714D01*
X114029934Y-100185714D02*
X113994220Y-100257142D01*
X113994220Y-100257142D02*
X113958505Y-100292857D01*
X134090203Y-61174234D02*
X134090203Y-61888519D01*
X134090203Y-61888519D02*
X134042584Y-62031376D01*
X134042584Y-62031376D02*
X133947346Y-62126615D01*
X133947346Y-62126615D02*
X133804489Y-62174234D01*
X133804489Y-62174234D02*
X133709251Y-62174234D01*
X134518775Y-61269472D02*
X134566394Y-61221853D01*
X134566394Y-61221853D02*
X134661632Y-61174234D01*
X134661632Y-61174234D02*
X134899727Y-61174234D01*
X134899727Y-61174234D02*
X134994965Y-61221853D01*
X134994965Y-61221853D02*
X135042584Y-61269472D01*
X135042584Y-61269472D02*
X135090203Y-61364710D01*
X135090203Y-61364710D02*
X135090203Y-61459948D01*
X135090203Y-61459948D02*
X135042584Y-61602805D01*
X135042584Y-61602805D02*
X134471156Y-62174234D01*
X134471156Y-62174234D02*
X135090203Y-62174234D01*
X109867735Y-101582143D02*
X109903450Y-101617857D01*
X109903450Y-101617857D02*
X109939164Y-101725000D01*
X109939164Y-101725000D02*
X109939164Y-101796428D01*
X109939164Y-101796428D02*
X109903450Y-101903571D01*
X109903450Y-101903571D02*
X109832021Y-101975000D01*
X109832021Y-101975000D02*
X109760592Y-102010714D01*
X109760592Y-102010714D02*
X109617735Y-102046428D01*
X109617735Y-102046428D02*
X109510592Y-102046428D01*
X109510592Y-102046428D02*
X109367735Y-102010714D01*
X109367735Y-102010714D02*
X109296307Y-101975000D01*
X109296307Y-101975000D02*
X109224878Y-101903571D01*
X109224878Y-101903571D02*
X109189164Y-101796428D01*
X109189164Y-101796428D02*
X109189164Y-101725000D01*
X109189164Y-101725000D02*
X109224878Y-101617857D01*
X109224878Y-101617857D02*
X109260592Y-101582143D01*
X109939164Y-100867857D02*
X109939164Y-101296428D01*
X109939164Y-101082143D02*
X109189164Y-101082143D01*
X109189164Y-101082143D02*
X109296307Y-101153571D01*
X109296307Y-101153571D02*
X109367735Y-101225000D01*
X109367735Y-101225000D02*
X109403450Y-101296428D01*
X109260592Y-100582142D02*
X109224878Y-100546428D01*
X109224878Y-100546428D02*
X109189164Y-100475000D01*
X109189164Y-100475000D02*
X109189164Y-100296428D01*
X109189164Y-100296428D02*
X109224878Y-100225000D01*
X109224878Y-100225000D02*
X109260592Y-100189285D01*
X109260592Y-100189285D02*
X109332021Y-100153571D01*
X109332021Y-100153571D02*
X109403450Y-100153571D01*
X109403450Y-100153571D02*
X109510592Y-100189285D01*
X109510592Y-100189285D02*
X109939164Y-100617857D01*
X109939164Y-100617857D02*
X109939164Y-100153571D01*
D14*
X130550000Y-95840464D02*
X130550000Y-96376178D01*
X130550000Y-96376178D02*
X130514285Y-96483321D01*
X130514285Y-96483321D02*
X130442857Y-96554750D01*
X130442857Y-96554750D02*
X130335714Y-96590464D01*
X130335714Y-96590464D02*
X130264285Y-96590464D01*
X131228572Y-95840464D02*
X131085714Y-95840464D01*
X131085714Y-95840464D02*
X131014286Y-95876178D01*
X131014286Y-95876178D02*
X130978572Y-95911892D01*
X130978572Y-95911892D02*
X130907143Y-96019035D01*
X130907143Y-96019035D02*
X130871429Y-96161892D01*
X130871429Y-96161892D02*
X130871429Y-96447607D01*
X130871429Y-96447607D02*
X130907143Y-96519035D01*
X130907143Y-96519035D02*
X130942857Y-96554750D01*
X130942857Y-96554750D02*
X131014286Y-96590464D01*
X131014286Y-96590464D02*
X131157143Y-96590464D01*
X131157143Y-96590464D02*
X131228572Y-96554750D01*
X131228572Y-96554750D02*
X131264286Y-96519035D01*
X131264286Y-96519035D02*
X131300000Y-96447607D01*
X131300000Y-96447607D02*
X131300000Y-96269035D01*
X131300000Y-96269035D02*
X131264286Y-96197607D01*
X131264286Y-96197607D02*
X131228572Y-96161892D01*
X131228572Y-96161892D02*
X131157143Y-96126178D01*
X131157143Y-96126178D02*
X131014286Y-96126178D01*
X131014286Y-96126178D02*
X130942857Y-96161892D01*
X130942857Y-96161892D02*
X130907143Y-96197607D01*
X130907143Y-96197607D02*
X130871429Y-96269035D01*
X131532142Y-102490464D02*
X131960714Y-102490464D01*
X131746428Y-103240464D02*
X131746428Y-102490464D01*
X132210714Y-103240464D02*
X132210714Y-102490464D01*
X132210714Y-102490464D02*
X132496428Y-102490464D01*
X132496428Y-102490464D02*
X132567857Y-102526178D01*
X132567857Y-102526178D02*
X132603571Y-102561892D01*
X132603571Y-102561892D02*
X132639285Y-102633321D01*
X132639285Y-102633321D02*
X132639285Y-102740464D01*
X132639285Y-102740464D02*
X132603571Y-102811892D01*
X132603571Y-102811892D02*
X132567857Y-102847607D01*
X132567857Y-102847607D02*
X132496428Y-102883321D01*
X132496428Y-102883321D02*
X132210714Y-102883321D01*
X132782143Y-103311892D02*
X133353571Y-103311892D01*
X133925000Y-103240464D02*
X133496429Y-103240464D01*
X133710714Y-103240464D02*
X133710714Y-102490464D01*
X133710714Y-102490464D02*
X133639286Y-102597607D01*
X133639286Y-102597607D02*
X133567857Y-102669035D01*
X133567857Y-102669035D02*
X133496429Y-102704750D01*
X134210715Y-102561892D02*
X134246429Y-102526178D01*
X134246429Y-102526178D02*
X134317858Y-102490464D01*
X134317858Y-102490464D02*
X134496429Y-102490464D01*
X134496429Y-102490464D02*
X134567858Y-102526178D01*
X134567858Y-102526178D02*
X134603572Y-102561892D01*
X134603572Y-102561892D02*
X134639286Y-102633321D01*
X134639286Y-102633321D02*
X134639286Y-102704750D01*
X134639286Y-102704750D02*
X134603572Y-102811892D01*
X134603572Y-102811892D02*
X134175000Y-103240464D01*
X134175000Y-103240464D02*
X134639286Y-103240464D01*
X134853572Y-102490464D02*
X135103572Y-103240464D01*
X135103572Y-103240464D02*
X135353572Y-102490464D01*
X135996429Y-103240464D02*
X135567858Y-103240464D01*
X135782143Y-103240464D02*
X135782143Y-102490464D01*
X135782143Y-102490464D02*
X135710715Y-102597607D01*
X135710715Y-102597607D02*
X135639286Y-102669035D01*
X135639286Y-102669035D02*
X135567858Y-102704750D01*
D11*
X92330272Y-73727345D02*
X92294558Y-73763060D01*
X92294558Y-73763060D02*
X92187415Y-73798774D01*
X92187415Y-73798774D02*
X92115987Y-73798774D01*
X92115987Y-73798774D02*
X92008844Y-73763060D01*
X92008844Y-73763060D02*
X91937415Y-73691631D01*
X91937415Y-73691631D02*
X91901701Y-73620202D01*
X91901701Y-73620202D02*
X91865987Y-73477345D01*
X91865987Y-73477345D02*
X91865987Y-73370202D01*
X91865987Y-73370202D02*
X91901701Y-73227345D01*
X91901701Y-73227345D02*
X91937415Y-73155917D01*
X91937415Y-73155917D02*
X92008844Y-73084488D01*
X92008844Y-73084488D02*
X92115987Y-73048774D01*
X92115987Y-73048774D02*
X92187415Y-73048774D01*
X92187415Y-73048774D02*
X92294558Y-73084488D01*
X92294558Y-73084488D02*
X92330272Y-73120202D01*
X92615987Y-73120202D02*
X92651701Y-73084488D01*
X92651701Y-73084488D02*
X92723130Y-73048774D01*
X92723130Y-73048774D02*
X92901701Y-73048774D01*
X92901701Y-73048774D02*
X92973130Y-73084488D01*
X92973130Y-73084488D02*
X93008844Y-73120202D01*
X93008844Y-73120202D02*
X93044558Y-73191631D01*
X93044558Y-73191631D02*
X93044558Y-73263060D01*
X93044558Y-73263060D02*
X93008844Y-73370202D01*
X93008844Y-73370202D02*
X92580272Y-73798774D01*
X92580272Y-73798774D02*
X93044558Y-73798774D01*
X93294558Y-73048774D02*
X93794558Y-73048774D01*
X93794558Y-73048774D02*
X93473130Y-73798774D01*
X87892856Y-71132735D02*
X87857142Y-71168450D01*
X87857142Y-71168450D02*
X87749999Y-71204164D01*
X87749999Y-71204164D02*
X87678571Y-71204164D01*
X87678571Y-71204164D02*
X87571428Y-71168450D01*
X87571428Y-71168450D02*
X87499999Y-71097021D01*
X87499999Y-71097021D02*
X87464285Y-71025592D01*
X87464285Y-71025592D02*
X87428571Y-70882735D01*
X87428571Y-70882735D02*
X87428571Y-70775592D01*
X87428571Y-70775592D02*
X87464285Y-70632735D01*
X87464285Y-70632735D02*
X87499999Y-70561307D01*
X87499999Y-70561307D02*
X87571428Y-70489878D01*
X87571428Y-70489878D02*
X87678571Y-70454164D01*
X87678571Y-70454164D02*
X87749999Y-70454164D01*
X87749999Y-70454164D02*
X87857142Y-70489878D01*
X87857142Y-70489878D02*
X87892856Y-70525592D01*
X88178571Y-70525592D02*
X88214285Y-70489878D01*
X88214285Y-70489878D02*
X88285714Y-70454164D01*
X88285714Y-70454164D02*
X88464285Y-70454164D01*
X88464285Y-70454164D02*
X88535714Y-70489878D01*
X88535714Y-70489878D02*
X88571428Y-70525592D01*
X88571428Y-70525592D02*
X88607142Y-70597021D01*
X88607142Y-70597021D02*
X88607142Y-70668450D01*
X88607142Y-70668450D02*
X88571428Y-70775592D01*
X88571428Y-70775592D02*
X88142856Y-71204164D01*
X88142856Y-71204164D02*
X88607142Y-71204164D01*
X89035714Y-70775592D02*
X88964285Y-70739878D01*
X88964285Y-70739878D02*
X88928571Y-70704164D01*
X88928571Y-70704164D02*
X88892857Y-70632735D01*
X88892857Y-70632735D02*
X88892857Y-70597021D01*
X88892857Y-70597021D02*
X88928571Y-70525592D01*
X88928571Y-70525592D02*
X88964285Y-70489878D01*
X88964285Y-70489878D02*
X89035714Y-70454164D01*
X89035714Y-70454164D02*
X89178571Y-70454164D01*
X89178571Y-70454164D02*
X89250000Y-70489878D01*
X89250000Y-70489878D02*
X89285714Y-70525592D01*
X89285714Y-70525592D02*
X89321428Y-70597021D01*
X89321428Y-70597021D02*
X89321428Y-70632735D01*
X89321428Y-70632735D02*
X89285714Y-70704164D01*
X89285714Y-70704164D02*
X89250000Y-70739878D01*
X89250000Y-70739878D02*
X89178571Y-70775592D01*
X89178571Y-70775592D02*
X89035714Y-70775592D01*
X89035714Y-70775592D02*
X88964285Y-70811307D01*
X88964285Y-70811307D02*
X88928571Y-70847021D01*
X88928571Y-70847021D02*
X88892857Y-70918450D01*
X88892857Y-70918450D02*
X88892857Y-71061307D01*
X88892857Y-71061307D02*
X88928571Y-71132735D01*
X88928571Y-71132735D02*
X88964285Y-71168450D01*
X88964285Y-71168450D02*
X89035714Y-71204164D01*
X89035714Y-71204164D02*
X89178571Y-71204164D01*
X89178571Y-71204164D02*
X89250000Y-71168450D01*
X89250000Y-71168450D02*
X89285714Y-71132735D01*
X89285714Y-71132735D02*
X89321428Y-71061307D01*
X89321428Y-71061307D02*
X89321428Y-70918450D01*
X89321428Y-70918450D02*
X89285714Y-70847021D01*
X89285714Y-70847021D02*
X89250000Y-70811307D01*
X89250000Y-70811307D02*
X89178571Y-70775592D01*
X66224999Y-50189164D02*
X66653571Y-50189164D01*
X66439285Y-50939164D02*
X66439285Y-50189164D01*
X66903571Y-50939164D02*
X66903571Y-50189164D01*
X66903571Y-50189164D02*
X67189285Y-50189164D01*
X67189285Y-50189164D02*
X67260714Y-50224878D01*
X67260714Y-50224878D02*
X67296428Y-50260592D01*
X67296428Y-50260592D02*
X67332142Y-50332021D01*
X67332142Y-50332021D02*
X67332142Y-50439164D01*
X67332142Y-50439164D02*
X67296428Y-50510592D01*
X67296428Y-50510592D02*
X67260714Y-50546307D01*
X67260714Y-50546307D02*
X67189285Y-50582021D01*
X67189285Y-50582021D02*
X66903571Y-50582021D01*
X67475000Y-51010592D02*
X68046428Y-51010592D01*
X68617857Y-50224878D02*
X68546429Y-50189164D01*
X68546429Y-50189164D02*
X68439286Y-50189164D01*
X68439286Y-50189164D02*
X68332143Y-50224878D01*
X68332143Y-50224878D02*
X68260714Y-50296307D01*
X68260714Y-50296307D02*
X68225000Y-50367735D01*
X68225000Y-50367735D02*
X68189286Y-50510592D01*
X68189286Y-50510592D02*
X68189286Y-50617735D01*
X68189286Y-50617735D02*
X68225000Y-50760592D01*
X68225000Y-50760592D02*
X68260714Y-50832021D01*
X68260714Y-50832021D02*
X68332143Y-50903450D01*
X68332143Y-50903450D02*
X68439286Y-50939164D01*
X68439286Y-50939164D02*
X68510714Y-50939164D01*
X68510714Y-50939164D02*
X68617857Y-50903450D01*
X68617857Y-50903450D02*
X68653571Y-50867735D01*
X68653571Y-50867735D02*
X68653571Y-50617735D01*
X68653571Y-50617735D02*
X68510714Y-50617735D01*
X68975000Y-50939164D02*
X68975000Y-50189164D01*
X68975000Y-50189164D02*
X69403571Y-50939164D01*
X69403571Y-50939164D02*
X69403571Y-50189164D01*
X69760714Y-50939164D02*
X69760714Y-50189164D01*
X69760714Y-50189164D02*
X69939285Y-50189164D01*
X69939285Y-50189164D02*
X70046428Y-50224878D01*
X70046428Y-50224878D02*
X70117857Y-50296307D01*
X70117857Y-50296307D02*
X70153571Y-50367735D01*
X70153571Y-50367735D02*
X70189285Y-50510592D01*
X70189285Y-50510592D02*
X70189285Y-50617735D01*
X70189285Y-50617735D02*
X70153571Y-50760592D01*
X70153571Y-50760592D02*
X70117857Y-50832021D01*
X70117857Y-50832021D02*
X70046428Y-50903450D01*
X70046428Y-50903450D02*
X69939285Y-50939164D01*
X69939285Y-50939164D02*
X69760714Y-50939164D01*
X70903571Y-50939164D02*
X70475000Y-50939164D01*
X70689285Y-50939164D02*
X70689285Y-50189164D01*
X70689285Y-50189164D02*
X70617857Y-50296307D01*
X70617857Y-50296307D02*
X70546428Y-50367735D01*
X70546428Y-50367735D02*
X70475000Y-50403450D01*
X130932142Y-63989164D02*
X131360714Y-63989164D01*
X131146428Y-64739164D02*
X131146428Y-63989164D01*
X131610714Y-64739164D02*
X131610714Y-63989164D01*
X131610714Y-63989164D02*
X131896428Y-63989164D01*
X131896428Y-63989164D02*
X131967857Y-64024878D01*
X131967857Y-64024878D02*
X132003571Y-64060592D01*
X132003571Y-64060592D02*
X132039285Y-64132021D01*
X132039285Y-64132021D02*
X132039285Y-64239164D01*
X132039285Y-64239164D02*
X132003571Y-64310592D01*
X132003571Y-64310592D02*
X131967857Y-64346307D01*
X131967857Y-64346307D02*
X131896428Y-64382021D01*
X131896428Y-64382021D02*
X131610714Y-64382021D01*
X132182143Y-64810592D02*
X132753571Y-64810592D01*
X132896429Y-64060592D02*
X132932143Y-64024878D01*
X132932143Y-64024878D02*
X133003572Y-63989164D01*
X133003572Y-63989164D02*
X133182143Y-63989164D01*
X133182143Y-63989164D02*
X133253572Y-64024878D01*
X133253572Y-64024878D02*
X133289286Y-64060592D01*
X133289286Y-64060592D02*
X133325000Y-64132021D01*
X133325000Y-64132021D02*
X133325000Y-64203450D01*
X133325000Y-64203450D02*
X133289286Y-64310592D01*
X133289286Y-64310592D02*
X132860714Y-64739164D01*
X132860714Y-64739164D02*
X133325000Y-64739164D01*
X133967858Y-64239164D02*
X133967858Y-64739164D01*
X133789286Y-63953450D02*
X133610715Y-64489164D01*
X133610715Y-64489164D02*
X134075000Y-64489164D01*
X134253572Y-63989164D02*
X134503572Y-64739164D01*
X134503572Y-64739164D02*
X134753572Y-63989164D01*
X135396429Y-64739164D02*
X134967858Y-64739164D01*
X135182143Y-64739164D02*
X135182143Y-63989164D01*
X135182143Y-63989164D02*
X135110715Y-64096307D01*
X135110715Y-64096307D02*
X135039286Y-64167735D01*
X135039286Y-64167735D02*
X134967858Y-64203450D01*
X115009481Y-108973259D02*
X114759481Y-108616116D01*
X114580910Y-108973259D02*
X114580910Y-108223259D01*
X114580910Y-108223259D02*
X114866624Y-108223259D01*
X114866624Y-108223259D02*
X114938053Y-108258973D01*
X114938053Y-108258973D02*
X114973767Y-108294687D01*
X114973767Y-108294687D02*
X115009481Y-108366116D01*
X115009481Y-108366116D02*
X115009481Y-108473259D01*
X115009481Y-108473259D02*
X114973767Y-108544687D01*
X114973767Y-108544687D02*
X114938053Y-108580402D01*
X114938053Y-108580402D02*
X114866624Y-108616116D01*
X114866624Y-108616116D02*
X114580910Y-108616116D01*
X115723767Y-108973259D02*
X115295196Y-108973259D01*
X115509481Y-108973259D02*
X115509481Y-108223259D01*
X115509481Y-108223259D02*
X115438053Y-108330402D01*
X115438053Y-108330402D02*
X115366624Y-108401830D01*
X115366624Y-108401830D02*
X115295196Y-108437545D01*
X116009482Y-108294687D02*
X116045196Y-108258973D01*
X116045196Y-108258973D02*
X116116625Y-108223259D01*
X116116625Y-108223259D02*
X116295196Y-108223259D01*
X116295196Y-108223259D02*
X116366625Y-108258973D01*
X116366625Y-108258973D02*
X116402339Y-108294687D01*
X116402339Y-108294687D02*
X116438053Y-108366116D01*
X116438053Y-108366116D02*
X116438053Y-108437545D01*
X116438053Y-108437545D02*
X116402339Y-108544687D01*
X116402339Y-108544687D02*
X115973767Y-108973259D01*
X115973767Y-108973259D02*
X116438053Y-108973259D01*
X110667856Y-68967735D02*
X110632142Y-69003450D01*
X110632142Y-69003450D02*
X110524999Y-69039164D01*
X110524999Y-69039164D02*
X110453571Y-69039164D01*
X110453571Y-69039164D02*
X110346428Y-69003450D01*
X110346428Y-69003450D02*
X110274999Y-68932021D01*
X110274999Y-68932021D02*
X110239285Y-68860592D01*
X110239285Y-68860592D02*
X110203571Y-68717735D01*
X110203571Y-68717735D02*
X110203571Y-68610592D01*
X110203571Y-68610592D02*
X110239285Y-68467735D01*
X110239285Y-68467735D02*
X110274999Y-68396307D01*
X110274999Y-68396307D02*
X110346428Y-68324878D01*
X110346428Y-68324878D02*
X110453571Y-68289164D01*
X110453571Y-68289164D02*
X110524999Y-68289164D01*
X110524999Y-68289164D02*
X110632142Y-68324878D01*
X110632142Y-68324878D02*
X110667856Y-68360592D01*
X110953571Y-68360592D02*
X110989285Y-68324878D01*
X110989285Y-68324878D02*
X111060714Y-68289164D01*
X111060714Y-68289164D02*
X111239285Y-68289164D01*
X111239285Y-68289164D02*
X111310714Y-68324878D01*
X111310714Y-68324878D02*
X111346428Y-68360592D01*
X111346428Y-68360592D02*
X111382142Y-68432021D01*
X111382142Y-68432021D02*
X111382142Y-68503450D01*
X111382142Y-68503450D02*
X111346428Y-68610592D01*
X111346428Y-68610592D02*
X110917856Y-69039164D01*
X110917856Y-69039164D02*
X111382142Y-69039164D01*
X111846428Y-68289164D02*
X111917857Y-68289164D01*
X111917857Y-68289164D02*
X111989285Y-68324878D01*
X111989285Y-68324878D02*
X112025000Y-68360592D01*
X112025000Y-68360592D02*
X112060714Y-68432021D01*
X112060714Y-68432021D02*
X112096428Y-68574878D01*
X112096428Y-68574878D02*
X112096428Y-68753450D01*
X112096428Y-68753450D02*
X112060714Y-68896307D01*
X112060714Y-68896307D02*
X112025000Y-68967735D01*
X112025000Y-68967735D02*
X111989285Y-69003450D01*
X111989285Y-69003450D02*
X111917857Y-69039164D01*
X111917857Y-69039164D02*
X111846428Y-69039164D01*
X111846428Y-69039164D02*
X111775000Y-69003450D01*
X111775000Y-69003450D02*
X111739285Y-68967735D01*
X111739285Y-68967735D02*
X111703571Y-68896307D01*
X111703571Y-68896307D02*
X111667857Y-68753450D01*
X111667857Y-68753450D02*
X111667857Y-68574878D01*
X111667857Y-68574878D02*
X111703571Y-68432021D01*
X111703571Y-68432021D02*
X111739285Y-68360592D01*
X111739285Y-68360592D02*
X111775000Y-68324878D01*
X111775000Y-68324878D02*
X111846428Y-68289164D01*
X99764999Y-101307735D02*
X99729285Y-101343450D01*
X99729285Y-101343450D02*
X99622142Y-101379164D01*
X99622142Y-101379164D02*
X99550714Y-101379164D01*
X99550714Y-101379164D02*
X99443571Y-101343450D01*
X99443571Y-101343450D02*
X99372142Y-101272021D01*
X99372142Y-101272021D02*
X99336428Y-101200592D01*
X99336428Y-101200592D02*
X99300714Y-101057735D01*
X99300714Y-101057735D02*
X99300714Y-100950592D01*
X99300714Y-100950592D02*
X99336428Y-100807735D01*
X99336428Y-100807735D02*
X99372142Y-100736307D01*
X99372142Y-100736307D02*
X99443571Y-100664878D01*
X99443571Y-100664878D02*
X99550714Y-100629164D01*
X99550714Y-100629164D02*
X99622142Y-100629164D01*
X99622142Y-100629164D02*
X99729285Y-100664878D01*
X99729285Y-100664878D02*
X99764999Y-100700592D01*
X100193571Y-100950592D02*
X100122142Y-100914878D01*
X100122142Y-100914878D02*
X100086428Y-100879164D01*
X100086428Y-100879164D02*
X100050714Y-100807735D01*
X100050714Y-100807735D02*
X100050714Y-100772021D01*
X100050714Y-100772021D02*
X100086428Y-100700592D01*
X100086428Y-100700592D02*
X100122142Y-100664878D01*
X100122142Y-100664878D02*
X100193571Y-100629164D01*
X100193571Y-100629164D02*
X100336428Y-100629164D01*
X100336428Y-100629164D02*
X100407857Y-100664878D01*
X100407857Y-100664878D02*
X100443571Y-100700592D01*
X100443571Y-100700592D02*
X100479285Y-100772021D01*
X100479285Y-100772021D02*
X100479285Y-100807735D01*
X100479285Y-100807735D02*
X100443571Y-100879164D01*
X100443571Y-100879164D02*
X100407857Y-100914878D01*
X100407857Y-100914878D02*
X100336428Y-100950592D01*
X100336428Y-100950592D02*
X100193571Y-100950592D01*
X100193571Y-100950592D02*
X100122142Y-100986307D01*
X100122142Y-100986307D02*
X100086428Y-101022021D01*
X100086428Y-101022021D02*
X100050714Y-101093450D01*
X100050714Y-101093450D02*
X100050714Y-101236307D01*
X100050714Y-101236307D02*
X100086428Y-101307735D01*
X100086428Y-101307735D02*
X100122142Y-101343450D01*
X100122142Y-101343450D02*
X100193571Y-101379164D01*
X100193571Y-101379164D02*
X100336428Y-101379164D01*
X100336428Y-101379164D02*
X100407857Y-101343450D01*
X100407857Y-101343450D02*
X100443571Y-101307735D01*
X100443571Y-101307735D02*
X100479285Y-101236307D01*
X100479285Y-101236307D02*
X100479285Y-101093450D01*
X100479285Y-101093450D02*
X100443571Y-101022021D01*
X100443571Y-101022021D02*
X100407857Y-100986307D01*
X100407857Y-100986307D02*
X100336428Y-100950592D01*
D14*
X103077112Y-82659453D02*
X103077112Y-81909453D01*
X103862826Y-82588024D02*
X103827112Y-82623739D01*
X103827112Y-82623739D02*
X103719969Y-82659453D01*
X103719969Y-82659453D02*
X103648541Y-82659453D01*
X103648541Y-82659453D02*
X103541398Y-82623739D01*
X103541398Y-82623739D02*
X103469969Y-82552310D01*
X103469969Y-82552310D02*
X103434255Y-82480881D01*
X103434255Y-82480881D02*
X103398541Y-82338024D01*
X103398541Y-82338024D02*
X103398541Y-82230881D01*
X103398541Y-82230881D02*
X103434255Y-82088024D01*
X103434255Y-82088024D02*
X103469969Y-82016596D01*
X103469969Y-82016596D02*
X103541398Y-81945167D01*
X103541398Y-81945167D02*
X103648541Y-81909453D01*
X103648541Y-81909453D02*
X103719969Y-81909453D01*
X103719969Y-81909453D02*
X103827112Y-81945167D01*
X103827112Y-81945167D02*
X103862826Y-81980881D01*
X104112826Y-81909453D02*
X104577112Y-81909453D01*
X104577112Y-81909453D02*
X104327112Y-82195167D01*
X104327112Y-82195167D02*
X104434255Y-82195167D01*
X104434255Y-82195167D02*
X104505684Y-82230881D01*
X104505684Y-82230881D02*
X104541398Y-82266596D01*
X104541398Y-82266596D02*
X104577112Y-82338024D01*
X104577112Y-82338024D02*
X104577112Y-82516596D01*
X104577112Y-82516596D02*
X104541398Y-82588024D01*
X104541398Y-82588024D02*
X104505684Y-82623739D01*
X104505684Y-82623739D02*
X104434255Y-82659453D01*
X104434255Y-82659453D02*
X104219969Y-82659453D01*
X104219969Y-82659453D02*
X104148541Y-82623739D01*
X104148541Y-82623739D02*
X104112826Y-82588024D01*
D13*
X128334418Y-79072289D02*
X129362513Y-79072289D01*
X129362513Y-79072289D02*
X129483465Y-79011812D01*
X129483465Y-79011812D02*
X129543942Y-78951336D01*
X129543942Y-78951336D02*
X129604418Y-78830384D01*
X129604418Y-78830384D02*
X129604418Y-78588479D01*
X129604418Y-78588479D02*
X129543942Y-78467527D01*
X129543942Y-78467527D02*
X129483465Y-78407050D01*
X129483465Y-78407050D02*
X129362513Y-78346574D01*
X129362513Y-78346574D02*
X128334418Y-78346574D01*
X128455370Y-77802289D02*
X128394894Y-77741813D01*
X128394894Y-77741813D02*
X128334418Y-77620860D01*
X128334418Y-77620860D02*
X128334418Y-77318479D01*
X128334418Y-77318479D02*
X128394894Y-77197527D01*
X128394894Y-77197527D02*
X128455370Y-77137051D01*
X128455370Y-77137051D02*
X128576322Y-77076574D01*
X128576322Y-77076574D02*
X128697275Y-77076574D01*
X128697275Y-77076574D02*
X128878703Y-77137051D01*
X128878703Y-77137051D02*
X129604418Y-77862765D01*
X129604418Y-77862765D02*
X129604418Y-77076574D01*
D11*
X90939164Y-96882143D02*
X90582021Y-97132143D01*
X90939164Y-97310714D02*
X90189164Y-97310714D01*
X90189164Y-97310714D02*
X90189164Y-97025000D01*
X90189164Y-97025000D02*
X90224878Y-96953571D01*
X90224878Y-96953571D02*
X90260592Y-96917857D01*
X90260592Y-96917857D02*
X90332021Y-96882143D01*
X90332021Y-96882143D02*
X90439164Y-96882143D01*
X90439164Y-96882143D02*
X90510592Y-96917857D01*
X90510592Y-96917857D02*
X90546307Y-96953571D01*
X90546307Y-96953571D02*
X90582021Y-97025000D01*
X90582021Y-97025000D02*
X90582021Y-97310714D01*
X90939164Y-96167857D02*
X90939164Y-96596428D01*
X90939164Y-96382143D02*
X90189164Y-96382143D01*
X90189164Y-96382143D02*
X90296307Y-96453571D01*
X90296307Y-96453571D02*
X90367735Y-96525000D01*
X90367735Y-96525000D02*
X90403450Y-96596428D01*
X90939164Y-95453571D02*
X90939164Y-95882142D01*
X90939164Y-95667857D02*
X90189164Y-95667857D01*
X90189164Y-95667857D02*
X90296307Y-95739285D01*
X90296307Y-95739285D02*
X90367735Y-95810714D01*
X90367735Y-95810714D02*
X90403450Y-95882142D01*
X94274999Y-94067735D02*
X94239285Y-94103450D01*
X94239285Y-94103450D02*
X94132142Y-94139164D01*
X94132142Y-94139164D02*
X94060714Y-94139164D01*
X94060714Y-94139164D02*
X93953571Y-94103450D01*
X93953571Y-94103450D02*
X93882142Y-94032021D01*
X93882142Y-94032021D02*
X93846428Y-93960592D01*
X93846428Y-93960592D02*
X93810714Y-93817735D01*
X93810714Y-93817735D02*
X93810714Y-93710592D01*
X93810714Y-93710592D02*
X93846428Y-93567735D01*
X93846428Y-93567735D02*
X93882142Y-93496307D01*
X93882142Y-93496307D02*
X93953571Y-93424878D01*
X93953571Y-93424878D02*
X94060714Y-93389164D01*
X94060714Y-93389164D02*
X94132142Y-93389164D01*
X94132142Y-93389164D02*
X94239285Y-93424878D01*
X94239285Y-93424878D02*
X94274999Y-93460592D01*
X94917857Y-93389164D02*
X94774999Y-93389164D01*
X94774999Y-93389164D02*
X94703571Y-93424878D01*
X94703571Y-93424878D02*
X94667857Y-93460592D01*
X94667857Y-93460592D02*
X94596428Y-93567735D01*
X94596428Y-93567735D02*
X94560714Y-93710592D01*
X94560714Y-93710592D02*
X94560714Y-93996307D01*
X94560714Y-93996307D02*
X94596428Y-94067735D01*
X94596428Y-94067735D02*
X94632142Y-94103450D01*
X94632142Y-94103450D02*
X94703571Y-94139164D01*
X94703571Y-94139164D02*
X94846428Y-94139164D01*
X94846428Y-94139164D02*
X94917857Y-94103450D01*
X94917857Y-94103450D02*
X94953571Y-94067735D01*
X94953571Y-94067735D02*
X94989285Y-93996307D01*
X94989285Y-93996307D02*
X94989285Y-93817735D01*
X94989285Y-93817735D02*
X94953571Y-93746307D01*
X94953571Y-93746307D02*
X94917857Y-93710592D01*
X94917857Y-93710592D02*
X94846428Y-93674878D01*
X94846428Y-93674878D02*
X94703571Y-93674878D01*
X94703571Y-93674878D02*
X94632142Y-93710592D01*
X94632142Y-93710592D02*
X94596428Y-93746307D01*
X94596428Y-93746307D02*
X94560714Y-93817735D01*
X93667735Y-83882143D02*
X93703450Y-83917857D01*
X93703450Y-83917857D02*
X93739164Y-84025000D01*
X93739164Y-84025000D02*
X93739164Y-84096428D01*
X93739164Y-84096428D02*
X93703450Y-84203571D01*
X93703450Y-84203571D02*
X93632021Y-84275000D01*
X93632021Y-84275000D02*
X93560592Y-84310714D01*
X93560592Y-84310714D02*
X93417735Y-84346428D01*
X93417735Y-84346428D02*
X93310592Y-84346428D01*
X93310592Y-84346428D02*
X93167735Y-84310714D01*
X93167735Y-84310714D02*
X93096307Y-84275000D01*
X93096307Y-84275000D02*
X93024878Y-84203571D01*
X93024878Y-84203571D02*
X92989164Y-84096428D01*
X92989164Y-84096428D02*
X92989164Y-84025000D01*
X92989164Y-84025000D02*
X93024878Y-83917857D01*
X93024878Y-83917857D02*
X93060592Y-83882143D01*
X93739164Y-83167857D02*
X93739164Y-83596428D01*
X93739164Y-83382143D02*
X92989164Y-83382143D01*
X92989164Y-83382143D02*
X93096307Y-83453571D01*
X93096307Y-83453571D02*
X93167735Y-83525000D01*
X93167735Y-83525000D02*
X93203450Y-83596428D01*
X92989164Y-82525000D02*
X92989164Y-82667857D01*
X92989164Y-82667857D02*
X93024878Y-82739285D01*
X93024878Y-82739285D02*
X93060592Y-82775000D01*
X93060592Y-82775000D02*
X93167735Y-82846428D01*
X93167735Y-82846428D02*
X93310592Y-82882142D01*
X93310592Y-82882142D02*
X93596307Y-82882142D01*
X93596307Y-82882142D02*
X93667735Y-82846428D01*
X93667735Y-82846428D02*
X93703450Y-82810714D01*
X93703450Y-82810714D02*
X93739164Y-82739285D01*
X93739164Y-82739285D02*
X93739164Y-82596428D01*
X93739164Y-82596428D02*
X93703450Y-82525000D01*
X93703450Y-82525000D02*
X93667735Y-82489285D01*
X93667735Y-82489285D02*
X93596307Y-82453571D01*
X93596307Y-82453571D02*
X93417735Y-82453571D01*
X93417735Y-82453571D02*
X93346307Y-82489285D01*
X93346307Y-82489285D02*
X93310592Y-82525000D01*
X93310592Y-82525000D02*
X93274878Y-82596428D01*
X93274878Y-82596428D02*
X93274878Y-82739285D01*
X93274878Y-82739285D02*
X93310592Y-82810714D01*
X93310592Y-82810714D02*
X93346307Y-82846428D01*
X93346307Y-82846428D02*
X93417735Y-82882142D01*
D12*
X79451966Y-72900000D02*
X79485300Y-72933333D01*
X79485300Y-72933333D02*
X79518633Y-73033333D01*
X79518633Y-73033333D02*
X79518633Y-73100000D01*
X79518633Y-73100000D02*
X79485300Y-73200000D01*
X79485300Y-73200000D02*
X79418633Y-73266667D01*
X79418633Y-73266667D02*
X79351966Y-73300000D01*
X79351966Y-73300000D02*
X79218633Y-73333333D01*
X79218633Y-73333333D02*
X79118633Y-73333333D01*
X79118633Y-73333333D02*
X78985300Y-73300000D01*
X78985300Y-73300000D02*
X78918633Y-73266667D01*
X78918633Y-73266667D02*
X78851966Y-73200000D01*
X78851966Y-73200000D02*
X78818633Y-73100000D01*
X78818633Y-73100000D02*
X78818633Y-73033333D01*
X78818633Y-73033333D02*
X78851966Y-72933333D01*
X78851966Y-72933333D02*
X78885300Y-72900000D01*
X78818633Y-72666667D02*
X78818633Y-72233333D01*
X78818633Y-72233333D02*
X79085300Y-72466667D01*
X79085300Y-72466667D02*
X79085300Y-72366667D01*
X79085300Y-72366667D02*
X79118633Y-72300000D01*
X79118633Y-72300000D02*
X79151966Y-72266667D01*
X79151966Y-72266667D02*
X79218633Y-72233333D01*
X79218633Y-72233333D02*
X79385300Y-72233333D01*
X79385300Y-72233333D02*
X79451966Y-72266667D01*
X79451966Y-72266667D02*
X79485300Y-72300000D01*
X79485300Y-72300000D02*
X79518633Y-72366667D01*
X79518633Y-72366667D02*
X79518633Y-72566667D01*
X79518633Y-72566667D02*
X79485300Y-72633333D01*
X79485300Y-72633333D02*
X79451966Y-72666667D01*
X78818633Y-71600000D02*
X78818633Y-71933333D01*
X78818633Y-71933333D02*
X79151966Y-71966666D01*
X79151966Y-71966666D02*
X79118633Y-71933333D01*
X79118633Y-71933333D02*
X79085300Y-71866666D01*
X79085300Y-71866666D02*
X79085300Y-71700000D01*
X79085300Y-71700000D02*
X79118633Y-71633333D01*
X79118633Y-71633333D02*
X79151966Y-71600000D01*
X79151966Y-71600000D02*
X79218633Y-71566666D01*
X79218633Y-71566666D02*
X79385300Y-71566666D01*
X79385300Y-71566666D02*
X79451966Y-71600000D01*
X79451966Y-71600000D02*
X79485300Y-71633333D01*
X79485300Y-71633333D02*
X79518633Y-71700000D01*
X79518633Y-71700000D02*
X79518633Y-71866666D01*
X79518633Y-71866666D02*
X79485300Y-71933333D01*
X79485300Y-71933333D02*
X79451966Y-71966666D01*
D11*
X63820121Y-51607614D02*
X63820121Y-52321899D01*
X63820121Y-52321899D02*
X63772502Y-52464756D01*
X63772502Y-52464756D02*
X63677264Y-52559995D01*
X63677264Y-52559995D02*
X63534407Y-52607614D01*
X63534407Y-52607614D02*
X63439169Y-52607614D01*
X64724883Y-51940947D02*
X64724883Y-52607614D01*
X64486788Y-51559995D02*
X64248693Y-52274280D01*
X64248693Y-52274280D02*
X64867740Y-52274280D01*
X97474999Y-101317735D02*
X97439285Y-101353450D01*
X97439285Y-101353450D02*
X97332142Y-101389164D01*
X97332142Y-101389164D02*
X97260714Y-101389164D01*
X97260714Y-101389164D02*
X97153571Y-101353450D01*
X97153571Y-101353450D02*
X97082142Y-101282021D01*
X97082142Y-101282021D02*
X97046428Y-101210592D01*
X97046428Y-101210592D02*
X97010714Y-101067735D01*
X97010714Y-101067735D02*
X97010714Y-100960592D01*
X97010714Y-100960592D02*
X97046428Y-100817735D01*
X97046428Y-100817735D02*
X97082142Y-100746307D01*
X97082142Y-100746307D02*
X97153571Y-100674878D01*
X97153571Y-100674878D02*
X97260714Y-100639164D01*
X97260714Y-100639164D02*
X97332142Y-100639164D01*
X97332142Y-100639164D02*
X97439285Y-100674878D01*
X97439285Y-100674878D02*
X97474999Y-100710592D01*
X97832142Y-101389164D02*
X97974999Y-101389164D01*
X97974999Y-101389164D02*
X98046428Y-101353450D01*
X98046428Y-101353450D02*
X98082142Y-101317735D01*
X98082142Y-101317735D02*
X98153571Y-101210592D01*
X98153571Y-101210592D02*
X98189285Y-101067735D01*
X98189285Y-101067735D02*
X98189285Y-100782021D01*
X98189285Y-100782021D02*
X98153571Y-100710592D01*
X98153571Y-100710592D02*
X98117857Y-100674878D01*
X98117857Y-100674878D02*
X98046428Y-100639164D01*
X98046428Y-100639164D02*
X97903571Y-100639164D01*
X97903571Y-100639164D02*
X97832142Y-100674878D01*
X97832142Y-100674878D02*
X97796428Y-100710592D01*
X97796428Y-100710592D02*
X97760714Y-100782021D01*
X97760714Y-100782021D02*
X97760714Y-100960592D01*
X97760714Y-100960592D02*
X97796428Y-101032021D01*
X97796428Y-101032021D02*
X97832142Y-101067735D01*
X97832142Y-101067735D02*
X97903571Y-101103450D01*
X97903571Y-101103450D02*
X98046428Y-101103450D01*
X98046428Y-101103450D02*
X98117857Y-101067735D01*
X98117857Y-101067735D02*
X98153571Y-101032021D01*
X98153571Y-101032021D02*
X98189285Y-100960592D01*
D13*
X91457856Y-55724318D02*
X91457856Y-54454318D01*
X91457856Y-54454318D02*
X91760237Y-54454318D01*
X91760237Y-54454318D02*
X91941666Y-54514794D01*
X91941666Y-54514794D02*
X92062618Y-54635746D01*
X92062618Y-54635746D02*
X92123095Y-54756699D01*
X92123095Y-54756699D02*
X92183571Y-54998603D01*
X92183571Y-54998603D02*
X92183571Y-55180032D01*
X92183571Y-55180032D02*
X92123095Y-55421937D01*
X92123095Y-55421937D02*
X92062618Y-55542889D01*
X92062618Y-55542889D02*
X91941666Y-55663842D01*
X91941666Y-55663842D02*
X91760237Y-55724318D01*
X91760237Y-55724318D02*
X91457856Y-55724318D01*
X92667380Y-55663842D02*
X92848809Y-55724318D01*
X92848809Y-55724318D02*
X93151190Y-55724318D01*
X93151190Y-55724318D02*
X93272142Y-55663842D01*
X93272142Y-55663842D02*
X93332618Y-55603365D01*
X93332618Y-55603365D02*
X93393095Y-55482413D01*
X93393095Y-55482413D02*
X93393095Y-55361461D01*
X93393095Y-55361461D02*
X93332618Y-55240508D01*
X93332618Y-55240508D02*
X93272142Y-55180032D01*
X93272142Y-55180032D02*
X93151190Y-55119556D01*
X93151190Y-55119556D02*
X92909285Y-55059080D01*
X92909285Y-55059080D02*
X92788333Y-54998603D01*
X92788333Y-54998603D02*
X92727856Y-54938127D01*
X92727856Y-54938127D02*
X92667380Y-54817175D01*
X92667380Y-54817175D02*
X92667380Y-54696222D01*
X92667380Y-54696222D02*
X92727856Y-54575270D01*
X92727856Y-54575270D02*
X92788333Y-54514794D01*
X92788333Y-54514794D02*
X92909285Y-54454318D01*
X92909285Y-54454318D02*
X93211666Y-54454318D01*
X93211666Y-54454318D02*
X93393095Y-54514794D01*
X94602619Y-55724318D02*
X93876904Y-55724318D01*
X94239761Y-55724318D02*
X94239761Y-54454318D01*
X94239761Y-54454318D02*
X94118809Y-54635746D01*
X94118809Y-54635746D02*
X93997857Y-54756699D01*
X93997857Y-54756699D02*
X93876904Y-54817175D01*
D12*
X77582663Y-73400000D02*
X77615997Y-73433333D01*
X77615997Y-73433333D02*
X77649330Y-73533333D01*
X77649330Y-73533333D02*
X77649330Y-73600000D01*
X77649330Y-73600000D02*
X77615997Y-73700000D01*
X77615997Y-73700000D02*
X77549330Y-73766667D01*
X77549330Y-73766667D02*
X77482663Y-73800000D01*
X77482663Y-73800000D02*
X77349330Y-73833333D01*
X77349330Y-73833333D02*
X77249330Y-73833333D01*
X77249330Y-73833333D02*
X77115997Y-73800000D01*
X77115997Y-73800000D02*
X77049330Y-73766667D01*
X77049330Y-73766667D02*
X76982663Y-73700000D01*
X76982663Y-73700000D02*
X76949330Y-73600000D01*
X76949330Y-73600000D02*
X76949330Y-73533333D01*
X76949330Y-73533333D02*
X76982663Y-73433333D01*
X76982663Y-73433333D02*
X77015997Y-73400000D01*
X77015997Y-73133333D02*
X76982663Y-73100000D01*
X76982663Y-73100000D02*
X76949330Y-73033333D01*
X76949330Y-73033333D02*
X76949330Y-72866667D01*
X76949330Y-72866667D02*
X76982663Y-72800000D01*
X76982663Y-72800000D02*
X77015997Y-72766667D01*
X77015997Y-72766667D02*
X77082663Y-72733333D01*
X77082663Y-72733333D02*
X77149330Y-72733333D01*
X77149330Y-72733333D02*
X77249330Y-72766667D01*
X77249330Y-72766667D02*
X77649330Y-73166667D01*
X77649330Y-73166667D02*
X77649330Y-72733333D01*
X77182663Y-72133333D02*
X77649330Y-72133333D01*
X76915997Y-72300000D02*
X77415997Y-72466666D01*
X77415997Y-72466666D02*
X77415997Y-72033333D01*
D11*
X107367735Y-101482143D02*
X107403450Y-101517857D01*
X107403450Y-101517857D02*
X107439164Y-101625000D01*
X107439164Y-101625000D02*
X107439164Y-101696428D01*
X107439164Y-101696428D02*
X107403450Y-101803571D01*
X107403450Y-101803571D02*
X107332021Y-101875000D01*
X107332021Y-101875000D02*
X107260592Y-101910714D01*
X107260592Y-101910714D02*
X107117735Y-101946428D01*
X107117735Y-101946428D02*
X107010592Y-101946428D01*
X107010592Y-101946428D02*
X106867735Y-101910714D01*
X106867735Y-101910714D02*
X106796307Y-101875000D01*
X106796307Y-101875000D02*
X106724878Y-101803571D01*
X106724878Y-101803571D02*
X106689164Y-101696428D01*
X106689164Y-101696428D02*
X106689164Y-101625000D01*
X106689164Y-101625000D02*
X106724878Y-101517857D01*
X106724878Y-101517857D02*
X106760592Y-101482143D01*
X107439164Y-100767857D02*
X107439164Y-101196428D01*
X107439164Y-100982143D02*
X106689164Y-100982143D01*
X106689164Y-100982143D02*
X106796307Y-101053571D01*
X106796307Y-101053571D02*
X106867735Y-101125000D01*
X106867735Y-101125000D02*
X106903450Y-101196428D01*
X106689164Y-100517857D02*
X106689164Y-100053571D01*
X106689164Y-100053571D02*
X106974878Y-100303571D01*
X106974878Y-100303571D02*
X106974878Y-100196428D01*
X106974878Y-100196428D02*
X107010592Y-100125000D01*
X107010592Y-100125000D02*
X107046307Y-100089285D01*
X107046307Y-100089285D02*
X107117735Y-100053571D01*
X107117735Y-100053571D02*
X107296307Y-100053571D01*
X107296307Y-100053571D02*
X107367735Y-100089285D01*
X107367735Y-100089285D02*
X107403450Y-100125000D01*
X107403450Y-100125000D02*
X107439164Y-100196428D01*
X107439164Y-100196428D02*
X107439164Y-100410714D01*
X107439164Y-100410714D02*
X107403450Y-100482142D01*
X107403450Y-100482142D02*
X107367735Y-100517857D01*
X106809360Y-109716238D02*
X106845075Y-109751952D01*
X106845075Y-109751952D02*
X106880789Y-109859095D01*
X106880789Y-109859095D02*
X106880789Y-109930523D01*
X106880789Y-109930523D02*
X106845075Y-110037666D01*
X106845075Y-110037666D02*
X106773646Y-110109095D01*
X106773646Y-110109095D02*
X106702217Y-110144809D01*
X106702217Y-110144809D02*
X106559360Y-110180523D01*
X106559360Y-110180523D02*
X106452217Y-110180523D01*
X106452217Y-110180523D02*
X106309360Y-110144809D01*
X106309360Y-110144809D02*
X106237932Y-110109095D01*
X106237932Y-110109095D02*
X106166503Y-110037666D01*
X106166503Y-110037666D02*
X106130789Y-109930523D01*
X106130789Y-109930523D02*
X106130789Y-109859095D01*
X106130789Y-109859095D02*
X106166503Y-109751952D01*
X106166503Y-109751952D02*
X106202217Y-109716238D01*
X106880789Y-109001952D02*
X106880789Y-109430523D01*
X106880789Y-109216238D02*
X106130789Y-109216238D01*
X106130789Y-109216238D02*
X106237932Y-109287666D01*
X106237932Y-109287666D02*
X106309360Y-109359095D01*
X106309360Y-109359095D02*
X106345075Y-109430523D01*
X106880789Y-108287666D02*
X106880789Y-108716237D01*
X106880789Y-108501952D02*
X106130789Y-108501952D01*
X106130789Y-108501952D02*
X106237932Y-108573380D01*
X106237932Y-108573380D02*
X106309360Y-108644809D01*
X106309360Y-108644809D02*
X106345075Y-108716237D01*
D12*
X86001966Y-72850000D02*
X86035300Y-72883333D01*
X86035300Y-72883333D02*
X86068633Y-72983333D01*
X86068633Y-72983333D02*
X86068633Y-73050000D01*
X86068633Y-73050000D02*
X86035300Y-73150000D01*
X86035300Y-73150000D02*
X85968633Y-73216667D01*
X85968633Y-73216667D02*
X85901966Y-73250000D01*
X85901966Y-73250000D02*
X85768633Y-73283333D01*
X85768633Y-73283333D02*
X85668633Y-73283333D01*
X85668633Y-73283333D02*
X85535300Y-73250000D01*
X85535300Y-73250000D02*
X85468633Y-73216667D01*
X85468633Y-73216667D02*
X85401966Y-73150000D01*
X85401966Y-73150000D02*
X85368633Y-73050000D01*
X85368633Y-73050000D02*
X85368633Y-72983333D01*
X85368633Y-72983333D02*
X85401966Y-72883333D01*
X85401966Y-72883333D02*
X85435300Y-72850000D01*
X85368633Y-72616667D02*
X85368633Y-72183333D01*
X85368633Y-72183333D02*
X85635300Y-72416667D01*
X85635300Y-72416667D02*
X85635300Y-72316667D01*
X85635300Y-72316667D02*
X85668633Y-72250000D01*
X85668633Y-72250000D02*
X85701966Y-72216667D01*
X85701966Y-72216667D02*
X85768633Y-72183333D01*
X85768633Y-72183333D02*
X85935300Y-72183333D01*
X85935300Y-72183333D02*
X86001966Y-72216667D01*
X86001966Y-72216667D02*
X86035300Y-72250000D01*
X86035300Y-72250000D02*
X86068633Y-72316667D01*
X86068633Y-72316667D02*
X86068633Y-72516667D01*
X86068633Y-72516667D02*
X86035300Y-72583333D01*
X86035300Y-72583333D02*
X86001966Y-72616667D01*
X86068633Y-71516666D02*
X86068633Y-71916666D01*
X86068633Y-71716666D02*
X85368633Y-71716666D01*
X85368633Y-71716666D02*
X85468633Y-71783333D01*
X85468633Y-71783333D02*
X85535300Y-71850000D01*
X85535300Y-71850000D02*
X85568633Y-71916666D01*
D11*
X112258505Y-101582143D02*
X112294220Y-101617857D01*
X112294220Y-101617857D02*
X112329934Y-101725000D01*
X112329934Y-101725000D02*
X112329934Y-101796428D01*
X112329934Y-101796428D02*
X112294220Y-101903571D01*
X112294220Y-101903571D02*
X112222791Y-101975000D01*
X112222791Y-101975000D02*
X112151362Y-102010714D01*
X112151362Y-102010714D02*
X112008505Y-102046428D01*
X112008505Y-102046428D02*
X111901362Y-102046428D01*
X111901362Y-102046428D02*
X111758505Y-102010714D01*
X111758505Y-102010714D02*
X111687077Y-101975000D01*
X111687077Y-101975000D02*
X111615648Y-101903571D01*
X111615648Y-101903571D02*
X111579934Y-101796428D01*
X111579934Y-101796428D02*
X111579934Y-101725000D01*
X111579934Y-101725000D02*
X111615648Y-101617857D01*
X111615648Y-101617857D02*
X111651362Y-101582143D01*
X111651362Y-101296428D02*
X111615648Y-101260714D01*
X111615648Y-101260714D02*
X111579934Y-101189286D01*
X111579934Y-101189286D02*
X111579934Y-101010714D01*
X111579934Y-101010714D02*
X111615648Y-100939286D01*
X111615648Y-100939286D02*
X111651362Y-100903571D01*
X111651362Y-100903571D02*
X111722791Y-100867857D01*
X111722791Y-100867857D02*
X111794220Y-100867857D01*
X111794220Y-100867857D02*
X111901362Y-100903571D01*
X111901362Y-100903571D02*
X112329934Y-101332143D01*
X112329934Y-101332143D02*
X112329934Y-100867857D01*
X111651362Y-100582142D02*
X111615648Y-100546428D01*
X111615648Y-100546428D02*
X111579934Y-100475000D01*
X111579934Y-100475000D02*
X111579934Y-100296428D01*
X111579934Y-100296428D02*
X111615648Y-100225000D01*
X111615648Y-100225000D02*
X111651362Y-100189285D01*
X111651362Y-100189285D02*
X111722791Y-100153571D01*
X111722791Y-100153571D02*
X111794220Y-100153571D01*
X111794220Y-100153571D02*
X111901362Y-100189285D01*
X111901362Y-100189285D02*
X112329934Y-100617857D01*
X112329934Y-100617857D02*
X112329934Y-100153571D01*
X98494264Y-87503326D02*
X98137121Y-87753326D01*
X98494264Y-87931897D02*
X97744264Y-87931897D01*
X97744264Y-87931897D02*
X97744264Y-87646183D01*
X97744264Y-87646183D02*
X97779978Y-87574754D01*
X97779978Y-87574754D02*
X97815692Y-87539040D01*
X97815692Y-87539040D02*
X97887121Y-87503326D01*
X97887121Y-87503326D02*
X97994264Y-87503326D01*
X97994264Y-87503326D02*
X98065692Y-87539040D01*
X98065692Y-87539040D02*
X98101407Y-87574754D01*
X98101407Y-87574754D02*
X98137121Y-87646183D01*
X98137121Y-87646183D02*
X98137121Y-87931897D01*
X97815692Y-87217611D02*
X97779978Y-87181897D01*
X97779978Y-87181897D02*
X97744264Y-87110469D01*
X97744264Y-87110469D02*
X97744264Y-86931897D01*
X97744264Y-86931897D02*
X97779978Y-86860469D01*
X97779978Y-86860469D02*
X97815692Y-86824754D01*
X97815692Y-86824754D02*
X97887121Y-86789040D01*
X97887121Y-86789040D02*
X97958550Y-86789040D01*
X97958550Y-86789040D02*
X98065692Y-86824754D01*
X98065692Y-86824754D02*
X98494264Y-87253326D01*
X98494264Y-87253326D02*
X98494264Y-86789040D01*
D14*
X104205338Y-90391871D02*
X104205338Y-89891871D01*
X104205338Y-89891871D02*
X104955338Y-90391871D01*
X104955338Y-90391871D02*
X104955338Y-89891871D01*
X104955338Y-89213299D02*
X104955338Y-89641870D01*
X104955338Y-89427585D02*
X104205338Y-89427585D01*
X104205338Y-89427585D02*
X104312481Y-89499013D01*
X104312481Y-89499013D02*
X104383909Y-89570442D01*
X104383909Y-89570442D02*
X104419624Y-89641870D01*
D11*
X101274224Y-107687794D02*
X101238510Y-107723509D01*
X101238510Y-107723509D02*
X101131367Y-107759223D01*
X101131367Y-107759223D02*
X101059939Y-107759223D01*
X101059939Y-107759223D02*
X100952796Y-107723509D01*
X100952796Y-107723509D02*
X100881367Y-107652080D01*
X100881367Y-107652080D02*
X100845653Y-107580651D01*
X100845653Y-107580651D02*
X100809939Y-107437794D01*
X100809939Y-107437794D02*
X100809939Y-107330651D01*
X100809939Y-107330651D02*
X100845653Y-107187794D01*
X100845653Y-107187794D02*
X100881367Y-107116366D01*
X100881367Y-107116366D02*
X100952796Y-107044937D01*
X100952796Y-107044937D02*
X101059939Y-107009223D01*
X101059939Y-107009223D02*
X101131367Y-107009223D01*
X101131367Y-107009223D02*
X101238510Y-107044937D01*
X101238510Y-107044937D02*
X101274224Y-107080651D01*
X101988510Y-107759223D02*
X101559939Y-107759223D01*
X101774224Y-107759223D02*
X101774224Y-107009223D01*
X101774224Y-107009223D02*
X101702796Y-107116366D01*
X101702796Y-107116366D02*
X101631367Y-107187794D01*
X101631367Y-107187794D02*
X101559939Y-107223509D01*
X97667735Y-69782143D02*
X97703450Y-69817857D01*
X97703450Y-69817857D02*
X97739164Y-69925000D01*
X97739164Y-69925000D02*
X97739164Y-69996428D01*
X97739164Y-69996428D02*
X97703450Y-70103571D01*
X97703450Y-70103571D02*
X97632021Y-70175000D01*
X97632021Y-70175000D02*
X97560592Y-70210714D01*
X97560592Y-70210714D02*
X97417735Y-70246428D01*
X97417735Y-70246428D02*
X97310592Y-70246428D01*
X97310592Y-70246428D02*
X97167735Y-70210714D01*
X97167735Y-70210714D02*
X97096307Y-70175000D01*
X97096307Y-70175000D02*
X97024878Y-70103571D01*
X97024878Y-70103571D02*
X96989164Y-69996428D01*
X96989164Y-69996428D02*
X96989164Y-69925000D01*
X96989164Y-69925000D02*
X97024878Y-69817857D01*
X97024878Y-69817857D02*
X97060592Y-69782143D01*
X96989164Y-69532143D02*
X96989164Y-69067857D01*
X96989164Y-69067857D02*
X97274878Y-69317857D01*
X97274878Y-69317857D02*
X97274878Y-69210714D01*
X97274878Y-69210714D02*
X97310592Y-69139286D01*
X97310592Y-69139286D02*
X97346307Y-69103571D01*
X97346307Y-69103571D02*
X97417735Y-69067857D01*
X97417735Y-69067857D02*
X97596307Y-69067857D01*
X97596307Y-69067857D02*
X97667735Y-69103571D01*
X97667735Y-69103571D02*
X97703450Y-69139286D01*
X97703450Y-69139286D02*
X97739164Y-69210714D01*
X97739164Y-69210714D02*
X97739164Y-69425000D01*
X97739164Y-69425000D02*
X97703450Y-69496428D01*
X97703450Y-69496428D02*
X97667735Y-69532143D01*
X96989164Y-68603571D02*
X96989164Y-68532142D01*
X96989164Y-68532142D02*
X97024878Y-68460714D01*
X97024878Y-68460714D02*
X97060592Y-68425000D01*
X97060592Y-68425000D02*
X97132021Y-68389285D01*
X97132021Y-68389285D02*
X97274878Y-68353571D01*
X97274878Y-68353571D02*
X97453450Y-68353571D01*
X97453450Y-68353571D02*
X97596307Y-68389285D01*
X97596307Y-68389285D02*
X97667735Y-68425000D01*
X97667735Y-68425000D02*
X97703450Y-68460714D01*
X97703450Y-68460714D02*
X97739164Y-68532142D01*
X97739164Y-68532142D02*
X97739164Y-68603571D01*
X97739164Y-68603571D02*
X97703450Y-68675000D01*
X97703450Y-68675000D02*
X97667735Y-68710714D01*
X97667735Y-68710714D02*
X97596307Y-68746428D01*
X97596307Y-68746428D02*
X97453450Y-68782142D01*
X97453450Y-68782142D02*
X97274878Y-68782142D01*
X97274878Y-68782142D02*
X97132021Y-68746428D01*
X97132021Y-68746428D02*
X97060592Y-68710714D01*
X97060592Y-68710714D02*
X97024878Y-68675000D01*
X97024878Y-68675000D02*
X96989164Y-68603571D01*
X86574999Y-98067735D02*
X86539285Y-98103450D01*
X86539285Y-98103450D02*
X86432142Y-98139164D01*
X86432142Y-98139164D02*
X86360714Y-98139164D01*
X86360714Y-98139164D02*
X86253571Y-98103450D01*
X86253571Y-98103450D02*
X86182142Y-98032021D01*
X86182142Y-98032021D02*
X86146428Y-97960592D01*
X86146428Y-97960592D02*
X86110714Y-97817735D01*
X86110714Y-97817735D02*
X86110714Y-97710592D01*
X86110714Y-97710592D02*
X86146428Y-97567735D01*
X86146428Y-97567735D02*
X86182142Y-97496307D01*
X86182142Y-97496307D02*
X86253571Y-97424878D01*
X86253571Y-97424878D02*
X86360714Y-97389164D01*
X86360714Y-97389164D02*
X86432142Y-97389164D01*
X86432142Y-97389164D02*
X86539285Y-97424878D01*
X86539285Y-97424878D02*
X86574999Y-97460592D01*
X86824999Y-97389164D02*
X87289285Y-97389164D01*
X87289285Y-97389164D02*
X87039285Y-97674878D01*
X87039285Y-97674878D02*
X87146428Y-97674878D01*
X87146428Y-97674878D02*
X87217857Y-97710592D01*
X87217857Y-97710592D02*
X87253571Y-97746307D01*
X87253571Y-97746307D02*
X87289285Y-97817735D01*
X87289285Y-97817735D02*
X87289285Y-97996307D01*
X87289285Y-97996307D02*
X87253571Y-98067735D01*
X87253571Y-98067735D02*
X87217857Y-98103450D01*
X87217857Y-98103450D02*
X87146428Y-98139164D01*
X87146428Y-98139164D02*
X86932142Y-98139164D01*
X86932142Y-98139164D02*
X86860714Y-98103450D01*
X86860714Y-98103450D02*
X86824999Y-98067735D01*
X117766624Y-105023259D02*
X117516624Y-104666116D01*
X117338053Y-105023259D02*
X117338053Y-104273259D01*
X117338053Y-104273259D02*
X117623767Y-104273259D01*
X117623767Y-104273259D02*
X117695196Y-104308973D01*
X117695196Y-104308973D02*
X117730910Y-104344687D01*
X117730910Y-104344687D02*
X117766624Y-104416116D01*
X117766624Y-104416116D02*
X117766624Y-104523259D01*
X117766624Y-104523259D02*
X117730910Y-104594687D01*
X117730910Y-104594687D02*
X117695196Y-104630402D01*
X117695196Y-104630402D02*
X117623767Y-104666116D01*
X117623767Y-104666116D02*
X117338053Y-104666116D01*
X118409482Y-104523259D02*
X118409482Y-105023259D01*
X118230910Y-104237545D02*
X118052339Y-104773259D01*
X118052339Y-104773259D02*
X118516624Y-104773259D01*
X94967735Y-107025000D02*
X95003450Y-107060714D01*
X95003450Y-107060714D02*
X95039164Y-107167857D01*
X95039164Y-107167857D02*
X95039164Y-107239285D01*
X95039164Y-107239285D02*
X95003450Y-107346428D01*
X95003450Y-107346428D02*
X94932021Y-107417857D01*
X94932021Y-107417857D02*
X94860592Y-107453571D01*
X94860592Y-107453571D02*
X94717735Y-107489285D01*
X94717735Y-107489285D02*
X94610592Y-107489285D01*
X94610592Y-107489285D02*
X94467735Y-107453571D01*
X94467735Y-107453571D02*
X94396307Y-107417857D01*
X94396307Y-107417857D02*
X94324878Y-107346428D01*
X94324878Y-107346428D02*
X94289164Y-107239285D01*
X94289164Y-107239285D02*
X94289164Y-107167857D01*
X94289164Y-107167857D02*
X94324878Y-107060714D01*
X94324878Y-107060714D02*
X94360592Y-107025000D01*
X94289164Y-106346428D02*
X94289164Y-106703571D01*
X94289164Y-106703571D02*
X94646307Y-106739285D01*
X94646307Y-106739285D02*
X94610592Y-106703571D01*
X94610592Y-106703571D02*
X94574878Y-106632143D01*
X94574878Y-106632143D02*
X94574878Y-106453571D01*
X94574878Y-106453571D02*
X94610592Y-106382143D01*
X94610592Y-106382143D02*
X94646307Y-106346428D01*
X94646307Y-106346428D02*
X94717735Y-106310714D01*
X94717735Y-106310714D02*
X94896307Y-106310714D01*
X94896307Y-106310714D02*
X94967735Y-106346428D01*
X94967735Y-106346428D02*
X95003450Y-106382143D01*
X95003450Y-106382143D02*
X95039164Y-106453571D01*
X95039164Y-106453571D02*
X95039164Y-106632143D01*
X95039164Y-106632143D02*
X95003450Y-106703571D01*
X95003450Y-106703571D02*
X94967735Y-106739285D01*
X108971314Y-89816666D02*
X108637981Y-90049999D01*
X108971314Y-90216666D02*
X108271314Y-90216666D01*
X108271314Y-90216666D02*
X108271314Y-89949999D01*
X108271314Y-89949999D02*
X108304647Y-89883333D01*
X108304647Y-89883333D02*
X108337981Y-89849999D01*
X108337981Y-89849999D02*
X108404647Y-89816666D01*
X108404647Y-89816666D02*
X108504647Y-89816666D01*
X108504647Y-89816666D02*
X108571314Y-89849999D01*
X108571314Y-89849999D02*
X108604647Y-89883333D01*
X108604647Y-89883333D02*
X108637981Y-89949999D01*
X108637981Y-89949999D02*
X108637981Y-90216666D01*
X108971314Y-89149999D02*
X108971314Y-89549999D01*
X108971314Y-89349999D02*
X108271314Y-89349999D01*
X108271314Y-89349999D02*
X108371314Y-89416666D01*
X108371314Y-89416666D02*
X108437981Y-89483333D01*
X108437981Y-89483333D02*
X108471314Y-89549999D01*
X112406561Y-90496139D02*
X112442276Y-90531853D01*
X112442276Y-90531853D02*
X112477990Y-90638996D01*
X112477990Y-90638996D02*
X112477990Y-90710424D01*
X112477990Y-90710424D02*
X112442276Y-90817567D01*
X112442276Y-90817567D02*
X112370847Y-90888996D01*
X112370847Y-90888996D02*
X112299418Y-90924710D01*
X112299418Y-90924710D02*
X112156561Y-90960424D01*
X112156561Y-90960424D02*
X112049418Y-90960424D01*
X112049418Y-90960424D02*
X111906561Y-90924710D01*
X111906561Y-90924710D02*
X111835133Y-90888996D01*
X111835133Y-90888996D02*
X111763704Y-90817567D01*
X111763704Y-90817567D02*
X111727990Y-90710424D01*
X111727990Y-90710424D02*
X111727990Y-90638996D01*
X111727990Y-90638996D02*
X111763704Y-90531853D01*
X111763704Y-90531853D02*
X111799418Y-90496139D01*
X111799418Y-90210424D02*
X111763704Y-90174710D01*
X111763704Y-90174710D02*
X111727990Y-90103282D01*
X111727990Y-90103282D02*
X111727990Y-89924710D01*
X111727990Y-89924710D02*
X111763704Y-89853282D01*
X111763704Y-89853282D02*
X111799418Y-89817567D01*
X111799418Y-89817567D02*
X111870847Y-89781853D01*
X111870847Y-89781853D02*
X111942276Y-89781853D01*
X111942276Y-89781853D02*
X112049418Y-89817567D01*
X112049418Y-89817567D02*
X112477990Y-90246139D01*
X112477990Y-90246139D02*
X112477990Y-89781853D01*
X112477990Y-89067567D02*
X112477990Y-89496138D01*
X112477990Y-89281853D02*
X111727990Y-89281853D01*
X111727990Y-89281853D02*
X111835133Y-89353281D01*
X111835133Y-89353281D02*
X111906561Y-89424710D01*
X111906561Y-89424710D02*
X111942276Y-89496138D01*
X112892856Y-68517735D02*
X112857142Y-68553450D01*
X112857142Y-68553450D02*
X112749999Y-68589164D01*
X112749999Y-68589164D02*
X112678571Y-68589164D01*
X112678571Y-68589164D02*
X112571428Y-68553450D01*
X112571428Y-68553450D02*
X112499999Y-68482021D01*
X112499999Y-68482021D02*
X112464285Y-68410592D01*
X112464285Y-68410592D02*
X112428571Y-68267735D01*
X112428571Y-68267735D02*
X112428571Y-68160592D01*
X112428571Y-68160592D02*
X112464285Y-68017735D01*
X112464285Y-68017735D02*
X112499999Y-67946307D01*
X112499999Y-67946307D02*
X112571428Y-67874878D01*
X112571428Y-67874878D02*
X112678571Y-67839164D01*
X112678571Y-67839164D02*
X112749999Y-67839164D01*
X112749999Y-67839164D02*
X112857142Y-67874878D01*
X112857142Y-67874878D02*
X112892856Y-67910592D01*
X113607142Y-68589164D02*
X113178571Y-68589164D01*
X113392856Y-68589164D02*
X113392856Y-67839164D01*
X113392856Y-67839164D02*
X113321428Y-67946307D01*
X113321428Y-67946307D02*
X113249999Y-68017735D01*
X113249999Y-68017735D02*
X113178571Y-68053450D01*
X113964285Y-68589164D02*
X114107142Y-68589164D01*
X114107142Y-68589164D02*
X114178571Y-68553450D01*
X114178571Y-68553450D02*
X114214285Y-68517735D01*
X114214285Y-68517735D02*
X114285714Y-68410592D01*
X114285714Y-68410592D02*
X114321428Y-68267735D01*
X114321428Y-68267735D02*
X114321428Y-67982021D01*
X114321428Y-67982021D02*
X114285714Y-67910592D01*
X114285714Y-67910592D02*
X114250000Y-67874878D01*
X114250000Y-67874878D02*
X114178571Y-67839164D01*
X114178571Y-67839164D02*
X114035714Y-67839164D01*
X114035714Y-67839164D02*
X113964285Y-67874878D01*
X113964285Y-67874878D02*
X113928571Y-67910592D01*
X113928571Y-67910592D02*
X113892857Y-67982021D01*
X113892857Y-67982021D02*
X113892857Y-68160592D01*
X113892857Y-68160592D02*
X113928571Y-68232021D01*
X113928571Y-68232021D02*
X113964285Y-68267735D01*
X113964285Y-68267735D02*
X114035714Y-68303450D01*
X114035714Y-68303450D02*
X114178571Y-68303450D01*
X114178571Y-68303450D02*
X114250000Y-68267735D01*
X114250000Y-68267735D02*
X114285714Y-68232021D01*
X114285714Y-68232021D02*
X114321428Y-68160592D01*
X96594403Y-83879275D02*
X96630118Y-83914989D01*
X96630118Y-83914989D02*
X96665832Y-84022132D01*
X96665832Y-84022132D02*
X96665832Y-84093560D01*
X96665832Y-84093560D02*
X96630118Y-84200703D01*
X96630118Y-84200703D02*
X96558689Y-84272132D01*
X96558689Y-84272132D02*
X96487260Y-84307846D01*
X96487260Y-84307846D02*
X96344403Y-84343560D01*
X96344403Y-84343560D02*
X96237260Y-84343560D01*
X96237260Y-84343560D02*
X96094403Y-84307846D01*
X96094403Y-84307846D02*
X96022975Y-84272132D01*
X96022975Y-84272132D02*
X95951546Y-84200703D01*
X95951546Y-84200703D02*
X95915832Y-84093560D01*
X95915832Y-84093560D02*
X95915832Y-84022132D01*
X95915832Y-84022132D02*
X95951546Y-83914989D01*
X95951546Y-83914989D02*
X95987260Y-83879275D01*
X96665832Y-83164989D02*
X96665832Y-83593560D01*
X96665832Y-83379275D02*
X95915832Y-83379275D01*
X95915832Y-83379275D02*
X96022975Y-83450703D01*
X96022975Y-83450703D02*
X96094403Y-83522132D01*
X96094403Y-83522132D02*
X96130118Y-83593560D01*
X95915832Y-82914989D02*
X95915832Y-82414989D01*
X95915832Y-82414989D02*
X96665832Y-82736417D01*
X114889285Y-42189164D02*
X115317857Y-42189164D01*
X115103571Y-42939164D02*
X115103571Y-42189164D01*
X115567857Y-42939164D02*
X115567857Y-42189164D01*
X115567857Y-42189164D02*
X115853571Y-42189164D01*
X115853571Y-42189164D02*
X115925000Y-42224878D01*
X115925000Y-42224878D02*
X115960714Y-42260592D01*
X115960714Y-42260592D02*
X115996428Y-42332021D01*
X115996428Y-42332021D02*
X115996428Y-42439164D01*
X115996428Y-42439164D02*
X115960714Y-42510592D01*
X115960714Y-42510592D02*
X115925000Y-42546307D01*
X115925000Y-42546307D02*
X115853571Y-42582021D01*
X115853571Y-42582021D02*
X115567857Y-42582021D01*
X116139286Y-43010592D02*
X116710714Y-43010592D01*
X116817857Y-42189164D02*
X117282143Y-42189164D01*
X117282143Y-42189164D02*
X117032143Y-42474878D01*
X117032143Y-42474878D02*
X117139286Y-42474878D01*
X117139286Y-42474878D02*
X117210715Y-42510592D01*
X117210715Y-42510592D02*
X117246429Y-42546307D01*
X117246429Y-42546307D02*
X117282143Y-42617735D01*
X117282143Y-42617735D02*
X117282143Y-42796307D01*
X117282143Y-42796307D02*
X117246429Y-42867735D01*
X117246429Y-42867735D02*
X117210715Y-42903450D01*
X117210715Y-42903450D02*
X117139286Y-42939164D01*
X117139286Y-42939164D02*
X116925000Y-42939164D01*
X116925000Y-42939164D02*
X116853572Y-42903450D01*
X116853572Y-42903450D02*
X116817857Y-42867735D01*
X117496429Y-42189164D02*
X117746429Y-42939164D01*
X117746429Y-42939164D02*
X117996429Y-42189164D01*
X118639286Y-42939164D02*
X118210715Y-42939164D01*
X118425000Y-42939164D02*
X118425000Y-42189164D01*
X118425000Y-42189164D02*
X118353572Y-42296307D01*
X118353572Y-42296307D02*
X118282143Y-42367735D01*
X118282143Y-42367735D02*
X118210715Y-42403450D01*
X87972075Y-105544321D02*
X87936361Y-105580036D01*
X87936361Y-105580036D02*
X87829218Y-105615750D01*
X87829218Y-105615750D02*
X87757790Y-105615750D01*
X87757790Y-105615750D02*
X87650647Y-105580036D01*
X87650647Y-105580036D02*
X87579218Y-105508607D01*
X87579218Y-105508607D02*
X87543504Y-105437178D01*
X87543504Y-105437178D02*
X87507790Y-105294321D01*
X87507790Y-105294321D02*
X87507790Y-105187178D01*
X87507790Y-105187178D02*
X87543504Y-105044321D01*
X87543504Y-105044321D02*
X87579218Y-104972893D01*
X87579218Y-104972893D02*
X87650647Y-104901464D01*
X87650647Y-104901464D02*
X87757790Y-104865750D01*
X87757790Y-104865750D02*
X87829218Y-104865750D01*
X87829218Y-104865750D02*
X87936361Y-104901464D01*
X87936361Y-104901464D02*
X87972075Y-104937178D01*
X88257790Y-104937178D02*
X88293504Y-104901464D01*
X88293504Y-104901464D02*
X88364933Y-104865750D01*
X88364933Y-104865750D02*
X88543504Y-104865750D01*
X88543504Y-104865750D02*
X88614933Y-104901464D01*
X88614933Y-104901464D02*
X88650647Y-104937178D01*
X88650647Y-104937178D02*
X88686361Y-105008607D01*
X88686361Y-105008607D02*
X88686361Y-105080036D01*
X88686361Y-105080036D02*
X88650647Y-105187178D01*
X88650647Y-105187178D02*
X88222075Y-105615750D01*
X88222075Y-105615750D02*
X88686361Y-105615750D01*
X97545180Y-105033333D02*
X97545180Y-104557143D01*
X97545180Y-104557143D02*
X98545180Y-104557143D01*
X97545180Y-105890476D02*
X97545180Y-105319048D01*
X97545180Y-105604762D02*
X98545180Y-105604762D01*
X98545180Y-105604762D02*
X98402323Y-105509524D01*
X98402323Y-105509524D02*
X98307085Y-105414286D01*
X98307085Y-105414286D02*
X98259466Y-105319048D01*
X91117856Y-71167735D02*
X91082142Y-71203450D01*
X91082142Y-71203450D02*
X90974999Y-71239164D01*
X90974999Y-71239164D02*
X90903571Y-71239164D01*
X90903571Y-71239164D02*
X90796428Y-71203450D01*
X90796428Y-71203450D02*
X90724999Y-71132021D01*
X90724999Y-71132021D02*
X90689285Y-71060592D01*
X90689285Y-71060592D02*
X90653571Y-70917735D01*
X90653571Y-70917735D02*
X90653571Y-70810592D01*
X90653571Y-70810592D02*
X90689285Y-70667735D01*
X90689285Y-70667735D02*
X90724999Y-70596307D01*
X90724999Y-70596307D02*
X90796428Y-70524878D01*
X90796428Y-70524878D02*
X90903571Y-70489164D01*
X90903571Y-70489164D02*
X90974999Y-70489164D01*
X90974999Y-70489164D02*
X91082142Y-70524878D01*
X91082142Y-70524878D02*
X91117856Y-70560592D01*
X91403571Y-70560592D02*
X91439285Y-70524878D01*
X91439285Y-70524878D02*
X91510714Y-70489164D01*
X91510714Y-70489164D02*
X91689285Y-70489164D01*
X91689285Y-70489164D02*
X91760714Y-70524878D01*
X91760714Y-70524878D02*
X91796428Y-70560592D01*
X91796428Y-70560592D02*
X91832142Y-70632021D01*
X91832142Y-70632021D02*
X91832142Y-70703450D01*
X91832142Y-70703450D02*
X91796428Y-70810592D01*
X91796428Y-70810592D02*
X91367856Y-71239164D01*
X91367856Y-71239164D02*
X91832142Y-71239164D01*
X92189285Y-71239164D02*
X92332142Y-71239164D01*
X92332142Y-71239164D02*
X92403571Y-71203450D01*
X92403571Y-71203450D02*
X92439285Y-71167735D01*
X92439285Y-71167735D02*
X92510714Y-71060592D01*
X92510714Y-71060592D02*
X92546428Y-70917735D01*
X92546428Y-70917735D02*
X92546428Y-70632021D01*
X92546428Y-70632021D02*
X92510714Y-70560592D01*
X92510714Y-70560592D02*
X92475000Y-70524878D01*
X92475000Y-70524878D02*
X92403571Y-70489164D01*
X92403571Y-70489164D02*
X92260714Y-70489164D01*
X92260714Y-70489164D02*
X92189285Y-70524878D01*
X92189285Y-70524878D02*
X92153571Y-70560592D01*
X92153571Y-70560592D02*
X92117857Y-70632021D01*
X92117857Y-70632021D02*
X92117857Y-70810592D01*
X92117857Y-70810592D02*
X92153571Y-70882021D01*
X92153571Y-70882021D02*
X92189285Y-70917735D01*
X92189285Y-70917735D02*
X92260714Y-70953450D01*
X92260714Y-70953450D02*
X92403571Y-70953450D01*
X92403571Y-70953450D02*
X92475000Y-70917735D01*
X92475000Y-70917735D02*
X92510714Y-70882021D01*
X92510714Y-70882021D02*
X92546428Y-70810592D01*
X103216624Y-109073259D02*
X102966624Y-108716116D01*
X102788053Y-109073259D02*
X102788053Y-108323259D01*
X102788053Y-108323259D02*
X103073767Y-108323259D01*
X103073767Y-108323259D02*
X103145196Y-108358973D01*
X103145196Y-108358973D02*
X103180910Y-108394687D01*
X103180910Y-108394687D02*
X103216624Y-108466116D01*
X103216624Y-108466116D02*
X103216624Y-108573259D01*
X103216624Y-108573259D02*
X103180910Y-108644687D01*
X103180910Y-108644687D02*
X103145196Y-108680402D01*
X103145196Y-108680402D02*
X103073767Y-108716116D01*
X103073767Y-108716116D02*
X102788053Y-108716116D01*
X103466624Y-108323259D02*
X103966624Y-108323259D01*
X103966624Y-108323259D02*
X103645196Y-109073259D01*
X114366624Y-103723259D02*
X114116624Y-103366116D01*
X113938053Y-103723259D02*
X113938053Y-102973259D01*
X113938053Y-102973259D02*
X114223767Y-102973259D01*
X114223767Y-102973259D02*
X114295196Y-103008973D01*
X114295196Y-103008973D02*
X114330910Y-103044687D01*
X114330910Y-103044687D02*
X114366624Y-103116116D01*
X114366624Y-103116116D02*
X114366624Y-103223259D01*
X114366624Y-103223259D02*
X114330910Y-103294687D01*
X114330910Y-103294687D02*
X114295196Y-103330402D01*
X114295196Y-103330402D02*
X114223767Y-103366116D01*
X114223767Y-103366116D02*
X113938053Y-103366116D01*
X115045196Y-102973259D02*
X114688053Y-102973259D01*
X114688053Y-102973259D02*
X114652339Y-103330402D01*
X114652339Y-103330402D02*
X114688053Y-103294687D01*
X114688053Y-103294687D02*
X114759482Y-103258973D01*
X114759482Y-103258973D02*
X114938053Y-103258973D01*
X114938053Y-103258973D02*
X115009482Y-103294687D01*
X115009482Y-103294687D02*
X115045196Y-103330402D01*
X115045196Y-103330402D02*
X115080910Y-103401830D01*
X115080910Y-103401830D02*
X115080910Y-103580402D01*
X115080910Y-103580402D02*
X115045196Y-103651830D01*
X115045196Y-103651830D02*
X115009482Y-103687545D01*
X115009482Y-103687545D02*
X114938053Y-103723259D01*
X114938053Y-103723259D02*
X114759482Y-103723259D01*
X114759482Y-103723259D02*
X114688053Y-103687545D01*
X114688053Y-103687545D02*
X114652339Y-103651830D01*
X105109360Y-109591238D02*
X105145075Y-109626952D01*
X105145075Y-109626952D02*
X105180789Y-109734095D01*
X105180789Y-109734095D02*
X105180789Y-109805523D01*
X105180789Y-109805523D02*
X105145075Y-109912666D01*
X105145075Y-109912666D02*
X105073646Y-109984095D01*
X105073646Y-109984095D02*
X105002217Y-110019809D01*
X105002217Y-110019809D02*
X104859360Y-110055523D01*
X104859360Y-110055523D02*
X104752217Y-110055523D01*
X104752217Y-110055523D02*
X104609360Y-110019809D01*
X104609360Y-110019809D02*
X104537932Y-109984095D01*
X104537932Y-109984095D02*
X104466503Y-109912666D01*
X104466503Y-109912666D02*
X104430789Y-109805523D01*
X104430789Y-109805523D02*
X104430789Y-109734095D01*
X104430789Y-109734095D02*
X104466503Y-109626952D01*
X104466503Y-109626952D02*
X104502217Y-109591238D01*
X105180789Y-108876952D02*
X105180789Y-109305523D01*
X105180789Y-109091238D02*
X104430789Y-109091238D01*
X104430789Y-109091238D02*
X104537932Y-109162666D01*
X104537932Y-109162666D02*
X104609360Y-109234095D01*
X104609360Y-109234095D02*
X104645075Y-109305523D01*
X104430789Y-108412666D02*
X104430789Y-108341237D01*
X104430789Y-108341237D02*
X104466503Y-108269809D01*
X104466503Y-108269809D02*
X104502217Y-108234095D01*
X104502217Y-108234095D02*
X104573646Y-108198380D01*
X104573646Y-108198380D02*
X104716503Y-108162666D01*
X104716503Y-108162666D02*
X104895075Y-108162666D01*
X104895075Y-108162666D02*
X105037932Y-108198380D01*
X105037932Y-108198380D02*
X105109360Y-108234095D01*
X105109360Y-108234095D02*
X105145075Y-108269809D01*
X105145075Y-108269809D02*
X105180789Y-108341237D01*
X105180789Y-108341237D02*
X105180789Y-108412666D01*
X105180789Y-108412666D02*
X105145075Y-108484095D01*
X105145075Y-108484095D02*
X105109360Y-108519809D01*
X105109360Y-108519809D02*
X105037932Y-108555523D01*
X105037932Y-108555523D02*
X104895075Y-108591237D01*
X104895075Y-108591237D02*
X104716503Y-108591237D01*
X104716503Y-108591237D02*
X104573646Y-108555523D01*
X104573646Y-108555523D02*
X104502217Y-108519809D01*
X104502217Y-108519809D02*
X104466503Y-108484095D01*
X104466503Y-108484095D02*
X104430789Y-108412666D01*
X110842004Y-90548965D02*
X110484861Y-90798965D01*
X110842004Y-90977536D02*
X110092004Y-90977536D01*
X110092004Y-90977536D02*
X110092004Y-90691822D01*
X110092004Y-90691822D02*
X110127718Y-90620393D01*
X110127718Y-90620393D02*
X110163432Y-90584679D01*
X110163432Y-90584679D02*
X110234861Y-90548965D01*
X110234861Y-90548965D02*
X110342004Y-90548965D01*
X110342004Y-90548965D02*
X110413432Y-90584679D01*
X110413432Y-90584679D02*
X110449147Y-90620393D01*
X110449147Y-90620393D02*
X110484861Y-90691822D01*
X110484861Y-90691822D02*
X110484861Y-90977536D01*
X110842004Y-89834679D02*
X110842004Y-90263250D01*
X110842004Y-90048965D02*
X110092004Y-90048965D01*
X110092004Y-90048965D02*
X110199147Y-90120393D01*
X110199147Y-90120393D02*
X110270575Y-90191822D01*
X110270575Y-90191822D02*
X110306290Y-90263250D01*
X110092004Y-89584679D02*
X110092004Y-89120393D01*
X110092004Y-89120393D02*
X110377718Y-89370393D01*
X110377718Y-89370393D02*
X110377718Y-89263250D01*
X110377718Y-89263250D02*
X110413432Y-89191822D01*
X110413432Y-89191822D02*
X110449147Y-89156107D01*
X110449147Y-89156107D02*
X110520575Y-89120393D01*
X110520575Y-89120393D02*
X110699147Y-89120393D01*
X110699147Y-89120393D02*
X110770575Y-89156107D01*
X110770575Y-89156107D02*
X110806290Y-89191822D01*
X110806290Y-89191822D02*
X110842004Y-89263250D01*
X110842004Y-89263250D02*
X110842004Y-89477536D01*
X110842004Y-89477536D02*
X110806290Y-89548964D01*
X110806290Y-89548964D02*
X110770575Y-89584679D01*
X106474999Y-103339164D02*
X106224999Y-102982021D01*
X106046428Y-103339164D02*
X106046428Y-102589164D01*
X106046428Y-102589164D02*
X106332142Y-102589164D01*
X106332142Y-102589164D02*
X106403571Y-102624878D01*
X106403571Y-102624878D02*
X106439285Y-102660592D01*
X106439285Y-102660592D02*
X106474999Y-102732021D01*
X106474999Y-102732021D02*
X106474999Y-102839164D01*
X106474999Y-102839164D02*
X106439285Y-102910592D01*
X106439285Y-102910592D02*
X106403571Y-102946307D01*
X106403571Y-102946307D02*
X106332142Y-102982021D01*
X106332142Y-102982021D02*
X106046428Y-102982021D01*
X107117857Y-102589164D02*
X106974999Y-102589164D01*
X106974999Y-102589164D02*
X106903571Y-102624878D01*
X106903571Y-102624878D02*
X106867857Y-102660592D01*
X106867857Y-102660592D02*
X106796428Y-102767735D01*
X106796428Y-102767735D02*
X106760714Y-102910592D01*
X106760714Y-102910592D02*
X106760714Y-103196307D01*
X106760714Y-103196307D02*
X106796428Y-103267735D01*
X106796428Y-103267735D02*
X106832142Y-103303450D01*
X106832142Y-103303450D02*
X106903571Y-103339164D01*
X106903571Y-103339164D02*
X107046428Y-103339164D01*
X107046428Y-103339164D02*
X107117857Y-103303450D01*
X107117857Y-103303450D02*
X107153571Y-103267735D01*
X107153571Y-103267735D02*
X107189285Y-103196307D01*
X107189285Y-103196307D02*
X107189285Y-103017735D01*
X107189285Y-103017735D02*
X107153571Y-102946307D01*
X107153571Y-102946307D02*
X107117857Y-102910592D01*
X107117857Y-102910592D02*
X107046428Y-102874878D01*
X107046428Y-102874878D02*
X106903571Y-102874878D01*
X106903571Y-102874878D02*
X106832142Y-102910592D01*
X106832142Y-102910592D02*
X106796428Y-102946307D01*
X106796428Y-102946307D02*
X106760714Y-103017735D01*
X93517856Y-97539164D02*
X93267856Y-97182021D01*
X93089285Y-97539164D02*
X93089285Y-96789164D01*
X93089285Y-96789164D02*
X93374999Y-96789164D01*
X93374999Y-96789164D02*
X93446428Y-96824878D01*
X93446428Y-96824878D02*
X93482142Y-96860592D01*
X93482142Y-96860592D02*
X93517856Y-96932021D01*
X93517856Y-96932021D02*
X93517856Y-97039164D01*
X93517856Y-97039164D02*
X93482142Y-97110592D01*
X93482142Y-97110592D02*
X93446428Y-97146307D01*
X93446428Y-97146307D02*
X93374999Y-97182021D01*
X93374999Y-97182021D02*
X93089285Y-97182021D01*
X94232142Y-97539164D02*
X93803571Y-97539164D01*
X94017856Y-97539164D02*
X94017856Y-96789164D01*
X94017856Y-96789164D02*
X93946428Y-96896307D01*
X93946428Y-96896307D02*
X93874999Y-96967735D01*
X93874999Y-96967735D02*
X93803571Y-97003450D01*
X94696428Y-96789164D02*
X94767857Y-96789164D01*
X94767857Y-96789164D02*
X94839285Y-96824878D01*
X94839285Y-96824878D02*
X94875000Y-96860592D01*
X94875000Y-96860592D02*
X94910714Y-96932021D01*
X94910714Y-96932021D02*
X94946428Y-97074878D01*
X94946428Y-97074878D02*
X94946428Y-97253450D01*
X94946428Y-97253450D02*
X94910714Y-97396307D01*
X94910714Y-97396307D02*
X94875000Y-97467735D01*
X94875000Y-97467735D02*
X94839285Y-97503450D01*
X94839285Y-97503450D02*
X94767857Y-97539164D01*
X94767857Y-97539164D02*
X94696428Y-97539164D01*
X94696428Y-97539164D02*
X94625000Y-97503450D01*
X94625000Y-97503450D02*
X94589285Y-97467735D01*
X94589285Y-97467735D02*
X94553571Y-97396307D01*
X94553571Y-97396307D02*
X94517857Y-97253450D01*
X94517857Y-97253450D02*
X94517857Y-97074878D01*
X94517857Y-97074878D02*
X94553571Y-96932021D01*
X94553571Y-96932021D02*
X94589285Y-96860592D01*
X94589285Y-96860592D02*
X94625000Y-96824878D01*
X94625000Y-96824878D02*
X94696428Y-96789164D01*
D12*
X84501966Y-72900000D02*
X84535300Y-72933333D01*
X84535300Y-72933333D02*
X84568633Y-73033333D01*
X84568633Y-73033333D02*
X84568633Y-73100000D01*
X84568633Y-73100000D02*
X84535300Y-73200000D01*
X84535300Y-73200000D02*
X84468633Y-73266667D01*
X84468633Y-73266667D02*
X84401966Y-73300000D01*
X84401966Y-73300000D02*
X84268633Y-73333333D01*
X84268633Y-73333333D02*
X84168633Y-73333333D01*
X84168633Y-73333333D02*
X84035300Y-73300000D01*
X84035300Y-73300000D02*
X83968633Y-73266667D01*
X83968633Y-73266667D02*
X83901966Y-73200000D01*
X83901966Y-73200000D02*
X83868633Y-73100000D01*
X83868633Y-73100000D02*
X83868633Y-73033333D01*
X83868633Y-73033333D02*
X83901966Y-72933333D01*
X83901966Y-72933333D02*
X83935300Y-72900000D01*
X83868633Y-72666667D02*
X83868633Y-72233333D01*
X83868633Y-72233333D02*
X84135300Y-72466667D01*
X84135300Y-72466667D02*
X84135300Y-72366667D01*
X84135300Y-72366667D02*
X84168633Y-72300000D01*
X84168633Y-72300000D02*
X84201966Y-72266667D01*
X84201966Y-72266667D02*
X84268633Y-72233333D01*
X84268633Y-72233333D02*
X84435300Y-72233333D01*
X84435300Y-72233333D02*
X84501966Y-72266667D01*
X84501966Y-72266667D02*
X84535300Y-72300000D01*
X84535300Y-72300000D02*
X84568633Y-72366667D01*
X84568633Y-72366667D02*
X84568633Y-72566667D01*
X84568633Y-72566667D02*
X84535300Y-72633333D01*
X84535300Y-72633333D02*
X84501966Y-72666667D01*
X83935300Y-71966666D02*
X83901966Y-71933333D01*
X83901966Y-71933333D02*
X83868633Y-71866666D01*
X83868633Y-71866666D02*
X83868633Y-71700000D01*
X83868633Y-71700000D02*
X83901966Y-71633333D01*
X83901966Y-71633333D02*
X83935300Y-71600000D01*
X83935300Y-71600000D02*
X84001966Y-71566666D01*
X84001966Y-71566666D02*
X84068633Y-71566666D01*
X84068633Y-71566666D02*
X84168633Y-71600000D01*
X84168633Y-71600000D02*
X84568633Y-72000000D01*
X84568633Y-72000000D02*
X84568633Y-71566666D01*
D14*
X123164360Y-102494342D02*
X123664360Y-102494342D01*
X123664360Y-102494342D02*
X123164360Y-103244342D01*
X123164360Y-103244342D02*
X123664360Y-103244342D01*
X123914361Y-102565770D02*
X123950075Y-102530056D01*
X123950075Y-102530056D02*
X124021504Y-102494342D01*
X124021504Y-102494342D02*
X124200075Y-102494342D01*
X124200075Y-102494342D02*
X124271504Y-102530056D01*
X124271504Y-102530056D02*
X124307218Y-102565770D01*
X124307218Y-102565770D02*
X124342932Y-102637199D01*
X124342932Y-102637199D02*
X124342932Y-102708628D01*
X124342932Y-102708628D02*
X124307218Y-102815770D01*
X124307218Y-102815770D02*
X123878646Y-103244342D01*
X123878646Y-103244342D02*
X124342932Y-103244342D01*
D12*
X75751966Y-73000000D02*
X75785300Y-73033333D01*
X75785300Y-73033333D02*
X75818633Y-73133333D01*
X75818633Y-73133333D02*
X75818633Y-73200000D01*
X75818633Y-73200000D02*
X75785300Y-73300000D01*
X75785300Y-73300000D02*
X75718633Y-73366667D01*
X75718633Y-73366667D02*
X75651966Y-73400000D01*
X75651966Y-73400000D02*
X75518633Y-73433333D01*
X75518633Y-73433333D02*
X75418633Y-73433333D01*
X75418633Y-73433333D02*
X75285300Y-73400000D01*
X75285300Y-73400000D02*
X75218633Y-73366667D01*
X75218633Y-73366667D02*
X75151966Y-73300000D01*
X75151966Y-73300000D02*
X75118633Y-73200000D01*
X75118633Y-73200000D02*
X75118633Y-73133333D01*
X75118633Y-73133333D02*
X75151966Y-73033333D01*
X75151966Y-73033333D02*
X75185300Y-73000000D01*
X75185300Y-72733333D02*
X75151966Y-72700000D01*
X75151966Y-72700000D02*
X75118633Y-72633333D01*
X75118633Y-72633333D02*
X75118633Y-72466667D01*
X75118633Y-72466667D02*
X75151966Y-72400000D01*
X75151966Y-72400000D02*
X75185300Y-72366667D01*
X75185300Y-72366667D02*
X75251966Y-72333333D01*
X75251966Y-72333333D02*
X75318633Y-72333333D01*
X75318633Y-72333333D02*
X75418633Y-72366667D01*
X75418633Y-72366667D02*
X75818633Y-72766667D01*
X75818633Y-72766667D02*
X75818633Y-72333333D01*
X75118633Y-71700000D02*
X75118633Y-72033333D01*
X75118633Y-72033333D02*
X75451966Y-72066666D01*
X75451966Y-72066666D02*
X75418633Y-72033333D01*
X75418633Y-72033333D02*
X75385300Y-71966666D01*
X75385300Y-71966666D02*
X75385300Y-71800000D01*
X75385300Y-71800000D02*
X75418633Y-71733333D01*
X75418633Y-71733333D02*
X75451966Y-71700000D01*
X75451966Y-71700000D02*
X75518633Y-71666666D01*
X75518633Y-71666666D02*
X75685300Y-71666666D01*
X75685300Y-71666666D02*
X75751966Y-71700000D01*
X75751966Y-71700000D02*
X75785300Y-71733333D01*
X75785300Y-71733333D02*
X75818633Y-71800000D01*
X75818633Y-71800000D02*
X75818633Y-71966666D01*
X75818633Y-71966666D02*
X75785300Y-72033333D01*
X75785300Y-72033333D02*
X75751966Y-72066666D01*
D11*
X118884819Y-48791666D02*
X118408628Y-49124999D01*
X118884819Y-49363094D02*
X117884819Y-49363094D01*
X117884819Y-49363094D02*
X117884819Y-48982142D01*
X117884819Y-48982142D02*
X117932438Y-48886904D01*
X117932438Y-48886904D02*
X117980057Y-48839285D01*
X117980057Y-48839285D02*
X118075295Y-48791666D01*
X118075295Y-48791666D02*
X118218152Y-48791666D01*
X118218152Y-48791666D02*
X118313390Y-48839285D01*
X118313390Y-48839285D02*
X118361009Y-48886904D01*
X118361009Y-48886904D02*
X118408628Y-48982142D01*
X118408628Y-48982142D02*
X118408628Y-49363094D01*
X117884819Y-48458332D02*
X117884819Y-47839285D01*
X117884819Y-47839285D02*
X118265771Y-48172618D01*
X118265771Y-48172618D02*
X118265771Y-48029761D01*
X118265771Y-48029761D02*
X118313390Y-47934523D01*
X118313390Y-47934523D02*
X118361009Y-47886904D01*
X118361009Y-47886904D02*
X118456247Y-47839285D01*
X118456247Y-47839285D02*
X118694342Y-47839285D01*
X118694342Y-47839285D02*
X118789580Y-47886904D01*
X118789580Y-47886904D02*
X118837200Y-47934523D01*
X118837200Y-47934523D02*
X118884819Y-48029761D01*
X118884819Y-48029761D02*
X118884819Y-48315475D01*
X118884819Y-48315475D02*
X118837200Y-48410713D01*
X118837200Y-48410713D02*
X118789580Y-48458332D01*
D12*
X80851966Y-72950000D02*
X80885300Y-72983333D01*
X80885300Y-72983333D02*
X80918633Y-73083333D01*
X80918633Y-73083333D02*
X80918633Y-73150000D01*
X80918633Y-73150000D02*
X80885300Y-73250000D01*
X80885300Y-73250000D02*
X80818633Y-73316667D01*
X80818633Y-73316667D02*
X80751966Y-73350000D01*
X80751966Y-73350000D02*
X80618633Y-73383333D01*
X80618633Y-73383333D02*
X80518633Y-73383333D01*
X80518633Y-73383333D02*
X80385300Y-73350000D01*
X80385300Y-73350000D02*
X80318633Y-73316667D01*
X80318633Y-73316667D02*
X80251966Y-73250000D01*
X80251966Y-73250000D02*
X80218633Y-73150000D01*
X80218633Y-73150000D02*
X80218633Y-73083333D01*
X80218633Y-73083333D02*
X80251966Y-72983333D01*
X80251966Y-72983333D02*
X80285300Y-72950000D01*
X80218633Y-72716667D02*
X80218633Y-72283333D01*
X80218633Y-72283333D02*
X80485300Y-72516667D01*
X80485300Y-72516667D02*
X80485300Y-72416667D01*
X80485300Y-72416667D02*
X80518633Y-72350000D01*
X80518633Y-72350000D02*
X80551966Y-72316667D01*
X80551966Y-72316667D02*
X80618633Y-72283333D01*
X80618633Y-72283333D02*
X80785300Y-72283333D01*
X80785300Y-72283333D02*
X80851966Y-72316667D01*
X80851966Y-72316667D02*
X80885300Y-72350000D01*
X80885300Y-72350000D02*
X80918633Y-72416667D01*
X80918633Y-72416667D02*
X80918633Y-72616667D01*
X80918633Y-72616667D02*
X80885300Y-72683333D01*
X80885300Y-72683333D02*
X80851966Y-72716667D01*
X80451966Y-71683333D02*
X80918633Y-71683333D01*
X80185300Y-71850000D02*
X80685300Y-72016666D01*
X80685300Y-72016666D02*
X80685300Y-71583333D01*
D11*
X105167735Y-101332143D02*
X105203450Y-101367857D01*
X105203450Y-101367857D02*
X105239164Y-101475000D01*
X105239164Y-101475000D02*
X105239164Y-101546428D01*
X105239164Y-101546428D02*
X105203450Y-101653571D01*
X105203450Y-101653571D02*
X105132021Y-101725000D01*
X105132021Y-101725000D02*
X105060592Y-101760714D01*
X105060592Y-101760714D02*
X104917735Y-101796428D01*
X104917735Y-101796428D02*
X104810592Y-101796428D01*
X104810592Y-101796428D02*
X104667735Y-101760714D01*
X104667735Y-101760714D02*
X104596307Y-101725000D01*
X104596307Y-101725000D02*
X104524878Y-101653571D01*
X104524878Y-101653571D02*
X104489164Y-101546428D01*
X104489164Y-101546428D02*
X104489164Y-101475000D01*
X104489164Y-101475000D02*
X104524878Y-101367857D01*
X104524878Y-101367857D02*
X104560592Y-101332143D01*
X105239164Y-100617857D02*
X105239164Y-101046428D01*
X105239164Y-100832143D02*
X104489164Y-100832143D01*
X104489164Y-100832143D02*
X104596307Y-100903571D01*
X104596307Y-100903571D02*
X104667735Y-100975000D01*
X104667735Y-100975000D02*
X104703450Y-101046428D01*
X104739164Y-99975000D02*
X105239164Y-99975000D01*
X104453450Y-100153571D02*
X104989164Y-100332142D01*
X104989164Y-100332142D02*
X104989164Y-99867857D01*
D14*
X102264999Y-101369035D02*
X102229285Y-101404750D01*
X102229285Y-101404750D02*
X102122142Y-101440464D01*
X102122142Y-101440464D02*
X102050714Y-101440464D01*
X102050714Y-101440464D02*
X101943571Y-101404750D01*
X101943571Y-101404750D02*
X101872142Y-101333321D01*
X101872142Y-101333321D02*
X101836428Y-101261892D01*
X101836428Y-101261892D02*
X101800714Y-101119035D01*
X101800714Y-101119035D02*
X101800714Y-101011892D01*
X101800714Y-101011892D02*
X101836428Y-100869035D01*
X101836428Y-100869035D02*
X101872142Y-100797607D01*
X101872142Y-100797607D02*
X101943571Y-100726178D01*
X101943571Y-100726178D02*
X102050714Y-100690464D01*
X102050714Y-100690464D02*
X102122142Y-100690464D01*
X102122142Y-100690464D02*
X102229285Y-100726178D01*
X102229285Y-100726178D02*
X102264999Y-100761892D01*
X102514999Y-100690464D02*
X103014999Y-100690464D01*
X103014999Y-100690464D02*
X102693571Y-101440464D01*
D11*
X109309482Y-108823259D02*
X109309482Y-108073259D01*
X110095196Y-108751830D02*
X110059482Y-108787545D01*
X110059482Y-108787545D02*
X109952339Y-108823259D01*
X109952339Y-108823259D02*
X109880911Y-108823259D01*
X109880911Y-108823259D02*
X109773768Y-108787545D01*
X109773768Y-108787545D02*
X109702339Y-108716116D01*
X109702339Y-108716116D02*
X109666625Y-108644687D01*
X109666625Y-108644687D02*
X109630911Y-108501830D01*
X109630911Y-108501830D02*
X109630911Y-108394687D01*
X109630911Y-108394687D02*
X109666625Y-108251830D01*
X109666625Y-108251830D02*
X109702339Y-108180402D01*
X109702339Y-108180402D02*
X109773768Y-108108973D01*
X109773768Y-108108973D02*
X109880911Y-108073259D01*
X109880911Y-108073259D02*
X109952339Y-108073259D01*
X109952339Y-108073259D02*
X110059482Y-108108973D01*
X110059482Y-108108973D02*
X110095196Y-108144687D01*
X110380911Y-108144687D02*
X110416625Y-108108973D01*
X110416625Y-108108973D02*
X110488054Y-108073259D01*
X110488054Y-108073259D02*
X110666625Y-108073259D01*
X110666625Y-108073259D02*
X110738054Y-108108973D01*
X110738054Y-108108973D02*
X110773768Y-108144687D01*
X110773768Y-108144687D02*
X110809482Y-108216116D01*
X110809482Y-108216116D02*
X110809482Y-108287545D01*
X110809482Y-108287545D02*
X110773768Y-108394687D01*
X110773768Y-108394687D02*
X110345196Y-108823259D01*
X110345196Y-108823259D02*
X110809482Y-108823259D01*
D12*
X82049999Y-72351966D02*
X82016666Y-72385300D01*
X82016666Y-72385300D02*
X81916666Y-72418633D01*
X81916666Y-72418633D02*
X81849999Y-72418633D01*
X81849999Y-72418633D02*
X81749999Y-72385300D01*
X81749999Y-72385300D02*
X81683333Y-72318633D01*
X81683333Y-72318633D02*
X81649999Y-72251966D01*
X81649999Y-72251966D02*
X81616666Y-72118633D01*
X81616666Y-72118633D02*
X81616666Y-72018633D01*
X81616666Y-72018633D02*
X81649999Y-71885300D01*
X81649999Y-71885300D02*
X81683333Y-71818633D01*
X81683333Y-71818633D02*
X81749999Y-71751966D01*
X81749999Y-71751966D02*
X81849999Y-71718633D01*
X81849999Y-71718633D02*
X81916666Y-71718633D01*
X81916666Y-71718633D02*
X82016666Y-71751966D01*
X82016666Y-71751966D02*
X82049999Y-71785300D01*
X82283333Y-71718633D02*
X82716666Y-71718633D01*
X82716666Y-71718633D02*
X82483333Y-71985300D01*
X82483333Y-71985300D02*
X82583333Y-71985300D01*
X82583333Y-71985300D02*
X82649999Y-72018633D01*
X82649999Y-72018633D02*
X82683333Y-72051966D01*
X82683333Y-72051966D02*
X82716666Y-72118633D01*
X82716666Y-72118633D02*
X82716666Y-72285300D01*
X82716666Y-72285300D02*
X82683333Y-72351966D01*
X82683333Y-72351966D02*
X82649999Y-72385300D01*
X82649999Y-72385300D02*
X82583333Y-72418633D01*
X82583333Y-72418633D02*
X82383333Y-72418633D01*
X82383333Y-72418633D02*
X82316666Y-72385300D01*
X82316666Y-72385300D02*
X82283333Y-72351966D01*
X82950000Y-71718633D02*
X83383333Y-71718633D01*
X83383333Y-71718633D02*
X83150000Y-71985300D01*
X83150000Y-71985300D02*
X83250000Y-71985300D01*
X83250000Y-71985300D02*
X83316666Y-72018633D01*
X83316666Y-72018633D02*
X83350000Y-72051966D01*
X83350000Y-72051966D02*
X83383333Y-72118633D01*
X83383333Y-72118633D02*
X83383333Y-72285300D01*
X83383333Y-72285300D02*
X83350000Y-72351966D01*
X83350000Y-72351966D02*
X83316666Y-72385300D01*
X83316666Y-72385300D02*
X83250000Y-72418633D01*
X83250000Y-72418633D02*
X83050000Y-72418633D01*
X83050000Y-72418633D02*
X82983333Y-72385300D01*
X82983333Y-72385300D02*
X82950000Y-72351966D01*
D11*
X88413173Y-103404277D02*
X88163173Y-103047134D01*
X87984602Y-103404277D02*
X87984602Y-102654277D01*
X87984602Y-102654277D02*
X88270316Y-102654277D01*
X88270316Y-102654277D02*
X88341745Y-102689991D01*
X88341745Y-102689991D02*
X88377459Y-102725705D01*
X88377459Y-102725705D02*
X88413173Y-102797134D01*
X88413173Y-102797134D02*
X88413173Y-102904277D01*
X88413173Y-102904277D02*
X88377459Y-102975705D01*
X88377459Y-102975705D02*
X88341745Y-103011420D01*
X88341745Y-103011420D02*
X88270316Y-103047134D01*
X88270316Y-103047134D02*
X87984602Y-103047134D01*
X88841745Y-102975705D02*
X88770316Y-102939991D01*
X88770316Y-102939991D02*
X88734602Y-102904277D01*
X88734602Y-102904277D02*
X88698888Y-102832848D01*
X88698888Y-102832848D02*
X88698888Y-102797134D01*
X88698888Y-102797134D02*
X88734602Y-102725705D01*
X88734602Y-102725705D02*
X88770316Y-102689991D01*
X88770316Y-102689991D02*
X88841745Y-102654277D01*
X88841745Y-102654277D02*
X88984602Y-102654277D01*
X88984602Y-102654277D02*
X89056031Y-102689991D01*
X89056031Y-102689991D02*
X89091745Y-102725705D01*
X89091745Y-102725705D02*
X89127459Y-102797134D01*
X89127459Y-102797134D02*
X89127459Y-102832848D01*
X89127459Y-102832848D02*
X89091745Y-102904277D01*
X89091745Y-102904277D02*
X89056031Y-102939991D01*
X89056031Y-102939991D02*
X88984602Y-102975705D01*
X88984602Y-102975705D02*
X88841745Y-102975705D01*
X88841745Y-102975705D02*
X88770316Y-103011420D01*
X88770316Y-103011420D02*
X88734602Y-103047134D01*
X88734602Y-103047134D02*
X88698888Y-103118563D01*
X88698888Y-103118563D02*
X88698888Y-103261420D01*
X88698888Y-103261420D02*
X88734602Y-103332848D01*
X88734602Y-103332848D02*
X88770316Y-103368563D01*
X88770316Y-103368563D02*
X88841745Y-103404277D01*
X88841745Y-103404277D02*
X88984602Y-103404277D01*
X88984602Y-103404277D02*
X89056031Y-103368563D01*
X89056031Y-103368563D02*
X89091745Y-103332848D01*
X89091745Y-103332848D02*
X89127459Y-103261420D01*
X89127459Y-103261420D02*
X89127459Y-103118563D01*
X89127459Y-103118563D02*
X89091745Y-103047134D01*
X89091745Y-103047134D02*
X89056031Y-103011420D01*
X89056031Y-103011420D02*
X88984602Y-102975705D01*
D14*
X130317856Y-87340464D02*
X130067856Y-86983321D01*
X129889285Y-87340464D02*
X129889285Y-86590464D01*
X129889285Y-86590464D02*
X130174999Y-86590464D01*
X130174999Y-86590464D02*
X130246428Y-86626178D01*
X130246428Y-86626178D02*
X130282142Y-86661892D01*
X130282142Y-86661892D02*
X130317856Y-86733321D01*
X130317856Y-86733321D02*
X130317856Y-86840464D01*
X130317856Y-86840464D02*
X130282142Y-86911892D01*
X130282142Y-86911892D02*
X130246428Y-86947607D01*
X130246428Y-86947607D02*
X130174999Y-86983321D01*
X130174999Y-86983321D02*
X129889285Y-86983321D01*
X131032142Y-87340464D02*
X130603571Y-87340464D01*
X130817856Y-87340464D02*
X130817856Y-86590464D01*
X130817856Y-86590464D02*
X130746428Y-86697607D01*
X130746428Y-86697607D02*
X130674999Y-86769035D01*
X130674999Y-86769035D02*
X130603571Y-86804750D01*
X131675000Y-86840464D02*
X131675000Y-87340464D01*
X131496428Y-86554750D02*
X131317857Y-87090464D01*
X131317857Y-87090464D02*
X131782142Y-87090464D01*
D11*
X120217735Y-71957143D02*
X120253450Y-71992857D01*
X120253450Y-71992857D02*
X120289164Y-72100000D01*
X120289164Y-72100000D02*
X120289164Y-72171428D01*
X120289164Y-72171428D02*
X120253450Y-72278571D01*
X120253450Y-72278571D02*
X120182021Y-72350000D01*
X120182021Y-72350000D02*
X120110592Y-72385714D01*
X120110592Y-72385714D02*
X119967735Y-72421428D01*
X119967735Y-72421428D02*
X119860592Y-72421428D01*
X119860592Y-72421428D02*
X119717735Y-72385714D01*
X119717735Y-72385714D02*
X119646307Y-72350000D01*
X119646307Y-72350000D02*
X119574878Y-72278571D01*
X119574878Y-72278571D02*
X119539164Y-72171428D01*
X119539164Y-72171428D02*
X119539164Y-72100000D01*
X119539164Y-72100000D02*
X119574878Y-71992857D01*
X119574878Y-71992857D02*
X119610592Y-71957143D01*
X120289164Y-71242857D02*
X120289164Y-71671428D01*
X120289164Y-71457143D02*
X119539164Y-71457143D01*
X119539164Y-71457143D02*
X119646307Y-71528571D01*
X119646307Y-71528571D02*
X119717735Y-71600000D01*
X119717735Y-71600000D02*
X119753450Y-71671428D01*
X119860592Y-70814285D02*
X119824878Y-70885714D01*
X119824878Y-70885714D02*
X119789164Y-70921428D01*
X119789164Y-70921428D02*
X119717735Y-70957142D01*
X119717735Y-70957142D02*
X119682021Y-70957142D01*
X119682021Y-70957142D02*
X119610592Y-70921428D01*
X119610592Y-70921428D02*
X119574878Y-70885714D01*
X119574878Y-70885714D02*
X119539164Y-70814285D01*
X119539164Y-70814285D02*
X119539164Y-70671428D01*
X119539164Y-70671428D02*
X119574878Y-70600000D01*
X119574878Y-70600000D02*
X119610592Y-70564285D01*
X119610592Y-70564285D02*
X119682021Y-70528571D01*
X119682021Y-70528571D02*
X119717735Y-70528571D01*
X119717735Y-70528571D02*
X119789164Y-70564285D01*
X119789164Y-70564285D02*
X119824878Y-70600000D01*
X119824878Y-70600000D02*
X119860592Y-70671428D01*
X119860592Y-70671428D02*
X119860592Y-70814285D01*
X119860592Y-70814285D02*
X119896307Y-70885714D01*
X119896307Y-70885714D02*
X119932021Y-70921428D01*
X119932021Y-70921428D02*
X120003450Y-70957142D01*
X120003450Y-70957142D02*
X120146307Y-70957142D01*
X120146307Y-70957142D02*
X120217735Y-70921428D01*
X120217735Y-70921428D02*
X120253450Y-70885714D01*
X120253450Y-70885714D02*
X120289164Y-70814285D01*
X120289164Y-70814285D02*
X120289164Y-70671428D01*
X120289164Y-70671428D02*
X120253450Y-70600000D01*
X120253450Y-70600000D02*
X120217735Y-70564285D01*
X120217735Y-70564285D02*
X120146307Y-70528571D01*
X120146307Y-70528571D02*
X120003450Y-70528571D01*
X120003450Y-70528571D02*
X119932021Y-70564285D01*
X119932021Y-70564285D02*
X119896307Y-70600000D01*
X119896307Y-70600000D02*
X119860592Y-70671428D01*
D15*
%TO.C,D1*%
X115963000Y-87412500D02*
X115963000Y-87854460D01*
X115963000Y-90145540D02*
X115963000Y-90587500D01*
X115963000Y-90587500D02*
X120966800Y-90587500D01*
X120966800Y-87412500D02*
X115963000Y-87412500D01*
X120966800Y-87854460D02*
X120966800Y-87412500D01*
X120966800Y-90587500D02*
X120966800Y-90145540D01*
X121347800Y-89000000D02*
X122617800Y-89000000D01*
X121601800Y-89635000D02*
X121601800Y-88365000D01*
X122363800Y-89000000D02*
X121601800Y-88365000D01*
X122363800Y-89000000D02*
X121601800Y-88492000D01*
X122363800Y-89000000D02*
X121601800Y-88619000D01*
X122363800Y-89000000D02*
X121601800Y-88746000D01*
X122363800Y-89000000D02*
X121601800Y-88873000D01*
X122363800Y-89000000D02*
X121601800Y-89127000D01*
X122363800Y-89000000D02*
X121601800Y-89254000D01*
X122363800Y-89000000D02*
X121601800Y-89381000D01*
X122363800Y-89000000D02*
X121601800Y-89508000D01*
X122363800Y-89000000D02*
X121601800Y-89635000D01*
X122363800Y-89635000D02*
X122363800Y-88365000D01*
%TO.C,D2*%
X117812500Y-91712300D02*
X117812500Y-96716100D01*
X117812500Y-96716100D02*
X118254460Y-96716100D01*
X118254460Y-91712300D02*
X117812500Y-91712300D01*
X118765000Y-97351100D02*
X120035000Y-97351100D01*
X118765000Y-98113100D02*
X120035000Y-98113100D01*
X119400000Y-97097100D02*
X119400000Y-98367100D01*
X119400000Y-98113100D02*
X118765000Y-97351100D01*
X119400000Y-98113100D02*
X118892000Y-97351100D01*
X119400000Y-98113100D02*
X119019000Y-97351100D01*
X119400000Y-98113100D02*
X119146000Y-97351100D01*
X119400000Y-98113100D02*
X119273000Y-97351100D01*
X119400000Y-98113100D02*
X119527000Y-97351100D01*
X119400000Y-98113100D02*
X119654000Y-97351100D01*
X119400000Y-98113100D02*
X119781000Y-97351100D01*
X119400000Y-98113100D02*
X119908000Y-97351100D01*
X119400000Y-98113100D02*
X120035000Y-97351100D01*
X120545540Y-96716100D02*
X120987500Y-96716100D01*
X120987500Y-91712300D02*
X120545540Y-91712300D01*
X120987500Y-96716100D02*
X120987500Y-91712300D01*
%TO.C,U1*%
X77085943Y-79165001D02*
X78355943Y-79800001D01*
X77085943Y-80435001D02*
X77085943Y-79165001D01*
X78355943Y-79800001D02*
X77085943Y-80435001D01*
X78609943Y-75600061D02*
X79314893Y-75600061D01*
X78609943Y-79200003D02*
X78609943Y-75600061D01*
X79149940Y-79700002D02*
X78609943Y-79200003D01*
X89304971Y-75600000D02*
X90009921Y-75600000D01*
X90009921Y-75600000D02*
X90009921Y-79700002D01*
X90009921Y-79700002D02*
X89304971Y-79700002D01*
X92839921Y-79215001D02*
X94109921Y-79850001D01*
X92839921Y-80485001D02*
X92839921Y-79215001D01*
X94109921Y-79850001D02*
X92839921Y-80485001D01*
X94363921Y-75650061D02*
X95068871Y-75650061D01*
X94363921Y-79250003D02*
X94363921Y-75650061D01*
X94903918Y-79750002D02*
X94363921Y-79250003D01*
X105058949Y-75650000D02*
X105763899Y-75650000D01*
X105763899Y-75650000D02*
X105763899Y-79750002D01*
X105763899Y-79750002D02*
X105058949Y-79750002D01*
D12*
%TO.C,J5*%
X119295000Y-45650000D02*
X122653000Y-45650000D01*
X119295000Y-50850000D02*
X119295000Y-45650000D01*
X119800000Y-45650000D02*
X119800000Y-50850000D01*
X119800000Y-50850000D02*
X122660000Y-50850000D01*
X122653000Y-44400000D02*
X126795000Y-44400000D01*
X122653000Y-45650000D02*
X122653000Y-44400000D01*
X122653000Y-50850000D02*
X119295000Y-50850000D01*
X122653000Y-52100000D02*
X122653000Y-50850000D01*
X122660000Y-45280000D02*
X122660000Y-45650000D01*
X122660000Y-45650000D02*
X119800000Y-45650000D01*
X122660000Y-50850000D02*
X122660000Y-51220000D01*
X122660000Y-51220000D02*
X126140000Y-51220000D01*
X125254000Y-45270000D02*
X126163000Y-46026000D01*
X126140000Y-45280000D02*
X122660000Y-45280000D01*
X126140000Y-51220000D02*
X126140000Y-45280000D01*
X126795000Y-44400000D02*
X126795000Y-52100000D01*
X126795000Y-52100000D02*
X122653000Y-52100000D01*
D10*
%TO.C,R15*%
X134427500Y-49950242D02*
X134427500Y-50424758D01*
X135472500Y-49950242D02*
X135472500Y-50424758D01*
%TO.C,C15*%
X119990000Y-107009420D02*
X119990000Y-107290580D01*
X121010000Y-107009420D02*
X121010000Y-107290580D01*
%TO.C,R9*%
X90737258Y-100277500D02*
X90262742Y-100277500D01*
X90737258Y-101322500D02*
X90262742Y-101322500D01*
%TO.C,C26*%
X95561252Y-70665000D02*
X95038748Y-70665000D01*
X95561252Y-72135000D02*
X95038748Y-72135000D01*
%TO.C,J1*%
X122190000Y-108040000D02*
X122190000Y-110750000D01*
X122190000Y-113460000D02*
X122190000Y-110750000D01*
X124750000Y-104870000D02*
X124750000Y-107000000D01*
X125050000Y-105170000D02*
X125050000Y-108040000D01*
X125050000Y-108040000D02*
X122190000Y-108040000D01*
X125050000Y-113460000D02*
X122190000Y-113460000D01*
X125050000Y-116330000D02*
X125050000Y-113460000D01*
X126900000Y-104870000D02*
X124750000Y-104870000D01*
X128750000Y-105170000D02*
X125050000Y-105170000D01*
X128750000Y-110750000D02*
X128750000Y-105170000D01*
X128750000Y-110750000D02*
X128750000Y-116330000D01*
X128750000Y-116330000D02*
X125050000Y-116330000D01*
%TO.C,C4*%
X86490000Y-101740580D02*
X86490000Y-101459420D01*
X87510000Y-101740580D02*
X87510000Y-101459420D01*
%TO.C,C23*%
X113180770Y-98240580D02*
X113180770Y-97959420D01*
X114200770Y-98240580D02*
X114200770Y-97959420D01*
D15*
%TO.C,J2*%
X115323000Y-55205800D02*
X115323000Y-62470200D01*
X115323000Y-62470200D02*
X133357000Y-62470200D01*
X133357000Y-55205800D02*
X115323000Y-55205800D01*
X133357000Y-62470200D02*
X133357000Y-55205800D01*
D16*
X115069000Y-57060000D02*
G75*
G02*
X114307000Y-57060000I-381000J0D01*
G01*
X114307000Y-57060000D02*
G75*
G02*
X115069000Y-57060000I381000J0D01*
G01*
D10*
%TO.C,D6*%
X128465000Y-51915000D02*
X128465000Y-54200000D01*
X129935000Y-51915000D02*
X128465000Y-51915000D01*
X129935000Y-54200000D02*
X129935000Y-51915000D01*
%TO.C,Q1*%
X118075000Y-100330000D02*
X118075000Y-100625000D01*
X118075000Y-103575000D02*
X118075000Y-103870000D01*
X118075000Y-103870000D02*
X120915000Y-103870000D01*
X120915000Y-100330000D02*
X118075000Y-100330000D01*
X120915000Y-100625000D02*
X120915000Y-100330000D01*
X120915000Y-103870000D02*
X120915000Y-103575000D01*
X117585000Y-100620000D02*
X117345000Y-100290000D01*
X117825000Y-100290000D01*
X117585000Y-100620000D01*
G36*
X117585000Y-100620000D02*
G01*
X117345000Y-100290000D01*
X117825000Y-100290000D01*
X117585000Y-100620000D01*
G37*
%TO.C,C12*%
X108815000Y-98561252D02*
X108815000Y-98038748D01*
X110285000Y-98561252D02*
X110285000Y-98038748D01*
D12*
%TO.C,J6*%
X122550000Y-93650000D02*
X125908000Y-93650000D01*
X122550000Y-98850000D02*
X122550000Y-93650000D01*
X123055000Y-93650000D02*
X123055000Y-98850000D01*
X123055000Y-98850000D02*
X125915000Y-98850000D01*
X125908000Y-92400000D02*
X130050000Y-92400000D01*
X125908000Y-93650000D02*
X125908000Y-92400000D01*
X125908000Y-98850000D02*
X122550000Y-98850000D01*
X125908000Y-100100000D02*
X125908000Y-98850000D01*
X125915000Y-93280000D02*
X125915000Y-93650000D01*
X125915000Y-93650000D02*
X123055000Y-93650000D01*
X125915000Y-98850000D02*
X125915000Y-99220000D01*
X125915000Y-99220000D02*
X129395000Y-99220000D01*
X128509000Y-93270000D02*
X129418000Y-94026000D01*
X129395000Y-93280000D02*
X125915000Y-93280000D01*
X129395000Y-99220000D02*
X129395000Y-93280000D01*
X130050000Y-92400000D02*
X130050000Y-100100000D01*
X130050000Y-100100000D02*
X125908000Y-100100000D01*
D10*
%TO.C,C27*%
X95649340Y-72624051D02*
X95368180Y-72624051D01*
X95649340Y-73644051D02*
X95368180Y-73644051D01*
%TO.C,C28*%
X88536252Y-68680000D02*
X88013748Y-68680000D01*
X88536252Y-70150000D02*
X88013748Y-70150000D01*
%TO.C,R12*%
X115842943Y-106761595D02*
X115368427Y-106761595D01*
X115842943Y-107806595D02*
X115368427Y-107806595D01*
%TO.C,C20*%
X110790000Y-70840580D02*
X110790000Y-70559420D01*
X111810000Y-70840580D02*
X111810000Y-70559420D01*
%TO.C,C8*%
X99165000Y-98488748D02*
X99165000Y-99011252D01*
X100635000Y-98488748D02*
X100635000Y-99011252D01*
D17*
%TO.C,IC3*%
X98950000Y-81950000D02*
X100150000Y-81950000D01*
X100500000Y-82050000D02*
X101100000Y-82050000D01*
X100500000Y-84950000D02*
X100500000Y-82050000D01*
X101100000Y-82050000D02*
X101100000Y-84950000D01*
X101100000Y-84950000D02*
X100500000Y-84950000D01*
D12*
%TO.C,U2*%
X125665100Y-70104670D02*
X132395100Y-70104670D01*
X125665100Y-86104670D02*
X125665100Y-70104670D01*
X132395100Y-70104670D02*
X132395100Y-86104670D01*
X132395100Y-86104670D02*
X125665100Y-86104670D01*
D10*
%TO.C,R11*%
X91477500Y-97837258D02*
X91477500Y-97362742D01*
X92522500Y-97837258D02*
X92522500Y-97362742D01*
%TO.C,C6*%
X94761252Y-94765000D02*
X94238748Y-94765000D01*
X94761252Y-96235000D02*
X94238748Y-96235000D01*
%TO.C,C16*%
X94290000Y-83540580D02*
X94290000Y-83259420D01*
X95310000Y-83540580D02*
X95310000Y-83259420D01*
%TO.C,C35*%
X78690000Y-70090580D02*
X78690000Y-69809420D01*
X79710000Y-70090580D02*
X79710000Y-69809420D01*
D15*
%TO.C,J4*%
X62729800Y-52903000D02*
X62729800Y-70937000D01*
X62729800Y-70937000D02*
X69994200Y-70937000D01*
X69994200Y-52903000D02*
X62729800Y-52903000D01*
X69994200Y-70937000D02*
X69994200Y-52903000D01*
D16*
X68521000Y-52268000D02*
G75*
G02*
X67759000Y-52268000I-381000J0D01*
G01*
X67759000Y-52268000D02*
G75*
G02*
X68521000Y-52268000I381000J0D01*
G01*
D10*
%TO.C,C9*%
X96765000Y-98488748D02*
X96765000Y-99011252D01*
X98235000Y-98488748D02*
X98235000Y-99011252D01*
D12*
%TO.C,DS1*%
X72300000Y-44510000D02*
X72300000Y-44510000D01*
X72300000Y-44510000D02*
X72300000Y-65760000D01*
X72300000Y-65760000D02*
X72300000Y-44510000D01*
X72300000Y-65760000D02*
X72300000Y-65760000D01*
X73950000Y-43010000D02*
X73950000Y-43010000D01*
X73950000Y-43010000D02*
X112200000Y-43010000D01*
X74000000Y-67300000D02*
X74000000Y-67300000D01*
X74000000Y-67300000D02*
X80000000Y-67300000D01*
X80000000Y-67300000D02*
X74000000Y-67300000D01*
X80000000Y-67300000D02*
X80000000Y-67300000D01*
D17*
X81000000Y-67850000D02*
X81000000Y-67850000D01*
X81000000Y-67950000D02*
X81000000Y-67950000D01*
X81000000Y-67950000D02*
X81000000Y-67950000D01*
D12*
X105950000Y-67300000D02*
X105950000Y-67300000D01*
X105950000Y-67300000D02*
X111950000Y-67300000D01*
X111950000Y-67300000D02*
X105950000Y-67300000D01*
X111950000Y-67300000D02*
X111950000Y-67300000D01*
X112200000Y-43010000D02*
X73950000Y-43010000D01*
X112200000Y-43010000D02*
X112200000Y-43010000D01*
X113700000Y-44510000D02*
X113700000Y-44510000D01*
X113700000Y-44510000D02*
X113700000Y-65760000D01*
X113700000Y-65760000D02*
X113700000Y-44510000D01*
X113700000Y-65760000D02*
X113700000Y-65760000D01*
D17*
X81000000Y-67850000D02*
G75*
G02*
X81000000Y-67950000I0J-50000D01*
G01*
X81000000Y-67850000D02*
G75*
G02*
X81000000Y-67950000I0J-50000D01*
G01*
X81000000Y-67950000D02*
G75*
G02*
X81000000Y-67850000I0J50000D01*
G01*
D10*
%TO.C,C24*%
X76595697Y-69933991D02*
X76595697Y-70456495D01*
X78065697Y-69933991D02*
X78065697Y-70456495D01*
%TO.C,Q3*%
X126108968Y-87442007D02*
X126108968Y-87737007D01*
X126108968Y-90687007D02*
X126108968Y-90982007D01*
X126108968Y-90982007D02*
X128948968Y-90982007D01*
X128948968Y-87442007D02*
X126108968Y-87442007D01*
X128948968Y-87737007D02*
X128948968Y-87442007D01*
X128948968Y-90982007D02*
X128948968Y-90687007D01*
X129678968Y-91022007D02*
X129198968Y-91022007D01*
X129438968Y-90692007D01*
X129678968Y-91022007D01*
G36*
X129678968Y-91022007D02*
G01*
X129198968Y-91022007D01*
X129438968Y-90692007D01*
X129678968Y-91022007D01*
G37*
%TO.C,C13*%
X106465000Y-98511252D02*
X106465000Y-97988748D01*
X107935000Y-98511252D02*
X107935000Y-97988748D01*
%TO.C,C11*%
X106031625Y-106518515D02*
X106031625Y-106799675D01*
X107051625Y-106518515D02*
X107051625Y-106799675D01*
%TO.C,R17*%
X130557500Y-50042742D02*
X130557500Y-50517258D01*
X131602500Y-50042742D02*
X131602500Y-50517258D01*
%TO.C,C31*%
X85265000Y-70080580D02*
X85265000Y-69799420D01*
X86285000Y-70080580D02*
X86285000Y-69799420D01*
%TO.C,C22*%
X111155770Y-98561252D02*
X111155770Y-98038748D01*
X112625770Y-98561252D02*
X112625770Y-98038748D01*
%TO.C,D3*%
X134265000Y-51827500D02*
X134265000Y-54112500D01*
X135735000Y-51827500D02*
X134265000Y-51827500D01*
X135735000Y-54112500D02*
X135735000Y-51827500D01*
%TO.C,R2*%
X99177500Y-87162742D02*
X99177500Y-87637258D01*
X100222500Y-87162742D02*
X100222500Y-87637258D01*
D17*
%TO.C,Z1*%
X106463403Y-86096426D02*
X102563403Y-86096426D01*
X107523403Y-88696426D02*
X102563403Y-88696426D01*
D10*
%TO.C,C1*%
X100764225Y-104658807D02*
X100764225Y-105181311D01*
X102234225Y-104658807D02*
X102234225Y-105181311D01*
%TO.C,C30*%
X95476217Y-68670137D02*
X94953713Y-68670137D01*
X95476217Y-70140137D02*
X94953713Y-70140137D01*
%TO.C,D5*%
X130365000Y-51915000D02*
X130365000Y-54200000D01*
X131835000Y-51915000D02*
X130365000Y-51915000D01*
X131835000Y-54200000D02*
X131835000Y-51915000D01*
%TO.C,C3*%
X88759420Y-97290000D02*
X89040580Y-97290000D01*
X88759420Y-98310000D02*
X89040580Y-98310000D01*
%TO.C,R4*%
X115828883Y-104211595D02*
X115354367Y-104211595D01*
X115828883Y-105256595D02*
X115354367Y-105256595D01*
%TO.C,C5*%
X93990000Y-104540580D02*
X93990000Y-104259420D01*
X95010000Y-104540580D02*
X95010000Y-104259420D01*
%TO.C,R1*%
X108177500Y-87304607D02*
X108177500Y-87779123D01*
X109222500Y-87304607D02*
X109222500Y-87779123D01*
%TO.C,C21*%
X111590000Y-87359420D02*
X111590000Y-87640580D01*
X112610000Y-87359420D02*
X112610000Y-87640580D01*
%TO.C,C19*%
X112615000Y-70811252D02*
X112615000Y-70288748D01*
X114085000Y-70811252D02*
X114085000Y-70288748D01*
%TO.C,C17*%
X97090000Y-83259420D02*
X97090000Y-83540580D01*
X98110000Y-83259420D02*
X98110000Y-83540580D01*
%TO.C,R18*%
X128652500Y-50017742D02*
X128652500Y-50492258D01*
X129697500Y-50017742D02*
X129697500Y-50492258D01*
%TO.C,D4*%
X132365000Y-51815000D02*
X132365000Y-54100000D01*
X133835000Y-51815000D02*
X132365000Y-51815000D01*
X133835000Y-54100000D02*
X133835000Y-51815000D01*
%TO.C,C2*%
X90438748Y-104565000D02*
X90961252Y-104565000D01*
X90438748Y-106035000D02*
X90961252Y-106035000D01*
D15*
%TO.C,L1*%
X95726700Y-102926700D02*
X95726700Y-107473300D01*
X95726700Y-107473300D02*
X100273300Y-107473300D01*
X100273300Y-102926700D02*
X95726700Y-102926700D01*
X100273300Y-107473300D02*
X100273300Y-102926700D01*
D10*
%TO.C,C29*%
X91481228Y-68679775D02*
X92003732Y-68679775D01*
X91481228Y-70149775D02*
X92003732Y-70149775D01*
%TO.C,R16*%
X132502500Y-49937742D02*
X132502500Y-50412258D01*
X133547500Y-49937742D02*
X133547500Y-50412258D01*
%TO.C,R7*%
X102719125Y-106396837D02*
X102719125Y-106871353D01*
X103764125Y-106396837D02*
X103764125Y-106871353D01*
%TO.C,Q2*%
X109895000Y-81604000D02*
X109895000Y-81899000D01*
X109895000Y-84849000D02*
X109895000Y-85144000D01*
X109895000Y-85144000D02*
X112735000Y-85144000D01*
X112735000Y-81604000D02*
X109895000Y-81604000D01*
X112735000Y-81899000D02*
X112735000Y-81604000D01*
X112735000Y-85144000D02*
X112735000Y-84849000D01*
X109405000Y-81894000D02*
X109165000Y-81564000D01*
X109645000Y-81564000D01*
X109405000Y-81894000D01*
G36*
X109405000Y-81894000D02*
G01*
X109165000Y-81564000D01*
X109645000Y-81564000D01*
X109405000Y-81894000D01*
G37*
%TO.C,R5*%
X112469125Y-105021353D02*
X112469125Y-104546837D01*
X113514125Y-105021353D02*
X113514125Y-104546837D01*
%TO.C,C10*%
X104331625Y-106774675D02*
X104331625Y-106493515D01*
X105351625Y-106774675D02*
X105351625Y-106493515D01*
%TO.C,R13*%
X109877500Y-87262742D02*
X109877500Y-87737258D01*
X110922500Y-87262742D02*
X110922500Y-87737258D01*
%TO.C,R6*%
X104519125Y-103396837D02*
X104519125Y-103871353D01*
X105564125Y-103396837D02*
X105564125Y-103871353D01*
%TO.C,R10*%
X94637258Y-97877500D02*
X94162742Y-97877500D01*
X94637258Y-98922500D02*
X94162742Y-98922500D01*
%TO.C,C32*%
X83690000Y-70105580D02*
X83690000Y-69824420D01*
X84710000Y-70105580D02*
X84710000Y-69824420D01*
%TO.C,J3*%
X115345000Y-65045000D02*
X115345000Y-67195000D01*
X115345000Y-67195000D02*
X117475000Y-67195000D01*
X115645000Y-63195000D02*
X115645000Y-66895000D01*
X115645000Y-66895000D02*
X118515000Y-66895000D01*
X118515000Y-66895000D02*
X118515000Y-69755000D01*
X118515000Y-69755000D02*
X121225000Y-69755000D01*
X121225000Y-63195000D02*
X115645000Y-63195000D01*
X121225000Y-63195000D02*
X126805000Y-63195000D01*
X123935000Y-66895000D02*
X123935000Y-69755000D01*
X123935000Y-69755000D02*
X121225000Y-69755000D01*
X126805000Y-63195000D02*
X126805000Y-66895000D01*
X126805000Y-66895000D02*
X123935000Y-66895000D01*
D17*
%TO.C,Z2*%
X124761504Y-101603878D02*
X129721504Y-101603878D01*
X125821504Y-104203878D02*
X129721504Y-104203878D01*
D10*
%TO.C,C25*%
X74990000Y-69859420D02*
X74990000Y-70140580D01*
X76010000Y-69859420D02*
X76010000Y-70140580D01*
%TO.C,R3*%
X116477500Y-48387742D02*
X116477500Y-48862258D01*
X117522500Y-48387742D02*
X117522500Y-48862258D01*
%TO.C,C34*%
X80390000Y-70115580D02*
X80390000Y-69834420D01*
X81410000Y-70115580D02*
X81410000Y-69834420D01*
%TO.C,C14*%
X104390000Y-98340580D02*
X104390000Y-98059420D01*
X105410000Y-98340580D02*
X105410000Y-98059420D01*
%TO.C,C7*%
X101765000Y-98488748D02*
X101765000Y-99011252D01*
X103235000Y-98488748D02*
X103235000Y-99011252D01*
D17*
%TO.C,IC2*%
X108191625Y-104609095D02*
X109391625Y-104609095D01*
X109741625Y-104709095D02*
X110341625Y-104709095D01*
X109741625Y-107609095D02*
X109741625Y-104709095D01*
X110341625Y-104709095D02*
X110341625Y-107609095D01*
X110341625Y-107609095D02*
X109741625Y-107609095D01*
D10*
%TO.C,C33*%
X82015000Y-70130580D02*
X82015000Y-69849420D01*
X83035000Y-70130580D02*
X83035000Y-69849420D01*
%TO.C,R8*%
X90937258Y-102477500D02*
X90462742Y-102477500D01*
X90937258Y-103522500D02*
X90462742Y-103522500D01*
%TO.C,R14*%
X130377500Y-89437258D02*
X130377500Y-88962742D01*
X131422500Y-89437258D02*
X131422500Y-88962742D01*
%TO.C,C18*%
X117438748Y-70590000D02*
X117961252Y-70590000D01*
X117438748Y-72060000D02*
X117961252Y-72060000D01*
%TD*%
%LPC*%
D18*
%TO.C,D1*%
X119900000Y-89000000D03*
X117029800Y-89000000D03*
%TD*%
D19*
%TO.C,D2*%
X119400000Y-95649300D03*
X119400000Y-92779100D03*
%TD*%
D20*
%TO.C,U1*%
X67600000Y-77100000D03*
X67600000Y-111600000D03*
X117100000Y-77100000D03*
X117100000Y-111600000D03*
D21*
X95663911Y-79850002D03*
X95663910Y-75550061D03*
X96463910Y-79850061D03*
X96463910Y-75550000D03*
X97263910Y-79850061D03*
X97263911Y-75550000D03*
X98063910Y-79850061D03*
X98063909Y-75550000D03*
X98863910Y-79850061D03*
X98863910Y-75550000D03*
X99663910Y-79850061D03*
X99663908Y-75550000D03*
X100463910Y-79850061D03*
X100463909Y-75550000D03*
X101263910Y-79850061D03*
X101263910Y-75550000D03*
X102063909Y-79850002D03*
X102063909Y-75550000D03*
X102863909Y-79850002D03*
X102863909Y-75550000D03*
X103663908Y-79850002D03*
X103663908Y-75550000D03*
X104463909Y-79850002D03*
X104463909Y-75550000D03*
X79909933Y-79800002D03*
X79909933Y-75500000D03*
X80709932Y-79800002D03*
X80709932Y-75500000D03*
X81509933Y-79800002D03*
X81509933Y-75500000D03*
X82309931Y-79800002D03*
X82309931Y-75500000D03*
X83109932Y-79800002D03*
X83109932Y-75500000D03*
X83909930Y-79800002D03*
X83909930Y-75500000D03*
X84709931Y-79800002D03*
X84709931Y-75500000D03*
X85509932Y-79800002D03*
X85509932Y-75500000D03*
X86309931Y-79800002D03*
X86309931Y-75500000D03*
X87109931Y-79800002D03*
X87109931Y-75500000D03*
X87909930Y-79800002D03*
X87909930Y-75500000D03*
X88709931Y-79800002D03*
X88709931Y-75500000D03*
%TD*%
D22*
%TO.C,J5*%
X123060000Y-48250000D03*
D23*
X124400000Y-47000000D03*
X124400000Y-49500000D03*
%TD*%
D24*
%TO.C,R15*%
X134950000Y-49362500D03*
X134950000Y-51012500D03*
%TD*%
D25*
%TO.C,C15*%
X120500000Y-106375000D03*
X120500000Y-107925000D03*
%TD*%
D26*
%TO.C,R9*%
X91325000Y-100800000D03*
X89675000Y-100800000D03*
%TD*%
D27*
%TO.C,C26*%
X96250000Y-71400000D03*
X94350000Y-71400000D03*
%TD*%
D22*
%TO.C,J1*%
X125560000Y-110750000D03*
D28*
X126900000Y-107000000D03*
D29*
X126900000Y-109500000D03*
X126900000Y-112000000D03*
X126900000Y-114500000D03*
%TD*%
D30*
%TO.C,H1*%
X67600000Y-45400000D03*
D31*
X67600000Y-45400000D03*
%TD*%
D32*
%TO.C,C4*%
X87000000Y-102375000D03*
X87000000Y-100825000D03*
%TD*%
%TO.C,C23*%
X113690770Y-98875000D03*
X113690770Y-97325000D03*
%TD*%
D33*
%TO.C,J2*%
X119260000Y-57060000D03*
X119260000Y-59600000D03*
X121800000Y-57060000D03*
X121800000Y-59600000D03*
X124340000Y-57060000D03*
X124340000Y-59600000D03*
X126880000Y-57060000D03*
X126880000Y-59600000D03*
X129420000Y-57060000D03*
X129420000Y-59600000D03*
%TD*%
D34*
%TO.C,D6*%
X129200000Y-52612500D03*
X129200000Y-54187500D03*
%TD*%
D35*
%TO.C,Q1*%
X117760000Y-101125000D03*
X117760000Y-101775000D03*
X117760000Y-102425000D03*
X117760000Y-103075000D03*
D36*
X119700000Y-102100000D03*
%TD*%
D37*
%TO.C,C12*%
X109550000Y-99250000D03*
X109550000Y-97350000D03*
%TD*%
D22*
%TO.C,J6*%
X126315000Y-96250000D03*
D23*
X127655000Y-95000000D03*
X127655000Y-97500000D03*
%TD*%
D30*
%TO.C,H2*%
X132400000Y-45400000D03*
D31*
X132400000Y-45400000D03*
%TD*%
D38*
%TO.C,TP_12V1*%
X133807222Y-100491359D03*
%TD*%
D39*
%TO.C,C27*%
X96283760Y-73134051D03*
X94733760Y-73134051D03*
%TD*%
D27*
%TO.C,C28*%
X89225000Y-69415000D03*
X87325000Y-69415000D03*
%TD*%
D38*
%TO.C,TP_GND1*%
X64400000Y-49600000D03*
%TD*%
D40*
%TO.C,TP_24V1*%
X132300000Y-66700000D03*
%TD*%
D26*
%TO.C,R12*%
X116430685Y-107284095D03*
X114780685Y-107284095D03*
%TD*%
D32*
%TO.C,C20*%
X111300000Y-71475000D03*
X111300000Y-69925000D03*
%TD*%
D41*
%TO.C,C8*%
X99900000Y-97800000D03*
X99900000Y-99700000D03*
%TD*%
D42*
%TO.C,IC3*%
X99550000Y-82525000D03*
X99550000Y-83175000D03*
X99550000Y-83825000D03*
X99550000Y-84475000D03*
X102050000Y-84475000D03*
X102050000Y-83825000D03*
X102050000Y-83175000D03*
X102050000Y-82525000D03*
%TD*%
D43*
%TO.C,U2*%
X130730100Y-83064670D03*
X127330100Y-83064670D03*
X130730100Y-73144670D03*
X127330100Y-73144670D03*
%TD*%
D44*
%TO.C,R11*%
X92000000Y-98425000D03*
X92000000Y-96775000D03*
%TD*%
D27*
%TO.C,C6*%
X95450000Y-95500000D03*
X93550000Y-95500000D03*
%TD*%
D32*
%TO.C,C16*%
X94800000Y-84175000D03*
X94800000Y-82625000D03*
%TD*%
%TO.C,C35*%
X79200000Y-70725000D03*
X79200000Y-69175000D03*
%TD*%
D33*
%TO.C,J4*%
X68140000Y-56840000D03*
X65600000Y-56840000D03*
X68140000Y-59380000D03*
X65600000Y-59380000D03*
X68140000Y-61920000D03*
X65600000Y-61920000D03*
X68140000Y-64460000D03*
X65600000Y-64460000D03*
X68140000Y-67000000D03*
X65600000Y-67000000D03*
%TD*%
D41*
%TO.C,C9*%
X97500000Y-97800000D03*
X97500000Y-99700000D03*
%TD*%
D45*
%TO.C,DS1*%
X81000000Y-66550000D03*
X82500000Y-66550000D03*
X84000000Y-66550000D03*
X85500000Y-66550000D03*
X87000000Y-66550000D03*
X88500000Y-66550000D03*
X90000000Y-66550000D03*
X91500000Y-66550000D03*
X93000000Y-66550000D03*
X94500000Y-66550000D03*
X96000000Y-66550000D03*
X97500000Y-66550000D03*
X99000000Y-66550000D03*
X100500000Y-66550000D03*
X102000000Y-66550000D03*
X103500000Y-66550000D03*
X105000000Y-66550000D03*
D46*
X75700000Y-64510000D03*
X110300000Y-64510000D03*
D22*
X72900000Y-66700000D03*
X113100000Y-66700000D03*
X113100000Y-43600000D03*
X72900000Y-43600000D03*
%TD*%
D41*
%TO.C,C24*%
X77330697Y-69245243D03*
X77330697Y-71145243D03*
%TD*%
D47*
%TO.C,Q3*%
X129263968Y-90187007D03*
X129263968Y-89537007D03*
X129263968Y-88887007D03*
X129263968Y-88237007D03*
D48*
X127323968Y-89212007D03*
%TD*%
D37*
%TO.C,C13*%
X107200000Y-99200000D03*
X107200000Y-97300000D03*
%TD*%
D25*
%TO.C,C11*%
X106541625Y-105884095D03*
X106541625Y-107434095D03*
%TD*%
D24*
%TO.C,R17*%
X131080000Y-49455000D03*
X131080000Y-51105000D03*
%TD*%
D32*
%TO.C,C31*%
X85775000Y-70715000D03*
X85775000Y-69165000D03*
%TD*%
D49*
%TO.C,IC1*%
X95682104Y-101823445D03*
D50*
X95500000Y-102000000D03*
D51*
X95690500Y-101323414D03*
X95690500Y-100823288D03*
D52*
X95683483Y-100309505D03*
D53*
X95500000Y-100133045D03*
D54*
X95003176Y-100528089D03*
D55*
X94503050Y-101073351D03*
D54*
X94002924Y-100528089D03*
D56*
X93517530Y-100133044D03*
D57*
X93334047Y-100309497D03*
D51*
X93315600Y-100823288D03*
X93315600Y-101323414D03*
D56*
X93502798Y-101999993D03*
D58*
X93319315Y-101823469D03*
D59*
X94002924Y-102011373D03*
X95003176Y-102011373D03*
%TD*%
D37*
%TO.C,C22*%
X111890770Y-99250000D03*
X111890770Y-97350000D03*
%TD*%
D34*
%TO.C,D3*%
X135000000Y-52525000D03*
X135000000Y-54100000D03*
%TD*%
D24*
%TO.C,R2*%
X99700000Y-86575000D03*
X99700000Y-88225000D03*
%TD*%
D60*
%TO.C,Z1*%
X106538403Y-87396426D03*
X102488403Y-87396426D03*
%TD*%
D41*
%TO.C,C1*%
X101499225Y-103970059D03*
X101499225Y-105870059D03*
%TD*%
D30*
%TO.C,H3*%
X132400000Y-111600000D03*
D31*
X132400000Y-111600000D03*
%TD*%
D27*
%TO.C,C30*%
X96164965Y-69405137D03*
X94264965Y-69405137D03*
%TD*%
D34*
%TO.C,D5*%
X131100000Y-52612500D03*
X131100000Y-54187500D03*
%TD*%
D61*
%TO.C,C3*%
X88125000Y-97800000D03*
X89675000Y-97800000D03*
%TD*%
D26*
%TO.C,R4*%
X116416625Y-104734095D03*
X114766625Y-104734095D03*
%TD*%
D32*
%TO.C,C5*%
X94500000Y-105175000D03*
X94500000Y-103625000D03*
%TD*%
D24*
%TO.C,R1*%
X108700000Y-86716865D03*
X108700000Y-88366865D03*
%TD*%
D25*
%TO.C,C21*%
X112100000Y-86725000D03*
X112100000Y-88275000D03*
%TD*%
D37*
%TO.C,C19*%
X113350000Y-71500000D03*
X113350000Y-69600000D03*
%TD*%
D25*
%TO.C,C17*%
X97600000Y-82625000D03*
X97600000Y-84175000D03*
%TD*%
D24*
%TO.C,R18*%
X129175000Y-49430000D03*
X129175000Y-51080000D03*
%TD*%
D62*
%TO.C,TP_3V1*%
X116500000Y-45100000D03*
%TD*%
D34*
%TO.C,D4*%
X133100000Y-52512500D03*
X133100000Y-54087500D03*
%TD*%
D63*
%TO.C,C2*%
X89750000Y-105300000D03*
X91650000Y-105300000D03*
%TD*%
D64*
%TO.C,L1*%
X98000000Y-103853800D03*
X98000000Y-106546200D03*
%TD*%
D63*
%TO.C,C29*%
X90792480Y-69414775D03*
X92692480Y-69414775D03*
%TD*%
D24*
%TO.C,R16*%
X133025000Y-49350000D03*
X133025000Y-51000000D03*
%TD*%
%TO.C,R7*%
X103241625Y-105809095D03*
X103241625Y-107459095D03*
%TD*%
D35*
%TO.C,Q2*%
X109580000Y-82399000D03*
X109580000Y-83049000D03*
X109580000Y-83699000D03*
X109580000Y-84349000D03*
D36*
X111520000Y-83374000D03*
%TD*%
D44*
%TO.C,R5*%
X112991625Y-105609095D03*
X112991625Y-103959095D03*
%TD*%
D32*
%TO.C,C10*%
X104841625Y-107409095D03*
X104841625Y-105859095D03*
%TD*%
D24*
%TO.C,R13*%
X110400000Y-86675000D03*
X110400000Y-88325000D03*
%TD*%
%TO.C,R6*%
X105041625Y-102809095D03*
X105041625Y-104459095D03*
%TD*%
D26*
%TO.C,R10*%
X95225000Y-98400000D03*
X93575000Y-98400000D03*
%TD*%
D32*
%TO.C,C32*%
X84200000Y-70740000D03*
X84200000Y-69190000D03*
%TD*%
D22*
%TO.C,J3*%
X121225000Y-66385000D03*
D65*
X117475000Y-65045000D03*
D66*
X119975000Y-65045000D03*
X122475000Y-65045000D03*
X124975000Y-65045000D03*
%TD*%
D60*
%TO.C,Z2*%
X125746504Y-102903878D03*
X129796504Y-102903878D03*
%TD*%
D25*
%TO.C,C25*%
X75500000Y-69225000D03*
X75500000Y-70775000D03*
%TD*%
D24*
%TO.C,R3*%
X117000000Y-47800000D03*
X117000000Y-49450000D03*
%TD*%
D32*
%TO.C,C34*%
X80900000Y-70750000D03*
X80900000Y-69200000D03*
%TD*%
%TO.C,C14*%
X104900000Y-98975000D03*
X104900000Y-97425000D03*
%TD*%
D41*
%TO.C,C7*%
X102500000Y-97800000D03*
X102500000Y-99700000D03*
%TD*%
D42*
%TO.C,IC2*%
X108791625Y-105184095D03*
X108791625Y-105834095D03*
X108791625Y-106484095D03*
X108791625Y-107134095D03*
X111291625Y-107134095D03*
X111291625Y-106484095D03*
X111291625Y-105834095D03*
X111291625Y-105184095D03*
%TD*%
D32*
%TO.C,C33*%
X82525000Y-70765000D03*
X82525000Y-69215000D03*
%TD*%
D26*
%TO.C,R8*%
X91525000Y-103000000D03*
X89875000Y-103000000D03*
%TD*%
D44*
%TO.C,R14*%
X130900000Y-90025000D03*
X130900000Y-88375000D03*
%TD*%
D63*
%TO.C,C18*%
X116750000Y-71325000D03*
X118650000Y-71325000D03*
%TD*%
%LPD*%
M02*
